<?xml version="1.0" encoding="iso-8859-1"?>
<!-- Generator: Adobe Illustrator 16.0.0, SVG Export Plug-In . SVG Version: 6.00 Build 0)  -->
<!DOCTYPE svg PUBLIC "-//W3C//DTD SVG 1.1//EN" "http://www.w3.org/Graphics/SVG/1.1/DTD/svg11.dtd">
<svg version="1.1" id="Layer_1" xmlns="http://www.w3.org/2000/svg" xmlns:xlink="http://www.w3.org/1999/xlink" x="0px" y="0px"
	 width="176px" height="151px" viewBox="0 0 176 151" style="enable-background:new 0 0 176 151;" xml:space="preserve">
<g>
	<path style="fill:#D7F1F9;" d="M165.066,146.316H11.154c-1.157,0-2.104,0.947-2.104,2.104l0,0c0,1.158,0.947,2.105,2.104,2.105
		h153.913c1.156,0,2.104-0.947,2.104-2.105l0,0C167.172,147.264,166.225,146.316,165.066,146.316z"/>
	<g>
		<g>
			<g>
				<path style="fill:#26EDA1;" d="M164.813,98.607c5.986,0,10.84-4.854,10.84-10.842c0-5.986-4.854-10.841-10.84-10.841
					c-1.354,0-2.644,0.261-3.838,0.712c-0.283-5.734-5.009-10.3-10.813-10.3c-5.614,0-10.231,4.268-10.784,9.737
					c-0.982-0.295-2.021-0.455-3.1-0.455c-5.987,0-10.842,4.854-10.842,10.841s4.854,10.841,10.842,10.841L164.813,98.607z"/>
				<polygon style="fill:#06AAF0;" points="154.826,87.918 146.292,87.918 146.292,96.325 142.023,96.325 150.561,107.477 
					159.094,96.325 154.826,96.325 				"/>
			</g>
			<g>
				<g>
					<path style="fill:#26EDA1;" d="M31.988,145.279c0,0-0.224-0.783-0.614-2.155c-0.195-0.687-0.433-1.519-0.705-2.474
						c-0.136-0.479-0.281-0.985-0.434-1.521c-0.174-0.525-0.389-1.064-0.595-1.635c-0.42-1.137-0.876-2.368-1.358-3.671
						c-0.222-0.658-0.512-1.312-0.826-1.974c-0.305-0.664-0.616-1.344-0.932-2.035c-0.641-1.377-1.244-2.83-2.062-4.205
						c-0.771-1.396-1.554-2.815-2.338-4.235c-0.887-1.356-1.774-2.714-2.647-4.05c-0.831-1.366-1.833-2.58-2.75-3.793
						c-0.462-0.604-0.917-1.196-1.361-1.777c-0.437-0.588-0.879-1.15-1.358-1.656c-0.929-1.041-1.806-2.022-2.617-2.931
						c-0.408-0.45-0.787-0.896-1.169-1.295c-0.4-0.384-0.779-0.748-1.136-1.091c-0.712-0.686-1.334-1.281-1.846-1.772
						c-1.023-0.983-1.608-1.545-1.608-1.545l0.539-0.608c0,0,0.593,0.564,1.63,1.554c0.519,0.495,1.148,1.096,1.871,1.784
						c0.361,0.345,0.745,0.711,1.15,1.098c0.388,0.402,0.772,0.85,1.186,1.303c0.821,0.913,1.711,1.903,2.653,2.949
						c0.486,0.512,0.935,1.077,1.378,1.669c0.452,0.585,0.913,1.183,1.382,1.791c0.931,1.222,1.947,2.444,2.792,3.82
						c0.887,1.347,1.788,2.715,2.689,4.083c0.797,1.432,1.594,2.863,2.378,4.271c0.831,1.387,1.446,2.854,2.099,4.243
						c0.322,0.696,0.639,1.384,0.949,2.054c0.319,0.668,0.616,1.327,0.845,1.998c0.494,1.322,0.962,2.573,1.393,3.729
						c0.211,0.578,0.432,1.129,0.609,1.658c0.154,0.535,0.301,1.043,0.439,1.521c0.275,0.954,0.516,1.786,0.714,2.471
						c0.396,1.371,0.622,2.153,0.622,2.153L31.988,145.279z"/>
				</g>
				<path style="fill:#26EDA1;" d="M36.976,132.291c1.949-3.284,0.239-7.898,0.239-7.898s-4.87,0.709-6.819,3.992
					s-0.239,7.898-0.239,7.898S35.026,135.574,36.976,132.291z"/>
				<path style="fill:#26EDA1;" d="M31.112,121.34c1.834-3.091,0.225-7.436,0.225-7.436s-4.585,0.666-6.42,3.758
					c-1.835,3.091-0.225,7.438-0.225,7.438S29.277,124.432,31.112,121.34z"/>
				<path style="fill:#26EDA1;" d="M17.274,118.617c-3.581-0.307-6.792,3.033-6.792,3.033s2.597,3.838,6.178,4.145
					s6.792-3.034,6.792-3.034S20.856,118.923,17.274,118.617z"/>
				<path style="fill:#26EDA1;" d="M12.471,110.322c-3.055-0.262-5.792,2.587-5.792,2.587s2.213,3.272,5.268,3.534
					c3.054,0.262,5.792-2.588,5.792-2.588S15.524,110.584,12.471,110.322z"/>
				<path style="fill:#26EDA1;" d="M22.724,110.413c1.083-2.709-0.756-5.99-0.756-5.99s-3.593,1.111-4.675,3.822
					s0.756,5.991,0.756,5.991S21.642,113.124,22.724,110.413z"/>
				<path style="fill:#26EDA1;" d="M14.653,102.799c0.911-2.281-0.637-5.044-0.637-5.044s-3.023,0.938-3.934,3.22
					c-0.911,2.28,0.636,5.041,0.636,5.041S13.743,105.079,14.653,102.799z"/>
				<path style="fill:#26EDA1;" d="M5.389,103.616c-2.417,0.437-3.939,3.212-3.939,3.212s2.396,2.068,4.813,1.632
					s3.939-3.212,3.939-3.212S7.806,103.182,5.389,103.616z"/>
				<path style="fill:#26EDA1;" d="M5.279,97.234c-1.805-1.655-4.926-1.188-4.926-1.188s-0.195,3.149,1.61,4.806
					c1.805,1.653,4.926,1.188,4.926,1.188S7.084,98.889,5.279,97.234z"/>
				<path style="fill:#26EDA1;" d="M23.622,130.271c-3.698-0.953-7.651,1.979-7.651,1.979s2.042,4.479,5.74,5.433
					c3.697,0.953,7.65-1.979,7.65-1.979S27.319,131.227,23.622,130.271z"/>
			</g>
			<g>
				<g>
					<path style="fill:#26EDA1;" d="M123.857,139.117c0,0,0.533-0.479,1.468-1.319c0.468-0.419,1.034-0.929,1.687-1.514
						c0.324-0.292,0.67-0.603,1.035-0.931c0.38-0.313,0.803-0.623,1.229-0.957c0.861-0.662,1.795-1.381,2.783-2.141
						c0.483-0.395,1.014-0.749,1.563-1.099c0.545-0.357,1.102-0.722,1.668-1.093c1.137-0.735,2.279-1.545,3.548-2.193
						c1.244-0.688,2.507-1.387,3.771-2.085c1.313-0.603,2.625-1.205,3.916-1.8c1.272-0.635,2.604-1.074,3.869-1.555
						c0.633-0.234,1.258-0.467,1.867-0.693c0.607-0.234,1.207-0.449,1.809-0.604c1.193-0.343,2.32-0.668,3.359-0.967
						c0.521-0.146,1.018-0.302,1.494-0.422c0.482-0.101,0.941-0.194,1.372-0.283c0.86-0.179,1.612-0.334,2.229-0.462
						c1.236-0.255,1.943-0.4,1.943-0.4l0.135,0.803c0,0-0.697,0.146-1.92,0.404c-0.611,0.129-1.353,0.285-2.203,0.465
						c-0.427,0.09-0.879,0.186-1.355,0.285c-0.473,0.121-0.962,0.277-1.477,0.424c-1.027,0.301-2.141,0.625-3.317,0.971
						c-0.595,0.154-1.187,0.369-1.786,0.605c-0.604,0.227-1.218,0.457-1.844,0.692c-1.249,0.479-2.563,0.919-3.819,1.553
						c-1.272,0.593-2.567,1.192-3.862,1.794c-1.244,0.694-2.49,1.391-3.717,2.074c-1.25,0.646-2.377,1.451-3.496,2.182
						c-0.559,0.369-1.105,0.73-1.644,1.086c-0.543,0.349-1.063,0.701-1.535,1.09c-0.966,0.748-1.878,1.455-2.722,2.107
						c-0.42,0.329-0.829,0.633-1.204,0.943c-0.363,0.329-0.708,0.643-1.032,0.936c-0.648,0.588-1.214,1.1-1.68,1.521
						c-0.93,0.843-1.463,1.324-1.463,1.324L123.857,139.117z"/>
				</g>
				<path style="fill:#26EDA1;" d="M136.295,122.334c0.068-3.165,3.296-5.66,3.296-5.66s3.116,2.635,3.046,5.799
					c-0.068,3.164-3.296,5.661-3.296,5.661S136.227,125.499,136.295,122.334z"/>
				<path style="fill:#26EDA1;" d="M147.904,126.747c2.818,1.438,3.662,5.433,3.662,5.433s-3.729,1.657-6.547,0.219
					c-2.819-1.439-3.662-5.434-3.662-5.434S145.085,125.309,147.904,126.747z"/>
				<path style="fill:#26EDA1;" d="M155.357,122.787c2.404,1.229,3.123,4.632,3.123,4.632s-3.18,1.413-5.582,0.187
					c-2.404-1.229-3.125-4.633-3.125-4.633S152.954,121.561,155.357,122.787z"/>
				<path style="fill:#26EDA1;" d="M147.654,118.078c0.453-2.529,3.355-4.125,3.355-4.125s2.168,2.506,1.713,5.036
					c-0.455,2.528-3.356,4.124-3.356,4.124S147.2,120.607,147.654,118.078z"/>
				<path style="fill:#26EDA1;" d="M157.232,116.146c0.383-2.127,2.824-3.471,2.824-3.471s1.823,2.107,1.44,4.237
					c-0.382,2.128-2.825,3.471-2.825,3.471S156.852,118.275,157.232,116.146z"/>
				<path style="fill:#26EDA1;" d="M163.773,121.075c1.604,1.452,1.447,4.235,1.447,4.235s-2.755,0.428-4.357-1.024
					c-1.602-1.451-1.446-4.234-1.446-4.234S162.172,119.623,163.773,121.075z"/>
				<path style="fill:#26EDA1;" d="M166.829,116.357c2.12-0.396,4.235,1.406,4.235,1.406s-1.322,2.444-3.441,2.84
					c-2.12,0.396-4.234-1.408-4.234-1.408S164.711,116.752,166.829,116.357z"/>
			</g>
			<g>
				<g>
					<path style="fill:#0083D3;" d="M120.924,24.538H77.22c-7.142,0-12.931,5.79-12.931,12.932v97.315
						c0,7.143,5.79,12.933,12.931,12.933h43.704c7.143,0,12.932-5.79,12.932-12.933V37.469
						C133.855,30.327,128.066,24.538,120.924,24.538z"/>
					<path style="fill:#D7F1F9;" d="M77.22,141.016c-3.435,0-6.23-2.795-6.23-6.229V37.469c0-3.436,2.795-6.229,6.23-6.229h43.704
						c3.436,0,6.23,2.794,6.23,6.229v97.316c0,3.436-2.795,6.23-6.23,6.23H77.22L77.22,141.016z"/>
					<path style="fill:#0083D3;" d="M119.495,28.088H78.648l2.479,5.176c1.288,2.687,4.002,4.397,6.982,4.397h21.924
						c2.979,0,5.693-1.71,6.98-4.397L119.495,28.088z"/>
				</g>
				<g>
					<path style="fill:#0083D3;" d="M102.997,108.482H80.551c-0.747,0-1.353,0.605-1.353,1.354l0,0c0,0.747,0.606,1.354,1.353,1.354
						h22.446c0.746,0,1.353-0.605,1.353-1.354l0,0C104.35,109.089,103.743,108.482,102.997,108.482z"/>
					<path style="fill:#0083D3;" d="M98.657,113.575H80.551c-0.747,0-1.353,0.604-1.353,1.353l0,0c0,0.747,0.606,1.354,1.353,1.354
						h18.106c0.747,0,1.354-0.605,1.354-1.354l0,0C100.012,114.18,99.404,113.575,98.657,113.575z"/>
					<path style="fill:#0083D3;" d="M92.793,119.135H80.551c-0.747,0-1.353,0.606-1.353,1.354l0,0c0,0.745,0.606,1.353,1.353,1.353
						h12.242c0.747,0,1.354-0.605,1.354-1.353l0,0C94.146,119.741,93.54,119.135,92.793,119.135z"/>
				</g>
				<g>
					<rect x="79.176" y="78.182" style="fill:#06AAF0;" width="6.929" height="10.897"/>
					<rect x="90.087" y="74.299" style="fill:#26EDA1;" width="6.931" height="14.78"/>
					<rect x="101.157" y="68.684" style="fill:#06AAF0;" width="6.93" height="20.395"/>
					<rect x="112.425" y="64.259" style="fill:#26EDA1;" width="6.929" height="24.82"/>
				</g>
				<path style="fill:#FFFFFF;" d="M116.212,94.229H82.813c-2.191,0-3.968,1.777-3.968,3.97l0,0c0,2.19,1.777,3.968,3.968,3.968
					h33.398c2.191,0,3.969-1.775,3.969-3.968l0,0C120.18,96.006,118.404,94.229,116.212,94.229z"/>
				<path style="fill:#FFFFFF;" d="M117.41,108.463h-6.777c-1.484,0-2.688,1.203-2.688,2.688v6.779c0,1.482,1.203,2.688,2.688,2.688
					h6.777c1.484,0,2.688-1.204,2.688-2.688v-6.779C120.098,109.666,118.895,108.463,117.41,108.463z"/>
				<path style="fill:#0083D3;" d="M112.244,45.619h-24.14c-1.278,0-2.315,1.037-2.315,2.315l0,0c0,1.278,1.037,2.314,2.315,2.314
					h24.14c1.277,0,2.314-1.036,2.314-2.314l0,0C114.561,46.655,113.521,45.619,112.244,45.619z"/>
			</g>
			<g>
				
					<ellipse transform="matrix(-0.9999 0.0105 -0.0105 -0.9999 262.1483 50.1732)" style="fill:#26EDA1;" cx="130.942" cy="25.775" rx="17.109" ry="17.159"/>
				<path style="fill:#FFFFFF;" d="M138.547,32.732l-15.07,0.158l-0.006-2.199c-0.006-1.365,0.672-2.641,1.801-3.4l2.871-1.934
					c-1.449-0.933-2.414-2.558-2.42-4.414c-0.01-2.995,2.477-5.414,5.494-5.277c2.618,0.119,4.795,2.233,4.992,4.855
					c0.15,2.015-0.833,3.809-2.376,4.817l2.885,1.914c1.134,0.753,1.817,2.025,1.822,3.389L138.547,32.732z"/>
			</g>
			<path style="fill:#06AAF0;" d="M54.796,49.478c2.364-2.79,3.792-6.397,3.792-10.341c0-8.839-7.166-16.005-16.005-16.005
				c-8.84,0-16.005,7.166-16.005,16.005c0,8.84,7.166,16.005,16.005,16.005c3.427,0,6.6-1.08,9.203-2.914
				c3.429,0.2,7.155,0.042,7.155,0.042L54.796,49.478z M35.318,41.679c-0.91,0-1.647-0.738-1.647-1.648
				c0-0.91,0.737-1.647,1.647-1.647c0.911,0,1.648,0.737,1.648,1.647C36.966,40.941,36.229,41.679,35.318,41.679z M42.671,41.679
				c-0.91,0-1.648-0.738-1.648-1.648c0-0.91,0.738-1.647,1.648-1.647s1.648,0.737,1.648,1.647
				C44.319,40.941,43.582,41.679,42.671,41.679z M50.024,41.679c-0.91,0-1.648-0.738-1.648-1.648c0-0.91,0.738-1.647,1.648-1.647
				c0.91,0,1.647,0.737,1.647,1.647C51.671,40.941,50.934,41.679,50.024,41.679z"/>
			<g>
				<path style="fill:#6BC5F2;" d="M24.888,75.488l1.542,3.546c0.055,0.124,0.154,0.225,0.279,0.278l3.546,1.543
					c0.431,0.187,0.431,0.797,0,0.985l-3.546,1.542c-0.125,0.055-0.224,0.153-0.279,0.279l-1.542,3.546
					c-0.188,0.431-0.799,0.431-0.987,0l-1.542-3.546c-0.054-0.126-0.154-0.225-0.278-0.279l-3.546-1.542
					c-0.431-0.188-0.431-0.8,0-0.985l3.546-1.543c0.125-0.055,0.224-0.154,0.278-0.278l1.542-3.546
					C24.089,75.057,24.701,75.057,24.888,75.488z"/>
				<path style="fill:#6BC5F2;" d="M10.848,65.65l1.255,2.886c0.044,0.102,0.125,0.183,0.227,0.228l2.886,1.255
					c0.351,0.153,0.351,0.65,0,0.803l-2.886,1.255c-0.102,0.044-0.183,0.125-0.227,0.227l-1.255,2.886
					c-0.152,0.351-0.65,0.351-0.803,0L8.79,72.303c-0.044-0.102-0.125-0.183-0.227-0.227l-2.886-1.255
					c-0.351-0.153-0.351-0.65,0-0.803l2.886-1.255c0.102-0.045,0.183-0.125,0.227-0.228l1.255-2.886
					C10.197,65.299,10.695,65.299,10.848,65.65z"/>
				<path style="fill:#6BC5F2;" d="M27.061,64.534l0.736,1.692c0.026,0.06,0.074,0.107,0.133,0.133l1.692,0.736
					c0.206,0.09,0.206,0.381,0,0.471l-1.692,0.736c-0.06,0.026-0.107,0.074-0.133,0.133l-0.736,1.692
					c-0.089,0.206-0.382,0.206-0.471,0l-0.736-1.692c-0.026-0.06-0.074-0.107-0.133-0.133l-1.692-0.736
					c-0.206-0.089-0.206-0.381,0-0.471l1.692-0.736c0.06-0.025,0.107-0.073,0.133-0.133l0.736-1.692
					C26.679,64.329,26.971,64.329,27.061,64.534z"/>
			</g>
			<g>
				<path style="fill:#06AAF0;" d="M151.279,21.119l1.308,3.005c0.047,0.105,0.131,0.19,0.236,0.236l3.006,1.307
					c0.364,0.159,0.364,0.677,0,0.836l-3.006,1.307c-0.105,0.046-0.189,0.13-0.236,0.236l-1.308,3.005
					c-0.158,0.366-0.676,0.366-0.836,0l-1.307-3.005c-0.047-0.105-0.131-0.19-0.236-0.236l-3.006-1.307
					c-0.365-0.159-0.365-0.677,0-0.836l3.006-1.307c0.105-0.046,0.189-0.13,0.236-0.236l1.307-3.005
					C150.604,20.753,151.121,20.753,151.279,21.119z"/>
				<path style="fill:#06AAF0;" d="M153.654,1.739l0.916,2.108c0.033,0.074,0.092,0.133,0.166,0.166l2.107,0.917
					c0.256,0.111,0.256,0.475,0,0.586l-2.107,0.917c-0.074,0.033-0.133,0.092-0.166,0.166l-0.916,2.108
					c-0.11,0.257-0.475,0.257-0.588,0l-0.916-2.108c-0.031-0.074-0.09-0.133-0.166-0.166l-2.105-0.917
					c-0.257-0.111-0.257-0.475,0-0.586l2.105-0.917c0.076-0.033,0.135-0.092,0.166-0.166l0.916-2.108
					C153.18,1.482,153.544,1.482,153.654,1.739z"/>
				<path style="fill:#06AAF0;" d="M139.137,0.716l1.148,2.642c0.041,0.093,0.115,0.167,0.209,0.208l2.641,1.149
					c0.321,0.14,0.321,0.596,0,0.735l-2.641,1.149c-0.094,0.041-0.168,0.115-0.209,0.208l-1.148,2.642
					c-0.14,0.321-0.595,0.321-0.734,0l-1.148-2.642c-0.04-0.093-0.115-0.167-0.208-0.208l-2.642-1.149
					c-0.321-0.139-0.321-0.595,0-0.735l2.642-1.149c0.093-0.041,0.168-0.115,0.208-0.208l1.148-2.642
					C138.542,0.395,138.997,0.395,139.137,0.716z"/>
			</g>
		</g>
		<g>
			<g>
				<polygon style="fill:#07A6DD;" points="47.464,104.896 36.939,144.705 31.569,144.705 36.253,103.407 				"/>
				<path style="fill:#06AAF0;" d="M37.168,104.094c0,0,0.114,2.633,2.402,5.834c2.288,3.204,11.668,12.698,11.668,12.698
					l-1.03,21.965h4.805l4.004-24.252l-9.724-15.901L37.168,104.094z"/>
				<g>
					<path style="fill:#9EEBEF;" d="M58.703,65.548l4.923,8.917c0.43,0.779,1.409,1.062,2.188,0.632
						c0.779-0.43,1.062-1.41,0.631-2.188l-4.922-8.917L58.703,65.548z"/>
					<g>
						<path style="fill:#6BC5F2;" d="M70.055,59.184l2.285,4.215c1.071-0.667,1.453-2.059,0.844-3.184
							C72.574,59.09,71.198,58.65,70.055,59.184z"/>
						<path style="fill:#9EEBEF;" d="M66.897,54.629l-0.179,0.097c-0.331,0.179-0.455,0.596-0.275,0.927l6.771,12.493
							c0.179,0.331,0.596,0.454,0.927,0.275l0.179-0.097c0.331-0.179,0.455-0.596,0.275-0.927l-6.771-12.493
							C67.645,54.574,67.227,54.45,66.897,54.629z"/>
						<path style="fill:#06AAF0;" d="M66.718,56.136c-0.019,0.435-5.446,6.011-9.008,8.676c-1.297,0.971-1.701,2.735-0.929,4.159
							l0,0c0.772,1.424,2.471,2.049,3.991,1.492c4.178-1.53,11.813-3.033,12.187-2.812L66.718,56.136z"/>
						<path style="fill:#06AAF0;" d="M60.72,62.3l3.8,7.011c3.892-1.04,8.161-1.824,8.438-1.66l-6.241-11.516
							C66.704,56.458,63.716,59.607,60.72,62.3z"/>
					</g>
				</g>
				<path style="fill:#F7D0C1;" d="M61.174,73.021l0.658-1.894l0.677,1.227l1.399-0.773c1.082-0.597,2.443-0.204,3.041,0.878l0,0
					c0.597,1.082,0.205,2.443-0.878,3.042l0,0c-1.173,0.647-2.512,0.933-3.847,0.821l-0.468-0.039l-1.383-2.506L61.174,73.021z"/>
				<path style="fill:#1C3A8E;" d="M51.602,63.698c0,0,1.3-5.268-3.968-5.572c-5.267-0.304-8.305,2.938-9.116,5.673
					c-1.182,3.984,0.776,7.985,2.903,9.049l2.887-6.365L51.602,63.698z"/>
				<path style="fill:#F7D0C1;" d="M42.891,66.483c0,0-1.418-1.874-2.077-0.304c-0.659,1.57-0.558,3.849,1.925,3.799
					c0,0,1.013,4.777,5.571,3.41c4.559-1.368,4.001-7.563,3.292-9.69c0,0-4.103,0.658-6.736-0.457
					C44.866,63.242,43.903,66.18,42.891,66.483z"/>
				<polygon style="fill:#F7D0C1;" points="46.824,72.105 46.149,77.913 41.017,74.537 41.625,68.392 				"/>
				<path style="fill:#1BDD8E;" d="M38.999,74.428c0,0-3.508,1.525-4.271,3.05c-0.515,1.03-1.866,6.237-2.688,9.508
					c-0.409,1.625,0.211,3.334,1.565,4.322l6.766,4.932L38.999,74.428z"/>
				<path style="fill:#26EDA1;" d="M41.286,73.891c0,0-1.601-0.435-3.203,1.469c-1.602,1.906-2.746,4.408-2.288,11.807
					c0.457,7.397-1.983,17.847-1.983,17.847l0,0c5.058,2.723,11.204,2.894,16.42,0.452l0.969-0.452c0,0-0.305-19.008-4.119-27.494
					L41.286,73.891z"/>
				<path style="fill:#26EDA1;" d="M45.48,76.359l8.772,6.15l6.406-9.685l2.288,4.271c0,0-5.644,11.516-7.779,13.651l-13.9-7.155
					c-1.942-1.037-2.749-3.402-1.846-5.41l0,0C40.466,75.857,43.327,74.998,45.48,76.359z"/>
			</g>
			<path style="fill:#0083D3;" d="M50.171,144.539v3.747h10.184c0.633,0,0.907-0.808,0.398-1.183
				c-1.223-0.903-3.302-2.074-6.298-2.559L50.171,144.539z"/>
			<path style="fill:#0083D3;" d="M31.695,144.539v3.747h10.184c0.632,0,0.907-0.808,0.398-1.183
				c-1.224-0.903-3.303-2.074-6.298-2.559L31.695,144.539z"/>
		</g>
	</g>
</g>
</svg>
