<?xml version="1.0" encoding="utf-8"?>
<!-- Generator: Adobe Illustrator 16.0.0, SVG Export Plug-In . SVG Version: 6.00 Build 0)  -->
<!DOCTYPE svg PUBLIC "-//W3C//DTD SVG 1.1//EN" "http://www.w3.org/Graphics/SVG/1.1/DTD/svg11.dtd">
<svg version="1.1" id="Layer_1" xmlns="http://www.w3.org/2000/svg" xmlns:xlink="http://www.w3.org/1999/xlink" x="0px" y="0px"
	 width="1280px" height="658.5px" viewBox="0 0 1280 658.5" enable-background="new 0 0 1280 658.5" xml:space="preserve">
<linearGradient id="SVGID_1_" gradientUnits="userSpaceOnUse" x1="618.1567" y1="60.8013" x2="2094.1587" y2="-694.3152" gradientTransform="matrix(1 0 0 -1 -291 220)">
	<stop  offset="0" style="stop-color:#47AE51"/>
	<stop  offset="1" style="stop-color:#F6F927"/>
</linearGradient>
<path fill="url(#SVGID_1_)" d="M0,0h1280v598c0,0-182.5,56.5-348.5,56.5c-122,0-331.128-58.483-481-65c-276-12-450.5,49-450.5,49V0z
	"/>
<linearGradient id="SVGID_2_" gradientUnits="userSpaceOnUse" x1="-54.9517" y1="512.0674" x2="529.5448" y2="678.0485">
	<stop  offset="0" style="stop-color:#76C23A"/>
	<stop  offset="1" style="stop-color:#F6DD28"/>
</linearGradient>
<path fill="url(#SVGID_2_)" d="M292,563.447C151.196,583.091,2,420.551,2,420.551V635.93l5.888,0.02
	C44.762,624.516,208.666,578.985,450.5,589.5c44.922,1.953,95.168,8.577,146.796,16.894
	C547.603,577.152,450.728,541.303,292,563.447z"/>
<linearGradient id="SVGID_3_" gradientUnits="userSpaceOnUse" x1="1534.9502" y1="335.4912" x2="1117.9728" y2="-27.4892" gradientTransform="matrix(1 0 0 -1 -291 220)">
	<stop  offset="0" style="stop-color:#76C23A"/>
	<stop  offset="1" style="stop-color:#F6DD28"/>
</linearGradient>
<path fill="url(#SVGID_3_)" d="M1279.057,175.332c0,0-67.496-76.22-226.487-59.135C893.576,133.281,820.08,35.681,742.084,0H1280
	L1279.057,175.332z"/>
<linearGradient id="SVGID_4_" gradientUnits="userSpaceOnUse" x1="1340.9453" y1="518.9365" x2="929.9447" y2="638.8856">
	<stop  offset="0" style="stop-color:#76C23A"/>
	<stop  offset="1" style="stop-color:#F6DD28"/>
</linearGradient>
<path fill="url(#SVGID_4_)" d="M1105.064,534.418c-96.307-1.365-114.864,94.929-117.938,118.146C1135.772,642.649,1280,598,1280,598
	V475.4C1280,475.4,1214.561,535.972,1105.064,534.418z"/>
</svg>
