<?xml version="1.0" encoding="utf-8"?>
<!-- Generator: Adobe Illustrator 16.0.0, SVG Export Plug-In . SVG Version: 6.00 Build 0)  -->
<!DOCTYPE svg PUBLIC "-//W3C//DTD SVG 1.1//EN" "http://www.w3.org/Graphics/SVG/1.1/DTD/svg11.dtd">
<svg version="1.1" id="Layer_1" xmlns="http://www.w3.org/2000/svg" xmlns:xlink="http://www.w3.org/1999/xlink" x="0px" y="0px"
	 width="1280px" height="598px" viewBox="0 -15.5 1280 598" enable-background="new 0 -15.5 1280 598" xml:space="preserve">
<linearGradient id="SVGID_1_" gradientUnits="userSpaceOnUse" x1="550.1016" y1="266.1465" x2="1677.254" y2="-701.2068" gradientTransform="matrix(1 0 0 -1 -291 220)">
	<stop  offset="0" style="stop-color:#47AE51"/>
	<stop  offset="1" style="stop-color:#F6F927"/>
</linearGradient>
<path fill="url(#SVGID_1_)" d="M0,34.75c0,0,130.51-47.639,225.5-45c135,3.75,244.936,44.126,415,45
	c146,0.75,311.445-42.778,415.999-43C1174.5-8.5,1280,34.75,1280,34.75v492c0,0-65.5,39.75-205.5,39.75c-126.143,0-278-44-404-39.75
	c-115.579,3.898-230,49.75-341,50c-199,0.448-329.5-50-329.5-50V34.75z"/>
<linearGradient id="SVGID_2_" gradientUnits="userSpaceOnUse" x1="1066.6338" y1="616.0068" x2="1283.6338" y2="533.0068">
	<stop  offset="0" style="stop-color:#47AE51"/>
	<stop  offset="1" style="stop-color:#F6F927"/>
</linearGradient>
<path fill="url(#SVGID_2_)" d="M1139.5,570.5c0,0,75.5-2,108-19C1247.5,551.5,1283.5,578.5,1139.5,570.5z"/>
<g opacity="0.7">
	<path fill="#FFFFFF" d="M59.5,36.5c0,0,0.514-0.327,1.501-0.89c0.991-0.554,2.431-1.416,4.312-2.386
		c3.735-2.017,9.164-4.695,15.791-7.667c3.334-1.425,6.934-3.023,10.815-4.512c1.931-0.771,3.932-1.516,5.97-2.304
		c2.04-0.782,4.157-1.483,6.294-2.245c4.272-1.535,8.75-2.936,13.314-4.318c4.545-1.445,9.264-2.583,13.939-3.864
		c4.716-1.133,9.453-2.204,14.13-3.173c2.351-0.441,4.688-0.855,7-1.245c2.315-0.373,4.577-0.852,6.85-1.096
		c2.267-0.274,4.488-0.575,6.671-0.81c1.09-0.123,2.168-0.245,3.233-0.365c0.532-0.06,1.062-0.119,1.587-0.177
		c0.53-0.033,1.057-0.066,1.58-0.099c4.185-0.25,8.13-0.489,11.775-0.592c3.664,0.028,7.014,0.126,9.971,0.219
		c0.739,0.021,1.454,0.042,2.144,0.063c0.692,0.057,1.359,0.128,2,0.203c1.277,0.143,2.45,0.274,3.51,0.393
		c2.115,0.221,3.767,0.477,4.891,0.616C207.901,2.413,208.5,2.5,208.5,2.5s-0.603,0.093-1.732,0.266
		c-1.128,0.149-2.779,0.419-4.869,0.658c-1.042,0.128-2.196,0.269-3.453,0.423c-0.627,0.081-1.278,0.156-1.954,0.221
		c-0.675,0.112-1.374,0.228-2.095,0.347c-2.885,0.484-6.127,1.025-9.654,1.536c-3.521,0.649-7.322,1.407-11.339,2.112
		c-2.011,0.322-4.061,0.839-6.161,1.268c-2.097,0.463-4.246,0.875-6.425,1.327c-4.356,0.928-8.83,2.056-13.404,3.016
		c-4.549,1.111-9.17,2.239-13.791,3.368c-2.307,0.589-4.613,1.178-6.911,1.765c-1.151,0.287-2.299,0.573-3.445,0.858
		c-1.141,0.303-2.279,0.605-3.413,0.906c-2.264,0.617-4.518,1.199-6.749,1.766c-2.233,0.556-4.411,1.213-6.581,1.766
		c-8.667,2.323-16.757,4.492-23.691,6.351c-3.467,0.954-6.677,1.759-9.512,2.511c-2.821,0.786-5.323,1.373-7.361,1.92
		c-2.041,0.543-3.667,0.913-4.764,1.203C60.09,36.356,59.5,36.5,59.5,36.5z"/>
</g>
<g opacity="0.5">
	<path fill="#FFFFFF" d="M167.5,21.5c0,0,0.964-0.615,2.757-1.5c0.9-0.423,1.993-0.966,3.284-1.472
		c1.279-0.551,2.748-1.091,4.36-1.668c1.625-0.518,3.383-1.127,5.278-1.612c0.947-0.249,1.921-0.504,2.916-0.765
		c1-0.236,2.028-0.445,3.072-0.672c1.043-0.234,2.108-0.447,3.193-0.617c1.083-0.187,2.18-0.37,3.289-0.538
		c2.217-0.334,4.484-0.546,6.747-0.8c2.271-0.14,4.541-0.318,6.779-0.388c2.238-0.042,4.442-0.049,6.572-0.024
		c2.13,0.086,4.187,0.203,6.133,0.328c1.946,0.13,3.779,0.392,5.469,0.59c1.689,0.217,3.233,0.423,4.593,0.707
		c1.362,0.244,2.544,0.508,3.516,0.714c1.943,0.42,3.042,0.718,3.042,0.718s-1.141,0.137-3.118,0.274
		c-0.988,0.065-2.187,0.157-3.555,0.204c-1.367,0.038-2.912,0.19-4.589,0.279c-1.678,0.111-3.49,0.146-5.403,0.279
		c-1.914,0.13-3.928,0.25-6.008,0.342c-2.079,0.153-4.223,0.322-6.403,0.434c-2.175,0.173-4.385,0.349-6.594,0.524
		c-2.205,0.21-4.41,0.42-6.581,0.626c-2.162,0.268-4.308,0.429-6.366,0.711c-1.033,0.121-2.05,0.24-3.044,0.356
		c-0.993,0.134-1.964,0.265-2.909,0.392c-1.901,0.219-3.678,0.529-5.342,0.74c-1.646,0.274-3.181,0.459-4.522,0.697
		c-1.352,0.225-2.53,0.42-3.5,0.582C168.614,21.297,167.5,21.5,167.5,21.5z"/>
</g>
<g>
	<linearGradient id="SVGID_3_" gradientUnits="userSpaceOnUse" x1="940.9834" y1="-5.394" x2="719.337" y2="20.1357">
		<stop  offset="0" style="stop-color:#47AE51"/>
		<stop  offset="1" style="stop-color:#F6F927"/>
	</linearGradient>
	<path fill="url(#SVGID_3_)" d="M940.649-1.101c0,0-3.467,0.419-9.534,1.152c-6.04,0.673-14.668,1.634-25.021,2.788
		c-10.309,1.112-22.336,2.409-35.223,3.799c-6.424,0.718-13.063,1.459-19.81,2.213c-3.367,0.401-6.756,0.853-10.167,1.22
		c-3.411,0.372-6.834,0.755-10.241,1.242c-6.829,0.869-13.674,1.643-20.376,2.615c-3.354,0.475-6.687,0.917-9.984,1.326
		c-1.651,0.192-3.279,0.453-4.897,0.708c-1.62,0.24-3.229,0.479-4.825,0.716c-3.195,0.454-6.331,0.944-9.417,1.345
		c-3.089,0.393-6.063,0.998-8.995,1.429c-2.93,0.456-5.779,0.898-8.535,1.327c-1.38,0.212-2.746,0.383-4.071,0.618
		c-1.324,0.24-2.623,0.475-3.896,0.705c-5.1,0.898-9.796,1.683-13.978,2.338c-4.158,0.772-7.783,1.445-10.769,1.999
		c-2.995,0.547-5.378,0.903-6.994,1.179c-1.627,0.249-2.494,0.381-2.494,0.381s0.795-0.361,2.286-1.039
		c1.501-0.65,3.689-1.651,6.513-2.833s6.252-2.648,10.241-4.163c4.015-1.417,8.566-2.97,13.556-4.622
		c4.973-1.735,10.477-3.115,16.275-4.731c1.453-0.388,2.927-0.781,4.419-1.179c1.493-0.396,3.004-0.801,4.544-1.136
		c3.072-0.723,6.228-1.38,9.43-2.093c6.401-1.461,13.067-2.666,19.859-3.787c6.775-1.256,13.718-2.064,20.644-3.01
		c3.466-0.458,6.941-0.813,10.404-1.155c3.46-0.366,6.915-0.646,10.337-0.969c3.425-0.305,6.831-0.485,10.193-0.696
		c3.363-0.19,6.68-0.458,9.954-0.53c6.543-0.224,12.864-0.438,18.866-0.404c3,0.016,5.916-0.01,8.738,0.04
		c2.821,0.079,5.548,0.155,8.165,0.228c5.231,0.146,10.03,0.486,14.273,0.745c4.248,0.341,7.943,0.635,10.987,0.987
		c3.041,0.313,5.429,0.656,7.054,0.871C939.786-1.258,940.649-1.102,940.649-1.101z"/>
</g>
<g>
	<linearGradient id="SVGID_4_" gradientUnits="userSpaceOnUse" x1="583.4365" y1="533.2432" x2="797.7568" y2="553.0266">
		<stop  offset="0" style="stop-color:#47AE51"/>
		<stop  offset="1" style="stop-color:#F6F927"/>
	</linearGradient>
	<path fill="url(#SVGID_4_)" d="M583.5,546.5c0,0,0.799-0.282,2.317-0.752c1.521-0.457,3.746-1.164,6.612-1.918
		c2.862-0.776,6.348-1.692,10.377-2.602c4.025-0.931,8.583-1.924,13.585-2.841c5-0.93,10.431-1.896,16.206-2.703
		c5.771-0.849,11.881-1.563,18.215-2.208c6.337-0.59,12.897-1.129,19.579-1.428c6.679-0.373,13.477-0.48,20.273-0.521
		c3.399-0.012,6.799,0.089,10.184,0.129c3.386,0.086,6.756,0.251,10.1,0.392c3.341,0.202,6.656,0.39,9.927,0.654
		c3.268,0.299,6.499,0.541,9.668,0.897c3.166,0.383,6.283,0.698,9.322,1.119c3.035,0.448,6.004,0.887,8.894,1.313
		c2.876,0.515,5.673,1.015,8.378,1.499c2.7,0.504,5.29,1.109,7.783,1.626c4.992,0.996,9.498,2.271,13.503,3.277
		c3.982,1.125,7.438,2.14,10.265,3.036c2.822,0.918,5.017,1.709,6.519,2.218c1.496,0.529,2.294,0.812,2.294,0.812
		s-0.838-0.128-2.409-0.366c-1.564-0.261-3.868-0.598-6.771-1.114c-2.914-0.471-6.474-0.924-10.515-1.587
		c-2.033-0.263-4.196-0.543-6.478-0.838c-1.137-0.156-2.303-0.316-3.496-0.479c-1.197-0.14-2.422-0.282-3.673-0.429
		c-4.996-0.618-10.428-1.103-16.153-1.678c-2.869-0.233-5.816-0.474-8.828-0.719c-3.014-0.202-6.093-0.409-9.224-0.619
		c-3.133-0.164-6.317-0.331-9.541-0.5c-3.226-0.122-6.49-0.244-9.781-0.368c-3.292-0.071-6.61-0.144-9.942-0.216
		c-3.333-0.018-6.678-0.087-10.023-0.062c-3.347,0.016-6.693-0.02-10.026,0.066c-1.667,0.024-3.331,0.048-4.989,0.072
		c-1.659,0.043-3.313,0.085-4.96,0.127c-3.295,0.077-6.563,0.21-9.794,0.319c-3.229,0.142-6.42,0.282-9.559,0.421
		c-6.273,0.354-12.346,0.683-18.097,1.118c-5.754,0.405-11.197,0.833-16.222,1.269c-5.018,0.479-9.628,0.893-13.711,1.314
		c-4.084,0.444-7.646,0.832-10.578,1.151c-2.936,0.35-5.242,0.624-6.814,0.811C584.34,546.394,583.5,546.5,583.5,546.5z"/>
</g>
<g opacity="0.6">
	<path fill="#FFFFFF" d="M337.652,564.862c0,0,2.208-0.463,6.07-1.272c3.84-0.774,9.326-1.881,15.908-3.209
		c6.549-1.294,14.19-2.805,22.376-4.423c2.039-0.427,4.117-0.823,6.219-1.226c2.098-0.426,4.222-0.857,6.362-1.292
		c4.285-0.842,8.629-1.734,12.968-2.648c4.362-0.81,8.672-1.85,12.958-2.69c4.284-0.853,8.461-1.854,12.545-2.674
		c1.02-0.21,2.031-0.418,3.033-0.624c0.998-0.226,1.985-0.448,2.963-0.668c1.96-0.427,3.877-0.845,5.745-1.251
		c3.753-0.754,7.278-1.562,10.545-2.284c3.283-0.688,6.293-1.317,8.96-1.876c2.661-0.593,4.994-1.086,6.927-1.469
		c1.928-0.394,3.466-0.648,4.506-0.846c1.048-0.178,1.607-0.272,1.607-0.272s-0.5,0.265-1.436,0.76
		c-0.944,0.476-2.317,1.208-4.093,2.07c-1.772,0.874-3.938,1.906-6.436,3.063c-2.501,1.149-5.381,2.283-8.515,3.559
		c-1.575,0.62-3.215,1.265-4.913,1.933c-1.701,0.662-3.492,1.234-5.318,1.885c-1.835,0.619-3.721,1.255-5.649,1.905
		c-1.922,0.675-3.916,1.257-5.944,1.847c-2.024,0.606-4.094,1.18-6.188,1.771c-1.047,0.294-2.1,0.591-3.159,0.889
		c-1.067,0.263-2.14,0.525-3.217,0.79c-4.309,1.053-8.69,2.124-13.111,2.996c-2.211,0.434-4.423,0.867-6.625,1.299
		c-2.201,0.439-4.419,0.741-6.604,1.115c-4.372,0.747-8.705,1.305-12.899,1.802c-4.189,0.535-8.27,0.833-12.124,1.171
		c-3.871,0.232-7.52,0.483-10.906,0.549c-1.691,0.035-3.311,0.069-4.852,0.102c-1.543-0.008-3.006-0.015-4.382-0.021
		c-2.749-0.025-5.15-0.137-7.124-0.236C339.901,565.15,337.652,564.862,337.652,564.862z"/>
</g>
<g opacity="0.7">
	<path fill="#FFFFFF" d="M871.5,528.5c0,0,0.825,0.078,2.372,0.225c1.543,0.166,3.811,0.365,6.684,0.694
		c2.873,0.326,6.368,0.68,10.358,1.172c3.99,0.479,8.493,1.02,13.405,1.608c4.899,0.63,10.208,1.313,15.822,2.034
		c5.604,0.746,11.516,1.533,17.63,2.348c6.107,0.827,12.418,1.683,18.83,2.552c6.412,0.843,12.91,1.813,19.426,2.621
		c3.252,0.448,6.504,0.896,9.744,1.342c3.241,0.415,6.47,0.828,9.673,1.238c1.602,0.208,3.197,0.416,4.784,0.623
		c1.586,0.219,3.163,0.447,4.734,0.621c3.141,0.382,6.243,0.759,9.295,1.13c6.102,0.824,12.005,1.392,17.606,2.051
		c2.8,0.34,5.526,0.664,8.163,0.878c2.64,0.254,5.189,0.499,7.637,0.734c4.902,0.566,9.392,0.801,13.388,1.114
		c1.997,0.153,3.869,0.264,5.603,0.43c1.731,0.121,3.318,0.123,4.758,0.183c2.875,0.074,5.15,0.214,6.703,0.273
		c1.555,0.084,2.385,0.129,2.385,0.129s-0.815,0.135-2.345,0.387c-1.532,0.228-3.781,0.613-6.663,1
		c-1.44,0.187-3.039,0.458-4.781,0.635c-1.742,0.159-3.629,0.262-5.647,0.408c-4.035,0.266-8.612,0.675-13.582,0.654
		c-4.973,0.033-10.389,0.195-16.075-0.064c-5.691-0.205-11.714-0.354-17.899-0.865c-6.196-0.435-12.602-0.904-19.072-1.648
		c-3.239-0.349-6.509-0.668-9.782-1.058c-3.267-0.425-6.547-0.851-9.826-1.277c-6.56-0.866-13.095-1.869-19.518-2.917
		c-1.606-0.259-3.206-0.517-4.798-0.772c-1.587-0.284-3.166-0.568-4.735-0.85c-3.136-0.573-6.234-1.14-9.282-1.696
		c-6.087-1.153-11.95-2.379-17.506-3.553c-5.546-1.231-10.786-2.399-15.603-3.577c-4.818-1.169-9.222-2.3-13.114-3.349
		c-3.9-1.004-7.278-1.99-10.061-2.792c-2.787-0.776-4.956-1.492-6.442-1.937C872.289,528.754,871.5,528.5,871.5,528.5z"/>
</g>
<g opacity="0.5">
	<path fill="#FFFFFF" d="M1032.441,537.559c0,0,0.351,0.012,1.009,0.034c0.648,0.038,1.617,0.023,2.826,0.064
		c1.212,0.009,2.683,0.02,4.37,0.031c0.84,0.016,1.734,0.004,2.679-0.02c0.94-0.01,1.929-0.02,2.96-0.029
		c2.065-0.055,4.289-0.062,6.646-0.161c2.352-0.038,4.833-0.179,7.394-0.27c2.56-0.129,5.205-0.263,7.893-0.398
		c2.684-0.226,5.414-0.33,8.14-0.562c2.725-0.235,5.456-0.39,8.14-0.646c2.68-0.283,5.332-0.441,7.891-0.699
		c2.558-0.272,5.038-0.497,7.396-0.693c2.358-0.235,4.587-0.457,6.645-0.662c2.064-0.185,3.971-0.309,5.648-0.498
		c1.678-0.184,3.156-0.284,4.373-0.38c1.214-0.105,2.183-0.135,2.838-0.178c0.659-0.027,1.011-0.042,1.011-0.042
		s-0.325,0.132-0.934,0.378c-0.613,0.23-1.506,0.603-2.659,1.008c-1.15,0.415-2.547,0.936-4.167,1.463
		c-0.81,0.264-1.666,0.577-2.582,0.848c-0.918,0.26-1.884,0.534-2.892,0.819c-2.022,0.549-4.215,1.151-6.554,1.703
		c-2.348,0.503-4.83,1.017-7.406,1.507c-1.284,0.277-2.609,0.429-3.942,0.639c-1.335,0.204-2.688,0.396-4.054,0.576
		c-2.729,0.396-5.528,0.567-8.315,0.84c-2.794,0.203-5.599,0.292-8.354,0.387c-1.381,0.019-2.752,0.004-4.104-0.01
		c-1.354-0.016-2.688-0.003-4.004-0.095c-2.629-0.122-5.166-0.269-7.567-0.538c-2.4-0.217-4.662-0.567-6.741-0.885
		c-2.079-0.362-3.973-0.728-5.641-1.133c-1.672-0.36-3.109-0.784-4.289-1.128c-1.181-0.346-2.091-0.675-2.712-0.901
		C1032.762,537.703,1032.441,537.559,1032.441,537.559z"/>
</g>
<g>
	<linearGradient id="SVGID_5_" gradientUnits="userSpaceOnUse" x1="14.52" y1="555.8467" x2="79.4213" y2="550.5366">
		<stop  offset="0" style="stop-color:#47AE51"/>
		<stop  offset="1" style="stop-color:#F6F927"/>
	</linearGradient>
	<path fill="url(#SVGID_5_)" d="M15.807,543.842c0,0,0.272,0.076,0.782,0.218c0.479,0.157,1.252,0.313,2.143,0.604
		c1.795,0.499,4.359,1.211,7.436,2.066c0.753,0.206,1.538,0.422,2.351,0.645c0.806,0.227,1.621,0.491,2.49,0.696
		c0.86,0.22,1.722,0.488,2.609,0.738c0.891,0.24,1.801,0.485,2.726,0.735c0.927,0.237,1.839,0.55,2.799,0.773
		c0.955,0.235,1.911,0.495,2.865,0.781c1.927,0.518,3.896,1.011,5.845,1.563c1.969,0.491,3.937,0.991,5.867,1.534
		c0.979,0.214,1.944,0.462,2.897,0.717c0.956,0.245,1.898,0.498,2.826,0.77c1.874,0.428,3.684,0.912,5.408,1.404
		c0.857,0.282,1.708,0.442,2.526,0.67c0.818,0.226,1.613,0.424,2.376,0.65c1.528,0.426,2.932,0.941,4.194,1.266
		c1.261,0.327,2.365,0.721,3.28,1.02c0.916,0.283,1.639,0.6,2.134,0.774c0.495,0.19,0.76,0.312,0.76,0.312v0.6
		c0,0-1.064-0.01-2.927-0.027c-0.932-0.008-2.064-0.019-3.362-0.031c-1.301,0.022-2.761-0.102-4.355-0.219
		c-1.592-0.139-3.327-0.198-5.145-0.427c-1.818-0.229-3.736-0.472-5.719-0.722c-1.97-0.349-4.005-0.709-6.073-1.075
		c-2.054-0.439-4.13-0.937-6.211-1.414c-2.044-0.616-4.11-1.162-6.102-1.834c-1.983-0.695-3.956-1.318-5.804-2.093
		c-0.929-0.372-1.85-0.719-2.737-1.094c-0.88-0.392-1.741-0.774-2.579-1.147c-1.68-0.737-3.216-1.55-4.648-2.265
		c-1.41-0.761-2.7-1.463-3.8-2.16c-1.121-0.661-2.057-1.307-2.841-1.815c-1.539-1.062-2.378-1.738-2.378-1.738L15.807,543.842z"/>
</g>
</svg>
