<?xml version="1.0" encoding="iso-8859-1"?>
<!-- Generator: Adobe Illustrator 16.0.0, SVG Export Plug-In . SVG Version: 6.00 Build 0)  -->
<!DOCTYPE svg PUBLIC "-//W3C//DTD SVG 1.1//EN" "http://www.w3.org/Graphics/SVG/1.1/DTD/svg11.dtd">
<svg version="1.1" id="Layer_1" xmlns="http://www.w3.org/2000/svg" xmlns:xlink="http://www.w3.org/1999/xlink" x="0px" y="0px"
	 width="500px" height="420px" viewBox="0 0 500 420" style="enable-background:new 0 0 500 420;" xml:space="preserve">
<g>
	<g>
		<g>
			<path style="fill:#C1E59E;" d="M226.104,95.27c-16.522-58.644-90.979-77.536-133.648-33.708c-0.613,0.629-1.225,1.269-1.837,1.92
				c-61.173,65.064-32.275,225.399,95.394,266.038c127.667,40.639,260.459-33.571,267.919-99.908
				c7.46-66.339-51.439-87.183-142.846-68.633C259.444,171.458,236.389,131.777,226.104,95.27z"/>
			<path style="fill:#CCE1F7;" d="M354.913,108.772c-17.082,2.721-21.816,17.528-8.627,28.032
				c4.358,3.472,10.585,6.356,19.454,7.796c33.784,5.484,51.712-9.141,38.17-28.103C395.552,104.793,371.84,106.075,354.913,108.772
				z"/>
			<path style="fill:#C1E59E;" d="M44.433,207.732c-10.619-13.37-26.172-10.348-29.283,6.011
				c-1.029,5.406-0.637,12.135,2.318,20.442c11.254,31.647,32.96,40.045,43.491,19.334
				C67.459,240.737,54.957,220.982,44.433,207.732z"/>
			<path style="fill:#D3D3D3;" d="M277.15,79.197l1.775-8.853l-8.477-1.628c-0.006-2.18-0.387-4.365-1.122-6.479l6.984-4.592
				l-5.143-7.489l-6.685,4.395c-1.99-1.977-4.33-3.499-6.863-4.518l1.665-8.296l-9.048-1.737l-1.715,8.55
				c-1.857,0.101-3.705,0.447-5.505,1.049l-4.692-6.836l-7.654,5.031l4.492,6.542c-2.021,1.947-3.576,4.236-4.617,6.715
				l-7.411-1.424l-1.777,8.853l7.672,1.473c0.132,2.317,0.662,4.627,1.629,6.831l-6.687,4.395l5.142,7.488l6.987-4.591
				c2.004,1.709,4.294,2.992,6.74,3.832l-1.675,8.346l9.047,1.736l1.816-9.047c1.989-0.215,3.961-0.714,5.857-1.512l4.491,6.543
				l7.653-5.031l-4.692-6.834c1.249-1.403,2.275-2.947,3.073-4.591L277.15,79.197z M254.427,75.652
				c-3.868,2.542-9.129,1.532-11.728-2.253c-2.599-3.785-1.566-8.932,2.302-11.475c3.869-2.542,9.129-1.533,11.728,2.252
				C259.328,67.962,258.295,73.109,254.427,75.652z"/>
			<path style="fill:#D3D3D3;" d="M226.017,38.504l0.97-4.838l-4.633-0.89c-0.003-1.191-0.211-2.385-0.613-3.541l3.817-2.509
				l-2.811-4.093l-3.653,2.402c-1.087-1.08-2.366-1.912-3.75-2.468l0.91-4.534l-4.945-0.949l-0.937,4.673
				c-1.014,0.055-2.024,0.244-3.008,0.573l-2.564-3.736l-4.183,2.75l2.455,3.575c-1.105,1.064-1.954,2.315-2.523,3.669l-4.05-0.778
				l-0.971,4.838l4.192,0.805c0.072,1.267,0.362,2.528,0.891,3.733l-3.654,2.402l2.811,4.092l3.818-2.509
				c1.095,0.934,2.347,1.635,3.683,2.094l-0.916,4.561l4.946,0.949l0.992-4.944c1.087-0.117,2.165-0.39,3.201-0.826l2.455,3.575
				l4.183-2.75l-2.564-3.735c0.683-0.766,1.243-1.61,1.68-2.509L226.017,38.504z M213.598,36.566
				c-2.114,1.39-4.989,0.838-6.409-1.23c-1.42-2.069-0.855-4.882,1.258-6.271c2.115-1.39,4.99-0.837,6.41,1.231
				C216.276,32.364,215.713,35.177,213.598,36.566z"/>
			<path style="fill:#D3D3D3;" d="M474.672,63.222l0.97-4.838l-4.633-0.889c-0.003-1.191-0.211-2.386-0.613-3.541l3.816-2.51
				l-2.81-4.092l-3.654,2.402c-1.087-1.081-2.365-1.912-3.749-2.469l0.91-4.534l-4.945-0.949l-0.938,4.672
				c-1.015,0.056-2.024,0.244-3.009,0.573l-2.564-3.736l-4.183,2.75l2.454,3.575c-1.104,1.064-1.954,2.315-2.523,3.669l-4.05-0.778
				l-0.971,4.838l4.192,0.805c0.072,1.267,0.361,2.529,0.892,3.734l-3.656,2.401l2.811,4.092l3.819-2.509
				c1.095,0.934,2.346,1.635,3.683,2.094l-0.915,4.561l4.944,0.949l0.993-4.944c1.086-0.118,2.164-0.391,3.2-0.827l2.455,3.576
				l4.182-2.75l-2.564-3.734c0.683-0.767,1.243-1.61,1.681-2.509L474.672,63.222z M462.253,61.284
				c-2.114,1.39-4.989,0.837-6.409-1.231c-1.421-2.069-0.855-4.882,1.257-6.271c2.115-1.389,4.989-0.837,6.41,1.231
				C464.931,57.082,464.367,59.895,462.253,61.284z"/>
			<path style="fill:#D3D3D3;" d="M51.946,123.34l0.97-4.838l-4.633-0.89c-0.003-1.191-0.21-2.386-0.613-3.541l3.817-2.509
				l-2.81-4.093l-3.653,2.402c-1.087-1.081-2.366-1.912-3.75-2.469l0.91-4.534l-4.945-0.949l-0.937,4.672
				c-1.015,0.056-2.024,0.244-3.008,0.573l-2.564-3.736l-4.183,2.749L29,109.753c-1.104,1.064-1.954,2.315-2.523,3.669l-4.05-0.778
				l-0.972,4.838l4.193,0.805c0.072,1.267,0.361,2.528,0.89,3.733l-3.655,2.402l2.811,4.092l3.818-2.509
				c1.096,0.934,2.347,1.635,3.683,2.094l-0.916,4.561l4.945,0.95l0.992-4.944c1.087-0.118,2.165-0.391,3.201-0.827l2.455,3.576
				l4.182-2.75l-2.564-3.735c0.683-0.767,1.243-1.61,1.68-2.508L51.946,123.34z M39.527,121.402
				c-2.114,1.389-4.989,0.838-6.409-1.231c-1.42-2.068-0.856-4.881,1.258-6.271c2.115-1.39,4.989-0.837,6.41,1.231
				C42.206,117.2,41.642,120.013,39.527,121.402z"/>
		</g>
	</g>
	<path style="fill:#D3D3D3;" d="M245.503,363.924c-81.915,0-153.527-3.497-192.392-8.711c-4.086-0.549-5.327,5.239-1.36,6.347
		c26.518,7.402,64.068,7.917,88.058,10.445c41.352,4.357,101.474,3.152,105.694,17.251c4.217,14.104,4.639,29.026-37.508,26.925
		c-45.732-2.279-38.12-26.925-38.12-26.925c-42.415,1.183-143.352-8.534-154.517-25.332c-11.039-16.609,9.189-20.451,9.65-20.536
		c0.002-0.001,0.004-0.001,0.006-0.002c17.084-8.434,109.294-14.877,220.488-14.877c123.339,0,223.326,7.927,223.326,17.706
		C468.829,355.996,368.843,363.924,245.503,363.924z"/>
	<g>
		<g>
			<path style="fill:#9ED86C;" d="M92.458,312.602c-9.834-9.698-31.315-32.43-44.848-58.236
				c-19.421-37.036-38.896-33.727-42.717-20.634c-9.883,33.86,48.327,70.661,72.464,84.254L92.458,312.602z"/>
			<g>
				<path style="fill:#76C23A;" d="M87.143,314.496c-16.948-12.435-31.276-27.146-41.011-38.247
					c-13.02-14.844-20.863-26.61-20.941-26.729c-0.28-0.423-0.859-0.543-1.292-0.267c-0.434,0.272-0.557,0.839-0.274,1.263
					c0.076,0.118,7.975,11.968,21.068,26.901c9.618,10.969,23.693,25.441,40.359,37.825L87.143,314.496z"/>
			</g>
		</g>
		<g>
			<path style="fill:#76C23A;" d="M90.022,299.567c-4.555-8.894-13.19-27.527-16.393-46.514
				c-4.785-28.368-18.307-30.212-23.644-22.391c-14.658,21.482,20.47,60.999,31.674,72.696L90.022,299.567z"/>
			<g>
				<path style="fill:#60A523;" d="M86.839,301.011c-8.555-11.746-14.866-24.492-18.902-33.869
					c-5.361-12.451-7.982-21.81-8.008-21.904c-0.093-0.336-0.448-0.534-0.792-0.441c-0.344,0.089-0.547,0.438-0.453,0.773
					c0.025,0.094,2.664,9.519,8.054,22.043c4.042,9.393,10.354,22.147,18.911,33.938L86.839,301.011z"/>
			</g>
		</g>
		<g>
			<path style="fill:#9ED86C;" d="M412.359,168.611c9.062-10.393,28.74-34.636,40.257-61.363
				c16.527-38.358,36.2-36.486,41.015-23.71c12.45,33.04-42.774,74.008-65.802,89.334L412.359,168.611z"/>
			<g>
				<path style="fill:#60A523;" d="M417.805,170.111c15.946-13.644,29.106-29.365,37.963-41.149
					c11.846-15.758,18.765-28.067,18.834-28.191c0.246-0.442,0.814-0.604,1.267-0.361c0.454,0.241,0.621,0.797,0.371,1.239
					c-0.067,0.124-7.035,12.52-18.946,28.371c-8.75,11.645-21.676,27.11-37.346,40.681L417.805,170.111z"/>
			</g>
		</g>
		<g>
			<path style="fill:#76C23A;" d="M413.788,155.435c3.86-9.204,11.043-28.418,12.782-47.586c2.596-28.64,15.938-31.471,21.86-24.063
				c16.264,20.346-15.736,62.33-26.014,74.816L413.788,155.435z"/>
			<g>
				<g>
					<path style="fill:#60A523;" d="M417.073,156.641c7.63-12.341,12.946-25.514,16.253-35.161
						c4.392-12.81,6.287-22.334,6.306-22.431c0.067-0.341,0.405-0.565,0.756-0.499c0.351,0.064,0.58,0.396,0.512,0.738
						c-0.018,0.095-1.928,9.687-6.342,22.572c-3.311,9.664-8.627,22.845-16.256,35.23L417.073,156.641z"/>
				</g>
			</g>
		</g>
		<path style="fill:#60A523;" d="M137.087,60.021c1.69-15.485,0.374-30.452-7.502-26.761c-7.884,3.695-5.121,29.408,5.599,46.369
			l2.236,6.623c-7.591-12.494-22.738-23.079-28.956-19.122c-6.178,3.932,4.559,10.081,15.323,14.098
			c8.193,3.058,12.841,6.897,15,9.072l10.562,31.279c-12.08-19.751-36.005-36.434-45.842-30.174
			c-9.803,6.238,7.233,15.997,24.313,22.371c12.907,4.816,20.273,10.858,23.731,14.322l2.106,6.236
			c1.162-0.187,2.324-0.382,3.484-0.583l-12.566-37.213c0.845-3.195,2.519-7.569,5.838-12.655c6.2-9.5,11.078-20.698,3.722-20.254
			c-6.383,0.385-11.517,13.325-11.841,26.154l-4.345-12.87C137.297,72.706,136.357,66.704,137.087,60.021z"/>
		<path style="fill:#76C23A;" d="M465.406,243.828c4.271-15.001,11.143-28.436,17.069-22.159c5.933,6.281-6.338,29.181-22.7,41.069
			l-4.577,5.348c11.771-8.868,29.84-13.234,34.126-7.312c4.258,5.886-8.041,7.722-19.561,7.567
			c-8.769-0.118-14.537,1.771-17.363,3.012l-21.619,25.255c18.68-13.993,47.209-20.854,53.99-11.482
			c6.756,9.338-12.759,12.253-31.037,12.007c-13.813-0.187-22.938,2.768-27.458,4.737l-4.311,5.036
			c-1.011-0.595-2.016-1.194-3.018-1.801l25.72-30.045c0.421-3.273,0.517-7.943-0.648-13.869
			c-2.178-11.068-2.485-23.238,4.183-20.168c5.787,2.663,5.675,16.544,1.136,28.583l8.895-10.39
			C460.424,255.542,463.562,250.304,465.406,243.828z"/>
		<g>
			<g>
				<path style="fill:#76C23A;" d="M107.113,220.35h17.674c-9.55-1.545-33.229-11.49-35.339-31.434
					c-2.674-25.261-11.868-24.945-27.358-27.587C46.598,158.687,42.33,163,32.494,143.389c-9.835-19.611-31.78-22.083-31.78-22.083
					s20.001,21.353,16.173,37.58c-3.827,16.228,9.436,22.708,20.057,24.749c10.621,2.039,8.075,16.004,12.111,24.975
					c1.842,4.094,9.381,8.338,17.035,11.741H107.113z"/>
			</g>
			<g>
				<g>
					<path style="fill:#60A523;" d="M68.828,195.483c0.772,7.565,5.218,16.562,11.893,24.064c0.235,0.265,0.479,0.532,0.728,0.802
						h2.012c-0.575-0.594-1.121-1.178-1.627-1.748c-6.385-7.177-10.808-16.091-11.542-23.262
						c-1.165-11.416-10.181-19.196-29.237-25.224c-11.062-3.498-14.555-16.71-14.587-16.844c-0.099-0.385-0.499-0.621-0.892-0.524
						c-0.396,0.097-0.637,0.488-0.538,0.873c0.146,0.574,3.714,14.12,15.563,17.867C59.022,177.313,67.728,184.714,68.828,195.483z"
						/>
				</g>
			</g>
		</g>
		<g>
			<g>
				<path style="fill:#9ED86C;" d="M98.021,220.35h37.155c0.011-0.036,0.022-0.073,0.032-0.109
					c1.044-3.632,1.634-7.369,1.765-11.141c0.442-12.724,0.663-44.675-7.743-52.858c-10.566-10.286-31.745-14.307-28.951-29.826
					c2.794-15.519,0.702-37.005-24.373-40.497c-25.074-3.492-44.659-42.093-44.659-42.093S23.002,74.957,45.56,98.819
					s14.153,27.349,9.605,49.805c-4.547,22.457-9.919,34.775,24.491,51.936C88.987,205.213,94.679,212.378,98.021,220.35z"/>
			</g>
			<g>
				<g>
					<path style="fill:#76C23A;" d="M78.897,124.76c-1.652,29.112,4.559,45.525,20.133,53.222
						c9.781,4.836,20.061,15.617,26.825,28.133c2.135,3.953,4.308,8.754,5.995,14.235h2.287c-1.758-5.889-4.071-11.034-6.343-15.238
						c-7.071-13.084-17.456-23.941-27.776-29.041c-14.69-7.261-20.529-23.051-18.93-51.193c1.027-18.099-16.28-30.201-17.018-30.708
						c-0.493-0.34-1.177-0.222-1.526,0.264c-0.348,0.483-0.228,1.153,0.266,1.493C62.983,96.042,79.858,107.863,78.897,124.76z"/>
				</g>
			</g>
		</g>
		<g>
			<g>
				<path style="fill:#76C23A;" d="M314.74,162.717h18.099l18.352-11.696c4.514-6.94,8.463-14.521,7.723-18.935
					c-1.622-9.672-11.546-20.014-3.784-27.395c7.761-7.382,15.259-19.896,2.999-31.448c-12.26-11.553-7.414-40.125-7.414-40.125
					s-17.008,13.791-14.309,35.475c2.699,21.685-3.283,20.35-14.788,30.837c-11.507,10.486-19.386,15.132-7.534,37.727
					C318.512,145.6,317.642,154.746,314.74,162.717z"/>
			</g>
			<g>
				<g>
					<path style="fill:#60A523;" d="M335.023,131.648c3.574,6.75,4.867,16.664,3.461,26.515c-0.05,0.347-0.105,0.701-0.164,1.061
						l-1.686,1.074c0.152-0.805,0.282-1.586,0.39-2.334c1.347-9.423,0.078-19.254-3.308-25.654
						c-5.392-10.187-2.178-21.522,10.426-36.75c7.317-8.838,2.874-21.773,2.826-21.903c-0.133-0.375,0.071-0.787,0.455-0.916
						c0.385-0.131,0.805,0.068,0.938,0.443c0.198,0.56,4.764,13.815-3.073,23.283C333.104,111.187,329.938,122.038,335.023,131.648z
						"/>
				</g>
			</g>
		</g>
		<g>
			<g>
				<path style="fill:#9ED86C;" d="M382.896,162.717c2.121-1.726,4.515-3.283,7.215-4.63c34.409-17.16,29.038-29.479,24.49-51.935
					c-4.548-22.456-12.953-25.943,9.605-49.806C446.765,32.484,438.52,1.354,438.52,1.354s-19.585,38.602-44.658,42.093
					c-25.075,3.492-27.167,24.978-24.374,40.497c2.795,15.519-18.383,19.54-28.95,29.826c-7.643,7.44-8.153,34.527-7.852,48.948
					H382.896z"/>
			</g>
			<g>
				<g>
					<path style="fill:#60A523;" d="M344.424,162.717c6.764-12.121,16.774-22.491,26.313-27.208
						c15.574-7.695,21.785-24.109,20.133-53.221c-0.96-16.897,15.914-28.718,16.088-28.833c0.493-0.34,0.613-1.01,0.267-1.492
						c-0.349-0.486-1.034-0.604-1.526-0.264c-0.737,0.506-18.045,12.607-17.018,30.707c1.6,28.142-4.239,43.932-18.93,51.193
						c-10.319,5.099-20.704,15.956-27.776,29.041c-0.014,0.025-0.027,0.052-0.041,0.077H344.424z"/>
				</g>
			</g>
		</g>
	</g>
	<g>
		<g>
			<g>
				<path style="fill:#60A523;" d="M427.751,120.099v190.069c0,7.836-6.492,14.188-14.501,14.188H82.186
					c-8.009,0-14.501-6.352-14.501-14.188V120.099c0-7.836,6.492-14.188,14.501-14.188H413.25
					C421.259,105.911,427.751,112.263,427.751,120.099z"/>
				<path style="fill:#FFFFFF;" d="M411.757,129.761v170.743c0,5.025-4.161,9.099-9.297,9.099H92.979
					c-2.169,0-4.164-0.728-5.748-1.946c-0.419-0.323-0.811-0.683-1.168-1.071c-1.484-1.607-2.384-3.743-2.384-6.081V129.761
					c0-5.024,4.167-9.098,9.299-9.098H402.46c1.719,0,3.324,0.454,4.704,1.25c1.296,0.746,2.394,1.792,3.188,3.039
					C411.244,126.347,411.757,127.997,411.757,129.761z"/>
				<g>
					<g>
						<path style="fill:#F6DD28;" d="M196.288,248.646h-12.681v16.01H152.38v-16.01h-49.499v-20.014l40.499-57.369h32.999
							l-36,52.966h12.955v-14.275h30.272v14.275h12.681V248.646z"/>
					</g>
					<g>
						<path style="fill:#F6DD28;" d="M200.784,217.96c0-30.954,18-48.832,43.226-48.832s43.226,17.877,43.226,48.832
							c0,30.951-17.999,48.83-43.226,48.83S200.784,248.911,200.784,217.96z M254.919,217.96c0-18.012-4.637-23.616-10.909-23.616
							s-10.909,5.604-10.909,23.616c0,18.01,4.637,23.614,10.909,23.614S254.919,235.97,254.919,217.96z"/>
					</g>
					<g>
						<path style="fill:#F6DD28;" d="M387.589,248.646h-12.681v16.01h-31.227v-16.01h-49.498v-20.014l40.499-57.369h32.998
							l-35.998,52.966h12.955v-14.275h30.271v14.275h12.681V248.646z"/>
					</g>
				</g>
			</g>
			<path style="fill:#60A523;" d="M461.385,316.76v1.215c0,6.046-1.982,11.637-5.347,16.185
				c-5.132,6.944-13.481,11.463-22.911,11.463H62.308c-9.429,0-17.78-4.519-22.911-11.463c-3.365-4.548-5.347-10.139-5.347-16.185
				v-1.215H461.385z"/>
			<path style="fill:#01305A;" d="M199.823,316.76v0.277c0,2.189,1.498,3.964,3.346,3.964h87.238c1.849,0,3.347-1.774,3.347-3.964
				v-0.277H199.823z"/>
			<g>
				<path style="opacity:0.2;fill:#01305A;" d="M411.755,129.761v10.074H83.681v-10.074c0-1.938,0.616-3.732,1.677-5.206
					c1.677-2.354,4.465-3.893,7.622-3.893H402.46c3.157,0,5.945,1.539,7.618,3.893C411.139,126.028,411.755,127.822,411.755,129.761
					z"/>
				<path style="fill:#FFFFFF;" d="M332.502,133.286H158.503c-0.446,0-0.81-0.357-0.81-0.793v-3.508c0-0.436,0.364-0.792,0.81-0.792
					h173.999c0.445,0,0.811,0.356,0.811,0.792v3.508C333.313,132.93,332.947,133.286,332.502,133.286z"/>
				<path style="fill:#01305A;" d="M115.757,130.739v1.888c0,0.541-0.599,0.88-1.078,0.609l-1.671-0.944l-1.67-0.944
					c-0.479-0.271-0.479-0.948,0-1.218l1.67-0.944l1.671-0.944c0.479-0.271,1.078,0.068,1.078,0.609V130.739z"/>
				<path style="fill:#01305A;" d="M124.451,130.739v1.888c0,0.541,0.599,0.88,1.079,0.609l1.671-0.944l1.67-0.944
					c0.479-0.271,0.479-0.948,0-1.218l-1.67-0.944l-1.671-0.944c-0.479-0.271-1.079,0.067-1.079,0.609V130.739z"/>
			</g>
			<path style="opacity:0.2;fill:#01305A;" d="M410.078,124.555H85.357c1.677-2.354,4.465-3.893,7.622-3.893H402.46
				C405.617,120.663,408.405,122.202,410.078,124.555z"/>
			<path style="opacity:0.1;fill:#01305A;" d="M344.595,295.019H146.41c-3.875,0-7.017-3.073-7.017-6.864l0,0
				c0-3.792,3.142-6.865,7.017-6.865h198.185c3.874,0,7.016,3.073,7.016,6.865l0,0C351.61,291.945,348.469,295.019,344.595,295.019z
				"/>
		</g>
	</g>
	<g>
		<g>
			<g>
				<g>
					<path style="fill:#76C23A;" d="M259.001,365.701c0,0.869-0.359,1.657-0.942,2.228c-0.582,0.569-1.388,0.925-2.279,0.925
						h-12.832v-6.304h12.832C257.559,362.55,259.001,363.96,259.001,365.701z"/>
				</g>
				<g>
					<path style="fill:#76C23A;" d="M259.001,388.113c0,0.872-0.359,1.66-0.942,2.23c-0.582,0.569-1.388,0.922-2.279,0.922h-12.832
						v-6.304h12.832C257.559,384.962,259.001,386.372,259.001,388.113z"/>
				</g>
				<g>
					<rect x="242.947" y="362.55" style="fill:#60A523;" width="5.853" height="6.304"/>
				</g>
				<g>
					<rect x="242.947" y="384.962" style="fill:#60A523;" width="5.853" height="6.304"/>
				</g>
			</g>
			<g>
				<path style="fill:#60A523;" d="M192.023,373.219l-0.177,4.987c-53.188-1.825-94.438-5.62-122.598-11.28
					c-24.15-4.853-39.274-11.091-46.238-19.066c-3.576-4.098-5.066-8.757-4.427-13.851c1.077-8.581,8.87-14.914,23.202-18.882
					c0.215,1.684,0.583,3.316,1.095,4.891c-9.621,2.713-18.306,7.201-19.234,14.601c-0.464,3.696,0.596,6.968,3.243,10
					c6.11,7.002,20.708,12.862,43.384,17.419C98.157,367.643,139.12,371.404,192.023,373.219z"/>
			</g>
			<g>
				<path style="fill:#F6DD28;" d="M242.948,402.517h-33.939c-14.455,0-26.174-11.466-26.174-25.61l0,0
					c0-14.144,11.719-25.609,26.174-25.609h33.939C242.948,372.581,242.948,381.16,242.948,402.517z"/>
			</g>
		</g>
	</g>
	<g>
		<g>
			<g>
				<path style="fill:#F6DD28;" d="M468.258,182.693v16.986c0,2.246-1.861,4.067-4.156,4.067H432.58l-9.517,3.34
					c-0.978,0.344-1.913-0.596-1.538-1.542l3.6-9.096v-13.755c0-2.246,1.862-4.067,4.159-4.067h34.817
					C466.396,178.625,468.258,180.447,468.258,182.693z"/>
			</g>
			<g>
				<g>
					<ellipse style="fill:#FF7C78;" cx="437.867" cy="191.669" rx="3.007" ry="2.942"/>
					<ellipse style="fill:#FF7C78;" cx="447.386" cy="191.669" rx="3.007" ry="2.942"/>
					<ellipse style="fill:#FF7C78;" cx="456.904" cy="191.669" rx="3.007" ry="2.942"/>
				</g>
			</g>
		</g>
		<g>
			<g>
				<path style="fill:#F6DD28;" d="M309.065,79.31c0-3.83,3.185-6.946,7.1-6.946c3.913,0,7.098,3.116,7.098,6.946
					s-3.185,6.945-7.098,6.945C312.25,86.254,309.065,83.139,309.065,79.31z M311.293,79.31c0,2.628,2.186,4.766,4.872,4.766
					c2.686,0,4.871-2.138,4.871-4.766c0-2.629-2.186-4.767-4.871-4.767C313.479,74.542,311.293,76.681,311.293,79.31z"/>
			</g>
			<g>
				<path style="fill:#F6DD28;" d="M285.336,49.56c0-3.83,3.185-6.946,7.099-6.946s7.099,3.116,7.099,6.946
					c0,3.829-3.185,6.945-7.099,6.945S285.336,53.389,285.336,49.56z M287.563,49.56c0,2.628,2.186,4.766,4.871,4.766
					c2.687,0,4.872-2.138,4.872-4.766c0-2.629-2.186-4.767-4.872-4.767C289.749,44.793,287.563,46.931,287.563,49.56z"/>
			</g>
			<g>
				<g>
					<g>
						<path style="fill:#C1E59E;" d="M287.563,82.801c0.614,0,1.113-0.488,1.113-1.089v-4.804c0-0.602-0.499-1.09-1.113-1.09
							s-1.113,0.488-1.113,1.09v4.804C286.45,82.313,286.949,82.801,287.563,82.801z"/>
					</g>
					<g>
						<path style="fill:#C1E59E;" d="M287.563,91.208c0.614,0,1.113-0.488,1.113-1.089v-4.805c0-0.602-0.499-1.089-1.113-1.089
							s-1.113,0.487-1.113,1.089v4.805C286.45,90.721,286.949,91.208,287.563,91.208z"/>
					</g>
				</g>
				<g>
					<g>
						<path style="fill:#C1E59E;" d="M280.671,84.603h4.411c0.615,0,1.114-0.488,1.114-1.09c0-0.602-0.499-1.089-1.114-1.089h-4.411
							c-0.614,0-1.113,0.487-1.113,1.089C279.558,84.115,280.057,84.603,280.671,84.603z"/>
					</g>
					<g>
						<path style="fill:#C1E59E;" d="M290.045,84.603h4.411c0.614,0,1.113-0.488,1.113-1.09c0-0.602-0.499-1.089-1.113-1.089h-4.411
							c-0.615,0-1.114,0.487-1.114,1.089C288.931,84.115,289.43,84.603,290.045,84.603z"/>
					</g>
				</g>
			</g>
			<g>
				<g>
					<g>
						<path style="fill:#C1E59E;" d="M317.532,50.792c0.614,0,1.113-0.488,1.113-1.089v-4.805c0-0.602-0.499-1.089-1.113-1.089
							s-1.113,0.488-1.113,1.089v4.805C316.419,50.304,316.918,50.792,317.532,50.792z"/>
					</g>
					<g>
						<path style="fill:#C1E59E;" d="M317.532,59.199c0.614,0,1.113-0.488,1.113-1.09v-4.804c0-0.602-0.499-1.089-1.113-1.089
							s-1.113,0.488-1.113,1.089v4.804C316.419,58.711,316.918,59.199,317.532,59.199z"/>
					</g>
				</g>
				<g>
					<g>
						<path style="fill:#C1E59E;" d="M310.64,52.593h4.411c0.615,0,1.114-0.488,1.114-1.09c0-0.602-0.499-1.089-1.114-1.089h-4.411
							c-0.614,0-1.113,0.488-1.113,1.089C309.526,52.105,310.025,52.593,310.64,52.593z"/>
					</g>
					<g>
						<path style="fill:#C1E59E;" d="M320.014,52.593h4.411c0.614,0,1.114-0.488,1.114-1.09c0-0.602-0.5-1.089-1.114-1.089h-4.411
							c-0.615,0-1.114,0.488-1.114,1.089C318.899,52.105,319.398,52.593,320.014,52.593z"/>
					</g>
				</g>
			</g>
		</g>
		<g>
			<g>
				<g>
					<path style="fill:#F6DD28;" d="M103.879,31.724c0-3.83,3.185-6.945,7.099-6.945s7.099,3.115,7.099,6.945
						s-3.185,6.946-7.099,6.946S103.879,35.554,103.879,31.724z M106.106,31.724c0,2.628,2.185,4.767,4.872,4.767
						c2.686,0,4.871-2.138,4.871-4.767c0-2.628-2.185-4.766-4.871-4.766C108.291,26.958,106.106,29.096,106.106,31.724z"/>
				</g>
			</g>
			<g>
				<path style="fill:#F6DD28;" d="M76.582,44.793c0-3.83,3.185-6.945,7.099-6.945c3.913,0,7.098,3.116,7.098,6.945
					s-3.185,6.945-7.098,6.945C79.767,51.738,76.582,48.623,76.582,44.793z M78.809,44.793c0,2.628,2.185,4.767,4.872,4.767
					c2.686,0,4.871-2.138,4.871-4.767c0-2.628-2.185-4.767-4.871-4.767C80.994,40.026,78.809,42.165,78.809,44.793z"/>
			</g>
			<g>
				<g>
					<g>
						<path style="fill:#F6DD28;" d="M72.497,63.488c0.615,0,1.114-0.488,1.114-1.089v-4.805c0-0.602-0.499-1.089-1.114-1.089
							c-0.614,0-1.113,0.488-1.113,1.089v4.805C71.384,63,71.883,63.488,72.497,63.488z"/>
					</g>
					<g>
						<path style="fill:#F6DD28;" d="M72.497,71.896c0.615,0,1.114-0.488,1.114-1.09v-4.804c0-0.602-0.499-1.089-1.114-1.089
							c-0.614,0-1.113,0.487-1.113,1.089v4.804C71.384,71.408,71.883,71.896,72.497,71.896z"/>
					</g>
				</g>
				<g>
					<g>
						<path style="fill:#F6DD28;" d="M65.605,65.29h4.411c0.615,0,1.113-0.488,1.113-1.089s-0.499-1.089-1.113-1.089h-4.411
							c-0.615,0-1.113,0.488-1.113,1.089S64.99,65.29,65.605,65.29z"/>
					</g>
					<g>
						<path style="fill:#F6DD28;" d="M74.979,65.29h4.411c0.614,0,1.113-0.488,1.113-1.089s-0.499-1.089-1.113-1.089h-4.411
							c-0.615,0-1.114,0.488-1.114,1.089S74.364,65.29,74.979,65.29z"/>
					</g>
				</g>
			</g>
			<g>
				<g>
					<g>
						<g>
							<path style="fill:#C1E59E;" d="M92.458,18.55c0.615,0,1.114-0.488,1.114-1.089v-4.804c0-0.602-0.499-1.09-1.114-1.09
								c-0.614,0-1.113,0.488-1.113,1.09v4.804C91.345,18.063,91.844,18.55,92.458,18.55z"/>
						</g>
						<g>
							<path style="fill:#C1E59E;" d="M92.458,26.958c0.615,0,1.114-0.488,1.114-1.09v-4.804c0-0.602-0.499-1.089-1.114-1.089
								c-0.614,0-1.113,0.488-1.113,1.089v4.804C91.345,26.47,91.844,26.958,92.458,26.958z"/>
						</g>
					</g>
					<g>
						<g>
							<path style="fill:#C1E59E;" d="M85.566,20.352h4.411c0.614,0,1.113-0.488,1.113-1.09c0-0.602-0.499-1.089-1.113-1.089h-4.411
								c-0.615,0-1.114,0.487-1.114,1.089C84.452,19.864,84.951,20.352,85.566,20.352z"/>
						</g>
						<g>
							<path style="fill:#C1E59E;" d="M94.939,20.352h4.411c0.615,0,1.113-0.488,1.113-1.09c0-0.602-0.499-1.089-1.113-1.089h-4.411
								c-0.615,0-1.113,0.487-1.113,1.089C93.826,19.864,94.325,20.352,94.939,20.352z"/>
						</g>
					</g>
				</g>
			</g>
		</g>
	</g>
</g>
</svg>
