<?xml version="1.0" encoding="utf-8"?>
<!-- Generator: Adobe Illustrator 16.0.0, SVG Export Plug-In . SVG Version: 6.00 Build 0)  -->
<!DOCTYPE svg PUBLIC "-//W3C//DTD SVG 1.1//EN" "http://www.w3.org/Graphics/SVG/1.1/DTD/svg11.dtd">
<svg version="1.1" id="Layer_1" xmlns="http://www.w3.org/2000/svg" xmlns:xlink="http://www.w3.org/1999/xlink" x="0px" y="0px"
	 width="50.5px" height="50.5px" viewBox="0 0 50.5 50.5" enable-background="new 0 0 50.5 50.5" xml:space="preserve">
<g>
	<g>
		
			<linearGradient id="SVGID_1_" gradientUnits="userSpaceOnUse" x1="283.8965" y1="-272.9111" x2="283.8965" y2="-248.8701" gradientTransform="matrix(1 0 0 -1 -256 -245)">
			<stop  offset="0" style="stop-color:#FA9600"/>
			<stop  offset="0.4303" style="stop-color:#F4E10A"/>
			<stop  offset="0.4985" style="stop-color:#F4E11C"/>
			<stop  offset="0.6352" style="stop-color:#F2DF4A"/>
			<stop  offset="0.8255" style="stop-color:#F1DE94"/>
			<stop  offset="1" style="stop-color:#EFDCDE"/>
		</linearGradient>
		<polygon fill="url(#SVGID_1_)" points="25.25,3.87 25.25,27.911 30.543,20.142 		"/>
		
			<linearGradient id="SVGID_2_" gradientUnits="userSpaceOnUse" x1="278.6035" y1="-272.9111" x2="278.6035" y2="-248.8701" gradientTransform="matrix(1 0 0 -1 -256 -245)">
			<stop  offset="0" style="stop-color:#EFDCDE"/>
			<stop  offset="0.0838" style="stop-color:#F5CD8B"/>
			<stop  offset="0.1665" style="stop-color:#FABF40"/>
			<stop  offset="0.2253" style="stop-color:#FEB612"/>
			<stop  offset="0.2545" style="stop-color:#FFB300"/>
			<stop  offset="0.5697" style="stop-color:#F4E10A"/>
			<stop  offset="1" style="stop-color:#FDBB02"/>
		</linearGradient>
		<polygon fill="url(#SVGID_2_)" points="25.25,3.87 25.25,27.911 19.956,20.142 		"/>
		
			<linearGradient id="SVGID_3_" gradientUnits="userSpaceOnUse" x1="289.874" y1="-262.9185" x2="293.4204" y2="-271.2933" gradientTransform="matrix(1 0 0 -1 -256 -245)">
			<stop  offset="0" style="stop-color:#FA9600"/>
			<stop  offset="0.4303" style="stop-color:#F4E10A"/>
			<stop  offset="0.4985" style="stop-color:#F4E11C"/>
			<stop  offset="0.6352" style="stop-color:#F2DF4A"/>
			<stop  offset="0.8255" style="stop-color:#F1DE94"/>
			<stop  offset="1" style="stop-color:#EFDCDE"/>
		</linearGradient>
		<polygon fill="url(#SVGID_3_)" points="30.543,20.142 47.671,20.142 25.25,27.911 		"/>
		
			<linearGradient id="SVGID_4_" gradientUnits="userSpaceOnUse" x1="305.3867" y1="-270.5884" x2="293.668" y2="-270.1666" gradientTransform="matrix(1 0 0 -1 -256 -245)">
			<stop  offset="0" style="stop-color:#EFDCDE"/>
			<stop  offset="0.1745" style="stop-color:#F1DE94"/>
			<stop  offset="0.3648" style="stop-color:#F2DF4A"/>
			<stop  offset="0.5015" style="stop-color:#F4E11C"/>
			<stop  offset="0.5697" style="stop-color:#F4E10A"/>
			<stop  offset="1" style="stop-color:#FA9600"/>
		</linearGradient>
		<polygon fill="url(#SVGID_4_)" points="25.25,27.911 33.969,30.419 47.671,20.142 		"/>
		
			<linearGradient id="SVGID_5_" gradientUnits="userSpaceOnUse" x1="262.1377" y1="-263.5957" x2="280.0469" y2="-269.5023" gradientTransform="matrix(1 0 0 -1 -256 -245)">
			<stop  offset="0" style="stop-color:#FA9600"/>
			<stop  offset="0.4303" style="stop-color:#F4E10A"/>
			<stop  offset="0.4985" style="stop-color:#F4E11C"/>
			<stop  offset="0.6352" style="stop-color:#F2DF4A"/>
			<stop  offset="0.8255" style="stop-color:#F1DE94"/>
			<stop  offset="1" style="stop-color:#EFDCDE"/>
		</linearGradient>
		<polygon fill="url(#SVGID_5_)" points="19.956,20.142 2.828,20.142 25.25,27.911 		"/>
		
			<linearGradient id="SVGID_6_" gradientUnits="userSpaceOnUse" x1="254.1123" y1="-265.2261" x2="274.9856" y2="-273.4172" gradientTransform="matrix(1 0 0 -1 -256 -245)">
			<stop  offset="0" style="stop-color:#EFDCDE"/>
			<stop  offset="0.1745" style="stop-color:#F1DE94"/>
			<stop  offset="0.3648" style="stop-color:#F2DF4A"/>
			<stop  offset="0.5015" style="stop-color:#F4E11C"/>
			<stop  offset="0.5697" style="stop-color:#F4E10A"/>
			<stop  offset="1" style="stop-color:#FA9600"/>
		</linearGradient>
		<polygon fill="url(#SVGID_6_)" points="25.25,27.911 16.53,30.419 2.828,20.142 		"/>
		
			<linearGradient id="SVGID_7_" gradientUnits="userSpaceOnUse" x1="274.292" y1="-291.6304" x2="274.292" y2="-272.9111" gradientTransform="matrix(1 0 0 -1 -256 -245)">
			<stop  offset="0" style="stop-color:#FA9600"/>
			<stop  offset="0.4303" style="stop-color:#F4E10A"/>
			<stop  offset="0.4985" style="stop-color:#F4E11C"/>
			<stop  offset="0.6352" style="stop-color:#F2DF4A"/>
			<stop  offset="0.8255" style="stop-color:#F1DE94"/>
			<stop  offset="1" style="stop-color:#EFDCDE"/>
		</linearGradient>
		<polygon fill="url(#SVGID_7_)" points="16.53,30.419 11.334,46.63 25.25,27.911 		"/>
		
			<linearGradient id="SVGID_8_" gradientUnits="userSpaceOnUse" x1="274.292" y1="-299.9805" x2="274.292" y2="-281.2612" gradientTransform="matrix(1 0 0 -1 -256 -245)">
			<stop  offset="0" style="stop-color:#EFDCDE"/>
			<stop  offset="0.1745" style="stop-color:#F1DE94"/>
			<stop  offset="0.3648" style="stop-color:#F2DF4A"/>
			<stop  offset="0.5015" style="stop-color:#F4E11C"/>
			<stop  offset="0.5697" style="stop-color:#F4E10A"/>
			<stop  offset="1" style="stop-color:#FA9600"/>
		</linearGradient>
		<polygon fill="url(#SVGID_8_)" points="11.334,46.63 25.25,36.599 25.25,27.911 		"/>
		
			<linearGradient id="SVGID_9_" gradientUnits="userSpaceOnUse" x1="288.207" y1="-291.6304" x2="288.207" y2="-272.9111" gradientTransform="matrix(1 0 0 -1 -256 -245)">
			<stop  offset="0" style="stop-color:#FA9600"/>
			<stop  offset="0.4303" style="stop-color:#F4E10A"/>
			<stop  offset="0.4985" style="stop-color:#F4E11C"/>
			<stop  offset="0.6352" style="stop-color:#F2DF4A"/>
			<stop  offset="0.8255" style="stop-color:#F1DE94"/>
			<stop  offset="1" style="stop-color:#EFDCDE"/>
		</linearGradient>
		<polygon fill="url(#SVGID_9_)" points="33.969,30.419 39.165,46.63 25.25,27.911 		"/>
		
			<linearGradient id="SVGID_10_" gradientUnits="userSpaceOnUse" x1="288.207" y1="-299.4302" x2="288.207" y2="-280.7109" gradientTransform="matrix(1 0 0 -1 -256 -245)">
			<stop  offset="0" style="stop-color:#EFDCDE"/>
			<stop  offset="0.1336" style="stop-color:#F1DE94"/>
			<stop  offset="0.2794" style="stop-color:#F2DF4A"/>
			<stop  offset="0.3841" style="stop-color:#F4E11C"/>
			<stop  offset="0.4364" style="stop-color:#F4E10A"/>
			<stop  offset="0.8303" style="stop-color:#FA9600"/>
			<stop  offset="1" style="stop-color:#E37D00"/>
		</linearGradient>
		<polygon fill="url(#SVGID_10_)" points="39.165,46.63 25.25,36.599 25.25,27.911 		"/>
	</g>
	<g>
		
			<linearGradient id="SVGID_11_" gradientUnits="userSpaceOnUse" x1="257.3945" y1="-270.25" x2="305.1055" y2="-270.25" gradientTransform="matrix(1 0 0 -1 -256 -245)">
			<stop  offset="0" style="stop-color:#FA9600"/>
			<stop  offset="0.4303" style="stop-color:#F4E10A"/>
			<stop  offset="0.4985" style="stop-color:#F4E11C"/>
			<stop  offset="0.6352" style="stop-color:#F2DF4A"/>
			<stop  offset="0.8255" style="stop-color:#F1DE94"/>
			<stop  offset="1" style="stop-color:#EFDCDE"/>
		</linearGradient>
		<path fill="url(#SVGID_11_)" d="M10.437,47.906l5.535-17.27L1.395,19.704h18.234l5.154-15.846l0.46-1.264l0.456,1.215
			l5.171,15.895h18.235L34.527,30.636l5.536,17.27L25.25,37.227L10.437,47.906z M25.25,36.636l13.915,10.033l-5.196-16.21
			l13.702-10.278H30.523L25.25,3.971l-0.015,0.042l-5.259,16.168H2.828l13.703,10.276l-5.196,16.211L25.25,36.636z"/>
	</g>
	<g>
		<g>
			
				<linearGradient id="SVGID_12_" gradientUnits="userSpaceOnUse" x1="272.2891" y1="-271.9229" x2="290.4502" y2="-271.9229" gradientTransform="matrix(1 0 0 -1 -256 -245)">
				<stop  offset="0" style="stop-color:#FA9600"/>
				<stop  offset="0.4303" style="stop-color:#F4E10A"/>
				<stop  offset="0.4985" style="stop-color:#F4E11C"/>
				<stop  offset="0.6352" style="stop-color:#F2DF4A"/>
				<stop  offset="0.8255" style="stop-color:#F1DE94"/>
				<stop  offset="1" style="stop-color:#EFDCDE"/>
			</linearGradient>
			<path fill="url(#SVGID_12_)" d="M19.731,35.546l2.106-6.573l-5.549-4.161h6.941l1.962-6.031l0.175-0.48l0.174,0.462l1.969,6.049
				h6.94l-5.549,4.161l2.106,6.573l-5.639-4.065L19.731,35.546z M25.369,31.256l5.296,3.818l-1.978-6.17l5.215-3.911h-6.526
				l-2.006-6.169l-0.007,0.016l-2.002,6.153h-6.525l5.215,3.911l-1.978,6.17L25.369,31.256z"/>
		</g>
		<polygon fill="#FFFFFF" points="25.369,31.256 30.665,35.075 28.688,28.905 33.902,24.994 27.376,24.994 25.37,18.824 
			25.364,18.84 23.362,24.994 16.836,24.994 22.051,28.905 20.073,35.075 		"/>
	</g>
</g>
</svg>
