<?xml version="1.0" encoding="iso-8859-1"?>
<!-- Generator: Adobe Illustrator 16.0.0, SVG Export Plug-In . SVG Version: 6.00 Build 0)  -->
<!DOCTYPE svg PUBLIC "-//W3C//DTD SVG 1.1//EN" "http://www.w3.org/Graphics/SVG/1.1/DTD/svg11.dtd">
<svg version="1.1" xmlns="http://www.w3.org/2000/svg" xmlns:xlink="http://www.w3.org/1999/xlink" x="0px" y="0px" width="3000px"
	 height="2560px" viewBox="0 0 3000 2560" style="enable-background:new 0 0 3000 2560;" xml:space="preserve">
<g id="BACKGROUND">
</g>
<g id="OBJECTS">
	<g>
		<g>
			<g>
				<path style="fill:#9CFFCD;" d="M2773.745,1972.906c69.323-165.416,156.524-325.415,193.8-500.853
					c37.275-175.437,15.475-376.16-109.473-504.829c-98.576-101.512-246.289-142.398-387.787-142.851
					c-227.175-0.727-448.734,92.992-625.155,236.119c-176.419,143.126-310.358,333.194-412.358,536.185
					c-41.424,82.441-85.183,174.59-170.304,210.186c-70.95,29.67-154.275,10.718-220.809-27.85
					c-66.535-38.566-120.667-94.765-178.124-145.883c-140.549-125.039-326.198-226.411-510.217-187.346
					c-151.258,32.111-273.02,159.764-316.688,308.1c-43.668,148.334-15.147,312.359,58.583,448.277
					c73.479,135.457,212.794,251.501,361.393,286.033h2230.828C2653.396,2315.053,2705.416,2135.951,2773.745,1972.906z"/>
				<path style="fill:#9CFFCD;" d="M770.155,1051.813c60.092,36.243,116.97,85.503,152.763,146.72
					c34.176,58.451,26.369,133.512,67.767,188.729c23.276,31.045,59.895,50.358,97.92,58.093
					c83.274,16.941,174.026-9.415,236.291-66.643c96.333-88.544,100.914-233.692,107.458-355.603
					c5.839-108.798,2.124-219.554-29.23-323.899c-40.997-136.432-132.24-254.708-268.961-304.715
					c-192.666-70.468-474.177-1.606-607.154,156.72c-54.829,65.279-84.027,156.1-60.611,238.071
					C505.998,927.926,658.331,984.371,770.155,1051.813z"/>
			</g>
		</g>
		<g>
			<g>
				<g>
					<path style="fill:#F6CF67;" d="M1555.717,2349.885c-2.103,4.352-3.288,9.229-3.288,14.387
						c0,18.287,14.824,33.111,33.112,33.111s33.112-14.824,33.112-33.111c0-5.532-1.369-10.74-3.769-15.324
						C1595.451,2351.475,1575.5,2351.582,1555.717,2349.885z"/>
					<path style="fill:#F7F3E2;" d="M1602.179,1368.372l1.915,2.685l4.423-50.552l-7.662-26.211
						c-8.094,4.723-15.974,7.457-22.74,9.017C1590.395,1342.148,1602.179,1368.372,1602.179,1368.372z"/>
					<path style="fill:#04A7F3;" d="M1473.341,1408.226l11.955-151.583c-12.278-12.222-32.308-31.602-44.736-43.584
						c-19.263,43.811-53.543,79.425-89.987,110.474c-1.358,1.157-2.743,2.358-4.133,3.581c-1.066,19.313,2.001,38.655,10.365,56.062
						c10.64,22.142,28.746,39.605,44.349,58.581c17.369,21.123,31.888,45.374,41.574,71.073
						c7.856-37.172,17.037-73.456,25.308-87.868C1470.987,1419.818,1472.875,1414.137,1473.341,1408.226z M1417.052,1446.553
						l27.636-150.393l-20.709-29.255l20.709,29.255L1417.052,1446.553z"/>
					<path style="fill:#27EF9F;" d="M1523.118,1695.216c-4.974,21.681-18.721,35.601-28.741,43.188
						c-6.805,5.151-13.097,10.904-19.106,16.963c-10.271,10.356-27.742,22.209-48.437,34.274
						c-24.961,157.469-73.292,313.33-128.847,461.815c-11.256,30.086-21.877,59.665-30.56,89.386
						c9.725,1.048,19.477,1.497,29.224,0.729c37.3-2.943,72.398-23.42,108.738-28.496c-18.712-5.852-37.476-11.514-56.479-16.26
						c-15.287-3.819-31.268-6.985-47.033-7.613c15.766,0.628,31.746,3.794,47.033,7.613c19.002,4.746,37.767,10.408,56.479,16.26
						c37.523,11.732,74.832,24.225,113.4,31.644c12.125,2.333,24.492,4.101,36.928,5.167c19.783,1.697,39.734,1.59,59.168-0.938
						c11.484-1.492,22.785-3.834,33.761-7.15c-60.407-293.554-81.065-532.599-86.419-606.785
						C1547.873,1722.662,1534.395,1709.306,1523.118,1695.216z M1584.583,1990.633c-78.181,109.135-216.036,155.086-216.036,155.086
						S1506.402,2099.768,1584.583,1990.633z"/>
					<path style="fill:#1A3139;" d="M1453.799,1017.947c-9.648-1.489-19.172-3.662-28.408-6.555
						c5.483,9.001,10.257,18.705,14.316,28.881c4.796-0.5,10.121-1.053,15.127-1.575L1453.799,1017.947z"/>
					<path style="fill:#E5B28F;" d="M1458.886,1119.943c144.309-48.261,169.405-160.077,169.405-160.077
						c-21.883,23.146-49.654,40.568-79.832,50.678c-28.841,9.661-62.438,12.379-94.66,7.403l1.035,20.751L1458.886,1119.943z"/>
					<path style="fill:#E9BB8D;" d="M1454.833,1038.698c-5.006,0.521-10.331,1.075-15.127,1.575
						c10.044,25.187,15.707,53.214,16.935,80.43c0.758-0.248,1.493-0.508,2.245-0.76L1454.833,1038.698z"/>
					<path style="fill:#F4D4B8;" d="M1686.455,1653.706c-14.36-8.515-31.844-17.767-31.844-17.767s-2.97-18.664-13.146-35.256
						l-8.035-181.507c-0.215-4.854-1.806-9.522-4.563-13.388l-24.774-34.732l-1.915-2.685c0,0-11.784-26.224-24.064-65.062
						c-11.602-36.694-23.646-84.648-26.612-132.395c-0.341-5.49-6.23-8.434-10.365-5.152c-6.472,5.139-14.431,18.37-18.491,51.491
						c-4.655-32.951-15.392-45.354-22.697-50c-3.285-2.09-7.616,0.158-7.922,4.039l-6.731,85.35l-11.955,151.583
						c-0.466,5.911-2.354,11.593-5.306,16.735c-8.271,14.412-17.451,50.696-25.308,87.868c-10.794,51.072-19.09,103.82-19.09,103.82
						l-40.207,46.579l-71.633,17.679l-54.503,13.451c-7.572,11.681-15.102,49.992,5.629,174.017
						c6.782-2.827,21.837-9.176,41.097-17.729c35.258-15.661,84.543-38.694,122.813-61.005
						c20.695-12.065,38.167-23.918,48.437-34.274c6.01-6.059,12.302-11.812,19.106-16.963c10.021-7.587,23.768-21.507,28.741-43.188
						c11.276,14.09,24.755,27.446,39.108,39.796c27.595,23.742,58.391,43.762,82.861,58.114
						c14.454,8.479,26.694,14.979,34.765,19.101c13.076-64.839,18.725-126.577,20.521-149.655
						C1696.949,1660.093,1691.933,1656.953,1686.455,1653.706z M1524.596,1305.475l0.006,0.269l-0.046-0.142
						C1524.568,1305.559,1524.582,1305.518,1524.596,1305.475z"/>
					<path style="fill:#1A3139;" d="M1524.602,1305.744l-0.006-0.269c-0.014,0.043-0.027,0.084-0.04,0.127L1524.602,1305.744z"/>
					<path style="fill:#1A3139;" d="M1614.885,2348.947c2.399,4.584,3.769,9.792,3.769,15.324c0,18.287-14.824,33.111-33.112,33.111
						s-33.112-14.824-33.112-33.111c0-5.157,1.186-10.035,3.288-14.387c-12.436-1.066-24.803-2.834-36.928-5.167
						c-38.568-7.419-75.877-19.911-113.4-31.644c-36.34,5.076-71.438,25.553-108.738,28.496c-9.747,0.769-19.499,0.319-29.224-0.729
						c-13.31,45.558-22.028,91.455-21.455,140.012l284.682,2.434v-119.936v119.936l149.693,1.277
						c-11.623-48.66-22.16-96.394-31.702-142.768C1637.67,2345.113,1626.369,2347.455,1614.885,2348.947z"/>
					<path style="fill:#04A7F3;" d="M998.862,1539.427c0.317,27.329,1.165,53.427,2.711,77.223l-8.854,99.795
						c80.16-15.123,184.038-32.672,242.684-34.442l14.074-35.659l5.886-65.472l-189.649,22.045
						C1049.361,1593.65,1020.605,1563.599,998.862,1539.427z"/>
					<path style="fill:#04A7F3;" d="M1007.317,1411.906c0,0-3.038,8.282-7.414,19.97c-9.314,24.876-24.711,65.231-29.922,74.351
						c0,0,12.437,14.921,28.881,33.2c21.743,24.172,50.499,54.224,66.852,63.489l189.649-22.045l2.773-0.323l7.304-42.664
						c-5.72-10.798-11.721-21.441-17.899-31.987C1168.021,1463.771,1007.317,1411.906,1007.317,1411.906z M1082.216,1572.282
						c-10.31,0-18.667-8.358-18.667-18.669c0-10.309,8.358-18.668,18.667-18.668c10.311,0,18.668,8.359,18.668,18.668
						C1100.884,1563.924,1092.526,1572.282,1082.216,1572.282z"/>
					<path style="fill:#1A3139;" d="M1350.971,623.192c12.333-1.747,24.537-6.186,33.955-14.337c2.788-2.414,5.39-5.262,6.487-8.782
						s0.333-7.828-2.617-10.041c-3.823-2.868-9.211-1.243-13.731,0.306c-7.216,2.474-14.595,4.469-22.073,5.975
						c-4.715,0.949-9.47,1.704-14.248,2.26c-0.575,0.067-1.285,0.122-2.098,0.174c-0.252,8.262-0.61,16.508-1.45,24.773
						C1340.611,624.136,1346.158,623.874,1350.971,623.192z"/>
					<path style="fill:#04A7F3;" d="M2162.086,1310.248c-38.356-75.64-72.3-146.174-148.583-189.148
						c-8.157-4.595-16.529-8.928-25.06-13c-19.358-9.24-39.564-17.074-60.152-23.17c-40.664,14.986-85.959,19.591-125.514,5.198
						l-14.283,176.777l-160.203-64.494l160.203,64.494l14.283-176.777c-19.431-7.071-37.482-18.701-52.906-35.982
						c-20.93-23.452-34.004-51.081-40.46-80.394l-119.083,284.528l10.526,36.014l7.662,26.211l-4.423,50.552l24.774,34.732
						c2.757,3.865,4.348,8.533,4.563,13.388l8.035,181.507c10.176,16.592,13.146,35.256,13.146,35.256s17.483,9.252,31.844,17.767
						c11.954-10.358,26.409-6.753,26.409-6.753c7.094,0.739,22.201,4.119,42.669,9.303l-19.373-71.528
						c0,0,251.456-82.833,281.134-77.317c-29.678-5.516-281.134,77.317-281.134,77.317l19.373,71.528
						c13.414,3.398,29.131,7.572,46.414,12.288l157.907,20.772c0,0,41.994-19.041,69.486-55.812
						c-9.01-168.497-3.431-387.032-3.431-387.032s-5.579,218.535,3.431,387.032c2.024,37.865,4.783,73.214,8.511,102.977
						c59.42,17.62,102.938,30.781,102.938,30.781s-43.518-13.161-102.938-30.781c-71.643-21.245-166.399-48.972-235.904-67.938
						l-4.021-0.53l4.021,0.53c-17.283-4.716-33-8.89-46.414-12.288c-20.468-5.184-35.575-8.563-42.669-9.303
						c0,0-14.455-3.605-26.409,6.753c5.478,3.247,10.494,6.387,13.918,8.865c0.478-6.135,0.685-9.556,0.685-9.556
						s-0.207,3.421-0.685,9.556c-1.796,23.078-7.444,84.816-20.521,149.655c-4.688,23.241-10.327,46.877-17.087,69.271
						c0,0-12.127,1.974-12.127-44.646c0,46.619,12.127,44.646,12.127,44.646c6.76-22.394,12.399-46.029,17.087-69.271
						c-8.07-4.122-20.311-10.622-34.765-19.101c-5.714,31.039-15.447,108.178,25.654,121.878l147.428,31.592
						c0,0,10.341-5.665,23.38-24.031c19.406-27.333,44.795-82.813,50.997-189.732c-6.202,106.919-31.591,162.399-50.997,189.732
						c65.87,34.547,155.378,70.289,232.539,98.723c89.53,32.992,162.433,56.143,162.433,56.143
						c65.994,21.999,121.707-15.224,132.622-83.603c7.256-45.454-4.866-94.81-13.171-139.457
						C2320.791,1665.234,2248.861,1481.367,2162.086,1310.248z M1634.045,1244.758c0-9.627,5-17.433,11.167-17.433
						s11.165,7.806,11.165,17.433c0,9.628-4.998,17.433-11.165,17.433S1634.045,1254.386,1634.045,1244.758z M1671.062,1296.16
						l-28.081,231.128L1671.062,1296.16z M1642.98,1565.581l94.456-298.676L1642.98,1565.581z M1944.218,1656.845
						c-10.69,0-19.358-8.666-19.358-19.358c0-10.691,8.668-19.359,19.358-19.359c10.692,0,19.359,8.668,19.359,19.359
						C1963.577,1648.179,1954.91,1656.845,1944.218,1656.845z M2032.075,1426.449c0,0,34.681-117.167,102.331-121.129
						C2066.756,1309.282,2032.075,1426.449,2032.075,1426.449z M2156.105,1768.534c0,0,71.48,20.48,99.563,68.317
						C2227.586,1789.015,2156.105,1768.534,2156.105,1768.534z M2140.789,1760.874c0,0,135.301-16.592,188.911,40.847
						C2276.09,1744.282,2140.789,1760.874,2140.789,1760.874z"/>
					<path style="fill:#04A7F3;" d="M1297.986,2251.456c55.555-148.485,103.886-304.347,128.847-461.815
						c-38.27,22.311-87.555,45.344-122.813,61.005c-5.931,96.002-38.226,96.589-38.226,96.589
						c-39.459,0.506-116.213,11.438-146.344,15.949c-7.751,1.16-15.463-2.475-19.416-9.243c-1.015-1.737-2-3.475-2.968-5.213
						c-39.417,9.919-84.929,22.136-129.986,34.573l-72.089,494.557l281.487,2.404c-4.683-104.838,22.434-200.9,61.111-298.316
						c43.301-109.06,73.05-225.035,101.555-338.741c-28.504,113.706-58.253,229.682-101.555,338.741
						c-38.677,97.416-65.794,193.479-61.111,298.316l69.494,0.592c-0.574-48.557,8.145-94.454,21.455-140.012
						C1276.109,2311.121,1286.73,2281.542,1297.986,2251.456z M1158.574,1990.633c0,0-7.838,208.254,12.448,384.17
						C1150.736,2198.887,1158.574,1990.633,1158.574,1990.633z"/>
					<path style="fill:#04A7F3;" d="M2029.341,1633.505c-27.492,36.771-69.486,55.812-69.486,55.812l-157.907-20.772
						c69.505,18.966,164.262,46.692,235.904,67.938C2034.124,1706.719,2031.365,1671.37,2029.341,1633.505z"/>
					<path style="fill:#04A7F3;" d="M1818.17,1946.596l-147.428-31.592c-41.102-13.7-31.368-90.839-25.654-121.878
						c-24.471-14.353-55.267-34.372-82.861-58.114c5.354,74.187,26.012,313.231,86.419,606.785
						c9.542,46.374,20.079,94.107,31.702,142.768l244.958,2.091l-6.616-400.291l6.616,400.291l180.362,1.54l-31.579-466.908
						c-77.161-28.434-166.669-64.176-232.539-98.723C1828.511,1940.931,1818.17,1946.596,1818.17,1946.596z M1614.102,1919.164
						c-10.398,0-18.828-8.43-18.828-18.827s8.43-18.827,18.828-18.827c10.397,0,18.826,8.43,18.826,18.827
						S1624.499,1919.164,1614.102,1919.164z M1657.021,2164.547c-10.397,0-18.827-8.43-18.827-18.828
						c0-10.397,8.43-18.826,18.827-18.826c10.398,0,18.828,8.429,18.828,18.826
						C1675.849,2156.117,1667.419,2164.547,1657.021,2164.547z M1701.058,2423.256c-10.398,0-18.827-8.43-18.827-18.827
						c0-10.398,8.429-18.827,18.827-18.827c10.399,0,18.828,8.429,18.828,18.827
						C1719.886,2414.826,1711.457,2423.256,1701.058,2423.256z M1657.021,1930.064c0,0,57.439,405.205,91.904,539.23
						C1714.46,2335.27,1657.021,1930.064,1657.021,1930.064z"/>
					<path style="fill:#04A7F3;" d="M1071.139,1710.307c0,0-40.858,118.645,25.928,238.421c0.968,1.738,1.953,3.476,2.968,5.213
						c3.952,6.769,11.665,10.403,19.416,9.243c30.131-4.512,106.884-15.443,146.344-15.949c0,0,32.295-0.587,38.226-96.589
						c-19.26,8.554-34.315,14.902-41.097,17.729c3.075,18.392,6.758,38.633,11.168,60.988c0,0,10.211,8.936,14.041-37.016
						c-3.829,45.951-14.041,37.016-14.041,37.016c-4.41-22.355-8.093-42.597-11.168-60.988
						c-20.731-124.024-13.201-162.336-5.629-174.017c3.927-6.059,7.862-4.964,7.862-4.964s-3.935-1.095-7.862,4.964l54.503-13.451
						c-3.495-45.178-19.177-89.08-39.513-129.772c-2.224-4.449-4.518-8.858-6.844-13.251l-7.304,42.664l-2.773,0.323l-5.886,65.472
						l-14.074,35.659c22.734-0.686,38.676,0.998,43.794,6.116c-5.118-5.118-21.06-6.802-43.794-6.116
						c-58.646,1.771-162.524,19.319-242.684,34.442c-63.132,11.91-111.551,22.313-111.551,22.313s48.418-10.403,111.551-22.313
						l8.854-99.795c-1.546-23.796-2.394-49.894-2.711-77.223c-16.444-18.279-28.881-33.2-28.881-33.2
						c5.211-9.119,20.607-49.475,29.922-74.351c4.039-148.694,16.987-295.177,16.987-295.177s-12.948,146.482-16.987,295.177
						c4.376-11.688,7.414-19.97,7.414-19.97s160.705,51.865,240.224,93.99c-17.454-29.79-36.258-58.841-53.767-88.614
						c-18.795-31.961-36.103-64.797-51.854-98.362c-27.463-58.523-55.333-119.305-59.042-184.592
						c-0.966-17.005-0.835-34.05,0.169-51.063c-63.038,17.993-172.5,84.777-255.366,324.558
						c-14.88,43.059-35.09,84.084-60.138,122.138c-76.583,116.354-225.279,381.785-72.743,493.191
						c23.687,17.3,54.149,22.408,82.306,14.193c42.215-12.315,115.455-33.477,189.974-54.045
						c45.058-12.438,90.569-24.654,129.986-34.573C1030.28,1828.951,1071.139,1710.307,1071.139,1710.307z M647.363,1843.204
						c65.098-137.854,212.526-99.561,212.526-99.561S712.461,1705.351,647.363,1843.204z M989.447,1616.649
						c-81.691-53.601-122.538-178.921-122.538-178.921S907.756,1563.049,989.447,1616.649z"/>
					<path style="fill:#F4D4B8;" d="M1833.847,695.258c-1.933-38.732-34.897-68.564-73.63-66.632
						c-18.074,0.902-34.192,8.582-46.066,20.434c-22.868-1.145-44.135-10.584-60.979-26.946
						c-19.812-19.247-30.464-42.886-39.239-68.492c-12.443-36.313-29.714-86.193-69.902-99.803
						c-12.537-4.246-26.124-4.745-39.146-2.815c-1.639,0.243-16.551,4.955-17.373,4.224c-0.103-0.091-64.384-57.2-121.841,19.275
						c-18.423,24.52-25.178,61.283-27.599,90.801c-0.923,11.241-1.086,22.357-1.426,33.442c0.813-0.052,1.523-0.107,2.098-0.174
						c4.778-0.556,9.533-1.311,14.248-2.26c7.478-1.505,14.857-3.501,22.073-5.975c4.521-1.549,9.909-3.173,13.731-0.306
						c2.95,2.213,3.713,6.52,2.617,10.041c-1.097,3.521-3.699,6.369-6.487,8.782c-9.418,8.151-21.621,12.59-33.955,14.337
						c-4.813,0.682-10.36,0.944-15.776,0.327c-0.693,6.829-1.712,13.671-3.29,20.55c-5.524,24.079-15.003,47.257-28.043,68.243
						c3.265,56.176,5.411,112.537,16.012,167.688c4.398,22.883,10.558,45.68,21.62,66.187
						c17.712,32.839,48.714,54.184,83.896,65.205c9.236,2.893,18.76,5.066,28.408,6.555c32.222,4.977,65.819,2.258,94.66-7.403
						c30.178-10.109,57.949-27.531,79.832-50.679c0,0-25.096,111.817-169.405,160.078c-0.751,0.252-1.487,0.512-2.245,0.76
						c0.957,21.199-0.759,41.901-5.224,60.359c-2.695,11.141-6.37,21.791-10.858,31.997c12.428,11.982,32.458,31.362,44.736,43.584
						l6.731-85.35c0.306-3.881,4.637-6.129,7.922-4.039c7.306,4.646,18.042,17.049,22.697,50
						c4.061-33.121,12.02-46.352,18.491-51.491c4.135-3.282,10.024-0.338,10.365,5.152c2.967,47.747,15.011,95.7,26.612,132.395
						c6.767-1.56,14.646-4.293,22.74-9.017l-10.526-36.014l119.083-284.528c-15.411-69.984,6.96-149.571,50.537-204.918
						c2.398,0.126,4.815,0.176,7.267,0.054C1805.947,766.956,1835.779,733.99,1833.847,695.258z M1331.571,749.4
						c-13.318,0.659-24.383-4.22-24.712-10.896c-0.33-6.676,10.199-12.621,23.517-13.28c13.319-0.659,24.383,4.22,24.713,10.896
						S1344.89,748.742,1331.571,749.4z M1373.74,710.708c-8.36,0.856-16.542-12.159-18.273-29.07
						c-1.733-16.911,3.64-31.316,12-32.172c8.36-0.856,16.541,12.159,18.273,29.071
						C1387.473,695.447,1382.1,709.851,1373.74,710.708z M1507.117,579.102c3.578-3.167,9.081-1.984,13.711-0.804
						c7.393,1.882,14.908,3.275,22.483,4.172c4.778,0.566,9.577,0.934,14.386,1.102c6.165,0.216,27.553-2.235,26.594,8.515
						c-0.137,1.538-0.809,2.979-1.607,4.298c-6.855,11.322-23.165,13.434-35.188,12.714c-12.433-0.745-24.954-4.184-35-11.548
						c-2.975-2.18-5.797-4.808-7.175-8.229C1503.941,585.9,1504.355,581.545,1507.117,579.102z M1521.695,668.065
						c-1.734-16.912,3.64-31.315,11.999-32.172c8.359-0.857,16.541,12.159,18.273,29.07c1.732,16.912-3.64,31.316-11.999,32.172
						C1531.608,697.993,1523.428,684.977,1521.695,668.065z M1569.586,741.393c-13.318,0.659-24.384-4.22-24.713-10.896
						c-0.331-6.676,10.198-12.621,23.517-13.279c13.318-0.659,24.383,4.219,24.713,10.896
						C1593.433,734.79,1582.904,740.734,1569.586,741.393z"/>
					<path style="fill:#1A3139;" d="M1082.878,1134.328c3.709,65.287,31.579,126.068,59.042,184.592
						c15.751,33.565,33.058,66.401,51.854,98.362c17.509,29.773,36.313,58.824,53.767,88.614
						c6.178,10.546,12.18,21.189,17.899,31.987c2.327,4.393,4.621,8.802,6.844,13.251c20.336,40.692,36.018,84.595,39.513,129.772
						l71.633-17.679l40.207-46.579c0,0,8.295-52.748,19.09-103.82c-9.686-25.699-24.205-49.95-41.574-71.073
						c-15.604-18.976-33.709-36.439-44.349-58.581c-8.364-17.406-11.431-36.748-10.365-56.062
						c-13.144,11.573-26.933,26.126-27.417,44.371c-0.492,18.587,12.06,35.139,24.158,48.012
						c-12.098-12.873-24.65-29.425-24.158-48.012c0.484-18.245,14.273-32.798,27.417-44.371c1.39-1.223,2.774-2.424,4.133-3.581
						c36.444-31.049,70.724-66.663,89.987-110.474c4.488-10.206,8.163-20.855,10.858-31.997c4.464-18.458,6.18-39.16,5.224-60.359
						c-1.229-27.216-6.891-55.244-16.935-80.43c-4.059-10.177-8.833-19.88-14.316-28.881
						c-35.182-11.021-66.184-32.365-83.896-65.205c-11.062-20.507-17.221-43.304-21.62-66.187
						c-10.601-55.151-12.748-111.513-16.013-167.688c-1.601,2.576-3.232,5.133-4.939,7.64
						c-19.958,29.295-48.722,54.832-60.395,89.115c-11.472,33.694-7.904,70.709,4.982,103.442
						c-12.887-32.732-16.454-69.748-4.982-103.442c11.673-34.283,40.437-59.819,60.395-89.115c1.708-2.507,3.339-5.064,4.939-7.64
						c13.04-20.986,22.519-44.164,28.043-68.243c1.579-6.879,2.597-13.721,3.29-20.55c0.84-8.265,1.198-16.511,1.45-24.773
						c0.34-11.084,0.503-22.201,1.425-33.442c2.421-29.518,9.176-66.281,27.599-90.801c57.459-76.475,121.74-19.366,121.842-19.275
						c0.822,0.731,15.734-3.981,17.373-4.224c13.021-1.93,26.608-1.431,39.146,2.815c40.188,13.61,57.459,63.489,69.902,99.803
						c8.775,25.606,19.428,49.246,39.239,68.492c16.845,16.362,38.111,25.802,60.979,26.946
						c11.874-11.852,27.992-19.531,46.066-20.434c38.732-1.932,71.697,27.9,73.63,66.632s-27.899,71.697-66.632,73.629
						c-2.451,0.122-4.868,0.072-7.267-0.054c-43.577,55.347-65.948,134.934-50.537,204.918c6.456,29.313,19.53,56.942,40.46,80.394
						c15.424,17.281,33.476,28.911,52.906,35.982c39.555,14.393,84.85,9.788,125.514-5.198c0.078-0.028,0.156-0.055,0.235-0.083
						c-0.079,0.028-0.157,0.055-0.235,0.083c20.588,6.096,40.794,13.93,60.152,23.17c8.612-55.177-1.406-113.291-28.822-162.004
						c-27.249-48.417-70.508-87.573-90.585-139.375c-11.541-29.772-14.712-62.117-15.482-94.039
						c-0.992-41.085,1.804-82.261-1.079-123.256c-6.663-94.749-63.309-196.693-138.527-255.815
						c-40.758-32.036-121.59-21.494-121.59-21.494s-55.333-67.759-150.294-29.195c0,0-111.885,46.489-183.343,147.828
						c-21.08,29.895-31.638,72.005-38.994,106.987c-16.102,76.579-24.463,152.423-48.742,227.56
						c-1.262,3.906-2.547,7.822-3.845,11.75c-29.124,61.144-50.929,127.112-66.426,192.911
						c-8.732,37.078-15.413,75.115-17.667,113.31C1082.043,1100.278,1081.912,1117.323,1082.878,1134.328z M1572.467,329.599
						c-61.591,30.051-75.368,103.091-75.368,103.091S1510.876,359.65,1572.467,329.599z"/>
					
						<ellipse transform="matrix(-0.0494 -0.9988 0.9988 -0.0494 918.118 2332.4211)" style="fill:#F9B9AA;" cx="1568.988" cy="729.306" rx="12.102" ry="24.144"/>
					
						<ellipse transform="matrix(-0.0494 -0.9988 0.9988 -0.0494 660.3156 2103.0867)" style="fill:#F9B9AA;" cx="1330.973" cy="737.313" rx="12.102" ry="24.144"/>
					<path style="fill:#1A3139;" d="M1512.496,597.55c10.046,7.365,22.567,10.804,35,11.548c12.022,0.72,28.332-1.392,35.188-12.714
						c0.799-1.32,1.471-2.761,1.607-4.298c0.959-10.75-20.429-8.298-26.594-8.515c-4.809-0.168-9.609-0.536-14.386-1.102
						c-7.575-0.897-15.091-2.29-22.483-4.172c-4.63-1.18-10.133-2.363-13.711,0.804c-2.762,2.444-3.176,6.799-1.796,10.219
						C1506.699,592.742,1509.521,595.37,1512.496,597.55z"/>
					
						<ellipse transform="matrix(-0.1019 -0.9948 0.9948 -0.1019 833.7365 2112.8613)" style="fill:#1A3139;" cx="1370.603" cy="680.086" rx="30.782" ry="15.216"/>
					
						<ellipse transform="matrix(0.9948 -0.1019 0.1019 0.9948 -59.9291 160.1069)" style="fill:#1A3139;" cx="1536.832" cy="666.515" rx="15.215" ry="30.781"/>
					<circle style="fill:#27EF9F;" cx="1082.216" cy="1553.614" r="18.668"/>
					<circle style="fill:#27EF9F;" cx="1944.218" cy="1637.486" r="19.359"/>
					<circle style="fill:#F6CF67;" cx="1657.021" cy="2145.72" r="18.827"/>
					<circle style="fill:#F6CF67;" cx="1701.058" cy="2404.429" r="18.827"/>
					<circle style="fill:#F6CF67;" cx="1614.102" cy="1900.337" r="18.827"/>
					<ellipse style="fill:#F6CF67;" cx="1645.211" cy="1244.758" rx="11.166" ry="17.433"/>
				</g>
				<g>
					<path style="opacity:0.15;" d="M1158.574,1990.633c0,0-56.535,278.217-27.418,489.242l45.322,0.387
						C1176.479,2480.262,1147.458,2118.349,1158.574,1990.633z"/>
					<path style="opacity:0.15;" d="M1372.588,2028.398c0,0-54.708,208.406-35.259,265.703c0,0,45.806,8.014,60.241,19.491
						c0,0-38.865,22.928-50.424,37.431c0,0-39.815,73.152-17.339,129.238l-83.835,0.592c0,0-2.074-60.666,21.455-140.012
						c0,0,20.648-69.393,36.377-105.034l26.448-74.075L1372.588,2028.398z"/>
					<path style="opacity:0.15;" d="M1500.513,2344.199c0,0,88.513,33.744,148.133,20.473c0,0,4.82,84.377,12.955,119.893h18.747
						c0,0-24.819-108.701-31.702-142.768C1648.646,2341.797,1597.582,2361.828,1500.513,2344.199z"/>
					<path style="opacity:0.15;" d="M1056.717,1836.782c0,0-6.309,66.63,7.203,120.446l27.604-7.132
						C1091.523,1950.097,1058.108,1860.948,1056.717,1836.782z"/>
					<path style="opacity:0.15;" d="M958.128,2057.86c0,0,79.134-63.42,135.565-74.8c0.762-0.154,1.498,0.27,1.829,0.974
						c0.632,1.342,2.142,3.485,5.642,4.964c4.688,1.98,10.053,1.553,14.63-0.674c14.73-7.163,61.474-28.754,96.596-32.283
						l-101.994,9.623c0,0-17.168-10.968-18.873-15.567l-124.443,33.204L958.128,2057.86z"/>
					<path style="opacity:0.15;" d="M1645.088,1793.126c0,0-102.13-65.052-119.764-95.671c0,0-12.725,27.04-35.213,44.312
						c0,0-80.873,69.209-186.09,108.879c-30.283,21.98-54.538-108.879-54.538-108.879c0.464,88.914,27.451,190.03,27.451,190.03
						c12.242-3.914,19.132-26.824,22.897-47.309c1.172,0.502,1.979,0.725,1.979,0.725s70.009-17.374,118.358-56.548l-2.274,12.202
						c0,0,73.585-24.75,118.936-51.227l31.15,14.31l-0.969-10.549l72.031,32.77c0,0,2.867,71.19,24.057,57.392l29.533-148.551
						C1692.634,1735.012,1670.746,1796.759,1645.088,1793.126z"/>
					<path style="opacity:0.15;" d="M1918.689,2086.364c0,0,36.173,305.3,39.597,401.831l-32.98-1.54L1918.689,2086.364z"/>
					<path style="opacity:0.15;" d="M1738.372,1935.064c0,0,73.497,41.73,90.623,35.736c0,0,13.08,0.096,25.687-17.572
						l222.018,133.136l-2.271-61.651l-228.145-99.614c0,0-21.81,17.099-33.446,20.354L1738.372,1935.064z"/>
					<polygon style="opacity:0.15;" points="1831.563,1676.724 1944.218,1708.95 1957.388,1688.992 1827.883,1671.955 					"/>
					<polyline style="opacity:0.15;" points="1628.291,1202.411 1773.34,1296.16 1776.787,1262.191 1628.291,1202.411 					"/>
					<path style="opacity:0.15;" d="M1423.94,1009.245l29.594,11.711l5.676,105.466
						C1459.21,1126.422,1443.37,1033.849,1423.94,1009.245z"/>
					<path style="opacity:0.15;" d="M2025.064,1505.402c0,0,17.18,180.32,69.387,247.938l-56.6-16.859
						c0,0-15.622-187.036-12.906-238.142"/>
					<path style="opacity:0.15;" d="M1255.366,1581.783l-189.304,24.132l-61.614-60.962l0,0l-16.456-17.765
						c0,0,2.405,47.337-11.125,78.938c0,0-6.659,79.149-59.756,125.157l75.609-14.839l8.854-99.795l1.852-46.185l62.447,46.185
						L1255.366,1581.783z"/>
					<path style="opacity:0.15;" d="M859.889,1743.644c0,0-152.61-34.03-212.526,99.561
						C647.363,1843.204,637.424,1702.289,859.889,1743.644z"/>
					<path style="opacity:0.15;" d="M2140.789,1760.874c0,0,126.205-15.778,186.34,38.208
						C2327.129,1799.082,2248.37,1710.209,2140.789,1760.874z"/>
					<path style="opacity:0.15;" d="M1454.251,1166.825c0,0-2.43,116.63-89.125,172.5c0,0,1.284,35.627,30.825,72.399
						c0,0,32.81,35.156,45.945,95.687c0,0-24.359-51.723-40.744-65.655c0,0-58.768-53.21-55.104-110.893
						C1346.05,1330.863,1448.013,1241.119,1454.251,1166.825z"/>
				</g>
				<g>
					<path style="fill:#AE7A6B;" d="M1469.736,855.18c1.165-6.747,3.995-13.151,7.857-18.931
						c3.899-5.754,8.975-10.848,14.946-14.695c5.98-3.862,12.822-6.378,19.836-7.219c6.99-0.809,14.245,0.018,20.379,3.124
						c-6.822,0.168-13.133,1.129-19.129,2.984c-5.986,1.824-11.619,4.456-16.793,7.775c-5.192,3.339-9.972,7.378-14.407,11.938
						C1477.945,844.698,1473.917,849.787,1469.736,855.18z"/>
					<g>
						<path style="fill:#1A3139;" d="M1559.168,632.199c-3.476-4.886-8.595-9.053-14.708-10.971
							c-6.096-2.009-12.776-1.411-18.423,0.836c-5.637,2.255-10.76,6.538-12.739,12.091c4.338-3.838,9.254-5.945,14.317-6.986
							c5.077-0.997,10.162-0.985,14.806,0.54c4.654,1.465,8.916,4.271,12.696,7.947c3.81,3.67,7.095,8.093,10.474,12.792
							C1564.837,642.7,1562.631,637.134,1559.168,632.199z"/>
						<path style="fill:#1A3139;" d="M1373.409,634.383c-5.81-1.783-12.517-1.841-18.432,0.655
							c-5.938,2.405-10.703,6.972-13.773,12.123c-3.052,5.198-4.802,10.923-5.089,16.716c2.988-4.958,5.906-9.631,9.405-13.597
							c3.472-3.97,7.493-7.11,12.014-8.947c4.504-1.895,9.572-2.317,14.713-1.733c5.131,0.628,10.202,2.332,14.835,5.807
							C1384.662,640.031,1379.209,636.176,1373.409,634.383z"/>
					</g>
					<path style="fill:#FFFFFF;" d="M1456.642,1120.703c-0.25-1.4-0.292-2.157-0.271-2.72c0.03-0.536,0.143-0.819,0.326-0.885
						c0.183-0.068,0.442,0.091,0.785,0.5c0.352,0.435,0.769,1.066,1.405,2.345c0.263,1.406,0.306,2.164,0.283,2.725
						c-0.031,0.537-0.147,0.821-0.338,0.88c-0.19,0.061-0.453-0.096-0.796-0.505
						C1457.681,1122.606,1457.266,1121.976,1456.642,1120.703z"/>
					<g>
						<path style="fill:#0B67B2;" d="M1638.063,1152.871c4.903-11.88,9.906-23.718,14.726-35.633
							c9.745-23.785,19.381-47.617,28.851-71.517c4.726-11.954,9.446-23.91,14.031-35.924c4.616-12,9.284-23.978,13.74-36.045
							c-5.468,11.643-10.724,23.376-16.03,35.086c-5.339,11.697-10.542,23.453-15.74,35.209
							c-10.377,23.52-20.59,47.11-30.691,70.746c-5.104,11.795-10.023,23.668-15.046,35.5c-5.018,11.832-9.986,23.684-14.888,35.564
							c-9.899,23.721-19.616,47.518-29.267,71.343l-0.386,0.953l0.281,0.911l9.566,30.975l9.691,30.668l-1.462,24.998
							c-0.523,8.443-0.955,16.896-1.347,25.352c1.083-8.395,2.125-16.793,3.076-25.199l2.941-25.212l0.03-0.26l-0.089-0.329
							l-8.42-31.311l-8.35-30.264c10.068-23.306,20.073-46.637,29.898-70.044
							C1628.203,1176.608,1633.158,1164.749,1638.063,1152.871z"/>
						<path style="fill:#0B67B2;" d="M1707.41,1237.098c13.234,5.662,26.555,11.111,39.839,16.65l39.978,16.303l4.292,1.749
							l0.356-4.623l3.406-44.208c0.996-14.747,2.137-29.482,3.008-44.239c0.963-14.75,1.794-29.51,2.589-44.273
							c0.623-14.777,1.482-29.535,1.899-44.329c-1.963,14.669-3.483,29.374-5.241,44.06c-1.587,14.698-3.135,29.401-4.554,44.114
							c-1.509,14.706-2.75,29.433-4.135,44.149l-3.35,39.614l-35.86-14.25c-13.417-5.209-26.797-10.51-40.263-15.597
							c-13.436-5.164-26.92-10.204-40.418-15.209c-13.558-4.86-27.031-9.928-40.666-14.598c13.066,6.08,26.294,11.76,39.438,17.65
							C1680.93,1225.804,1694.146,1231.513,1707.41,1237.098z"/>
						<path style="fill:#0B67B2;" d="M796.34,1736.823c-10.744,0.532-21.441,2.128-31.976,4.479
							c-10.513,2.455-20.845,5.801-30.783,10.117c-9.865,4.478-19.332,9.829-28.201,16.043c-8.79,6.338-16.882,13.573-24.288,21.416
							c-14.512,15.98-25.891,34.547-33.729,54.326c10.383-18.574,22.753-35.832,37.526-50.653
							c7.619-7.161,15.496-14.021,24.159-19.824c8.649-5.789,17.739-10.904,27.271-15.092c9.506-4.247,19.438-7.517,29.553-10.076
							c10.105-2.637,20.459-4.307,30.885-5.449c20.873-2.053,42.12-1.717,63.132,1.534c-10.186-3.139-20.774-4.926-31.407-6.075
							C817.832,1736.519,807.076,1736.199,796.34,1736.823z"/>
						<path style="fill:#0B67B2;" d="M1277.847,1927.452c-0.251,0.277-0.521,0.411-0.773,0.532
							c-0.254,0.197-0.486,0.153-0.703,0.244c-0.196-0.019-0.378-0.002-0.556-0.066c-3.008-20.147-6.339-40.213-9.759-60.262
							c-3.129-20.374-6.145-40.755-8.737-61.174c-2.445-20.426-4.689-40.894-5.371-61.396c-0.39-10.244-0.416-20.519,0.636-30.674
							c0.597-5.056,1.392-10.111,2.966-14.929c0.843-2.372,1.82-4.739,3.313-6.764c1.45-1.949,3.631-3.836,6.292-3.569
							c-2.634-0.584-5.208,1.118-6.957,3.012c-0.941,0.956-1.654,2.076-2.334,3.211c-0.764,1.102-1.219,2.335-1.822,3.516
							c-2.132,4.836-3.319,9.977-4.331,15.106c-1.887,10.303-2.424,20.746-2.574,31.136c-0.278,20.813,1.336,41.536,3.624,62.127
							c2.327,20.593,5.518,41.055,9.046,61.443c3.973,20.302,8.03,40.586,12.43,60.784l0.156,0.716l0.454,0.341
							c1.329,0.998,2.665,1.203,4.087,1.011c0.646-0.179,1.337-0.346,1.822-0.707c0.549-0.313,1.041-0.662,1.397-1.072
							c1.65-1.572,2.409-3.389,3.238-5.135c1.397-3.558,2.195-7.166,2.856-10.778c0.597-3.618,1.031-7.243,1.311-10.872
							c0.372-3.62,0.376-7.267,0.573-10.885c-0.592,3.584-1.043,7.18-1.761,10.728c-0.607,3.563-1.387,7.091-2.276,10.563
							c-0.907,3.457-1.969,6.886-3.472,9.981c-0.434,0.716-0.829,1.473-1.276,2.149
							C1278.849,1926.371,1278.392,1927.06,1277.847,1927.452z"/>
						<path style="fill:#0B67B2;" d="M1242.619,1952.773c5.478-0.514,10.95-0.936,16.417-1.267l4.097-0.194l2.049-0.097
							c0.374-0.025,0.528-0.007,1.412-0.095l1.438-0.27c3.479-0.897,6.267-2.578,8.716-4.52c4.877-3.913,8.505-8.736,11.359-13.791
							c1.492-2.504,2.583-5.166,3.881-7.734l3.037-7.988c6.724-21.667,8.834-44.01,8.995-66.173
							c-2.645,21.967-6.323,44.007-14.214,64.249l-3.3,7.365c-1.339,2.297-2.485,4.729-3.957,6.903
							c-2.816,4.435-6.274,8.384-10.203,11.188c-1.932,1.413-4.124,2.43-6.037,2.847l-0.607,0.088
							c0.196-0.013-0.343,0.006-0.661,0.003l-2.102,0.016l-4.207,0.031c-5.598,0.115-11.184,0.324-16.751,0.621
							c-22.278,1.123-44.366,3.564-66.434,6.031c-11.031,1.271-22.027,2.773-33.025,4.256l-16.485,2.303l-4.12,0.591l-2.06,0.298
							c-0.698,0.104-1.416,0.207-1.824,0.237c-1.951,0.22-3.94-0.037-5.789-0.659c-1.86-0.604-3.579-1.631-4.999-2.959
							c-0.731-0.646-1.329-1.423-1.898-2.211c-0.461-0.654-1.257-2.11-1.901-3.215c-2.71-4.708-5.204-9.543-7.746-14.346
							c-4.824-9.74-9.237-19.686-13.078-29.863c-7.794-20.32-13.114-41.559-16.577-63.119c-3.254-21.594-4.597-43.559-3.723-65.521
							c0.353-10.986,1.337-21.958,2.726-32.899c0.716-5.467,1.546-10.926,2.556-16.358c0.978-5.439,2.09-10.862,3.532-16.216
							c-3.946,10.378-6.815,21.163-9.165,32.044c-2.332,10.895-3.993,21.939-5.167,33.051c-2.199,22.233-2.075,44.764,0.516,67.078
							c2.513,22.328,7.776,44.371,15.264,65.629l2.936,7.932c1.007,2.633,2.172,5.202,3.251,7.808
							c2.103,5.235,4.667,10.264,7.041,15.38c1.883,3.632,3.771,7.264,5.71,10.869l-40.824,10.077l-46.325,11.654l-23.166,5.832
							c-7.721,1.945-15.457,3.844-23.126,5.976l-46.112,12.457l-92.145,25.241l-45.97,12.635
							c-14.745,3.803-30.438,3.957-45.137,0.148c-7.351-1.872-14.455-4.67-21.087-8.311c-3.328-1.805-6.497-3.88-9.571-6.077
							c-1.542-1.118-3.056-2.364-4.585-3.54c-1.535-1.18-3.059-2.373-4.493-3.67c-5.978-4.916-11.376-10.457-16.529-16.18
							c-5.106-5.777-9.629-12.028-13.781-18.503c-8.162-13.054-14.222-27.384-18.168-42.323
							c-3.978-14.939-5.907-30.434-6.347-45.988c-0.867-31.173,4.123-62.467,11.861-92.922
							c7.857-30.486,18.605-60.269,31.006-89.338c24.773-58.207,55.933-113.707,90.201-167.037
							c4.258-6.633,8.715-13.366,12.892-20.229c4.189-6.857,8.276-13.778,12.154-20.814c7.826-14.034,14.974-28.44,21.539-43.098
							c6.531-14.675,12.477-29.611,17.659-44.81l16.065-44.792l8.992-22.005l4.497-11.005l2.249-5.504
							c0.78-1.82,1.65-3.599,2.472-5.401l9.994-21.563c1.705-3.575,3.245-7.235,5.084-10.741l5.519-10.519
							c3.711-6.993,7.283-14.071,11.111-21.002l12.116-20.428c3.874-6.921,8.497-13.351,12.859-19.956l6.612-9.864l1.662-2.46
							l1.793-2.364l3.565-4.743c18.637-25.553,39.852-49.415,64.376-69.512c24.5-19.988,52.137-36.662,82.61-46.155
							c-15.4,4.106-30.193,10.317-44.363,17.657l-10.505,5.772c-3.398,2.095-6.727,4.308-10.096,6.459
							c-6.868,4.127-13.046,9.224-19.513,13.936c-25.297,19.632-47.388,43.183-66.915,68.513l-3.729,4.709l-1.854,2.364l-1.72,2.458
							l-6.846,9.86c-4.517,6.603-9.301,13.044-13.326,19.96l-12.577,20.447c-3.979,6.936-7.7,14.017-11.564,21.021l-5.745,10.536
							c-1.916,3.513-3.528,7.173-5.307,10.753l-10.439,21.601c-0.857,1.806-1.766,3.59-2.583,5.414l-2.357,5.51l-4.716,11.024
							l-9.43,22.055l-16.912,44.845c-5.316,14.858-11.208,29.508-17.763,43.857c-6.568,14.341-13.702,28.425-21.497,42.132
							c-3.863,6.874-7.93,13.631-12.095,20.324c-4.155,6.702-8.542,13.208-12.941,19.935c-17.51,26.74-33.965,54.175-49.382,82.204
							c-15.394,28.039-29.658,56.741-42.263,86.222c-12.518,29.505-23.356,59.824-31.315,91.037
							c-3.928,15.612-7.156,31.442-9.267,47.474c-1.089,8.01-1.8,16.081-2.323,24.168c-0.398,8.1-0.583,16.221-0.266,24.354
							c0.596,16.246,2.751,32.538,7.101,48.344c4.314,15.803,10.906,31.063,19.75,44.938c4.49,6.884,9.385,13.519,14.878,19.63
							c1.316,1.578,2.805,2.996,4.202,4.501c1.411,1.489,2.824,2.978,4.345,4.353l4.479,4.213l4.692,3.963
							c1.541,1.351,3.167,2.59,4.804,3.815c1.643,1.227,3.224,2.491,4.918,3.685c3.43,2.388,6.965,4.625,10.663,6.564
							c7.374,3.919,15.239,6.887,23.339,8.83c16.202,3.951,33.352,3.534,49.352-0.831c15.488-4.421,30.615-8.894,45.922-13.403
							l91.588-27.027l45.754-13.68c2.478-0.762,4.97-1.471,7.459-2.191c-7.158,40.27-13.908,80.6-20.238,120.99
							c-3.314,20.561-6.386,41.158-9.572,61.738l-9.197,61.792l-8.834,61.847c-2.816,20.633-5.761,41.248-8.451,61.9
							c-5.568,41.277-10.698,82.619-15.398,124.021c7.314-41.021,14.2-82.107,20.646-123.256c3.316-20.563,6.38-41.159,9.571-61.739
							l9.188-61.794l8.825-61.846c2.822-20.635,5.756-41.25,8.45-61.902c5.465-40.537,10.511-81.135,15.149-121.793
							c5.109-1.479,10.227-2.92,15.347-4.357l22.986-6.443l45.977-12.896l40.492-11.549c0.701,1.299,1.383,2.609,2.109,3.896
							c0.75,1.288,1.232,2.292,2.313,3.942c1.018,1.471,2.143,2.887,3.462,4.106c2.598,2.478,5.735,4.379,9.129,5.519
							c3.389,1.146,7.043,1.541,10.59,1.133c0.97-0.104,1.621-0.211,2.292-0.313l2.049-0.313l4.097-0.622l16.401-2.424l32.833-4.576
							C1198.779,1957.55,1220.717,1954.925,1242.619,1952.773z"/>
						<path style="fill:#0B67B2;" d="M912.016,1538.467c5.063,7.752,10.368,15.351,15.985,22.722
							c5.732,7.284,11.688,14.404,18.099,21.105c6.413,6.702,13.259,12.979,20.408,18.856c7.286,5.721,14.89,11.021,22.939,15.499
							c-7.214-5.737-14.165-11.67-20.732-18.002c-6.528-6.375-12.729-13.038-18.683-19.912
							c-11.768-13.872-22.498-28.592-32.299-43.936c-9.844-15.317-18.835-31.202-27.261-47.413
							c-8.379-16.24-16.27-32.764-23.563-49.658c4.642,17.838,11.25,35.128,18.808,51.96c3.748,8.439,7.906,16.693,12.253,24.851
							C902.371,1522.668,907.098,1530.626,912.016,1538.467z"/>
						<path style="fill:#0B67B2;" d="M1165.33,2278.838c-0.643-15.998-1.523-31.984-1.997-47.988l-0.893-23.997l-0.661-24.007
							c-0.496-16.003-0.876-32.01-1.163-48.021l-0.879-48.038l-1.163-96.154c-2.353,32-3.633,64.072-4.12,96.149
							c-0.298,16.04-0.305,32.083-0.255,48.126c-0.015,8.023,0.158,16.043,0.298,24.064c0.159,8.021,0.234,16.043,0.491,24.063
							c0.874,32.079,2.572,64.141,5.048,96.141c2.444,32.002,6.18,63.911,10.986,95.627c-0.844-16.034-2.406-31.974-3.064-47.994
							C1166.887,2310.827,1166.183,2294.826,1165.33,2278.838z"/>
						<path style="fill:#0B67B2;" d="M1925.394,2286.453l-1.015-50.032c-0.46-16.676-0.806-33.353-1.395-50.026
							c-0.999-33.352-2.431-66.693-4.295-100.03c-0.762,33.38-1.092,66.753-0.986,100.116c-0.038,16.684,0.168,33.365,0.26,50.047
							l0.64,50.039l1.006,50.032c0.465,16.677,0.8,33.354,1.392,50.027c0.996,33.351,2.434,66.692,4.306,100.029
							c0.77-33.379,1.104-66.751,0.998-100.116c0.04-16.684-0.176-33.363-0.262-50.047L1925.394,2286.453z"/>
						<path style="fill:#0B67B2;" d="M1669.123,1491.711c4.237-12.35,8.23-24.776,12.346-37.164l11.978-37.28l11.628-37.391
							c3.761-12.501,7.63-24.967,11.268-37.506c7.395-25.04,14.563-50.151,21.095-75.465c-9.212,24.465-17.785,49.133-26.134,73.873
							c-4.234,12.351-8.236,24.773-12.346,37.163l-11.986,37.278l-11.638,37.388c-3.755,12.502-7.633,24.966-11.267,37.506
							c-7.396,25.039-14.563,50.151-21.086,75.469C1652.2,1541.117,1660.776,1516.45,1669.123,1491.711z"/>
						<path style="fill:#0B67B2;" d="M2376.382,1949.811c-0.527-8.817-1.392-17.583-2.519-26.287
							c-2.317-17.395-5.588-34.541-8.885-51.557c-3.22-16.964-6.57-34.035-9.951-51.109c-1.738-8.521-3.719-16.991-5.566-25.489
							l-2.819-12.736l-3.099-12.671c-16.422-67.607-37.287-134.055-61.268-199.285c-12.139-32.566-25.075-64.819-38.615-96.811
							c-13.715-31.914-27.949-63.602-43.034-94.877c-15.067-31.271-30.649-62.332-46.718-93.047
							c-8.038-15.38-16.209-30.732-24.956-45.794c-8.802-15.028-18.196-29.765-28.654-43.757
							c-10.485-13.957-21.948-27.243-34.717-39.187c-12.796-11.909-26.793-22.487-41.679-31.554
							c-3.779-2.168-7.454-4.531-11.313-6.533l-11.649-5.864l-11.64-5.858c-3.932-1.844-7.905-3.604-11.9-5.303
							c-16.005-6.746-32.411-12.506-49.108-17.16c16.535,5.201,32.708,11.487,48.417,18.725c3.926,1.817,7.844,3.645,11.709,5.583
							l11.437,6.113l11.428,6.107c3.781,2.081,7.351,4.505,11.033,6.737c14.485,9.32,28.009,20.076,40.305,32.093
							c12.27,12.055,23.213,25.389,33.197,39.38c10,13.991,19.049,28.667,27.488,43.705c8.397,15.068,16.248,30.466,23.992,45.945
							c15.516,30.999,30.744,62.051,45.334,93.443l10.821,23.589c3.591,7.87,7.015,15.814,10.531,23.717l5.262,11.859l5.106,11.925
							l10.164,23.871c13.235,31.957,25.863,64.158,37.69,96.648c23.552,65.002,44.206,131.074,60.337,198.262l3.109,12.576
							l2.83,12.64c1.855,8.432,3.845,16.837,5.592,25.293c3.396,16.921,6.764,33.854,10.051,50.937
							c3.342,17.003,6.605,33.919,8.909,50.886c1.12,8.48,1.976,16.968,2.507,25.453c0.416,8.479,0.565,16.952,0.143,25.375
							c-0.543,8.396-1.447,16.787-3.209,24.926c-1.754,8.148-4.276,16.109-7.634,23.678c-6.636,15.161-16.954,28.644-30.185,38.331
							c-6.639,4.788-13.945,8.632-21.668,11.376c-7.753,2.672-15.891,4.215-24.123,4.76c-8.238,0.559-16.575-0.063-24.774-1.541
							c-8.208-1.42-16.177-4.056-24.511-6.682c-65.987-20.975-131.529-43.531-196.45-67.678
							c-63.278-23.389-126.05-48.371-186.715-78.049c4.584-6.703,8.631-13.703,12.26-20.863c9.04-17.694,15.288-36.47,20.238-55.413
							c1.246-4.738,2.283-9.521,3.404-14.28l2.784-14.391l2.314-14.449c0.71-4.821,1.235-9.667,1.827-14.499
							c2.132-19.357,3.177-38.783,3.304-58.185c-2.311,19.272-4.87,38.454-8.311,57.448l-2.743,14.201l-3.087,14.106l-3.534,13.977
							c-1.338,4.61-2.509,9.265-3.927,13.842c-1.479,4.554-2.772,9.17-4.444,13.646l-2.392,6.755l-2.623,6.654
							c-3.515,8.853-7.353,17.565-11.871,25.87c-4.454,8.335-9.517,16.293-15.155,23.694c-2.827,3.69-5.847,7.207-9.06,10.448
							c-1.6,1.627-3.262,3.171-4.964,4.603c-0.849,0.722-1.713,1.402-2.576,2.048l-0.772,0.549
							c-11.529-2.508-23.041-5.091-34.598-7.471l-36.889-7.746c-12.286-2.631-24.622-5.023-36.937-7.529
							c-12.229-2.453-24.446-4.963-36.704-7.285c-4.602-1.451-8.779-3.974-12.271-7.396c-3.565-3.467-6.396-7.813-8.65-12.527
							c-4.525-9.484-6.717-20.321-7.885-31.184c-1.228-10.908-1.29-22.012-0.881-33.104c0.2-5.551,0.563-11.105,1.063-16.654
							c0.45-5.556,1.039-11.107,1.751-16.65c-1.294,5.437-2.469,10.908-3.508,16.414c-0.989,5.513-1.843,11.057-2.536,16.631
							c-1.337,11.149-2.037,22.428-1.589,33.791c0.589,11.325,2.146,22.847,6.622,33.854c2.267,5.467,5.407,10.755,9.659,15.273
							c4.228,4.521,9.656,8.121,15.578,10.196l0.146,0.052l0.336,0.08c12.223,2.928,24.485,5.663,36.737,8.457
							c12.258,2.76,24.492,5.633,36.777,8.268l36.825,8.051c12.265,2.73,24.578,5.227,36.87,7.833l2.092,0.443l1.741-1.003
							c0.911-0.527,1.371-0.846,1.988-1.267c0.581-0.397,1.125-0.797,1.665-1.202c1.071-0.814,2.104-1.642,3.093-2.498
							c1.991-1.701,3.863-3.477,5.646-5.316c3.577-3.67,6.846-7.551,9.877-11.574c1.099-1.479,2.135-2.996,3.174-4.511
							c28.976,15.552,58.744,29.631,88.835,42.924c31.726,14.035,63.791,27.3,96.038,40.095
							c14.318,5.596,28.674,11.09,43.056,16.516c1.308,37.879,3.013,75.734,5.137,113.559c1.003,19.477,2.249,38.936,3.382,58.402
							l3.76,58.376l4.125,58.353c1.504,19.44,2.88,38.893,4.512,58.325c3.074,38.88,6.591,77.728,10.541,116.548
							c-1.314-38.999-3.061-77.967-5.25-116.906c-1-19.476-2.255-38.934-3.383-58.402l-3.769-58.375l-4.135-58.35
							c-1.499-19.443-2.885-38.893-4.513-58.327c-2.987-37.735-6.391-75.442-10.191-113.122
							c50.465,19.032,101.309,37.049,152.479,54.177c4.152,1.376,8.163,2.723,12.472,4.055c4.255,1.322,8.632,2.41,13.038,3.278
							c8.822,1.729,17.892,2.547,26.963,2.072c9.067-0.429,18.111-2.123,26.775-5.023c8.635-2.988,16.846-7.226,24.302-12.523
							c14.874-10.703,26.402-25.629,33.778-42.135c3.734-8.245,6.533-16.871,8.492-25.648c1.971-8.795,2.994-17.677,3.634-26.562
							C2376.864,1967.516,2376.817,1958.639,2376.382,1949.811z"/>
						<path style="fill:#0B67B2;" d="M2059.751,1370.604c3.485-5.928,7.101-11.771,11.059-17.358
							c7.788-11.239,16.596-21.784,27.013-30.474c10.354-8.759,22.742-15.08,36.584-17.452
							c-14.056-0.503-28.317,4.799-39.802,13.262c-5.851,4.137-11.124,9.015-16.04,14.171c-4.828,5.241-9.209,10.849-13.331,16.613
							c-8.003,11.698-14.778,24.141-20.264,37.09c-5.508,12.925-10.067,26.263-12.895,39.993c5.52-12.854,11.38-25.432,17.691-37.73
							C2052.994,1382.607,2056.182,1376.49,2059.751,1370.604z"/>
						<path style="fill:#0B67B2;" d="M2287.227,1777.414c15.398,5.445,29.968,13.277,42.474,24.307
							c-10.468-13.023-25.034-22.708-40.526-29.217c-15.5-6.747-32.013-10.692-48.569-13.307c-8.308-1.18-16.646-2.085-24.998-2.629
							c-8.36-0.422-16.718-0.717-25.071-0.518c-16.693,0.302-33.381,1.643-49.746,4.823c16.639-0.362,33.184-0.209,49.672,0.48
							c16.48,0.761,32.908,2.055,49.127,4.559c8.133,1.115,16.164,2.756,24.131,4.607
							C2271.716,1772.283,2279.523,1774.714,2287.227,1777.414z"/>
						<path style="fill:#0B67B2;" d="M2213.727,1791.4c-8.841-5.563-18.173-10.277-27.801-14.175
							c-9.633-3.857-19.57-7.033-29.82-8.691c9.392,4.356,18.567,8.832,27.605,13.51c9.02,4.703,17.801,9.744,26.367,15.087
							c4.209,2.774,8.471,5.484,12.466,8.544c4.218,2.795,7.911,6.2,11.931,9.27c7.619,6.621,14.584,13.886,21.193,21.907
							c-4.189-9.478-10.346-18.149-17.567-25.751C2230.756,1803.617,2222.471,1797.119,2213.727,1791.4z"/>
						<path style="fill:#0B67B2;" d="M1650.48,1855.192c0.066,2.048,0.228,4.093,0.486,6.136c0.418,4.093,1.143,8.191,2.471,12.24
							l0.524,1.515l0.681,1.489c0.404,1.006,1.055,1.957,1.642,2.926l1.119,1.379c0.397,0.449,0.91,0.852,1.374,1.27
							c0.575,0.356,1.084,0.761,1.792,1.005c0.323,0.144,0.679,0.26,1.079,0.331c0.192,0.041,0.375,0.084,0.615,0.093
							c0.232,0.011,0.403,0.042,0.837-0.013l1.229-0.151l0.439-1.309c6.176-18.417,11.171-37.208,15.508-56.126
							c4.229-18.944,7.796-38.025,10.723-57.197c2.972-19.165,5.235-38.428,7.013-57.725c1.659-19.307,2.931-38.655,3.045-58.039
							c-4.96,38.413-10.215,76.664-16.553,114.725c-3.208,19.02-6.605,38.003-10.538,56.871
							c-3.729,18.236-7.941,36.368-12.711,54.365c-0.052-0.027-0.103-0.059-0.155-0.082c-0.291-0.258-0.613-0.449-0.904-0.742
							l-0.862-0.932c-0.497-0.748-1.068-1.432-1.473-2.299l-0.669-1.24l-0.553-1.334c-1.481-3.568-2.524-7.449-3.239-11.392
							c-0.41-1.963-0.713-3.952-0.986-5.951c-0.323-1.995-0.566-4.001-0.746-6.017c-0.462-4.027-0.72-8.077-1.029-12.137
							c-0.137,4.06-0.438,8.133-0.324,12.213C1650.301,1851.107,1650.349,1853.148,1650.48,1855.192z"/>
						<path style="fill:#0B67B2;" d="M1008.275,1408.935l-2.817-0.939l-1.071,2.836c-1.176,3.112-2.352,6.226-3.527,9.34
							c1.659-20.688,2.994-41.372,4.377-62.054l4.564-73.745l2.084-36.884c0.608-12.301,1.378-24.591,1.93-36.898
							c1.246-24.605,2.379-49.22,3.076-73.891c-3.516,24.433-6.126,48.962-8.366,73.516c-1.183,12.274-2.074,24.569-3.062,36.858
							l-2.443,36.903l-1.858,36.938c-0.417,12.323-1.002,24.638-1.204,36.969c-0.569,21.745-0.662,43.511-0.226,65.274
							c-4.415,11.7-8.836,23.399-13.344,35.058c-3.049,7.876-6.132,15.736-9.298,23.547c-1.58,3.907-3.194,7.793-4.841,11.65
							c-1.651,3.816-3.365,7.754-5.206,11.136l-1.158,2.128l1.497,1.718l22.478,25.793c2.836,3.309,5.757,6.542,8.677,9.776
							c-0.356,4.937-0.643,9.875-0.832,14.813c-0.253,6.452-0.393,12.907-0.426,19.361c-0.013,6.455-0.011,12.913,0.196,19.366
							c0.148,6.358,0.383,12.719,0.777,19.07l-1.164,12.25l-1.017,12.481c-0.733,8.316-1.189,16.658-1.769,24.988
							c-0.449,8.342-0.9,16.684-1.179,25.041c-0.242,7.431-0.416,14.867-0.389,22.321c-4.341,0.896-8.688,1.764-13.022,2.696
							c-32.948,7.047-65.805,14.519-98.542,22.405c33.289-5.319,66.458-11.055,99.536-17.217
							c16.535-3.095,33.123-5.924,49.699-8.781c16.572-2.884,33.146-5.748,49.745-8.438c16.578-2.823,33.182-5.467,49.798-7.996
							c16.604-2.63,33.248-4.956,49.898-7.164c16.661-2.117,33.345-4.095,50.079-5.248c8.364-0.69,16.747-1.047,25.119-0.898
							c4.183,0.095,8.367,0.346,12.496,0.969c2.074,0.269,4.114,0.713,6.117,1.299c1.992,0.595,3.952,1.44,5.541,2.836
							c-1.469-1.523-3.4-2.556-5.37-3.321c-1.981-0.759-4.026-1.381-6.101-1.823c-4.151-0.904-8.371-1.401-12.588-1.757
							c-6.32-0.498-12.657-0.706-18.987-0.703c2.694-5.21,5.218-10.49,7.645-15.807c2.652-5.821,5.188-11.689,7.654-17.585
							l0.104-0.248l0.037-0.342c0.577-5.448,1.128-10.898,1.593-16.356c0.458-5.459,0.899-10.92,1.221-16.391
							c0.347-5.469,0.628-10.943,0.792-16.429c0.175-5.181,0.256-10.369,0.169-15.573l2.869-0.383l0.649-0.086l0.097-0.621
							c2.227-14.258,4.359-28.531,6.458-42.81c-2.728,13.949-5.422,27.904-8.027,41.874l-47.575,4.727l-48.164,5.089l-48.163,5.102
							l-47.08,5.127c-4.317-2.639-8.486-5.881-12.504-9.285c-4.258-3.631-8.412-7.429-12.485-11.329
							c-8.119-7.832-16.041-15.924-23.788-24.188c-7.727-8.283-15.424-16.62-22.773-25.256l-20.847-24.009
							c1.643-3.271,3.002-6.445,4.396-9.678c1.66-3.927,3.277-7.855,4.853-11.794c3.161-7.874,6.226-15.771,9.256-23.679
							c5.728-14.869,11.228-29.813,16.674-44.783c19.493,6.247,38.9,12.883,58.316,19.433c20.349,6.931,40.639,14.048,60.807,21.489
							c10.107,3.66,20.137,7.521,30.182,11.347l15.047,5.794c5.016,1.931,9.984,3.978,14.98,5.961
							c19.914,8.091,39.696,16.537,58.994,26.072c-18.811-10.478-38.385-19.53-58.053-28.294c-9.839-4.384-19.75-8.598-29.692-12.74
							c-9.983-4.034-19.955-8.106-30.002-11.979c-20.051-7.863-40.225-15.402-60.465-22.758
							C1049.093,1422.736,1028.736,1415.758,1008.275,1408.935z M1037.042,1583.829c4.182,3.921,8.462,7.755,12.896,11.455
							c4.455,3.684,9.054,7.237,14.287,10.259l0.855,0.493l0.982-0.121l48.065-5.94l48.048-6.083l48.047-6.095l44.966-5.99
							c-1.009,5.091-1.854,10.199-2.604,15.314c-0.818,5.426-1.518,10.864-2.151,16.307c-0.659,5.441-1.201,10.893-1.721,16.346
							c-0.508,5.368-0.932,10.742-1.33,16.119c-2.182,5.882-4.298,11.791-6.3,17.745c-1.87,5.578-3.645,11.193-5.243,16.879
							c-2.021,0.003-4.041,0.025-6.06,0.068c-16.901,0.366-33.749,1.637-50.537,3.308c-33.587,3.319-66.95,8.284-100.207,13.728
							c-28.691,4.868-57.321,10.059-85.814,15.935c1.328-7.286,2.46-14.589,3.522-21.898c1.198-8.276,2.222-16.566,3.249-24.857
							c0.895-8.302,1.915-16.594,2.657-24.908l1.196-12.469l1.029-12.48l0.022-0.274l-0.017-0.233l-2.73-38.46l-1.488-19.262
							c-0.377-4.584-0.793-9.171-1.247-13.759c4.436,4.894,8.92,9.744,13.445,14.562
							C1020.705,1567.804,1028.685,1575.985,1037.042,1583.829z"/>
						<path style="fill:#0B67B2;" d="M1733.279,1583.255l0.622,2.083c3.532,11.841,6.951,23.711,10.626,35.511
							c3.428,11.106,6.778,22.233,10.342,33.302c-4.789-1.135-9.587-2.231-14.409-3.244c-9.103-1.855-18.153-3.863-27.505-4.814
							l0.119,0.021c-2.458-0.457-4.83-0.554-7.239-0.437c-2.396,0.119-4.778,0.495-7.074,1.154c-2.299,0.645-4.525,1.543-6.58,2.729
							c-2.1,1.113-3.953,2.609-5.726,4.146c1.88-1.413,3.811-2.761,5.95-3.71c2.096-1.023,4.324-1.746,6.591-2.214
							c2.262-0.482,4.568-0.753,6.874-0.738c2.288-0.001,4.643,0.235,6.785,0.749l0.031,0.008l0.089,0.014
							c9.036,1.392,18.014,3.862,26.949,6.177c8.941,2.357,17.871,4.795,26.765,7.375l26.732,7.519
							c1.727,0.46,3.448,0.952,5.168,1.443c0.063,0.174,0.126,0.328,0.192,0.469c0.271,0.537,0.576,0.812,0.911,0.851
							c0.336,0.04,0.701-0.146,1.101-0.597c0.019-0.022,0.039-0.053,0.059-0.076c6.417,1.874,12.799,3.888,19.218,5.758
							c35.505,10.587,71.055,20.995,106.667,31.187c35.615,10.185,71.265,20.244,107.018,29.976
							c35.652,10.084,71.371,19.956,107.234,29.368c-34.274-11.495-68.65-22.674-103.158-33.427
							c-1.664-19.489-3.084-38.977-3.995-58.498c-1.106-20.392-1.896-40.797-2.569-61.205l-0.936-30.614
							c-0.326-10.203-0.574-20.41-0.75-30.619c-0.502-20.414-0.873-40.835-1.123-61.255c-0.37-20.421-0.568-40.845-0.765-61.271
							l-0.553-61.282l-1.03-122.619c-2.261,40.833-3.626,81.708-4.273,122.593c-0.413,20.442-0.473,40.889-0.579,61.336
							c0.002,20.447,0.149,40.895,0.409,61.342c0.691,40.893,1.896,81.79,4.322,122.635c0.405,7.182,0.863,14.363,1.351,21.545
							c-4.316,4.741-8.704,9.365-13.473,13.597c-5.511,5.005-11.23,9.756-17.233,14.118c-5.99,4.373-12.096,8.582-18.466,12.359
							c-6.061,3.636-12.337,7.137-18.62,10.055c-12.832-1.843-25.677-3.598-38.531-5.271c-13.166-1.68-26.332-3.346-39.524-4.823
							c-6.59-0.79-13.191-1.49-19.794-2.181c-6.599-0.72-13.204-1.387-19.816-1.999c-8.654-0.835-17.32-1.568-25.996-2.234
							c-4.813-1.333-9.636-2.626-14.472-3.881c-0.252-0.45-0.53-0.709-0.835-0.754c-0.244-0.035-0.514,0.103-0.793,0.331
							c-10.655-2.749-21.346-5.378-32.029-8.012c-4.159-1.026-8.322-2.042-12.493-3.031c-2.515-11.386-5.246-22.715-7.898-34.063
							c-2.611-11.306-5.446-22.553-8.204-33.818l137.512-42.152l34.923-10.555c11.656-3.464,23.294-6.991,34.995-10.283
							c11.668-3.412,23.394-6.604,35.144-9.701c5.885-1.492,11.784-2.954,17.735-4.138l4.468-0.872l4.49-0.713
							c3.002-0.428,6.017-0.716,9.066-0.492c-3.009-0.495-6.095-0.482-9.146-0.323l-4.576,0.354l-4.546,0.574
							c-6.063,0.791-12.074,1.859-18.081,2.962c-12.011,2.213-23.881,5.036-35.749,7.845c-23.69,5.797-47.188,12.283-70.59,19.07
							l-35.018,10.461l-34.858,10.957c-23.19,7.457-46.294,15.161-69.302,23.194L1733.279,1583.255z M1860.826,1678.888
							c6.557,1.041,13.113,2.072,19.683,3.013c13.126,1.986,26.277,3.782,39.429,5.564c13.157,1.749,26.324,3.417,39.504,4.987
							l0.975,0.117l0.744-0.371c6.971-3.478,13.45-7.276,19.79-11.5c6.297-4.232,12.398-8.751,18.167-13.663
							c2.919-2.411,5.681-5.01,8.464-7.567c1.379-1.293,2.676-2.678,4.009-4.017c1.339-1.332,2.645-2.697,3.885-4.126
							c4.321-4.57,8.126-9.591,11.712-14.719c2.22,32.507,5.375,64.969,10.27,97.174c-0.819-0.254-1.637-0.517-2.455-0.771
							c-35.46-10.776-71.022-21.224-106.62-31.549c-32.048-9.287-64.152-18.378-96.289-27.342c3.025,0.523,6.048,1.069,9.074,1.574
							C1847.712,1676.812,1854.266,1677.876,1860.826,1678.888z"/>
						<path style="fill:#0B67B2;" d="M1741.995,2435.808c-2.086-11.206-4.324-22.374-6.284-33.599l-6.021-33.645l-5.789-33.689
							c-3.707-22.484-7.673-44.924-11.249-67.434l-11.048-67.471l-21.973-134.984c-7.287-45.005-14.857-89.971-22.61-134.922
							c5.153,45.323,10.981,90.563,17.388,135.718c3.146,22.585,6.527,45.136,9.896,67.69c3.393,22.549,7.03,45.063,10.594,67.588
							c7.369,45.012,15.157,89.961,23.783,134.764c8.611,44.786,17.994,89.515,30.243,133.471l-3.468-16.751
							C1744.293,2446.966,1742.993,2441.422,1741.995,2435.808z"/>
						<path style="fill:#0B67B2;" d="M1660.393,1412.133l3.332-28.911c0.982-9.653,2.093-19.292,2.949-28.96
							c1.846-19.32,3.452-38.671,4.388-58.102c-3.745,19.09-6.818,38.262-9.653,57.461c-1.483,9.593-2.713,19.216-4.071,28.823
							l-3.688,28.869l-3.324,28.915c-0.986,9.651-2.088,19.291-2.947,28.958c-1.844,19.321-3.454,38.671-4.397,58.102
							c3.736-19.092,6.807-38.264,9.643-57.464c1.48-9.593,2.72-19.214,4.073-28.822L1660.393,1412.133z"/>
						<path style="fill:#0B67B2;" d="M1428,1374.445c-2.366,13.125-4.682,26.258-6.736,39.44
							c-2.117,13.169-3.949,26.392-5.498,39.665c3.271-12.957,6.259-25.968,8.962-39.029c2.766-13.05,5.271-26.148,7.725-39.257
							c2.372-13.123,4.687-26.256,6.743-39.438c2.119-13.169,3.948-26.393,5.492-39.667c-3.276,12.957-6.268,25.966-8.969,39.028
							C1432.954,1348.239,1430.449,1361.337,1428,1374.445z"/>
						<path style="fill:#0B67B2;" d="M1294.642,2002.258c-15.653,52.738-32.238,105.197-51.749,156.565l-14.864,38.515l-7.23,19.399
							l-6.874,19.534c-8.799,26.17-16.78,52.664-22.884,79.623c-6.172,26.932-10.835,54.225-13.471,81.715
							c-2.419,27.501-3.073,55.17-1.092,82.652c-0.44-27.538,0.88-55.058,4.404-82.297c3.291-27.257,8.498-54.252,15.241-80.844
							c6.805-26.576,14.754-52.859,23.885-78.752l6.953-19.38l7.268-19.273l15.017-38.491c19.44-51.665,35.914-104.367,50.4-157.544
							c7.23-26.595,14.112-53.272,20.727-80.011c6.404-26.793,12.817-53.572,18.771-80.466l-21.977,79.632
							C1309.895,1949.383,1302.47,1975.884,1294.642,2002.258z"/>
					</g>
					<g>
						<path style="fill:#3C545E;" d="M1235.31,801.549c-7.203,18.164-9.639,37.856-7.936,56.916
							c1.626,19.069,7.166,37.602,16.136,54.043c-4.592-18.135-7.408-36.334-7.338-54.411c0.146-18.021,3.105-35.919,9.646-52.328
							c6.546-16.413,17.079-31.321,27.911-46.261c10.86-14.882,22.385-30.06,30.133-47.197
							c-11.734,14.586-24.685,27.578-37.033,41.672C1254.497,767.955,1242.624,783.323,1235.31,801.549z"/>
						<path style="fill:#3C545E;" d="M1418.634,432.507c-8.452,1.489-16.567,4.682-24.008,8.883
							c-7.444,4.217-14.281,9.452-20.242,15.446c-1.582,1.421-2.953,3.017-4.403,4.55c-1.429,1.551-2.91,3.066-4.202,4.719
							l-4.005,4.869c-1.296,1.686-2.536,3.466-3.803,5.202c-9.559,14.335-15.16,30.481-19.144,46.624
							c-3.73,16.267-5.746,32.699-6.595,49.203c-0.637,16.502-0.279,32.677-1.198,48.596c-0.478,7.966-1.438,15.827-2.979,23.605
							c-1.528,7.847-3.47,15.632-5.835,23.305c-4.566,15.414-10.884,30.333-18.358,44.803c9.622-13.157,17.448-27.701,23.606-42.96
							c3.051-7.645,5.62-15.491,7.816-23.456c2.238-8.027,3.572-16.295,4.553-24.503c2.016-16.461,1.854-32.836,3.103-48.771
							c1.134-15.913,3.187-31.84,6.903-47.214c3.56-15.376,8.827-30.403,17.065-43.361c8.544-12.798,19.354-24.799,32.25-33.108
							c6.467-4.173,13.56-7.271,21.002-9.202c7.463-1.858,15.287-2.332,23.084-1.616c15.619,1.56,30.944,7.843,44.266,17.107
							c-11.808-11.23-26.936-19.322-43.487-22.584C1435.727,431.182,1427.09,431.073,1418.634,432.507z"/>
						<path style="fill:#3C545E;" d="M1675.639,635.976c-11.647-6.885-21.457-16.341-29.648-26.983
							c-8.129-10.698-14.583-22.6-19.74-35.129c-2.588-6.261-5.021-12.618-7.229-19.086c-2.221-6.479-4.415-13.103-6.781-19.647
							c-4.838-13.061-10.162-26.099-17.141-38.438c-3.429-6.189-7.465-12.085-11.793-17.76c-2.353-2.71-4.473-5.594-7.112-8.069
							c-1.288-1.257-2.52-2.565-3.854-3.773l-4.165-3.462c-1.342-1.202-2.857-2.202-4.368-3.202
							c-1.517-0.987-2.965-2.069-4.536-2.964c-3.243-1.621-6.318-3.56-9.8-4.631c-6.69-2.776-13.834-4.075-20.899-4.623
							c-7.093-0.438-14.172-0.024-21.071,1.181l-2.578,0.485c-1.021,0.208-1.764,0.518-2.614,0.784l-4.91,1.69l-4.902,1.675
							l-2.471,0.762c-0.826,0.207-1.663,0.546-2.514,0.443c1.726,0.26,3.462-0.263,5.16-0.519l5.099-1.042l5.062-1.135
							c0.818-0.167,1.723-0.403,2.413-0.453l2.558-0.197c6.815-0.442,13.642-0.297,20.291,0.749
							c6.627,1.028,13.177,2.688,19.076,5.674c3.078,1.2,5.8,3.122,8.662,4.72c1.386,0.883,2.657,1.954,3.989,2.916
							c1.325,0.976,2.653,1.943,3.828,3.12l3.644,3.352c1.166,1.17,2.24,2.445,3.364,3.658c2.329,2.349,4.243,5.112,6.342,7.682
							c3.874,5.435,7.504,11.076,10.587,17.081c6.418,11.855,11.529,24.507,16.145,37.397c2.399,6.426,4.615,12.898,6.941,19.469
							c2.358,6.573,4.825,13.146,7.729,19.564c5.805,12.804,12.813,25.342,22.104,36.147c4.624,5.401,9.585,10.492,15.152,14.954
							c5.557,4.438,11.509,8.384,17.869,11.497c6.374,3.068,13.024,5.533,19.873,7.061c6.844,1.539,13.828,2.24,20.752,2.136
							C1700.406,647.353,1687.202,642.992,1675.639,635.976z"/>
						<path style="fill:#3C545E;" d="M1517.561,388.213c2.705-4.666,5.54-9.251,8.684-13.615c3.042-4.43,6.271-8.737,9.772-12.808
							c3.417-4.146,7.104-8.063,10.949-11.835c7.667-7.598,16.305-14.173,25.501-20.357c-10.453,3.641-20.373,9.238-29.024,16.393
							c-8.772,7.041-16.321,15.545-22.775,24.729c-6.387,9.246-11.635,19.23-15.644,29.649c-3.982,10.41-6.97,21.25-7.925,32.32
							c3.696-10.428,7.989-20.457,12.764-30.198C1512.325,397.659,1514.785,392.844,1517.561,388.213z"/>
						<path style="fill:#3C545E;" d="M1978.541,987.257c-3.254-9.677-6.983-19.215-11.469-28.401
							c-2.101-4.662-4.637-9.108-7.012-13.633c-2.581-4.409-5.09-8.868-7.881-13.146c-10.866-17.323-23.407-33.47-35.57-49.797
							c-12.193-16.297-24.181-32.789-33.984-50.531c-5.016-8.809-9.104-18.081-12.746-27.489c-3.484-9.476-6.215-19.229-8.234-29.14
							c-4.115-19.819-5.599-40.128-6.113-60.419c-0.497-20.315-0.035-40.669,0.247-61.058c0.282-20.385,0.384-40.834-0.863-61.279
							c-1.376-20.484-4.716-40.833-9.876-60.693l-4.163-14.818l-4.918-14.581c-0.774-2.448-1.71-4.835-2.669-7.213l-2.824-7.156
							c-0.956-2.379-1.85-4.785-2.857-7.143l-3.171-7.008c-4.052-9.43-8.875-18.488-13.587-27.598l-7.649-13.351
							c-1.234-2.25-2.631-4.401-4.015-6.561l-4.137-6.487c-11.218-17.164-23.477-33.71-37.311-48.906
							c-13.866-15.217-28.734-29.263-45.241-41.946c-8.688-6.095-18.419-10.316-28.35-13.416c-9.959-3.06-20.171-5.022-30.422-6.271
							c-10.259-1.237-20.567-1.775-30.86-1.779c-9.773,0.017-19.456,0.441-29.263,1.492c-2.443-2.732-4.937-5.146-7.578-7.529
							c-3.026-2.719-6.177-5.289-9.45-7.69c-6.505-4.86-13.502-9.042-20.783-12.634c-14.572-7.179-30.555-11.557-46.77-12.746
							c-16.224-1.289-32.582,0.657-48.177,4.902c-1.971,0.466-3.892,1.092-5.817,1.708c-1.922,0.623-3.861,1.193-5.768,1.86
							l-5.676,2.131l-2.839,1.073l-2.806,1.232c-7.318,3.328-14.497,6.831-21.538,10.611c-14.122,7.475-27.817,15.7-41.209,24.391
							c-6.561,4.546-13.294,8.847-19.657,13.678l-9.649,7.095l-9.381,7.451c-24.907,19.977-48.019,42.368-67.883,67.5l-7.219,9.597
							l-3.608,4.798l-1.804,2.4l-1.693,2.535c-4.527,6.751-8.505,13.833-11.927,21.136c-6.914,14.587-12.108,29.824-16.417,45.218
							c-4.324,15.399-7.736,30.985-10.889,46.564c-3.178,15.583-6.09,31.206-8.888,46.833
							c-5.621,31.249-10.897,62.514-17.422,93.483c-6.411,30.953-14.388,61.455-24.462,91.404
							c-17.284,36.552-31.926,74.311-44.158,112.803c-6.133,19.28-11.744,38.725-16.739,58.325
							c-5.015,19.59-9.542,39.32-13.24,59.229c-7.404,39.778-11.715,80.358-10.034,120.946c0.389,10.129,1.386,20.299,2.756,30.363
							c0.765,5.022,1.604,10.039,2.553,15.027c1.073,4.963,1.986,9.965,3.282,14.873c4.794,19.731,11.186,39.017,18.595,57.849
							c7.373,18.851,15.598,37.331,24.134,55.626c8.516,18.293,17.172,36.562,26.441,54.514
							c9.211,17.981,18.975,35.675,29.132,53.134c10.155,17.464,20.823,34.606,31.498,51.724
							c10.633,17.141,21.442,34.174,31.43,51.679l14.89,26.312l6.996,13.396c2.255,4.505,4.477,9.025,6.614,13.587
							c8.536,18.246,16.042,37.005,21.823,56.321c5.759,19.31,9.834,39.16,11.53,59.271c-1.498-20.127-5.38-40.04-10.96-59.44
							c-5.601-19.404-12.938-38.279-21.314-56.651c-2.098-4.595-4.28-9.147-6.496-13.685l-6.879-13.495l-14.657-26.507
							c-9.836-17.639-20.487-34.792-30.952-52.037c-10.507-17.221-20.991-34.443-30.947-51.959
							c-9.979-17.504-19.476-35.277-28.597-53.238c-9.144-17.952-17.667-36.199-26.077-54.53
							c-8.42-18.311-16.508-36.758-23.729-55.524c-14.452-37.442-25.092-76.69-26.239-116.796
							c-1.44-40.118,3.042-80.287,10.611-119.734c3.765-19.745,8.43-39.323,13.422-58.816c5.005-19.488,10.621-38.816,16.753-57.972
							c12.252-38.315,26.897-75.865,44.157-112.166l0.077-0.163l0.065-0.191c10.208-30.132,18.361-61.063,24.86-92.181
							c6.616-31.122,11.959-62.439,17.629-93.633c2.822-15.601,5.754-31.167,8.945-46.668c3.167-15.51,6.578-30.937,10.861-46.083
							c4.265-15.141,9.386-30.034,16.096-44.122c3.321-7.057,7.157-13.839,11.474-20.253l1.614-2.411l1.777-2.352l3.553-4.704
							l7.102-9.409c19.464-24.716,42.18-46.815,66.713-66.564l9.241-7.367l9.511-7.019c6.269-4.781,12.913-9.036,19.38-13.54
							c13.208-8.604,26.721-16.753,40.632-24.149c6.93-3.739,14.013-7.207,21.128-10.46l2.639-1.166l2.725-1.033l5.46-2.063
							c1.834-0.647,3.703-1.196,5.552-1.8c1.852-0.598,3.701-1.205,5.593-1.654c14.984-4.107,30.594-5.982,46.031-4.783
							c15.43,1.104,30.619,5.232,44.522,12.049c6.945,3.412,13.635,7.388,19.849,12.016c3.127,2.284,6.136,4.73,9.015,7.307
							c2.853,2.55,5.7,5.336,8.059,8.085l1.105,1.29l1.655-0.193c9.877-1.149,20.058-1.626,30.113-1.656
							c10.082-0.014,20.162,0.496,30.142,1.681c9.974,1.196,19.854,3.083,29.387,5.994c9.503,2.944,18.689,6.939,26.72,12.556
							c15.828,12.128,30.747,26.11,44.34,41.001c13.62,14.953,25.817,31.173,36.973,48.045l4.116,6.377
							c1.376,2.124,2.768,4.237,3.996,6.452l7.621,13.131c4.695,8.963,9.509,17.878,13.557,27.161l3.168,6.9
							c1.007,2.321,1.901,4.689,2.857,7.032l2.826,7.046c0.96,2.342,1.896,4.693,2.671,7.103l4.933,14.356l4.183,14.589
							c5.195,19.561,8.591,39.554,10.061,59.739c1.346,20.241,1.361,40.585,1.191,60.948c-0.172,20.364-0.523,40.774,0.089,61.208
							c0.632,20.417,2.234,40.935,6.521,61.032c2.104,10.047,4.927,19.961,8.586,29.574c3.801,9.546,8.056,18.929,13.215,27.793
							c10.103,17.861,22.322,34.319,34.686,50.514c12.337,16.224,24.993,32.201,35.965,49.321c2.819,4.23,5.354,8.632,7.962,12.991
							c2.402,4.471,4.967,8.863,7.099,13.476c4.548,9.086,8.348,18.535,11.681,28.133c13.237,38.444,17.096,80.144,11.033,120.459
							C1994.898,1067.846,1991.464,1026.013,1978.541,987.257z"/>
						<path style="fill:#3C545E;" d="M1806.872,1086.847c-19.011-6.878-36.247-18.125-49.889-32.891
							c-13.749-14.769-24.812-32.109-32.462-50.83c-7.822-18.672-12.377-38.729-13.95-59.04
							c-1.774-20.324-0.503-40.898,2.762-61.165c3.365-20.266,9.122-40.2,16.999-59.324c7.774-19.182,17.761-37.514,29.616-54.764
							c-13.85,15.711-25.333,33.569-34.691,52.488c-4.694,9.466-8.586,19.313-12.191,29.277c-1.677,5.021-3.222,10.098-4.696,15.192
							l-1.937,7.721c-0.645,2.575-1.331,5.144-1.785,7.763c-4.434,20.792-5.993,42.243-4.771,63.609
							c1.326,21.358,6.032,42.622,14.188,62.576c8.364,19.866,20.172,38.322,35.19,53.888c15.163,15.51,34.121,27.517,54.779,33.833
							c20.582,6.623,42.37,8.062,63.435,5.954c21.096-2.233,41.639-7.833,60.822-16.206c-20.024,6.026-40.585,10.035-61.201,10.687
							C1846.525,1096.386,1825.895,1093.741,1806.872,1086.847z"/>
						<path style="fill:#3C545E;" d="M1449.561,1064.647c-5.706-18.737-13.374-36.987-24.17-53.256
							c9.47,17.04,16.404,35.319,20.974,54.125c4.693,18.774,7.198,38.045,7.713,57.309c0.387,19.25-1.092,38.602-5.707,57.173
							c-4.56,18.593-12.044,36.43-21.815,52.941c-4.833,8.287-10.152,16.303-15.894,24.026
							c-5.781,7.696-11.974,15.089-18.397,22.289c-12.849,14.416-26.964,27.717-41.476,40.587
							c-7.283,6.436-14.777,13.018-20.966,20.883c-6.155,7.776-11.245,17.058-12.219,27.283
							c-0.905,10.218,2.326,20.177,7.236,28.661c4.908,8.579,11.429,15.981,18.341,22.827c-6.378-7.345-12.368-15.106-16.756-23.683
							c-4.361-8.524-6.837-18.147-5.51-27.425c1.277-9.285,6.219-17.669,12.353-24.839c3.874-4.557,8.236-8.687,12.782-12.687
							c-1.663,16.569,0.289,33.777,6.632,49.612c3.353,8.543,8.064,16.455,13.218,23.923c5.235,7.426,11.039,14.347,16.851,21.146
							c11.875,13.406,23.458,26.576,33.451,41.189c10.08,14.511,18.882,29.925,26.526,46.096
							c-4.998-17.189-12.646-33.657-22.086-48.995c-4.662-7.717-9.919-15.063-15.448-22.193
							c-5.583-7.095-11.539-13.787-17.31-20.545c-5.875-6.668-11.555-13.418-16.777-20.447c-2.615-3.509-5.078-7.111-7.376-10.809
							c-2.214-3.74-4.353-7.525-6.198-11.455c-6.911-14.816-10.202-31.268-10.946-47.995c2.514-2.197,5.064-4.368,7.657-6.524
							c7.524-6.243,14.883-12.707,22.014-19.429c7.137-6.713,14.129-13.606,20.77-20.854c6.651-7.235,12.967-14.792,18.944-22.627
							c5.92-7.88,11.442-16.077,16.452-24.595c9.946-17.068,17.684-35.55,22.187-54.865c4.42-19.353,5.771-39.219,4.746-58.866
							C1458.37,1102.973,1455.09,1083.467,1449.561,1064.647z"/>
						<path style="fill:#3C545E;" d="M1533.295,2393.336c-0.499-9.996-1.234-19.99-2.641-29.984
							c-1.407,9.994-2.143,19.988-2.642,29.984c-0.313,4.996-0.383,9.994-0.566,14.99l-0.188,14.992
							c-0.021,9.994,0.253,19.988,0.744,29.984c0.499,9.994,1.237,19.988,2.652,29.984c1.415-9.996,2.154-19.99,2.651-29.984
							c0.492-9.996,0.765-19.99,0.744-29.984l-0.188-14.992C1533.679,2403.33,1533.608,2398.332,1533.295,2393.336z"/>
					</g>
					<g>
						<g>
							<path style="fill:none;stroke:#38C689;stroke-miterlimit:10;" d="M1604.912,2348.354c-14.69,0.898-29.42,0.523-44.052-0.732
								c-14.627-1.348-29.187-3.424-43.562-6.484c-14.408-2.939-28.7-6.521-42.894-10.529c-14.229-3.888-28.354-8.229-42.506-12.553
								c-14.174-4.256-28.315-8.71-42.61-12.705c-14.27-4.075-28.658-7.803-43.191-10.932c-14.562-2.939-29.363-5.368-44.221-5.217
								c14.769,1.381,29.235,4.436,43.442,8.438c14.25,3.877,28.36,8.274,42.441,12.768c3.271,1.057,6.541,2.12,9.811,3.187
								c-9.272,0.929-18.456,2.962-27.405,5.431c-5.75,1.535-11.402,3.377-17.049,5.115c-5.632,1.811-11.213,3.674-16.824,5.391
								c-5.583,1.771-11.174,3.508-16.812,4.93c-2.799,0.826-5.634,1.426-8.461,2.111c-1.411,0.365-2.843,0.557-4.263,0.859
								c-1.422,0.277-2.84,0.633-4.271,0.847c-11.411,2.054-23.148,2.429-35.058,2.565c11.583,2.674,23.671,3.828,35.736,2.694
								c12.058-1.011,23.78-4.038,35.172-7.528c11.356-3.662,22.42-7.834,33.446-11.955c9.432-3.474,18.886-6.725,28.601-9.543
								c23.917,7.818,47.842,15.801,72.204,22.643c14.34,3.934,28.814,7.51,43.469,10.299c14.673,2.733,29.516,4.726,44.436,5.461
								c14.912,0.816,29.897,0.467,44.718-1.24c14.787-1.865,29.47-4.853,43.438-9.875
								C1634.249,2345.339,1619.624,2347.626,1604.912,2348.354z"/>
							<path style="fill:none;stroke:#38C689;stroke-miterlimit:10;" d="M1489.733,2086.362
								c18.521-12.98,36.202-27.26,52.221-43.257c16.135-15.85,30.565-33.465,42.629-52.473
								c-14.344,17.354-29.648,33.704-46.265,48.64c-8.275,7.491-16.777,14.728-25.566,21.601
								c-8.713,6.967-17.717,13.57-26.897,19.913c-9.109,6.448-18.497,12.503-28.009,18.356
								c-9.468,5.932-19.18,11.467-28.941,16.929c-19.62,10.751-39.672,20.785-60.357,29.647
								c21.667-6.206,42.562-14.986,62.814-24.947C1451.604,2110.756,1471.141,2099.258,1489.733,2086.362z"/>
						</g>
					</g>
					<g>
						<path style="fill:#A0724A;" d="M1430.772,785.874c3.242,0.583,6.492,1.138,9.77,1.598c-3.015-1.366-6.057-2.636-9.108-3.879
							c-2.394-1.006-4.812-1.928-7.225-2.865c0.693-2.448,1.378-4.918,1.891-7.365c0.71-3.036,1.368-6.093,1.868-9.146
							c1.155-6.105,2.087-12.219,2.915-18.349c1.623-12.255,2.771-24.54,3.653-36.839c0.858-12.301,1.37-24.62,1.515-36.957
							c0.126-12.337,0.015-24.686-0.939-37.07c-2.377,12.189-4.046,24.405-5.595,36.625c-1.54,12.22-2.805,24.451-3.907,36.687
							c-1.119,12.232-2.062,24.475-2.96,36.705c-0.972,12.202-1.534,24.514-3.041,36.492l-0.274,2.181l1.742,0.33
							C1424.31,784.635,1427.52,785.325,1430.772,785.874z"/>
						<path style="fill:#A0724A;" d="M1312.893,854.157c3.181,23.506,7.31,47.09,15.273,69.825
							c4.027,11.328,9.058,22.354,15.694,32.586c3.229,5.156,7.035,9.916,10.955,14.552c4.081,4.494,8.291,8.894,12.938,12.8
							c9.152,7.985,19.478,14.482,30.223,19.975c10.816,5.375,22.166,9.605,33.795,12.702c7.17,1.885,14.443,3.294,21.763,4.359
							c-0.729,8.1-0.99,16.177-1.031,24.242c-0.041,9.064,0.138,18.118,0.609,27.157l0.864,13.55
							c0.409,4.511,0.705,9.026,1.243,13.531c0.95,9.015,2.135,18.018,3.991,26.987c0.953-9.109,1.237-18.186,1.285-27.25
							c0.087-4.535-0.069-9.059-0.11-13.588l-0.488-13.568c-0.432-9.041-1.154-18.067-2.097-27.083
							c-0.838-7.966-1.893-15.921-3.407-23.854c4.282,0.604,8.574,1.123,12.881,1.467c11.962,0.992,23.997,0.863,35.926-0.263
							c11.928-1.143,23.753-3.282,35.284-6.511c11.53-3.268,22.692-7.638,33.388-12.936c21.258-10.802,40.703-25.229,56.419-42.972
							c-16.813,16.659-36.438,30.33-57.859,39.968c-10.666,4.882-21.727,8.914-33.057,11.792
							c-11.343,2.856-22.943,4.639-34.602,5.448c-23.302,1.477-46.888-0.472-69.33-6.692c-11.195-3.131-22.133-7.196-32.479-12.418
							c-10.281-5.314-20.108-11.573-28.776-19.19c-4.438-3.69-8.441-7.85-12.333-12.089c-3.729-4.38-7.361-8.866-10.435-13.736
							c-6.321-9.591-11.174-20.251-15.218-31.146c-8.082-21.877-12.26-45.181-16.161-68.405
							c-3.771-23.276-6.242-46.784-8.282-70.336c-2.256-23.541-3.757-47.169-5.896-70.75c0.611,23.669,1.451,47.319,2.593,70.988
							C1307.814,806.949,1309.723,830.607,1312.893,854.157z"/>
						<path style="fill:#A0724A;" d="M1836.832,691.761c-0.454-6.696-2.201-13.251-4.484-19.544
							c-2.402-6.284-5.857-12.089-9.761-17.532c-4.181-5.231-8.794-10.155-14.189-14.143c-1.278-1.084-2.763-1.887-4.134-2.84
							c-1.399-0.916-2.773-1.868-4.286-2.593l-4.435-2.33l-4.63-1.909c-0.776-0.306-1.539-0.648-2.325-0.923l-2.398-0.716
							c-1.604-0.449-3.18-1.01-4.808-1.357c-3.284-0.574-6.529-1.349-9.862-1.479c-1.657-0.094-3.305-0.366-4.965-0.305
							l-4.971,0.095c-3.309,0.07-6.603,0.506-9.842,1.149c-6.483,1.253-12.775,3.413-18.614,6.394
							c-11.653,6.003-21.524,15.224-27.995,26.312c7.709-10.234,17.905-18.39,29.412-23.31c11.467-5.022,24.201-6.666,36.414-5.08
							c24.485,2.938,46.58,20.029,55.053,43.018c2.094,5.699,3.762,11.626,4.209,17.724c0.463,3.028,0.291,6.088,0.344,9.14
							c0.006,1.527-0.259,3.039-0.371,4.56c-0.155,1.518-0.234,3.047-0.588,4.537l-0.856,4.501
							c-0.365,1.482-0.854,2.934-1.271,4.404l-0.648,2.203l-0.863,2.126c-0.591,1.411-1.122,2.852-1.756,4.246
							c-1.458,2.693-2.735,5.499-4.524,8.005c-1.557,2.661-3.534,5.021-5.436,7.448c-8.058,9.282-18.518,16.73-30.408,20.653
							c-2.913,1.178-6.001,1.745-9.051,2.526c-1.533,0.342-3.105,0.463-4.662,0.709c-1.562,0.208-3.124,0.499-4.704,0.485
							c-6.307,0.415-12.72,0.13-19.013-1.103c6.126,1.933,12.566,2.879,19.06,2.987c1.626,0.155,3.245,0.01,4.868-0.096
							c1.618-0.133,3.261-0.146,4.871-0.381c3.206-0.569,6.48-0.937,9.608-1.935c12.705-3.344,24.354-10.611,33.399-20.325
							c4.5-4.897,8.278-10.437,11.346-16.368c0.729-1.499,1.354-3.049,2.035-4.575l0.993-2.301l0.774-2.383
							c0.499-1.594,1.067-3.172,1.505-4.785l1.067-4.906c0.422-1.627,0.562-3.298,0.736-4.964c0.142-1.667,0.431-3.328,0.444-5.002
							C1837.106,698.447,1837.297,695.089,1836.832,691.761z"/>
						<path style="fill:#A0724A;" d="M1757.439,680.299c2.989-4.186,6.443-7.939,10.302-11.293c1.855,2.222,3.659,4.285,5.374,6.39
							c2.301,2.795,4.441,5.618,6.525,8.501c2.077,2.888,4.091,5.844,6.091,8.914c2.033,3.058,4.022,6.215,6.507,9.395
							c0.202-4.017-0.498-7.93-1.703-11.692c-1.222-3.757-3.052-7.337-5.377-10.581c-2.324-3.242-5.162-6.147-8.42-8.464
							c-2.274-1.598-4.748-2.914-7.373-3.82c0.392-0.319,0.76-0.661,1.16-0.972c5.092-3.805,10.932-6.702,17.396-8.98
							c-6.842-0.525-13.958,1.129-20.216,4.512c-6.256,3.388-11.654,8.372-15.771,14.107c-4.142,5.738-7.151,12.159-9.113,18.794
							c-1.99,6.616-3.061,13.51-2.637,20.375c2.372-6.415,4.808-12.569,7.594-18.49
							C1750.61,691.104,1753.716,685.448,1757.439,680.299z"/>
						<path style="fill:#A0724A;" d="M1402.534,1639.075c-6.797,7.386-13.513,14.841-20.171,22.346
							c-10.357,2.378-20.681,4.896-31.008,7.399c-10.502,2.634-21.019,5.206-31.485,7.979c-10.482,2.713-20.938,5.53-31.373,8.437
							c-5.221,1.438-10.428,2.93-15.624,4.472c-5.201,1.521-10.405,3.021-15.579,4.65c5.337-0.964,10.644-2.057,15.955-3.131
							c5.316-1.054,10.62-2.155,15.91-3.313c10.589-2.281,21.155-4.653,31.695-7.128c10.556-2.416,21.062-5.032,31.583-7.586
							c10.501-2.638,21.006-5.256,31.473-8.028l0.646-0.172l0.391-0.465c6.599-7.852,13.134-15.758,19.587-23.735
							c3.25-3.967,6.431-7.996,9.614-12.022c3.191-4.019,6.383-8.038,9.49-12.129c-3.593,3.671-7.103,7.415-10.613,11.159
							C1409.506,1631.546,1405.985,1635.28,1402.534,1639.075z"/>
						<path style="fill:#A0724A;" d="M1515.053,1185.647c-2.104-5.042-4.826-9.896-8.483-14.114
							c-1.867-2.107-3.861-3.984-6.415-5.558c-2.987-1.739-7.154-0.439-8.761,2.639c-0.396,0.759-0.674,1.589-0.764,2.439
							l-0.193,2.048l-0.368,4.044l-0.735,8.088l-1.47,16.175l-2.939,32.35c-3.921,43.134-7.399,86.302-10.874,129.471l-2.491,32.385
							l-0.622,8.097l-0.311,4.049c-0.099,1.285-0.248,2.505-0.473,3.749c-0.446,2.471-1.154,4.903-2.107,7.246
							c-0.473,1.173-1.009,2.322-1.59,3.45l-1.904,3.605c-2.54,5.063-4.405,10.23-6.167,15.422
							c-1.745,5.193-3.307,10.42-4.755,15.667c-2.945,10.484-5.437,21.058-7.76,31.657c-4.653,21.198-8.679,42.499-12.431,63.842
							c-3.543,21.38-7.004,42.767-9.803,64.251c4.067-21.278,8.068-42.555,12.532-63.737c4.298-21.209,8.797-42.379,13.945-63.368
							c2.592-10.487,5.293-20.943,8.289-31.284c1.496-5.171,3.1-10.303,4.865-15.352c1.773-5.033,3.673-10.054,6.052-14.642
							l1.931-3.552c0.673-1.271,1.281-2.579,1.829-3.912c1.097-2.668,1.924-5.457,2.452-8.311c0.264-1.418,0.449-2.889,0.562-4.301
							l0.328-4.048l0.655-8.094l2.617-32.376c3.333-43.18,6.666-86.359,9.555-129.574l2.167-32.411l1.084-16.206l0.542-8.103
							l0.271-4.051l0.139-1.998c0.036-0.5,0.179-0.977,0.383-1.428c0.855-1.828,3.338-2.759,5.176-1.769
							c2.106,1.188,4.21,2.949,5.989,4.833c3.603,3.838,6.439,8.433,8.689,13.288c4.519,9.744,7.08,20.353,8.956,30.999
							c-0.675-5.37-1.462-10.741-2.664-16.043C1518.742,1195.923,1517.176,1190.69,1515.053,1185.647z"/>
						<path style="fill:#A0724A;" d="M1516.271,1287.912c-0.883-0.821-1.837-1.566-2.835-2.241c-0.926-0.711-2.365-1.394-3.744-1.52
							c-2.832-0.348-5.778,1.119-7.303,3.617c-0.797,1.237-1.065,2.819-1.263,3.812l-0.692,3.38l-2.666,13.541
							c-3.533,18.06-6.741,36.173-9.879,54.3c-3.034,18.143-6.004,36.299-8.648,54.508c-2.679,18.205-5.164,36.441-7.098,54.773
							c4.244-17.938,7.938-35.97,11.438-54.034c3.535-18.058,6.744-36.172,9.889-54.296c3.04-18.145,6.011-36.299,8.656-54.509
							l1.968-13.66l0.466-3.42c0.17-1.266,0.245-2.011,0.646-2.769c0.76-1.495,2.498-2.559,4.271-2.472
							c0.923,0.039,1.677,0.262,2.639,0.856c0.958,0.534,1.878,1.135,2.739,1.809c1.74,1.334,3.255,2.951,4.533,4.769
							c2.534,3.669,3.902,8.14,4.766,12.648c-0.277-4.576-1.1-9.277-3.43-13.474
							C1519.577,1291.44,1518.047,1289.54,1516.271,1287.912z"/>
						<path style="fill:#A0724A;" d="M1561.262,1363.031c-3.141-18.085-6.341-36.161-9.88-54.179l-2.671-13.511l-0.692-3.374
							l-0.354-1.705c-0.163-0.705-0.393-1.398-0.738-2.036c-1.342-2.595-4.181-4.211-7.002-4.06
							c-1.401,0.034-2.79,0.569-3.869,1.313c-1.046,0.709-1.966,1.525-2.788,2.406c-1.666,1.747-3,3.712-4.151,5.751
							c-2.313,4.08-3.829,8.487-4.964,12.938c1.673-4.277,3.668-8.429,6.242-12.133c1.306-1.831,2.723-3.582,4.353-5.034
							c0.806-0.734,1.675-1.379,2.575-1.885c0.854-0.479,1.725-0.713,2.627-0.659c1.789,0.076,3.465,1.204,4.119,2.776
							c0.178,0.384,0.275,0.799,0.347,1.217l0.233,1.686l0.464,3.413l1.953,13.632c2.625,18.174,5.591,36.29,8.616,54.395
							c3.133,18.087,6.334,36.162,9.861,54.183c3.492,18.026,7.181,36.019,11.425,53.917c-1.922-18.294-4.397-36.492-7.071-54.658
							C1567.258,1399.252,1564.293,1381.137,1561.262,1363.031z"/>
						<path style="fill:#A0724A;" d="M1617.818,1772.441c-6.764-4.569-13.493-9.185-20.084-13.987
							c-6.66-4.703-13.197-9.575-19.648-14.553c-6.505-4.91-12.809-10.07-19.101-15.252c-11.697-9.807-22.941-20.147-33.661-31.194
							c1.186-4.589,1.984-9.275,2.305-14.003c0.17-2.059,0.062-3.765,0.102-5.658l0.017-5.55l0.025-11.099l-0.256-88.549
							c-0.128-29.516-0.063-59.03-0.404-88.544c-1.161-58.959,1.749-118.114-2.96-177.048c1.377,29.483,0.756,58.999,0.045,88.491
							l-0.933,44.268c-0.282,14.77-0.345,29.535-0.489,44.289c-0.34,29.514-0.277,59.028-0.404,88.544l-0.256,88.537
							c-0.024,7.307,0.114,14.83-0.016,21.961c-0.439,7.09-1.91,14.136-4.463,20.751c-5.037,13.324-14.334,24.757-25.925,33.353
							c-5.933,4.611-11.476,9.661-16.751,14.925c-5.066,5.265-10.604,9.821-16.485,14.192
							c-11.755,8.654-24.262,16.419-36.943,23.856c-25.422,14.817-51.745,28.166-78.285,41.011
							c-13.247,6.48-26.582,12.791-39.979,18.969c-13.469,6.015-26.914,12.096-40.346,18.224
							c54.798-21.945,108.967-45.729,160.775-74.423c12.917-7.231,25.652-14.87,37.688-23.699
							c5.989-4.387,11.908-9.211,17.114-14.562c5.197-5.127,10.616-10,16.363-14.414c12.129-8.876,22.338-21.151,27.826-35.49
							c0.979-2.501,1.765-5.066,2.459-7.655c8.775,12.536,19.18,23.941,30.31,34.478c5.96,5.733,12.279,11.063,18.635,16.339
							c6.418,5.2,13.011,10.177,19.688,15.028c6.746,4.754,13.563,9.402,20.519,13.831c6.994,4.367,14.01,8.695,21.219,12.688
							c14.349,8.093,29.086,15.501,44.335,21.73c-13.959-8.729-27.87-17.363-41.601-26.252
							C1631.421,1781.479,1624.544,1777.072,1617.818,1772.441z"/>
						<path style="fill:#A0724A;" d="M1579.121,1365.571l-13.24-60.891c-4.472-20.276-8.826-40.573-12.992-60.896
							c-2.062-10.224-3.982-20.225-5.814-30.686c-0.749-3.011-3.225-5.422-6.104-6.171c-1.436-0.391-2.97-0.388-4.387,0.001
							c-1.416,0.356-2.717,1.237-3.68,2.09c-4.123,3.457-7.027,7.995-9.127,12.738c2.623-4.475,5.938-8.591,10.076-11.499
							c1.978-1.538,4.332-2.009,6.479-1.242c2.117,0.74,3.695,2.604,4.044,4.699c0.575,4.92,1.179,10.291,1.869,15.398
							c0.682,5.168,1.505,10.312,2.311,15.457c3.293,20.572,7.425,40.977,11.793,61.317c4.498,20.313,9.248,40.565,14.469,60.699
							c5.184,20.143,10.683,40.206,16.887,60.08C1587.788,1406.221,1583.492,1385.885,1579.121,1365.571z"/>
						<path style="fill:#A0724A;" d="M1608.17,1426.049l1.067,1.32c0.16,0.199,0.409,0.49,0.45,0.564l0.424,0.619
							c0.587,0.851,1.11,1.782,1.644,2.703c1.082,1.849,1.946,3.826,2.836,5.811c1.703,4.01,2.961,8.229,4.137,12.678
							c0.712-4.542,0.398-9.274-0.783-13.802c-0.547-2.282-1.409-4.477-2.37-6.642c-0.503-1.078-1.063-2.122-1.695-3.165
							l-0.517-0.786c-0.271-0.393-0.399-0.522-0.584-0.767l-1.038-1.322c-2.704-3.489-5.435-7.053-8.265-10.545
							c-2.825-3.502-5.745-6.952-9-10.2c1.69,4.28,3.81,8.297,6.104,12.205C1602.888,1418.622,1605.352,1422.424,1608.17,1426.049z"
							/>
						<path style="fill:#A0724A;" d="M1597.904,1456.544c1.023,1.593,2.212,3.063,3.405,4.562c1.168,1.344,1.93,2.537,2.496,4
							c1.231,3.258,2.246,6.718,3.165,10.231c0.918,3.524,1.737,7.116,2.822,10.785c0.789-3.744,0.941-7.559,0.652-11.36
							c-0.299-3.803-1.014-7.601-2.414-11.286c-0.757-2.016-2.143-3.938-3.551-5.26c-1.305-1.246-2.513-2.612-3.83-3.899
							c-2.564-2.64-5.174-5.286-8.089-7.764C1593.941,1450.129,1595.798,1453.415,1597.904,1456.544z"/>
						<path style="fill:#A0724A;" d="M1494.384,1301c2.254-19.306,4.438-38.618,6.293-57.971c0.963-9.672,1.813-19.357,2.641-29.045
							c0.051-0.57,0.09-1.294,0.148-1.737c0.061-0.461,0.183-0.92,0.399-1.34c0.409-0.854,1.121-1.577,1.994-2.011
							c0.886-0.432,1.858-0.583,2.915-0.358c1.119,0.207,2.227,0.534,3.292,0.99c4.296,1.842,7.718,5.536,10.354,9.587
							c-2.125-4.333-5.146-8.533-9.665-10.999c-1.116-0.612-2.313-1.106-3.563-1.434c-1.294-0.397-2.877-0.345-4.215,0.203
							c-1.354,0.539-2.531,1.535-3.288,2.816c-0.392,0.633-0.657,1.345-0.815,2.075c-0.155,0.753-0.208,1.243-0.318,1.877
							c-1.475,9.61-2.928,19.225-4.268,28.851c-2.75,19.246-5.173,38.531-7.525,57.824c-2.247,19.306-4.43,38.618-6.284,57.972
							c-1.89,19.348-3.584,38.719-4.723,58.158c3.467-19.161,6.378-38.387,9.094-57.637
							C1489.603,1339.576,1492.025,1320.292,1494.384,1301z"/>
						<path style="fill:#A0724A;" d="M1687.153,1652.432l-2.805-1.772l-5.646-3.49c-7.292-4.387-14.682-8.622-22.168-12.67
							c-0.569-2.854-1.317-5.57-2.142-8.301c-0.911-3.074-2.099-6.059-3.321-9.013c-1.271-2.938-2.661-5.824-4.275-8.582
							c-1.549-2.789-3.392-5.414-5.33-7.92c1.263,2.92,2.53,5.79,3.611,8.734c1.09,2.935,2.137,5.871,3.018,8.859
							c0.953,2.963,1.717,5.979,2.483,8.981c0.753,2.991,1.352,6.09,1.867,9.025l0.184,1.041l0.957,0.554
							c7.624,4.407,15.357,8.598,23.189,12.639l5.918,2.962l2.978,1.453l2.884,1.58c3.859,2.093,7.76,4.153,11.818,6.059
							c-3.385-2.838-6.93-5.519-10.517-8.168L1687.153,1652.432z"/>
						<path style="fill:#A0724A;" d="M1638.191,1479.717c-0.603-20.157-1.367-40.31-2.15-60.459
							c-0.143-5.489-2.061-11.107-5.318-15.515l-8.751-12.335l-17.33-24.403c-8.913-20.793-16.791-42.231-23.724-63.871
							c-6.999-21.724-13.011-43.764-17.896-66.053c-2.452-11.143-4.576-22.358-6.299-33.637c-0.871-5.638-1.619-11.295-2.268-16.962
							c-0.29-2.836-0.653-5.668-0.883-8.511l-0.366-4.263c-0.166-1.453-0.129-2.725-0.529-4.513
							c-0.787-3.364-3.956-6.062-7.481-6.086c-1.743-0.021-3.471,0.62-4.773,1.684c-1.157,0.995-2.24,2.045-3.172,3.21
							c-3.79,4.625-6.139,10.038-8.048,15.478c-3.747,10.958-5.408,22.39-6.557,33.774c1.794-11.295,3.976-22.611,8.034-33.233
							c2.07-5.257,4.6-10.426,8.271-14.549c0.897-1.04,1.922-1.947,2.964-2.78c0.951-0.707,2.081-1.051,3.202-1
							c2.286,0.107,4.284,1.959,4.761,4.204c0.226,1.006,0.238,2.627,0.348,4.02l0.265,4.303c0.163,2.872,0.46,5.73,0.684,8.597
							c0.518,5.726,1.134,11.443,1.875,17.144c1.463,11.406,3.333,22.757,5.534,34.042c4.437,22.567,10.314,44.831,17.146,66.779
							c6.986,21.916,14.631,43.56,23.897,64.738l0.105,0.245l0.169,0.234l17.615,24.588l8.815,12.29
							c2.775,3.685,4.302,8.02,4.507,12.61c1.001,20.141,2.021,40.28,3.201,60.415l3.447,60.402
							c1.325,20.126,2.49,40.259,3.98,60.379c-0.293-20.172-0.911-40.331-1.368-60.495L1638.191,1479.717z"/>
						<path style="fill:#A0724A;" d="M1522.836,1243.627c-0.11,6.757-0.041,13.512,0.027,20.267
							c0.122,6.753,0.25,13.507,0.552,20.259l0.462,10.126c0.237,3.375,0.396,6.75,0.701,10.124c0.208-3.381,0.27-6.76,0.408-10.14
							l0.171-10.136c0.108-6.757,0.041-13.512-0.03-20.266c-0.126-6.754-0.252-13.507-0.556-20.258
							c-0.279-6.752-0.595-13.503-1.158-20.25C1523.043,1230.113,1522.921,1236.87,1522.836,1243.627z"/>
					</g>
				</g>
			</g>
			<g>
				<g>
					<path style="fill:#FFFFFF;" d="M2001.346,556.014c-42.455-46.387-68.363-108.169-68.363-176.008
						c0-144.026,116.756-260.783,260.782-260.783s260.782,116.757,260.782,260.783s-116.756,260.783-260.782,260.783
						c-50.056,0-96.81-14.114-136.521-38.562l-110.827,41.959L2001.346,556.014z"/>
					<path style="fill:#1A3139;" d="M2001.346,556.014c-22.206-23.898-39.941-52.025-51.775-82.522
						c-11.896-30.471-17.909-63.239-17.771-96.01c-0.048-32.79,6.49-65.563,18.714-96.018c12.227-30.469,30.273-58.598,52.85-82.484
						c22.557-23.906,49.633-43.567,79.425-57.571c29.771-14.027,62.271-22.346,95.16-24.245c32.872-1.959,66.135,2.114,97.506,12.28
						c31.369,10.146,60.761,26.335,86.188,47.331c25.438,20.987,46.881,46.795,62.863,75.646
						c16.009,28.84,26.414,60.757,30.608,93.458c4.173,32.687,2.449,66.19-5.663,98.168c-7.998,31.993-22.21,62.382-41.444,89.124
						c-19.224,26.756-43.487,49.857-71.142,67.728c-27.65,17.875-58.704,30.418-90.966,36.819
						c-16.126,3.24-32.567,4.812-48.991,4.937l-3.08,0.067l-3.08-0.063l-6.16-0.13l-6.15-0.338l-3.075-0.174
						c-1.023-0.07-2.044-0.181-3.067-0.27l-6.134-0.563l-6.112-0.765l-3.055-0.389c-1.017-0.141-2.027-0.323-3.041-0.483
						l-6.078-0.991c-32.318-5.862-63.496-17.823-91.366-35.128l1.237,0.118l-111.072,41.313l-2.001,0.745l1.136-1.798
						L2001.346,556.014z M2001.346,556.014l-54.317,88.552l-0.865-1.053l110.583-42.603l0.639-0.247l0.6,0.365
						c27.717,16.875,58.576,28.495,90.503,34.041l6.003,0.935c1.002,0.151,1.999,0.324,3.002,0.457l3.018,0.362l6.031,0.712
						l6.051,0.512c1.01,0.08,2.018,0.183,3.027,0.244l3.032,0.149l6.066,0.291l6.072,0.085l3.036,0.04l3.034-0.088
						c16.185-0.238,32.36-1.899,48.202-5.202c31.699-6.513,62.092-19.093,89.133-36.779c27.074-17.637,50.789-40.387,69.533-66.679
						c18.781-26.272,32.504-56.101,40.33-87.407c7.905-31.302,9.55-64.114,5.428-96.096c-4.129-31.999-14.391-63.172-30.016-91.397
						c-15.598-28.239-36.549-53.521-61.422-74.091c-24.859-20.585-53.614-36.446-84.3-46.441
						c-30.672-10.062-63.246-14.177-95.497-12.374c-32.272,1.714-64.133,9.853-93.473,23.384
						c-29.351,13.544-56.119,32.686-78.498,56.069c-22.398,23.365-40.396,50.969-52.677,80.962
						c-12.288,29.983-18.923,62.317-19.313,94.788c-0.512,32.462,5.068,65.052,16.55,95.5
						C1962.307,503.451,1979.519,531.762,2001.346,556.014z"/>
				</g>
				<path style="fill:#E20FFD;" d="M2193.765,248.316c-73.669,0-133.388,59.719-133.388,133.388
					c0,73.668,59.719,133.388,133.388,133.388c73.668,0,133.388-59.72,133.388-133.388
					C2327.152,308.036,2267.433,248.316,2193.765,248.316z M2235.602,340.208c11.304,0,20.467,9.163,20.467,20.467
					c0,11.303-9.163,20.467-20.467,20.467c-11.305,0-20.468-9.164-20.468-20.467
					C2215.134,349.371,2224.297,340.208,2235.602,340.208z M2151.928,340.208c11.304,0,20.467,9.163,20.467,20.467
					c0,11.303-9.163,20.467-20.467,20.467s-20.467-9.164-20.467-20.467C2131.461,349.371,2140.624,340.208,2151.928,340.208z
					 M2264.808,450.807l-4.61-2.604c-3.086-1.687-6.133-3.372-9.23-4.92l-2.307-1.174c-0.768-0.392-1.557-0.742-2.33-1.114
					c-0.783-0.356-1.539-0.757-2.318-1.107l-2.34-1.049l-1.166-0.522l-1.177-0.494l-2.34-0.998l-2.364-0.919
					c-0.789-0.301-1.565-0.626-2.363-0.897c-12.611-4.693-25.615-7.371-38.674-7.42c-13.057-0.079-26.106,2.436-38.752,6.992
					c-6.333,2.257-12.553,5.04-18.68,8.191c-6.135,3.161-12.15,6.69-18.089,10.678c1.919-3.045,4.218-5.836,6.646-8.5
					c1.21-1.34,2.487-2.616,3.778-3.886c1.302-1.258,2.649-2.468,4.018-3.662c5.507-4.733,11.588-8.866,18.094-12.334
					c6.518-3.444,13.488-6.172,20.742-8.002c7.251-1.828,14.777-2.793,22.309-2.749c15.088,0.03,30.021,4.149,42.938,11.18
					c6.482,3.492,12.494,7.691,18.008,12.369c0.691,0.583,1.375,1.171,2.037,1.786c0.667,0.61,1.34,1.207,1.996,1.827
					c1.313,1.232,2.574,2.519,3.832,3.8c1.243,1.295,2.431,2.648,3.623,3.979c1.15,1.381,2.288,2.765,3.373,4.191
					C2267.872,452.597,2266.342,451.692,2264.808,450.807z"/>
			</g>
		</g>
		<path style="fill:#27EF9F;" d="M112.118,2488.195c28.914-0.989,57.829-1.711,86.743-2.573l86.743-2.174
			c57.829-1.378,115.657-2.532,173.485-3.626c115.657-2.133,231.314-3.737,346.971-5.045c231.313-2.512,462.627-3.68,693.94-3.7
			c231.313-0.028,462.627,1.146,693.94,3.654c115.657,1.302,231.314,2.906,346.972,5.048c57.828,1.102,115.656,2.258,173.484,3.643
			l86.742,2.184l43.372,1.253l21.686,0.63l21.685,0.707l-21.685,0.707l-21.686,0.629l-43.372,1.254l-86.742,2.184
			c-57.828,1.385-115.656,2.541-173.484,3.642c-115.657,2.143-231.314,3.747-346.972,5.049
			c-231.313,2.509-462.627,3.681-693.94,3.654c-231.313-0.021-462.627-1.189-693.94-3.701
			c-115.657-1.308-231.314-2.911-346.971-5.044c-57.828-1.096-115.656-2.248-173.485-3.627l-86.743-2.172
			C169.947,2489.906,141.032,2489.185,112.118,2488.195z"/>
	</g>
</g>
</svg>
