<?xml version="1.0" encoding="utf-8"?>
<!-- Generator: Adobe Illustrator 16.0.0, SVG Export Plug-In . SVG Version: 6.00 Build 0)  -->
<!DOCTYPE svg PUBLIC "-//W3C//DTD SVG 1.1//EN" "http://www.w3.org/Graphics/SVG/1.1/DTD/svg11.dtd">
<svg version="1.1" id="Layer_1" xmlns="http://www.w3.org/2000/svg" xmlns:xlink="http://www.w3.org/1999/xlink" x="0px" y="0px"
	 width="960.236px" height="667.247px" viewBox="0 0 960.236 667.247" enable-background="new 0 0 960.236 667.247"
	 xml:space="preserve">
<g id="Background">
</g>
<path fill="#232323" d="M846.157,24.823h-738.33c-15.396,0-27.88,12.482-27.88,27.88v399.551c0,15.398,12.482,27.881,27.88,27.881
	h738.33c15.397,0,27.88-12.482,27.88-27.881V52.703C874.037,37.306,861.555,24.823,846.157,24.823z"/>
<g>
	<path fill="#808080" d="M844.754,305.681c-2.485,0-4.5-2.015-4.5-4.5v-14.905c0-2.485,2.015-4.5,4.5-4.5c2.484,0,4.5,2.015,4.5,4.5
		v14.905C849.254,303.666,847.238,305.681,844.754,305.681z"/>
</g>
<g>
	<path fill="#808080" d="M844.754,269.692c-2.485,0-4.5-2.015-4.5-4.5v-61.415c0-2.485,2.015-4.5,4.5-4.5c2.484,0,4.5,2.015,4.5,4.5
		v61.415C849.254,267.678,847.238,269.692,844.754,269.692z"/>
</g>
<path fill="#FFFFFF" d="M802.636,38.214H151.349c-6.603,0-11.955,5.352-11.955,11.954V454.79c0,6.602,5.353,11.955,11.955,11.955
	h651.287c6.603,0,11.954-5.354,11.954-11.955V50.168C814.591,43.566,809.238,38.214,802.636,38.214z"/>
<g>
	<path fill="#F2F2F2" d="M323.993,181.745c-3.664,0-6.987-0.716-9.971-2.149c-2.984-1.433-5.544-3.335-7.682-5.708
		c-2.138-2.372-3.794-5.084-4.968-8.139c-1.175-3.053-1.762-6.177-1.762-9.372c0-3.335,0.622-6.529,1.867-9.583
		c1.244-3.053,2.959-5.754,5.144-8.104c2.185-2.349,4.779-4.216,7.786-5.602c3.007-1.385,6.271-2.079,9.795-2.079
		c3.617,0,6.917,0.74,9.9,2.22c2.982,1.48,5.531,3.418,7.646,5.813c2.113,2.396,3.758,5.121,4.932,8.174
		c1.174,3.054,1.762,6.155,1.762,9.302c0,3.336-0.61,6.518-1.832,9.548c-1.222,3.03-2.913,5.708-5.073,8.033
		c-2.161,2.325-4.745,4.182-7.751,5.566C330.781,181.052,327.516,181.745,323.993,181.745z M309.477,156.377
		c0,2.161,0.328,4.252,0.987,6.271c0.656,2.021,1.607,3.805,2.854,5.355c1.245,1.55,2.771,2.795,4.581,3.734
		c1.808,0.94,3.863,1.409,6.166,1.409c2.349,0,4.427-0.481,6.236-1.444c1.808-0.962,3.335-2.243,4.58-3.84
		c1.243-1.597,2.185-3.394,2.818-5.391c0.634-1.996,0.951-4.027,0.951-6.095c0-2.16-0.341-4.251-1.021-6.271
		c-0.682-2.019-1.646-3.805-2.89-5.355c-1.246-1.55-2.771-2.783-4.581-3.699c-1.809-0.916-3.84-1.374-6.095-1.374
		c-2.35,0-4.439,0.482-6.271,1.444c-1.831,0.963-3.358,2.232-4.579,3.805c-1.223,1.575-2.149,3.359-2.783,5.355
		C309.795,152.279,309.477,154.311,309.477,156.377z"/>
	<path fill="#F2F2F2" d="M372.051,182.097c-3.007,0-5.708-0.518-8.104-1.55c-2.396-1.033-4.428-2.431-6.095-4.192
		c-1.668-1.762-2.949-3.793-3.84-6.095c-0.894-2.301-1.339-4.721-1.339-7.258c0-2.583,0.445-5.026,1.339-7.328
		c0.892-2.301,2.172-4.333,3.84-6.095c1.667-1.762,3.699-3.159,6.095-4.193c2.396-1.033,5.098-1.55,8.104-1.55
		c3.006,0,5.694,0.518,8.067,1.55c2.372,1.034,4.393,2.431,6.061,4.193c1.667,1.762,2.947,3.794,3.84,6.095
		c0.892,2.302,1.339,4.745,1.339,7.328c0,2.537-0.447,4.957-1.339,7.258c-0.894,2.302-2.161,4.333-3.805,6.095
		c-1.646,1.761-3.665,3.16-6.061,4.192C377.759,181.579,375.056,182.097,372.051,182.097z M362.396,163
		c0,1.645,0.247,3.136,0.74,4.475c0.493,1.339,1.174,2.501,2.043,3.488c0.869,0.986,1.891,1.75,3.064,2.29
		c1.175,0.541,2.442,0.81,3.806,0.81c1.361,0,2.63-0.27,3.805-0.81c1.173-0.54,2.195-1.304,3.065-2.29
		c0.868-0.987,1.55-2.16,2.043-3.523c0.492-1.362,0.739-2.865,0.739-4.51c0-1.596-0.247-3.076-0.739-4.439
		c-0.493-1.362-1.176-2.537-2.043-3.523c-0.87-0.987-1.893-1.75-3.065-2.29c-1.175-0.54-2.443-0.811-3.805-0.811
		c-1.363,0-2.631,0.282-3.806,0.846c-1.175,0.563-2.196,1.339-3.064,2.325c-0.87,0.986-1.55,2.161-2.043,3.523
		C362.643,159.924,362.396,161.404,362.396,163z"/>
	<path fill="#F2F2F2" d="M432.015,181.392h-9.442v-20.717c0-2.912-0.541-5.062-1.621-6.448c-1.081-1.385-2.606-2.079-4.58-2.079
		c-0.846,0-1.738,0.188-2.678,0.564s-1.832,0.905-2.678,1.585c-0.846,0.682-1.621,1.492-2.325,2.431
		c-0.705,0.94-1.222,1.973-1.55,3.1v21.563h-9.442v-51.439h9.442v21.351c1.362-2.396,3.206-4.239,5.531-5.532
		c2.325-1.292,4.896-1.938,7.716-1.938c2.396,0,4.344,0.412,5.849,1.233c1.503,0.822,2.678,1.915,3.523,3.276
		c0.846,1.363,1.433,2.914,1.762,4.651c0.328,1.738,0.493,3.523,0.493,5.355V181.392L432.015,181.392z"/>
	<path fill="#F2F2F2" d="M467.81,149.331v32.062h-9.724v-50.03h7.539l26.071,32.837v-32.767h9.726v49.96h-7.894L467.81,149.331z"/>
	<path fill="#F2F2F2" d="M527.493,182.097c-3.007,0-5.707-0.518-8.104-1.55c-2.396-1.033-4.428-2.431-6.095-4.192
		c-1.668-1.762-2.948-3.793-3.842-6.095c-0.893-2.301-1.339-4.721-1.339-7.258c0-2.583,0.446-5.026,1.339-7.328
		c0.894-2.301,2.174-4.333,3.842-6.095c1.667-1.762,3.698-3.159,6.095-4.193c2.396-1.033,5.097-1.55,8.104-1.55
		c3.006,0,5.696,0.518,8.068,1.55c2.372,1.034,4.393,2.431,6.061,4.193c1.667,1.762,2.947,3.794,3.841,6.095
		c0.892,2.302,1.339,4.745,1.339,7.328c0,2.537-0.447,4.957-1.339,7.258c-0.894,2.302-2.161,4.333-3.806,6.095
		c-1.646,1.761-3.664,3.16-6.061,4.192C533.201,181.579,530.499,182.097,527.493,182.097z M517.841,163
		c0,1.645,0.246,3.136,0.739,4.475c0.493,1.339,1.174,2.501,2.044,3.488c0.868,0.986,1.891,1.75,3.064,2.29
		c1.174,0.541,2.442,0.81,3.805,0.81c1.363,0,2.631-0.27,3.807-0.81c1.174-0.54,2.194-1.304,3.064-2.29
		c0.868-0.987,1.551-2.16,2.043-3.523c0.493-1.362,0.74-2.865,0.74-4.51c0-1.596-0.247-3.076-0.74-4.439
		c-0.492-1.362-1.175-2.537-2.043-3.523c-0.87-0.987-1.892-1.75-3.064-2.29c-1.175-0.54-2.443-0.811-3.807-0.811
		c-1.362,0-2.631,0.282-3.805,0.846c-1.175,0.563-2.196,1.339-3.064,2.325c-0.87,0.986-1.551,2.161-2.044,3.523
		C518.087,159.924,517.841,161.404,517.841,163z"/>
	<path fill="#F2F2F2" d="M570.194,182.097c-3.007,0-5.707-0.518-8.104-1.55c-2.396-1.033-4.429-2.431-6.096-4.192
		c-1.668-1.762-2.947-3.793-3.841-6.095c-0.893-2.301-1.339-4.721-1.339-7.258c0-2.583,0.446-5.026,1.339-7.328
		c0.894-2.301,2.173-4.333,3.841-6.095c1.667-1.762,3.699-3.159,6.096-4.193c2.396-1.033,5.097-1.55,8.104-1.55
		c3.006,0,5.696,0.518,8.068,1.55c2.372,1.034,4.393,2.431,6.061,4.193c1.667,1.762,2.947,3.794,3.84,6.095
		c0.893,2.302,1.34,4.745,1.34,7.328c0,2.537-0.447,4.957-1.34,7.258c-0.893,2.302-2.16,4.333-3.805,6.095
		c-1.646,1.761-3.664,3.16-6.061,4.192C575.902,181.579,573.2,182.097,570.194,182.097z M560.542,163
		c0,1.645,0.245,3.136,0.739,4.475c0.493,1.339,1.173,2.501,2.043,3.488c0.869,0.986,1.892,1.75,3.065,2.29
		c1.174,0.541,2.441,0.81,3.805,0.81s2.631-0.27,3.807-0.81c1.174-0.54,2.194-1.304,3.064-2.29c0.868-0.987,1.55-2.16,2.043-3.523
		c0.493-1.362,0.74-2.865,0.74-4.51c0-1.596-0.247-3.076-0.74-4.439c-0.493-1.362-1.175-2.537-2.043-3.523
		c-0.87-0.987-1.892-1.75-3.064-2.29c-1.176-0.54-2.443-0.811-3.807-0.811s-2.631,0.282-3.805,0.846
		c-1.175,0.563-2.196,1.339-3.065,2.325c-0.87,0.986-1.55,2.161-2.043,3.523C560.787,159.924,560.542,161.404,560.542,163z"/>
	<path fill="#F2F2F2" d="M612.896,182.097c-3.007,0-5.707-0.518-8.104-1.55c-2.396-1.033-4.428-2.431-6.095-4.192
		c-1.668-1.762-2.948-3.793-3.841-6.095c-0.893-2.301-1.339-4.721-1.339-7.258c0-2.583,0.446-5.026,1.339-7.328
		c0.893-2.301,2.173-4.333,3.841-6.095c1.667-1.762,3.699-3.159,6.095-4.193c2.396-1.033,5.098-1.55,8.104-1.55
		c3.006,0,5.696,0.518,8.068,1.55c2.372,1.034,4.393,2.431,6.061,4.193c1.667,1.762,2.947,3.794,3.84,6.095
		c0.893,2.302,1.339,4.745,1.339,7.328c0,2.537-0.446,4.957-1.339,7.258c-0.893,2.302-2.161,4.333-3.805,6.095
		c-1.646,1.761-3.664,3.16-6.062,4.192C618.604,181.579,615.901,182.097,612.896,182.097z M603.242,163
		c0,1.645,0.246,3.136,0.74,4.475c0.493,1.339,1.173,2.501,2.043,3.488c0.869,0.986,1.892,1.75,3.065,2.29
		c1.174,0.541,2.441,0.81,3.805,0.81s2.631-0.27,3.806-0.81s2.195-1.304,3.065-2.29c0.868-0.987,1.55-2.16,2.043-3.523
		c0.493-1.362,0.74-2.865,0.74-4.51c0-1.596-0.247-3.076-0.74-4.439c-0.493-1.362-1.175-2.537-2.043-3.523
		c-0.87-0.987-1.893-1.75-3.065-2.29c-1.175-0.54-2.442-0.811-3.806-0.811s-2.631,0.282-3.805,0.846
		c-1.176,0.563-2.196,1.339-3.065,2.325c-0.87,0.986-1.55,2.161-2.043,3.523C603.488,159.924,603.242,161.404,603.242,163z"/>
	<path fill="#F2F2F2" d="M638.333,181.392v-10.147h7.752v10.147H638.333z"/>
	<path fill="#F2F2F2" d="M654.187,181.392v-10.147h7.751v10.147H654.187z"/>
</g>
<linearGradient id="SVGID_1_" gradientUnits="userSpaceOnUse" x1="158.1838" y1="253.5952" x2="419.9485" y2="253.5952" gradientTransform="matrix(1 0 0 -1 -8.3599 691.3018)">
	<stop  offset="0" style="stop-color:#4B59D8"/>
	<stop  offset="0.7795" style="stop-color:#2AF598"/>
</linearGradient>
<path fill="url(#SVGID_1_)" d="M411.589,466.745c0,0-10.007-27.881-41.564-13.941c-14.239-35.346-55.419-30.957-62.347-3.902
	c-23.477-54.533-86.078-49.529-97.305-9.506c-22.001-19.627-70.019-16.5-58.902,27.35H411.589L411.589,466.745z"/>
<linearGradient id="SVGID_2_" gradientUnits="userSpaceOnUse" x1="545.8835" y1="253.5952" x2="807.6472" y2="253.5952" gradientTransform="matrix(1 0 0 -1 -8.3599 691.3018)">
	<stop  offset="0" style="stop-color:#4B59D8"/>
	<stop  offset="0.7795" style="stop-color:#2AF598"/>
</linearGradient>
<path fill="url(#SVGID_2_)" d="M799.288,466.745c0,0-10.007-27.881-41.563-13.941c-14.239-35.346-55.419-30.957-62.347-3.902
	c-23.478-54.533-86.078-49.529-97.305-9.506c-22.001-19.627-70.02-16.5-58.902,27.35H799.288L799.288,466.745z"/>
<g>
	
		<linearGradient id="SVGID_3_" gradientUnits="userSpaceOnUse" x1="453.0491" y1="208.8081" x2="461.8197" y2="310.809" gradientTransform="matrix(1 0 0 -1 -8.3599 691.3018)">
		<stop  offset="0" style="stop-color:#4B59D8"/>
		<stop  offset="1" style="stop-color:#5ED895"/>
	</linearGradient>
	<path fill="url(#SVGID_3_)" d="M426.385,466.745c0,0,10.395-60.422,54.572-98.104c44.179-37.681-81.21-78.611-64.317,98.104
		H426.385z"/>
	
		<linearGradient id="SVGID_4_" gradientUnits="userSpaceOnUse" x1="420.4919" y1="194.8594" x2="397.7532" y2="333.89" gradientTransform="matrix(1 0 0 -1 -8.3599 691.3018)">
		<stop  offset="0" style="stop-color:#4B59D8"/>
		<stop  offset="1" style="stop-color:#5ED895"/>
	</linearGradient>
	<path fill="url(#SVGID_4_)" d="M409.722,466.745c0,0-3.115-47.732-34.837-77.5c-31.723-29.77,70.787-62.104,42.536,77.5H409.722z"
		/>
	
		<linearGradient id="SVGID_5_" gradientUnits="userSpaceOnUse" x1="430.0847" y1="222.3184" x2="344.9746" y2="317.4988" gradientTransform="matrix(1 0 0 -1 -8.3599 691.3018)">
		<stop  offset="0" style="stop-color:#4B59D8"/>
		<stop  offset="1" style="stop-color:#5ED895"/>
	</linearGradient>
	<path fill="url(#SVGID_5_)" d="M404.377,466.745c0,0-0.873-71.629-45.366-69.68s36.267,23.877,42.197,69.68H404.377
		L404.377,466.745z"/>
	
		<linearGradient id="SVGID_6_" gradientUnits="userSpaceOnUse" x1="427.7117" y1="235.4351" x2="486.1836" y2="303.3275" gradientTransform="matrix(1 0 0 -1 -8.3599 691.3018)">
		<stop  offset="0" style="stop-color:#4B59D8"/>
		<stop  offset="1" style="stop-color:#5ED895"/>
	</linearGradient>
	<path fill="url(#SVGID_6_)" d="M425.085,466.745c0,0,4.872-64.807,33.458-70.654c28.586-5.846-11.37,29.887-11.37,29.887
		s11.531,2.762-18.679,40.768H425.085L425.085,466.745z"/>
	
		<linearGradient id="SVGID_7_" gradientUnits="userSpaceOnUse" x1="427.6487" y1="187.1792" x2="480.5982" y2="339.8556" gradientTransform="matrix(1 0 0 -1 -8.3599 691.3018)">
		<stop  offset="0" style="stop-color:#4B59D8"/>
		<stop  offset="1" style="stop-color:#5ED895"/>
	</linearGradient>
	<path fill="url(#SVGID_7_)" d="M487.288,343.374c-20.498,13.996-64.72,52.369-65.743,123.371h4.839
		c0,0,10.395-60.422,54.573-98.104C491.916,359.295,492.438,349.749,487.288,343.374z"/>
	
		<linearGradient id="SVGID_8_" gradientUnits="userSpaceOnUse" x1="431.7498" y1="195.4419" x2="362.8834" y2="357.2131" gradientTransform="matrix(1 0 0 -1 -8.3599 691.3018)">
		<stop  offset="0" style="stop-color:#4B59D8"/>
		<stop  offset="1" style="stop-color:#5ED895"/>
	</linearGradient>
	<path fill="url(#SVGID_8_)" d="M410.385,466.745c0,0,9.096-81.861-22.739-107.849c-13.318-41.904-68.542-29.885-50.351,0
		c18.19,29.886,68.217,49.052,65.617,107.849H410.385z"/>
	
		<linearGradient id="SVGID_9_" gradientUnits="userSpaceOnUse" x1="426.0305" y1="219.0991" x2="338.6486" y2="375.0222" gradientTransform="matrix(1 0 0 -1 -8.3599 691.3018)">
		<stop  offset="0" style="stop-color:#4B59D8"/>
		<stop  offset="1" style="stop-color:#5ED895"/>
	</linearGradient>
	<path fill="url(#SVGID_9_)" d="M408.879,466.745c-1.286-69.895-33.845-90.307-33.845-90.307
		c-8.218-25.546-25.375-36.529-34.81-40.797c-6.667,4.539-9.292,12.801-2.929,23.255c18.19,29.886,68.217,49.052,65.617,107.849
		H408.879z"/>
</g>
<g>
	
		<linearGradient id="SVGID_10_" gradientUnits="userSpaceOnUse" x1="899.0603" y1="209.9028" x2="907.2215" y2="304.815" gradientTransform="matrix(-1 0 0 -1 1409.0151 691.3018)">
		<stop  offset="0" style="stop-color:#4B59D8"/>
		<stop  offset="1" style="stop-color:#5ED895"/>
	</linearGradient>
	<path fill="url(#SVGID_10_)" d="M526.989,466.745c0,0-9.673-56.223-50.781-91.285c-41.107-35.063,75.566-73.147,59.85,91.285
		H526.989z"/>
	
		<linearGradient id="SVGID_11_" gradientUnits="userSpaceOnUse" x1="868.7654" y1="196.9229" x2="847.6067" y2="326.2927" gradientTransform="matrix(-1 0 0 -1 1409.0151 691.3018)">
		<stop  offset="0" style="stop-color:#4B59D8"/>
		<stop  offset="1" style="stop-color:#5ED895"/>
	</linearGradient>
	<path fill="url(#SVGID_11_)" d="M542.492,466.745c0,0,2.899-44.416,32.417-72.115s-65.867-57.787-39.58,72.115H542.492
		L542.492,466.745z"/>
	
		<linearGradient id="SVGID_12_" gradientUnits="userSpaceOnUse" x1="877.6912" y1="222.4731" x2="798.4975" y2="311.037" gradientTransform="matrix(-1 0 0 -1 1409.0151 691.3018)">
		<stop  offset="0" style="stop-color:#4B59D8"/>
		<stop  offset="1" style="stop-color:#5ED895"/>
	</linearGradient>
	<path fill="url(#SVGID_12_)" d="M547.469,466.745c0,0,0.812-66.65,42.212-64.836c41.4,1.813-33.746,22.215-39.267,64.836H547.469z"
		/>
	
		<linearGradient id="SVGID_13_" gradientUnits="userSpaceOnUse" x1="875.4822" y1="234.6753" x2="929.8917" y2="297.8507" gradientTransform="matrix(-1 0 0 -1 1409.0151 691.3018)">
		<stop  offset="0" style="stop-color:#4B59D8"/>
		<stop  offset="1" style="stop-color:#5ED895"/>
	</linearGradient>
	<path fill="url(#SVGID_13_)" d="M528.198,466.745c0,0-4.534-60.303-31.134-65.744c-26.6-5.439,10.579,27.809,10.579,27.809
		s-10.73,2.57,17.381,37.936H528.198L528.198,466.745z"/>
	
		<linearGradient id="SVGID_14_" gradientUnits="userSpaceOnUse" x1="875.4246" y1="189.7749" x2="924.6947" y2="331.8423" gradientTransform="matrix(-1 0 0 -1 1409.0151 691.3018)">
		<stop  offset="0" style="stop-color:#4B59D8"/>
		<stop  offset="1" style="stop-color:#5ED895"/>
	</linearGradient>
	<path fill="url(#SVGID_14_)" d="M470.316,351.947c19.074,13.022,60.223,48.729,61.176,114.798h-4.503
		c0,0-9.673-56.223-50.781-91.285C466.011,366.762,465.525,357.879,470.316,351.947z"/>
	
		<linearGradient id="SVGID_15_" gradientUnits="userSpaceOnUse" x1="879.239" y1="197.4653" x2="815.1578" y2="347.9958" gradientTransform="matrix(-1 0 0 -1 1409.0151 691.3018)">
		<stop  offset="0" style="stop-color:#4B59D8"/>
		<stop  offset="1" style="stop-color:#5ED895"/>
	</linearGradient>
	<path fill="url(#SVGID_15_)" d="M541.876,466.745c0,0-8.464-76.173,21.158-100.354c12.394-38.992,63.778-27.809,46.853,0
		c-16.929,27.809-63.478,45.643-61.06,100.354H541.876z"/>
	
		<linearGradient id="SVGID_16_" gradientUnits="userSpaceOnUse" x1="873.9187" y1="219.478" x2="792.6093" y2="364.5654" gradientTransform="matrix(-1 0 0 -1 1409.0151 691.3018)">
		<stop  offset="0" style="stop-color:#4B59D8"/>
		<stop  offset="1" style="stop-color:#5ED895"/>
	</linearGradient>
	<path fill="url(#SVGID_16_)" d="M543.277,466.745c1.196-65.037,31.492-84.031,31.492-84.031
		c7.646-23.77,23.612-33.989,32.391-37.961c6.203,4.224,8.646,11.912,2.727,21.64c-16.927,27.81-63.478,45.642-61.06,100.353
		H543.277L543.277,466.745z"/>
</g>
<g>
	
		<linearGradient id="SVGID_17_" gradientUnits="userSpaceOnUse" x1="459.0203" y1="276.2876" x2="528.5551" y2="193.2875" gradientTransform="matrix(1 0 0 -1 -8.3599 691.3018)">
		<stop  offset="0.3641" style="stop-color:#5B4C7B"/>
		<stop  offset="0.5818" style="stop-color:#452748"/>
	</linearGradient>
	<polygon fill="url(#SVGID_17_)" points="526.068,466.745 428.786,466.745 428.786,423.5 522.984,423.5 	"/>
	
		<linearGradient id="SVGID_18_" gradientUnits="userSpaceOnUse" x1="442.5706" y1="218.2485" x2="488.4565" y2="271.6771" gradientTransform="matrix(1 0 0 -1 -8.3599 691.3018)">
		<stop  offset="0" style="stop-color:#38425A"/>
		<stop  offset="0.3864" style="stop-color:#1A1F2C"/>
	</linearGradient>
	<path fill="url(#SVGID_18_)" d="M500.255,447.698c-39.086,16.297-71.469-5.027-71.469-5.027v-13.938l1.814-3.02L500.255,447.698z"
		/>
	
		<linearGradient id="SVGID_19_" gradientUnits="userSpaceOnUse" x1="424.3875" y1="386.6265" x2="536.2328" y2="264.6823" gradientTransform="matrix(1 0 0 -1 -8.3599 691.3018)">
		<stop  offset="0" style="stop-color:#367BFD"/>
		<stop  offset="1" style="stop-color:#A635FE"/>
	</linearGradient>
	<path fill="url(#SVGID_19_)" d="M512.052,349.081l30.509-15.55l-13.009-26.148l-8.185-0.943l0.006,0.006
		c-4.732-0.274-32.349-2.604-32.349-2.604c-8.38-1.624-14.979,2.48-14.979,2.48l-19.647-1.485
		c-2.632-2.842-21.154,2.305-21.154,2.305c-5.709,1.466-14.711,1.518-14.711,1.518l0.053-0.065l-9.238,2.207l-3.823,27.891
		l21.121,11.528v0.072l3.149,1.677l-0.202,2.547l-6.771,78.636c0,0,2.213,2.018,8.853,6.168c0,0,46.327,35.064,88.293-5.492
		l7.844-10.326l-15.223-71.801L512.052,349.081z"/>
	
		<linearGradient id="SVGID_20_" gradientUnits="userSpaceOnUse" x1="449.9773" y1="393.8188" x2="508.5172" y2="373.676" gradientTransform="matrix(1 0 0 -1 -8.3599 691.3018)">
		<stop  offset="0.2626" style="stop-color:#F8E8D8"/>
		<stop  offset="0.779" style="stop-color:#E2BB93"/>
	</linearGradient>
	<path fill="url(#SVGID_20_)" d="M482.42,318.374v0.204c-0.195,1.275-0.465,1.879-0.465,1.879
		c-7.844,7.306-20.185,2.749-20.185,2.749c-1.742-0.472-3.084-1.479-4.086-2.887l-0.065-0.132c-2.553-3.417-3.221-9.25-3.221-14.481
		c0-3.418,0.334-6.566,0.603-8.648c0.137-1.677,0.334-2.678,0.334-2.678l23.936-2.75c0.537,1.741,1.008,3.353,1.407,4.891
		c0.937,3.823,1.546,7.11,1.813,9.991C483.159,312.279,482.825,316.168,482.42,318.374z"/>
	
		<linearGradient id="SVGID_21_" gradientUnits="userSpaceOnUse" x1="437.7771" y1="443.9702" x2="380.788" y2="326.0768" gradientTransform="matrix(1 0 0 -1 -8.3599 691.3018)">
		<stop  offset="0.3483" style="stop-color:#F8E8D8"/>
		<stop  offset="1" style="stop-color:#EFCAA6"/>
	</linearGradient>
	<path fill="url(#SVGID_21_)" d="M436.499,266.353c0,0-1.073,6.37-11.397,9.119c-3.687,1.002-7.306,8.38-9.382,11.261
		c-4.759,6.842-9.186,13.815-12.675,21.39c0,0,0.138,0,2.48,0.065c2.082,0.131,5.899,0.269,13.009,0.471
		c0,0,8.576,29.567-13.009,30.032c0,0-20.715-9.048-22.528-9.52c0,0-22.928-5.965-14.207-16.492c0,0,14.207-21.992,43.506-47.197
		c0,0,6.705-26.012,26.953-29.495C439.248,235.987,432.211,249.997,436.499,266.353z"/>
	
		<linearGradient id="SVGID_22_" gradientUnits="userSpaceOnUse" x1="524.1794" y1="435.6675" x2="573.3793" y2="309.3196" gradientTransform="matrix(1 0 0 -1 -8.3599 691.3018)">
		<stop  offset="0.3483" style="stop-color:#F8E8D8"/>
		<stop  offset="0.8062" style="stop-color:#EFCAA6"/>
	</linearGradient>
	<path fill="url(#SVGID_22_)" d="M558.784,327.698l-25.813,9.25c0,0-25.946-7.038-11.597-30.503l8.179-2.212l2.082-0.603
		c0,0-18.574-21.992-21.991-26.149l-4.761-4.425c0,0-7.24-1.205-11.731-5.094c0,0-0.064-19.576-5.23-30.641
		c0,0,12.806,1.748,21.39,21.324c19.038,13.14,38.143,27.622,52.088,46.392C567.093,312.744,569.843,323.672,558.784,327.698z"/>
	
		<linearGradient id="SVGID_23_" gradientUnits="userSpaceOnUse" x1="420.9138" y1="374.936" x2="397.3107" y2="380.1084" gradientTransform="matrix(1 0 0 -1 -8.3599 691.3018)">
		<stop  offset="0" style="stop-color:#F8E8D8"/>
		<stop  offset="0.3387" style="stop-color:#EFCAA6"/>
	</linearGradient>
	<path fill="url(#SVGID_23_)" d="M405.524,308.188c-5.296,12.203-14.678,10.057-14.678,10.057
		c9.048-0.131,12.197-10.122,12.197-10.122S403.181,308.122,405.524,308.188z"/>
	
		<linearGradient id="SVGID_24_" gradientUnits="userSpaceOnUse" x1="529.0671" y1="373.6138" x2="556.1949" y2="386.0779" gradientTransform="matrix(1 0 0 -1 -8.3599 691.3018)">
		<stop  offset="0.2193" style="stop-color:#F8E8D8"/>
		<stop  offset="0.6192" style="stop-color:#EFCAA6"/>
	</linearGradient>
	<path fill="url(#SVGID_24_)" d="M542.424,317.104c-1.14-0.74-10.26-6.842-12.871-12.871l2.082-0.603
		C531.635,303.631,536.053,313.085,542.424,317.104z"/>
	
		<linearGradient id="SVGID_25_" gradientUnits="userSpaceOnUse" x1="471.7244" y1="372.5044" x2="480.6944" y2="400.867" gradientTransform="matrix(1 0 0 -1 -8.3599 691.3018)">
		<stop  offset="0" style="stop-color:#F8E8D8"/>
		<stop  offset="0.536" style="stop-color:#E2BB93"/>
	</linearGradient>
	<path fill="url(#SVGID_25_)" d="M482.491,306.512c-3.889,2.684-16.158,9.389-28.093-0.806c0-3.418,0.334-6.566,0.603-8.648
		l25.677-0.537C481.614,300.344,482.224,303.631,482.491,306.512z"/>
	<path fill="#FFDE00" d="M439.183,359.209c-0.805-0.473-7.045-4.158-9.591-4.694l0.202-2.548
		C429.795,351.967,434.22,353.44,439.183,359.209z"/>
	<path fill="#FFDE00" d="M512.589,351.7c-4.76,1.406-11.326,4.426-12.334,4.891c5.296-4.491,11.798-7.51,11.798-7.51L512.589,351.7z
		"/>
	
		<linearGradient id="SVGID_26_" gradientUnits="userSpaceOnUse" x1="484.4636" y1="413.2622" x2="513.0969" y2="420.9427" gradientTransform="matrix(1 0 0 -1 -8.3599 691.3018)">
		<stop  offset="0.3408" style="stop-color:#F8E8D8"/>
		<stop  offset="0.8847" style="stop-color:#E2BB93"/>
	</linearGradient>
	<path fill="url(#SVGID_26_)" d="M491.933,266.915c0,0,8.21,2.396-1.436,14.92l-1.473-14.92H491.933z"/>
	
		<linearGradient id="SVGID_27_" gradientUnits="userSpaceOnUse" x1="452.1184" y1="417.02" x2="431.4362" y2="421.3504" gradientTransform="matrix(1 0 0 -1 -8.3599 691.3018)">
		<stop  offset="0.0444" style="stop-color:#F8E8D8"/>
		<stop  offset="0.5304" style="stop-color:#E2BB93"/>
	</linearGradient>
	<path fill="url(#SVGID_27_)" d="M440.191,280.899c0,0-10.338-7.149-3.692-14.547h4.552L440.191,280.899z"/>
	
		<linearGradient id="SVGID_28_" gradientUnits="userSpaceOnUse" x1="445.5676" y1="418.2485" x2="500.2917" y2="418.2485" gradientTransform="matrix(1 0 0 -1 -8.3599 691.3018)">
		<stop  offset="0.3483" style="stop-color:#F8E8D8"/>
		<stop  offset="1" style="stop-color:#EFCAA6"/>
	</linearGradient>
	<path fill="url(#SVGID_28_)" d="M437.501,250.371c0,0-5.5,54.059,31.144,55.892c0,0,29.77-1.833,21.991-55.892l-26.069-10.527
		L437.501,250.371z"/>
	
		<linearGradient id="SVGID_29_" gradientUnits="userSpaceOnUse" x1="472.0388" y1="400.5679" x2="475.4691" y2="458.4951" gradientTransform="matrix(1 0 0 -1 -8.3599 691.3018)">
		<stop  offset="0" style="stop-color:#F8E8D8"/>
		<stop  offset="0.2614" style="stop-color:#E2BB93"/>
	</linearGradient>
	<path fill="url(#SVGID_29_)" d="M437.939,269.612l9.749-10.167c0,0,18.299,10.004,23.465,10.167l4.746,1.84l-3.208-8.236
		c0,0,13.749,10.03,19.026,9.834l-13.305-20.551l-13.586-10.515c0,0-13.23,0.831-13.649,0.975
		c-0.419,0.145-10.346,6.593-10.128,6.79C441.265,249.945,437.939,269.612,437.939,269.612z"/>
	
		<linearGradient id="SVGID_30_" gradientUnits="userSpaceOnUse" x1="466.0486" y1="462.4185" x2="480.5693" y2="401.527" gradientTransform="matrix(1 0 0 -1 -8.3599 691.3018)">
		<stop  offset="0" style="stop-color:#38425A"/>
		<stop  offset="0.633" style="stop-color:#1A1F2C"/>
	</linearGradient>
	<path fill="url(#SVGID_30_)" d="M437.939,269.612l10.095-14.652c0,0,4.342,11.902,25.527,18.09l-4.917-18.09
		c0,0,2.167,8.236,23.072,18.09c0,0,5.637-14.424,0.209-28.63c0,0-11.038-32.067-50.366-10.534
		C441.56,233.885,425.565,244.877,437.939,269.612z"/>
</g>
<g>
	
		<linearGradient id="SVGID_31_" gradientUnits="userSpaceOnUse" x1="145.3909" y1="73.4878" x2="257.6904" y2="110.3622" gradientTransform="matrix(1 0 0 -1 -8.3599 691.3018)">
		<stop  offset="0.4084" style="stop-color:#0A374A"/>
		<stop  offset="0.6551" style="stop-color:#084E77"/>
	</linearGradient>
	<path fill="url(#SVGID_31_)" d="M207.178,576.047c0,0-20.708,0-20.722,0c-1.499,0-4.444,9.328-4.792,10.43
		c-0.97,3.109-1.827,6.422-1.853,9.695c-0.021,3.299,0.262,7.326,3.385,9.199c3.497,2.094,9.159,1.727,13.14,2.684
		c4.519,1.08,8.328,3.582,13.029,4.314c4.976,0.771,10.056,0.551,15.058,0.256c5.748-0.334,24.716-2.232,19.196-12.395
		c-2.775-5.105-7.34-9.035-13.199-9.957C230.42,590.274,211.683,585.102,207.178,576.047z"/>
	
		<linearGradient id="SVGID_32_" gradientUnits="userSpaceOnUse" x1="82.3953" y1="71.5918" x2="246.6524" y2="84.1625" gradientTransform="matrix(1 0 0 -1 -8.3599 691.3018)">
		<stop  offset="0.4678" style="stop-color:#0A374A"/>
		<stop  offset="0.7175" style="stop-color:#084E77"/>
	</linearGradient>
	<path fill="url(#SVGID_32_)" d="M166.076,584.459h-17.604c-3.738,10.6-6.082,22.627-5.539,33.861
		c0.164,3.346,0.02,7.307,1.368,10.43c1.428,3.313,6.94,3.045,9.821,4.098c2.337,0.857,4.707,1.887,6.73,3.359
		c1.813,1.33,3.267,3.287,5.493,3.975c4.733,1.467,10.455,1.439,15.319,0.746c5.8-0.826,13.375-3.588,15.961-9.361
		c2.233-4.982-1.354-13.16-3.725-17.586c-1.56-2.906-4.76-6.549-8.079-7.504C185.822,606.479,169.9,598.477,166.076,584.459z"/>
	
		<linearGradient id="SVGID_33_" gradientUnits="userSpaceOnUse" x1="190.8416" y1="113.1333" x2="137.2497" y2="120.879" gradientTransform="matrix(1 0 0 -1 -8.3599 691.3018)">
		<stop  offset="0.3483" style="stop-color:#F8E8D8"/>
		<stop  offset="0.7283" style="stop-color:#EFCAA6"/>
	</linearGradient>
	<path fill="url(#SVGID_33_)" d="M167.706,574.077c-0.137,2.879-0.137,5.76,0,8.646c0.132,2.012,0.27,3.955,0.53,5.965
		c0.269,2.279,0.073,4.359-2.075,5.703c-5.028,3.012-12.132,2.408-16.093-2.082c-0.871-0.938-2.476-3.084-2.476-4.354v-36.408
		l20.847,9.721c0.138,0.066,0.065,1.074-0.065,2.279c-0.138,1.676-0.398,3.758-0.398,3.955
		C167.838,569.715,167.772,571.928,167.706,574.077z"/>
	
		<linearGradient id="SVGID_34_" gradientUnits="userSpaceOnUse" x1="163.2107" y1="107.1831" x2="169.0585" y2="142.3743" gradientTransform="matrix(1 0 0 -1 -8.3599 691.3018)">
		<stop  offset="0" style="stop-color:#F8E8D8"/>
		<stop  offset="0.4393" style="stop-color:#EFCAA6"/>
	</linearGradient>
	<path fill="url(#SVGID_34_)" d="M168.374,563.547c-0.138,1.676-0.398,3.76-0.398,3.955c-0.138,2.213-0.203,4.426-0.27,6.574
		c-4.229,1.473-12.537,3.352-20.111-0.27v-13.344L168.374,563.547z"/>
	
		<linearGradient id="SVGID_35_" gradientUnits="userSpaceOnUse" x1="242.0413" y1="122.3506" x2="185.9269" y2="131.9821" gradientTransform="matrix(1 0 0 -1 -8.3599 691.3018)">
		<stop  offset="0.3563" style="stop-color:#F8E8D8"/>
		<stop  offset="0.8011" style="stop-color:#E2BB93"/>
	</linearGradient>
	<path fill="url(#SVGID_35_)" d="M207.251,576.571c0.269,2.277,0.065,4.359-2.083,5.631c-5.027,3.082-12.131,2.48-16.086-2.076
		c-0.805-0.871-2.48-3.018-2.48-4.287v-36.41l20.852,9.725c0.27,0.137-0.471,5.898-0.471,6.232
		c-0.065,1.139-0.137,2.283-0.203,3.424c-0.131,2.611-0.203,5.297-0.131,7.975c0,1.275,0,2.547,0.065,3.824
		C206.845,572.616,206.982,574.561,207.251,576.571z"/>
	
		<linearGradient id="SVGID_36_" gradientUnits="userSpaceOnUse" x1="203.2776" y1="113.3599" x2="206.2112" y2="141.7536" gradientTransform="matrix(1 0 0 -1 -8.3599 691.3018)">
		<stop  offset="0" style="stop-color:#F8E8D8"/>
		<stop  offset="0.2017" style="stop-color:#E2BB93"/>
	</linearGradient>
	<path fill="url(#SVGID_36_)" d="M206.779,558.809c-0.131,2.611-0.203,5.297-0.131,7.975c-3.687,0.871-12.741,2.48-20.047,0.537
		v-11.262L206.779,558.809z"/>
	
		<linearGradient id="SVGID_37_" gradientUnits="userSpaceOnUse" x1="88.6355" y1="202.1143" x2="369.5509" y2="299.3198" gradientTransform="matrix(1 0 0 -1 -8.3599 691.3018)">
		<stop  offset="0.2664" style="stop-color:#444778"/>
		<stop  offset="0.614" style="stop-color:#2E2245"/>
	</linearGradient>
	<path fill="url(#SVGID_37_)" d="M221.922,342.088h-8.688c-1.29-6.594-2.207-10.299-2.207-10.299l-30.286,4.865l2.37,27.06
		l-2.37,32.459l-12.243,76.83v48.154l5.408,33.547c7.582,11.359,36.356,7.273,36.356,7.273c0.642-13.959,9.094-82.48,9.094-82.48
		c0.759-6.625,1.315-13.178,1.722-19.646l0.013,0.033C223.251,436.784,221.922,342.088,221.922,342.088z"/>
	
		<linearGradient id="SVGID_38_" gradientUnits="userSpaceOnUse" x1="94.4919" y1="236.1025" x2="306.5178" y2="250.3493" gradientTransform="matrix(1 0 0 -1 -8.3599 691.3018)">
		<stop  offset="0.3573" style="stop-color:#444778"/>
		<stop  offset="0.6016" style="stop-color:#2E2245"/>
	</linearGradient>
	<path fill="url(#SVGID_38_)" d="M207.453,341.525c0,0-11.902,106.05-17.31,146.628c0,0-10.279,58.432-11.902,76.83
		c0,0-33.58,15.691-43.034-8.111c0,0,10.566-73.047,11.647-96.852l-4.871-128.231L207.453,341.525z"/>
	<linearGradient id="SVGID_39_" gradientUnits="userSpaceOnUse" x1="139.1941" y1="352.4351" x2="205.9021" y2="352.4351">
		<stop  offset="0.3573" style="stop-color:#444778"/>
		<stop  offset="0.6016" style="stop-color:#2E2245"/>
	</linearGradient>
	<path fill="url(#SVGID_39_)" d="M205.902,355.273c0,0-31.38,14.509-61.614,3.194l-5.094-10.684l14.457-5.697L205.902,355.273z"/>
	
		<linearGradient id="SVGID_40_" gradientUnits="userSpaceOnUse" x1="259.1775" y1="587.7974" x2="216.7129" y2="523.1772" gradientTransform="matrix(1 0 0 -1 -8.3599 691.3018)">
		<stop  offset="0.3483" style="stop-color:#F8E8D8"/>
		<stop  offset="0.7554" style="stop-color:#EFCAA6"/>
	</linearGradient>
	<path fill="url(#SVGID_40_)" d="M240.176,122.146c-1.439-4.432-3.692-8.577-6.029-12.589c-2.815-4.826-6.449-6.266-11.569-7.883
		c-5.284-1.676-10.03-3.418-14.973,0.235c-3.175,2.344-5.578,5.899-7.575,9.258c-0.458,0.779-0.864,1.564-1.231,2.39l-2.198,5.237
		c0,0,4.399-2.514,4.608-3.352c0.21-0.838,8.171-3.98,8.171-3.98s4.118-2.023,5.938-2.999c0,0-4.857,3.994-1.931,9.755
		c6.906,8.301,18.2,12.171,18.2,12.171c2.096,3.214,7.123,37.167,7.123,37.167l18.438-3.928l0.851-5.598L240.176,122.146z"/>
	
		<linearGradient id="SVGID_41_" gradientUnits="userSpaceOnUse" x1="82.3367" y1="263.8477" x2="273.2974" y2="509.2411" gradientTransform="matrix(1 0 0 -1 -8.3599 691.3018)">
		<stop  offset="0" style="stop-color:#4B59D8"/>
		<stop  offset="0.7795" style="stop-color:#2AF598"/>
	</linearGradient>
	<path fill="url(#SVGID_41_)" d="M264.053,169.501h0.006c-3.535-10.449-21.154-41.855-21.154-41.855
		c-3.561,0.609-10.213,6.01-10.213,6.01c-0.177,4.635,4.341,29.554,6.141,39.263c0.196,1.408,0.419,2.605,0.661,3.542
		c0.04,0.209,0.072,0.367,0.072,0.367l0.033-0.007c0.059,0.203,0.11,0.478,0.176,0.635l-0.942,0.602l-23.261,15.223l-5.028,0.805
		c0,0-0.138,0-0.405,0.065l-38.812,6.168l-18.103,13.879h-0.072l-6.298,4.825l-4.289,17.565l-1.479,43.577l-0.936,28.623
		l-1.408,41.365c0.805,0.334,1.676,0.602,2.481,0.805c11.058,3.891,21.113,6.037,30.03,6.908h0.072
		c37.81,3.889,56.717-13.611,56.717-13.611l-8.647-95.666c0-0.203,0-0.406-0.073-0.674c0-0.733,1.676-2.41,2.888-3.621
		c0.604-0.603,1.14-1.139,1.335-1.342c6.776-8.04,13.546-16.086,20.316-24.132c7.575-9.048,16.295-17.834,23.13-27.484
		C270.574,186.189,266.417,175.236,264.053,169.501z"/>
	
		<linearGradient id="SVGID_42_" gradientUnits="userSpaceOnUse" x1="156.4602" y1="280.0054" x2="125.2638" y2="367.9939" gradientTransform="matrix(1 0 0 -1 -8.3599 691.3018)">
		<stop  offset="0.2424" style="stop-color:#F8E8D8"/>
		<stop  offset="0.7764" style="stop-color:#EFCAA6"/>
	</linearGradient>
	<path fill="url(#SVGID_42_)" d="M127.351,351.372l13.813-1.82c2.534,5.775,5.297,11.406,7.837,17.174
		c1.926,4.373,3.766,9.027,5.304,13.585c2.323,6.894-8.668,0.433-9.016-4.146c0.635,9.565,2.352,18.563,1.781,28.277
		c-0.17,2.934-0.989,7.566-3.693,8.76c-2.723,1.199-6.927-1.197-9.218-2.775c-2.814-1.957-5.408-4.793-6.546-8.406
		c-1.186-3.771-0.492-9.251-0.321-13.186c0.178-3.908,0.053-7.791,0.021-11.699c-0.06-7.098,0.013-14.215,0.046-21.317
		C127.357,354.331,127.351,352.858,127.351,351.372z"/>
	
		<linearGradient id="SVGID_43_" gradientUnits="userSpaceOnUse" x1="126.1277" y1="503.2573" x2="187.6017" y2="506.1083" gradientTransform="matrix(1 0 0 -1 -8.3599 691.3018)">
		<stop  offset="0.4646" style="stop-color:#4B59D8"/>
		<stop  offset="0.7795" style="stop-color:#5ED895"/>
	</linearGradient>
	<path opacity="0.49" fill="url(#SVGID_43_)" enable-background="new    " d="M251.508,186.772c0,0-8.518-0.399-12.675-8.714
		l0.942-0.602C239.776,177.456,243.658,184.9,251.508,186.772z"/>
	
		<linearGradient id="SVGID_44_" gradientUnits="userSpaceOnUse" x1="211.6956" y1="451.0845" x2="247.539" y2="465.2273" gradientTransform="matrix(1 0 0 -1 -8.3599 691.3018)">
		<stop  offset="0.4646" style="stop-color:#4B59D8"/>
		<stop  offset="0.7795" style="stop-color:#5ED895"/>
	</linearGradient>
	<path opacity="0.24" fill="url(#SVGID_44_)" enable-background="new    " d="M222.21,244.295c-1.211,1.211-2.888,2.887-2.888,3.621
		c-1.27-7.51-3.548-26.614-3.548-26.614C217.647,230.349,220.934,240.478,222.21,244.295z"/>
	
		<linearGradient id="SVGID_45_" gradientUnits="userSpaceOnUse" x1="126.9875" y1="484.2036" x2="188.4731" y2="487.0551" gradientTransform="matrix(1 0 0 -1 -8.3599 691.3018)">
		<stop  offset="0.4646" style="stop-color:#4B59D8"/>
		<stop  offset="0.7795" style="stop-color:#5ED895"/>
	</linearGradient>
	<path opacity="0.49" fill="url(#SVGID_45_)" enable-background="new    " d="M210.138,194.151
		c-3.954,1.001-36.068,9.251-56.913,20.047l18.103-13.879L210.138,194.151z"/>
	
		<linearGradient id="SVGID_46_" gradientUnits="userSpaceOnUse" x1="178.8381" y1="498.1421" x2="213.9006" y2="498.1421" gradientTransform="matrix(1 0 0 -1 -8.3599 691.3018)">
		<stop  offset="0.0444" style="stop-color:#F8E8D8"/>
		<stop  offset="0.8413" style="stop-color:#E2BB93"/>
	</linearGradient>
	<path fill="url(#SVGID_46_)" d="M205.516,207.69c-0.871,9.925-10.193,13.009-18.574,9.991c-3.483-1.205-6.973-2.881-9.854-5.231
		c-2.678-2.141-5.761-4.956-6.435-8.511c-0.604-3.018,0.537-6.436,0.674-9.519c0.065-2.213,0.196-4.426,0.334-6.64
		c0.269-4.962,0.732-9.925,1.205-14.881v-0.341c0-0.261,0.268-5.028,0.334-5.028l27.418,2.213
		c-0.196,4.491-0.196,9.121,0.073,13.749c0.196,3.954,0.667,7.843,1.473,11.66c0,0.269,0.065,0.609,0.131,0.871
		c0.472,2.351,1.545,4.426,2.352,6.573C205.247,204.207,205.646,205.883,205.516,207.69z"/>
	
		<linearGradient id="SVGID_47_" gradientUnits="userSpaceOnUse" x1="185.741" y1="492.1196" x2="203.8233" y2="519.1617" gradientTransform="matrix(1 0 0 -1 -8.3599 691.3018)">
		<stop  offset="0" style="stop-color:#F8E8D8"/>
		<stop  offset="0.3715" style="stop-color:#E2BB93"/>
	</linearGradient>
	<path fill="url(#SVGID_47_)" d="M202.164,195.152c-4.825,0.203-20.715,0-30.502-7.372c0.269-4.962,0.732-9.925,1.205-14.881
		l27.825,10.593C200.887,187.447,201.358,191.336,202.164,195.152z"/>
	
		<linearGradient id="SVGID_48_" gradientUnits="userSpaceOnUse" x1="167.1506" y1="505.4243" x2="224.8388" y2="564.7374" gradientTransform="matrix(1 0 0 -1 -8.3599 691.3018)">
		<stop  offset="0.3367" style="stop-color:#F8E8D8"/>
		<stop  offset="1" style="stop-color:#EFCAA6"/>
	</linearGradient>
	<path fill="url(#SVGID_48_)" d="M211.813,142.128c-1.001-4.498-1.873-8.119-2.278-9.722c0-0.073-0.065-0.203-0.065-0.269
		c-0.065-0.406-0.132-0.674-0.132-0.674s-11.397-3.817-12.269-3.817s-26.751,3.817-26.751,3.817l-15.288,9.722l0.832,10.895
		c1.479,0.825,2.331,2.541,0.943,4.413c-0.047,0.458-0.185,0.937-0.498,1.454c-6.509,24.938,14.011,21.121,14.011,21.121
		c4.223,7.307,14.069,9.769,21.749,11.196c10.6,1.97,18.606-7.687,21.946-16.669c1.931-5.205,2.181-9.441,1.197-14.842
		C214.197,153.187,213.044,147.647,211.813,142.128z"/>
	
		<linearGradient id="SVGID_49_" gradientUnits="userSpaceOnUse" x1="203.946" y1="534.689" x2="201.6483" y2="562.6918" gradientTransform="matrix(1 0 0 -1 -8.3599 691.3018)">
		<stop  offset="0.0444" style="stop-color:#F8E8D8"/>
		<stop  offset="0.455" style="stop-color:#E2BB93"/>
	</linearGradient>
	<path fill="url(#SVGID_49_)" d="M211.813,142.128c-12.871,11.326-34.727,1.27-34.727,1.27l32.383-11.261
		c0,0.066,0.065,0.196,0.065,0.269C209.941,134.01,210.812,137.631,211.813,142.128z"/>
	
		<linearGradient id="SVGID_50_" gradientUnits="userSpaceOnUse" x1="209.2795" y1="584.2671" x2="173.2451" y2="526.4445" gradientTransform="matrix(1 0 0 -1 -8.3599 691.3018)">
		<stop  offset="0.1598" style="stop-color:#38425A"/>
		<stop  offset="0.6326" style="stop-color:#1A1F2C"/>
	</linearGradient>
	<path fill="url(#SVGID_50_)" d="M156.079,155.32l14.272,9.958c0,0-3.248-15.418,6.763-21.914c0,0,27.294,5.048,33.907-4.622
		c0,0,12.354-6.756,5.314-14.731c0,0-20.558-28.532-45.985-5.264C170.352,118.749,134.238,135.352,156.079,155.32z"/>
	
		<linearGradient id="SVGID_51_" gradientUnits="userSpaceOnUse" x1="195.1873" y1="491.7583" x2="208.966" y2="464.5337" gradientTransform="matrix(1 0 0 -1 -8.3599 691.3018)">
		<stop  offset="0" style="stop-color:#F8E8D8"/>
		<stop  offset="0.4838" style="stop-color:#BC957A"/>
	</linearGradient>
	<path fill="url(#SVGID_51_)" d="M205.516,207.69c-0.871,9.925-10.193,13.009-18.574,9.991c-3.483-1.205-6.973-2.881-9.854-5.231
		c23.871,10.927,27.558-9.853,27.558-9.853C205.247,204.207,205.646,205.883,205.516,207.69z"/>
	
		<linearGradient id="SVGID_52_" gradientUnits="userSpaceOnUse" x1="132.1814" y1="408.5171" x2="231.7922" y2="363.0742" gradientTransform="matrix(1 0 0 -1 -8.3599 691.3018)">
		<stop  offset="0.4646" style="stop-color:#4B59D8"/>
		<stop  offset="0.7795" style="stop-color:#5ED895"/>
	</linearGradient>
	<path opacity="0.22" fill="url(#SVGID_52_)" enable-background="new    " d="M141.224,350.959l0.937-9.854l-2.01-32.317
		l-1.408-22.122l2.344-6.501l7.981-21.926l16.695-16.558c0,0,4.149,22.928-11.131,57.254c0,0-0.942,5.028-2.146,12.001v0.065
		c-0.203,1.073-0.334,2.147-0.537,3.352c-1.27,9.12-2.409,33.854,19.308,43.514C162.337,356.997,152.281,354.849,141.224,350.959z"
		/>
	
		<linearGradient id="SVGID_53_" gradientUnits="userSpaceOnUse" x1="48.0774" y1="412.9204" x2="251.9854" y2="387.5484" gradientTransform="matrix(1 0 0 -1 -8.3599 691.3018)">
		<stop  offset="0" style="stop-color:#4B59D8"/>
		<stop  offset="0.7795" style="stop-color:#2AF598"/>
	</linearGradient>
	<path fill="url(#SVGID_53_)" d="M127.383,366.895c0,0,11.903-0.451,19.472-5.475c0,0-1.624-37.238,5.958-63.229
		c0,0,29.416-72.077-0.446-83.397c0,0-24.983,6.541-24.983,46.006C127.383,260.8,117.098,333.852,127.383,366.895z"/>
</g>
<g>
	
		<linearGradient id="SVGID_54_" gradientUnits="userSpaceOnUse" x1="831.1238" y1="49.1582" x2="939.7725" y2="40.1992" gradientTransform="matrix(0.9162 0.4007 0.4007 -0.9162 -99.3075 316.0103)">
		<stop  offset="0.335" style="stop-color:#444778"/>
		<stop  offset="0.5485" style="stop-color:#2E2245"/>
	</linearGradient>
	<path fill="url(#SVGID_54_)" d="M718.65,602.215c0,0,23.759-2.619,23.772-2.619c2.376-0.262,7.601,13.219,8.149,14.902
		c1.304,3.967,2.822,9.381,1.436,13.512c-1.611,4.793-6.089,5.055-10.3,6.213c-6.796,1.867-12.53,6.154-19.17,7.969
		c-7.045,1.926-14.601,2.803-21.898,2.711c-5.421-0.066-16.663,0.582-19.132-5.578c-3.097-7.719,7.55-16.859,13.906-18.588
		C695.415,620.737,714.768,612.809,718.65,602.215z"/>
	
		<linearGradient id="SVGID_55_" gradientUnits="userSpaceOnUse" x1="710.1423" y1="106.7397" x2="799.8333" y2="76.5634" gradientTransform="matrix(1 0 0 -1 -8.3599 691.3018)">
		<stop  offset="0.153" style="stop-color:#F8E8D8"/>
		<stop  offset="0.608" style="stop-color:#E2BB93"/>
	</linearGradient>
	<path fill="url(#SVGID_55_)" d="M716.109,585.356L719.697,607c0,0,13.703,9.383,22.358-3.6V581.03L716.109,585.356z"/>
	
		<linearGradient id="SVGID_56_" gradientUnits="userSpaceOnUse" x1="674.3777" y1="247.353" x2="807.6419" y2="180.0583" gradientTransform="matrix(1 0 0 -1 -8.3599 691.3018)">
		<stop  offset="0.3573" style="stop-color:#444778"/>
		<stop  offset="0.6016" style="stop-color:#2E2245"/>
	</linearGradient>
	<path fill="url(#SVGID_56_)" d="M765.867,368.04c2.16-0.543-52.546-5.597-52.546-5.597c-1.553,10.985-3.039,21.983-4.715,32.95
		c-2.763,18.104-5.336,36.283-7.883,54.42c-2.795,19.955-1.846,40.23-0.405,60.26c1.342,18.697,3.641,37.395,7.471,55.76
		c1.105,5.297,2.351,10.568,3.823,15.773c0.55,1.93,2.771,13.42,4.497,14.049c0,0,12.904,4.707,25.946-3.805
		c0,0,0.72-86.381,0-112.813C742.056,479.04,763.7,368.577,765.867,368.04z"/>
	
		<linearGradient id="SVGID_57_" gradientUnits="userSpaceOnUse" x1="780.2595" y1="274.5752" x2="733.7626" y2="243.7749" gradientTransform="matrix(1 0 0 -1 -8.3599 691.3018)">
		<stop  offset="0.3982" style="stop-color:#444778"/>
		<stop  offset="0.7742" style="stop-color:#2E2245"/>
	</linearGradient>
	<path fill="url(#SVGID_57_)" d="M742.548,414.446l8.02,25.939l-1.813,4.975l-1.944,9.711
		C746.809,455.071,740.681,427.264,742.548,414.446z"/>
	
		<linearGradient id="SVGID_58_" gradientUnits="userSpaceOnUse" x1="797.8455" y1="84.916" x2="906.4905" y2="75.9574" gradientTransform="matrix(1 0 0 -1 -8.3599 691.3018)">
		<stop  offset="0.335" style="stop-color:#444778"/>
		<stop  offset="0.5485" style="stop-color:#2E2245"/>
	</linearGradient>
	<path fill="url(#SVGID_58_)" d="M822.473,590.012c0,0,20.715-11.924,20.729-11.93c2.068-1.191,12.263,9.068,13.441,10.391
		c2.781,3.109,6.344,7.465,6.723,11.805c0.445,5.035-3.548,7.07-6.944,9.82c-5.48,4.434-9.017,10.658-14.371,14.979
		c-5.684,4.59-12.25,8.42-18.975,11.262c-4.995,2.107-15.038,7.209-19.766,2.553c-5.932-5.832,0.164-18.469,5.29-22.6
		C808.6,616.292,823.154,601.272,822.473,590.012z"/>
	
		<linearGradient id="SVGID_59_" gradientUnits="userSpaceOnUse" x1="810.8054" y1="110.7598" x2="887.4858" y2="110.7598" gradientTransform="matrix(1 0 0 -1 -8.3599 691.3018)">
		<stop  offset="0.153" style="stop-color:#F8E8D8"/>
		<stop  offset="0.6569" style="stop-color:#E2BB93"/>
	</linearGradient>
	<path fill="url(#SVGID_59_)" d="M814.591,580.387l13.899,16.971c0,0,16.563,1.297,17.585-14.271L834.931,563.7L814.591,580.387z"/>
	
		<linearGradient id="SVGID_60_" gradientUnits="userSpaceOnUse" x1="707.4207" y1="249.0313" x2="915.2203" y2="193.1668" gradientTransform="matrix(1 0 0 -1 -8.3599 691.3018)">
		<stop  offset="0.2664" style="stop-color:#444778"/>
		<stop  offset="0.614" style="stop-color:#2E2245"/>
	</linearGradient>
	<path fill="url(#SVGID_60_)" d="M840.025,572.532c-8.046,8.852-22.325,11.602-22.325,11.602
		c-6.796-8.295-12.341-17.725-18.271-26.621c-8.4-12.598-16.531-25.355-24.925-37.945c-17.232-25.867-22.347-57.02-28.401-87.004
		c-1.768-8.746-3.509-17.508-5.1-26.293c-0.74-4.094-1.475-7.977-2.148-11.799c-3.954-21.723-6.501-37.809-6.501-37.809h57.319
		l4.693,33.447l2.416,17.363l10.929,77.635L840.025,572.532z"/>
	
		<linearGradient id="SVGID_61_" gradientUnits="userSpaceOnUse" x1="756.2136" y1="325.0337" x2="778.8406" y2="251.4957" gradientTransform="matrix(1 0 0 -1 -8.3599 691.3018)">
		<stop  offset="0.2664" style="stop-color:#444778"/>
		<stop  offset="0.614" style="stop-color:#2E2245"/>
	</linearGradient>
	<path fill="url(#SVGID_61_)" d="M796.782,407.473c-23.732,4.629-42.504,2.416-55.779-1.205
		c-15.15-4.092-23.132-10.121-23.132-10.121l20.982-1.676l55.513-4.36L796.782,407.473z"/>
	
		<linearGradient id="SVGID_62_" gradientUnits="userSpaceOnUse" x1="664.1384" y1="420.2427" x2="696.406" y2="299.5541" gradientTransform="matrix(1 0 0 -1 -8.3599 691.3018)">
		<stop  offset="0.2314" style="stop-color:#F8E8D8"/>
		<stop  offset="0.6132" style="stop-color:#EFCAA6"/>
	</linearGradient>
	<path fill="url(#SVGID_62_)" d="M722.835,287.066c0,1.212-29.431,46.661-31.577,49.681c-8.178,11.535-19.575-2.41-26.751-8.847
		c-5.297-4.832-10.521-9.859-15.55-15.019c-1.276-1.343-14.481-15.15-13.88-16.027c-12.204-0.603-28.094,1.407-28.094,1.407
		c-10.861,0.537-7.843-10.056-7.843-10.056c4.563-18.364,30.574-14.613,30.574-14.613c-7.044-6.436-4.897-10.259-4.897-10.259
		c0.806-0.132,1.61-0.269,2.416-0.269c14.279,0,20.918,26.889,20.918,26.889l31.772,21.854l0.878-2.481h0.064l17.297-48.134
		L722.835,287.066z"/>
	
		<linearGradient id="SVGID_63_" gradientUnits="userSpaceOnUse" x1="866.5369" y1="435.9243" x2="810.8058" y2="325.7194" gradientTransform="matrix(1 0 0 -1 -8.3599 691.3018)">
		<stop  offset="0.2653" style="stop-color:#F8E8D8"/>
		<stop  offset="1" style="stop-color:#EFCAA6"/>
	</linearGradient>
	<path fill="url(#SVGID_63_)" d="M914.505,272.723c-1.677,4.759-11.862,2.546-15.62,2.814c-3.621,0.269-7.17,0.871-10.659,1.88
		c-3.215,0.87-6.102,3.417-9.119,4.222c0.739,0.871-12.8,15.891-14.143,17.363c-5.095,5.63-10.462,11.13-15.955,16.427
		c-7.443,7.038-18.975,22.122-28.833,10.861c-2.612-2.952-38.411-47.466-38.411-48.605l25.206-28.159l22.861,48.54l0.937,2.01
		l37.679-27.687c0,0-0.871-22.863,14.687-25.01c0,0,5.361,2.351-2.547,12.538c3.278-4.223,12.668-6.03,17.428-5.696
		C905.726,254.822,917.792,263.269,914.505,272.723z"/>
	
		<linearGradient id="SVGID_64_" gradientUnits="userSpaceOnUse" x1="773.0496" y1="417.022" x2="673.7493" y2="447.6081" gradientTransform="matrix(1 0 0 -1 -8.3599 691.3018)">
		<stop  offset="0" style="stop-color:#4B59D8"/>
		<stop  offset="0.7795" style="stop-color:#2AF598"/>
	</linearGradient>
	<path fill="url(#SVGID_64_)" d="M737.904,221.95c0,0-29.114,7.457-35.157,25.436c0,0-10.561,21.245-10.875,31.36l21.521,23.813
		l10.999-8.983L737.904,221.95z"/>
	
		<linearGradient id="SVGID_65_" gradientUnits="userSpaceOnUse" x1="829.2195" y1="330.7271" x2="693.4634" y2="428.3542" gradientTransform="matrix(1 0 0 -1 -8.3599 691.3018)">
		<stop  offset="0" style="stop-color:#4B59D8"/>
		<stop  offset="0.7795" style="stop-color:#2AF598"/>
	</linearGradient>
	<path fill="url(#SVGID_65_)" d="M821.189,279.682c0,0-1.944-22.921-14.534-37.154l-0.02,0.032
		c-5.532-7.182-12.957-12.819-21.252-16.898c-7.176-3.62-15.084-6.036-22.862-7.378c-12.131-2.075-24.133,1.14-35.06,6.502
		c-1.479,0.739-14.215,6.435-14.018,8.851c1.342,13.677-4.15,157.279-4.15,157.279c44.041,30.371,92.109,4.693,92.109,4.693
		l-7.038-83.939l-1.073-12.733l7.714,3.621C801.007,302.558,807.532,281.901,821.189,279.682z"/>
	
		<linearGradient id="SVGID_66_" gradientUnits="userSpaceOnUse" x1="798.4773" y1="465.2202" x2="725.8703" y2="477.9366" gradientTransform="matrix(1 0 0 -1 -8.3599 691.3018)">
		<stop  offset="0.3543" style="stop-color:#F8E8D8"/>
		<stop  offset="0.7257" style="stop-color:#E2BB93"/>
	</linearGradient>
	<path fill="url(#SVGID_66_)" d="M768.957,225.662c-0.13,2.475-0.739,4.957-2.074,7.438c-0.871,1.676-1.88,3.286-2.952,4.825
		c-2.344,3.352-5.297,6.174-9.382,7.379c-4.428,1.27-9.927-0.805-13.679-3.222c-4.091-2.612-4.896-7.168-4.896-11.797
		c0-2.881,0.269-5.768,0.269-8.315c0-7.306-0.203-14.076-0.203-14.076l27.558-13.009l1.473,7.11
		c0.74,3.686,1.474,7.372,2.213,11.058C768.152,217.413,769.16,221.57,768.957,225.662z"/>
	
		<linearGradient id="SVGID_67_" gradientUnits="userSpaceOnUse" x1="773.5798" y1="470.5972" x2="743.6395" y2="494.6218" gradientTransform="matrix(1 0 0 -1 -8.3599 691.3018)">
		<stop  offset="0" style="stop-color:#F8E8D8"/>
		<stop  offset="0.4949" style="stop-color:#E2BB93"/>
	</linearGradient>
	<path fill="url(#SVGID_67_)" d="M765.068,201.995l-0.064,0.065c-6.64,19.845-28.493,19.91-28.762,19.91
		c0-7.306-0.203-14.076-0.203-14.076l27.558-13.009L765.068,201.995z"/>
	<path opacity="0.5" fill="#4B59D8" d="M794.366,311.67c-18.167-22.456-11.797-40.152-10.992-42.098
		c-2.547,14.482,9.92,29.364,9.92,29.364L794.366,311.67z"/>
	
		<linearGradient id="SVGID_68_" gradientUnits="userSpaceOnUse" x1="805.1355" y1="504.8794" x2="633.3243" y2="518.289" gradientTransform="matrix(1 0 0 -1 -8.3599 691.3018)">
		<stop  offset="0.2192" style="stop-color:#F8E8D8"/>
		<stop  offset="0.688" style="stop-color:#EFCAA6"/>
	</linearGradient>
	<path fill="url(#SVGID_68_)" d="M715.894,167.95c0.674,6.03,1.14,12.105,1.388,18.168c0.406,9.794-0.529,17.435,6.896,24.859
		c5.794,5.807,12.8,6.946,20.034,2.946c7.353-4.053,19.109-12.714,20.427-21.71c0.052-0.36,1.026-1.179,1.243-1.454
		c4.569-5.814,5.166-13.474,6.814-20.42c0.19-0.799,0.38-1.598,0.57-2.39l-8.629-10.815l-16.8-9.199h-23.982l-7.961,6.763V167.95z"
		/>
	
		<linearGradient id="SVGID_69_" gradientUnits="userSpaceOnUse" x1="749.4626" y1="500.1782" x2="750.3412" y2="550.7215" gradientTransform="matrix(1 0 0 -1 -8.3599 691.3018)">
		<stop  offset="0.3023" style="stop-color:#F8E8D8"/>
		<stop  offset="0.4949" style="stop-color:#E2BB93"/>
	</linearGradient>
	<path fill="url(#SVGID_69_)" d="M716.635,175.61l7.667-9.257c0,0,10.422,6.023,26.266-1.388c0,0,11.025-1.532,16.054,4.223
		l-8.171-18.967l-30.169-4.399l-11.646,6.913L716.635,175.61L716.635,175.61z"/>
	
		<linearGradient id="SVGID_70_" gradientUnits="userSpaceOnUse" x1="755.7419" y1="467.2046" x2="748.4814" y2="588.4403" gradientTransform="matrix(1 0 0 -1 -8.3599 691.3018)">
		<stop  offset="0.1598" style="stop-color:#38425A"/>
		<stop  offset="0.6326" style="stop-color:#1A1F2C"/>
	</linearGradient>
	<path fill="url(#SVGID_70_)" d="M770.385,178.15c-0.157-1.879-0.956-3.751-2.704-4.458c-2.736-1.113-4.146,2.416-4.963,4.425
		v-10.436c0,0-4.334-5.408-12.445-4.597c0,0-21.376,5.14-25.161-1.623c0,0-7.018,9.159-8.104,19.458c0,0-13.809-18.109-4.878-45.161
		c0,0,19.727,3.791,32.452,0c0,0,24.586-7.575,33.012,25.428c0,0,3.353,18.351-8.473,24.054c0.484-0.229,0.896-3.687,1.074-4.438
		C770.392,180.01,770.464,179.08,770.385,178.15z"/>
	<linearGradient id="SVGID_71_" gradientUnits="userSpaceOnUse" x1="699.3289" y1="276.8345" x2="713.5691" y2="276.8345">
		<stop  offset="0" style="stop-color:#4B59D8"/>
		<stop  offset="0.7795" style="stop-color:#5ED895"/>
	</linearGradient>
	<path fill="url(#SVGID_71_)" d="M713.569,252.479l-1.19,48.711l-13.05-14.194c0,0,6.883,4.15,9.396,1.218
		C708.725,288.213,712.549,259.484,713.569,252.479z"/>
	
		<linearGradient id="SVGID_72_" gradientUnits="userSpaceOnUse" x1="850.7703" y1="376.7456" x2="821.8534" y2="394.1376" gradientTransform="matrix(1 0 0 -1 -8.3599 691.3018)">
		<stop  offset="0" style="stop-color:#F8E8D8"/>
		<stop  offset="0.7369" style="stop-color:#EFCAA6"/>
	</linearGradient>
	<path fill="url(#SVGID_72_)" d="M830.768,300.075c0,0-6.298,6.437-6.095,12.741c0,0-2.213-9.389,5.159-14.751L830.768,300.075z"/>
	
		<linearGradient id="SVGID_73_" gradientUnits="userSpaceOnUse" x1="733.8933" y1="350.2183" x2="656.0205" y2="397.0548" gradientTransform="matrix(1 0 0 -1 -8.3599 691.3018)">
		<stop  offset="0" style="stop-color:#F8E8D8"/>
		<stop  offset="0.7369" style="stop-color:#EFCAA6"/>
	</linearGradient>
	<path fill="url(#SVGID_73_)" d="M686.229,322.336c-0.739-6.103-6.305-10.528-6.305-10.528l0.878-2.481h0.064
		C686.092,312.548,686.229,321.53,686.229,322.336z"/>
	
		<linearGradient id="SVGID_74_" gradientUnits="userSpaceOnUse" x1="770.8337" y1="473.9907" x2="738.9954" y2="431.2603" gradientTransform="matrix(1 0 0 -1 -8.3599 691.3018)">
		<stop  offset="0" style="stop-color:#F8E8D8"/>
		<stop  offset="0.6711" style="stop-color:#BC957A"/>
	</linearGradient>
	<path fill="url(#SVGID_74_)" d="M763.93,237.924c-2.344,3.352-5.297,6.174-9.382,7.379c-4.428,1.271-9.927-0.805-13.679-3.222
		c-4.091-2.612-4.896-7.168-4.896-11.797h0.064C736.039,230.284,746.429,249.997,763.93,237.924z"/>
</g>
<g>
	<path fill="#232323" d="M319.161,178.223c-3.664,0-6.987-0.716-9.971-2.149c-2.984-1.433-5.544-3.335-7.682-5.708
		c-2.138-2.372-3.794-5.084-4.968-8.139c-1.175-3.053-1.762-6.177-1.762-9.372c0-3.335,0.622-6.529,1.867-9.583
		c1.244-3.053,2.959-5.754,5.144-8.104c2.185-2.349,4.779-4.216,7.786-5.602c3.007-1.385,6.271-2.079,9.795-2.079
		c3.617,0,6.917,0.74,9.9,2.22c2.982,1.48,5.531,3.418,7.646,5.813c2.113,2.396,3.758,5.121,4.932,8.174
		c1.174,3.054,1.762,6.155,1.762,9.302c0,3.336-0.61,6.518-1.832,9.548c-1.222,3.03-2.913,5.708-5.073,8.033
		c-2.161,2.325-4.745,4.182-7.751,5.566C325.949,177.53,322.684,178.223,319.161,178.223z M304.645,152.855
		c0,2.161,0.328,4.252,0.986,6.271c0.657,2.021,1.608,3.805,2.854,5.355c1.245,1.55,2.771,2.795,4.581,3.734
		c1.809,0.94,3.863,1.409,6.166,1.409c2.349,0,4.427-0.481,6.236-1.444c1.808-0.962,3.335-2.243,4.58-3.84
		c1.243-1.597,2.185-3.394,2.818-5.391c0.635-1.996,0.951-4.027,0.951-6.095c0-2.16-0.341-4.251-1.021-6.271
		c-0.682-2.019-1.646-3.805-2.89-5.355c-1.246-1.55-2.771-2.783-4.581-3.699c-1.809-0.916-3.84-1.374-6.095-1.374
		c-2.35,0-4.439,0.482-6.271,1.444c-1.832,0.963-3.359,2.232-4.58,3.805c-1.223,1.575-2.149,3.359-2.783,5.355
		C304.962,148.757,304.645,150.789,304.645,152.855z"/>
	<path fill="#232323" d="M367.219,178.575c-3.007,0-5.708-0.518-8.104-1.55c-2.396-1.033-4.428-2.431-6.095-4.192
		c-1.668-1.762-2.949-3.793-3.84-6.095c-0.894-2.301-1.339-4.721-1.339-7.258c0-2.583,0.445-5.026,1.339-7.328
		c0.892-2.301,2.172-4.333,3.84-6.095c1.667-1.762,3.699-3.159,6.095-4.193c2.396-1.033,5.098-1.55,8.104-1.55
		c3.006,0,5.694,0.518,8.067,1.55c2.372,1.034,4.393,2.431,6.061,4.193c1.667,1.762,2.948,3.794,3.84,6.095
		c0.892,2.302,1.339,4.745,1.339,7.328c0,2.537-0.447,4.957-1.339,7.258c-0.893,2.302-2.161,4.333-3.805,6.095
		c-1.646,1.761-3.665,3.16-6.061,4.192C372.927,178.057,370.224,178.575,367.219,178.575z M357.564,159.479
		c0,1.645,0.247,3.136,0.74,4.475s1.174,2.501,2.043,3.488c0.869,0.986,1.891,1.75,3.064,2.29c1.175,0.541,2.442,0.81,3.806,0.81
		c1.361,0,2.63-0.27,3.805-0.81c1.173-0.54,2.195-1.304,3.065-2.29c0.868-0.987,1.55-2.16,2.043-3.523
		c0.492-1.362,0.739-2.865,0.739-4.51c0-1.596-0.247-3.076-0.739-4.439c-0.493-1.362-1.176-2.537-2.043-3.523
		c-0.87-0.987-1.893-1.75-3.065-2.29c-1.175-0.54-2.443-0.811-3.805-0.811c-1.363,0-2.631,0.282-3.806,0.846
		c-1.175,0.563-2.196,1.339-3.064,2.325c-0.87,0.986-1.55,2.161-2.043,3.523S357.564,157.882,357.564,159.479z"/>
	<path fill="#232323" d="M427.183,177.87h-9.442v-20.717c0-2.912-0.541-5.062-1.621-6.448c-1.081-1.385-2.606-2.079-4.58-2.079
		c-0.846,0-1.738,0.188-2.678,0.564s-1.832,0.905-2.678,1.585c-0.846,0.682-1.621,1.492-2.325,2.431
		c-0.705,0.94-1.222,1.973-1.55,3.1v21.563h-9.442V126.43h9.442v21.351c1.362-2.396,3.206-4.239,5.531-5.532
		c2.326-1.292,4.896-1.938,7.716-1.938c2.396,0,4.344,0.412,5.849,1.233c1.503,0.822,2.679,1.915,3.523,3.276
		c0.846,1.363,1.433,2.914,1.762,4.651c0.328,1.738,0.493,3.523,0.493,5.355V177.87L427.183,177.87z"/>
	<path fill="#232323" d="M462.978,145.809v32.062h-9.724v-50.03h7.54l26.071,32.837V127.91h9.726v49.96h-7.894L462.978,145.809z"/>
	<path fill="#232323" d="M522.661,178.575c-3.007,0-5.707-0.518-8.104-1.55c-2.396-1.033-4.428-2.431-6.095-4.192
		c-1.668-1.762-2.948-3.793-3.842-6.095c-0.893-2.301-1.339-4.721-1.339-7.258c0-2.583,0.446-5.026,1.339-7.328
		c0.894-2.301,2.174-4.333,3.842-6.095c1.667-1.762,3.698-3.159,6.095-4.193c2.396-1.033,5.097-1.55,8.104-1.55
		c3.006,0,5.696,0.518,8.068,1.55c2.372,1.034,4.393,2.431,6.061,4.193c1.667,1.762,2.947,3.794,3.841,6.095
		c0.892,2.302,1.339,4.745,1.339,7.328c0,2.537-0.447,4.957-1.339,7.258c-0.894,2.302-2.161,4.333-3.806,6.095
		c-1.646,1.761-3.664,3.16-6.061,4.192C528.369,178.057,525.667,178.575,522.661,178.575z M513.009,159.479
		c0,1.645,0.246,3.136,0.739,4.475s1.174,2.501,2.044,3.488c0.868,0.986,1.891,1.75,3.064,2.29c1.174,0.541,2.442,0.81,3.805,0.81
		c1.363,0,2.631-0.27,3.807-0.81c1.174-0.54,2.194-1.304,3.064-2.29c0.868-0.987,1.551-2.16,2.043-3.523
		c0.493-1.362,0.74-2.865,0.74-4.51c0-1.596-0.247-3.076-0.74-4.439c-0.492-1.362-1.175-2.537-2.043-3.523
		c-0.87-0.987-1.892-1.75-3.064-2.29c-1.175-0.54-2.443-0.811-3.807-0.811c-1.362,0-2.631,0.282-3.805,0.846
		c-1.175,0.563-2.196,1.339-3.064,2.325c-0.87,0.986-1.551,2.161-2.044,3.523S513.009,157.882,513.009,159.479z"/>
	<path fill="#232323" d="M565.362,178.575c-3.007,0-5.707-0.518-8.104-1.55c-2.396-1.033-4.429-2.431-6.096-4.192
		c-1.668-1.762-2.947-3.793-3.841-6.095c-0.893-2.301-1.339-4.721-1.339-7.258c0-2.583,0.446-5.026,1.339-7.328
		c0.894-2.301,2.173-4.333,3.841-6.095c1.667-1.762,3.699-3.159,6.096-4.193c2.396-1.033,5.097-1.55,8.104-1.55
		c3.006,0,5.696,0.518,8.068,1.55c2.372,1.034,4.393,2.431,6.061,4.193c1.667,1.762,2.947,3.794,3.84,6.095
		c0.893,2.302,1.34,4.745,1.34,7.328c0,2.537-0.447,4.957-1.34,7.258c-0.893,2.302-2.16,4.333-3.805,6.095
		c-1.646,1.761-3.664,3.16-6.061,4.192C571.07,178.057,568.368,178.575,565.362,178.575z M555.71,159.479
		c0,1.645,0.245,3.136,0.739,4.475c0.493,1.339,1.173,2.501,2.043,3.488c0.869,0.986,1.892,1.75,3.065,2.29
		c1.174,0.541,2.441,0.81,3.805,0.81s2.631-0.27,3.807-0.81c1.174-0.54,2.194-1.304,3.064-2.29c0.868-0.987,1.55-2.16,2.043-3.523
		c0.493-1.362,0.74-2.865,0.74-4.51c0-1.596-0.247-3.076-0.74-4.439c-0.493-1.362-1.175-2.537-2.043-3.523
		c-0.87-0.987-1.892-1.75-3.064-2.29c-1.176-0.54-2.443-0.811-3.807-0.811s-2.631,0.282-3.805,0.846
		c-1.175,0.563-2.196,1.339-3.065,2.325c-0.87,0.986-1.55,2.161-2.043,3.523C555.955,156.402,555.71,157.882,555.71,159.479z"/>
	<path fill="#232323" d="M608.063,178.575c-3.007,0-5.707-0.518-8.104-1.55c-2.396-1.033-4.429-2.431-6.096-4.192
		c-1.668-1.762-2.947-3.793-3.841-6.095c-0.893-2.301-1.339-4.721-1.339-7.258c0-2.583,0.446-5.026,1.339-7.328
		c0.894-2.301,2.173-4.333,3.841-6.095c1.667-1.762,3.699-3.159,6.096-4.193c2.396-1.033,5.097-1.55,8.104-1.55
		c3.006,0,5.696,0.518,8.068,1.55c2.372,1.034,4.393,2.431,6.061,4.193c1.667,1.762,2.947,3.794,3.84,6.095
		c0.893,2.302,1.339,4.745,1.339,7.328c0,2.537-0.446,4.957-1.339,7.258c-0.893,2.302-2.161,4.333-3.805,6.095
		c-1.646,1.761-3.664,3.16-6.061,4.192C613.771,178.057,611.069,178.575,608.063,178.575z M598.41,159.479
		c0,1.645,0.246,3.136,0.74,4.475c0.493,1.339,1.173,2.501,2.043,3.488c0.869,0.986,1.892,1.75,3.065,2.29
		c1.174,0.541,2.441,0.81,3.805,0.81s2.631-0.27,3.806-0.81s2.195-1.304,3.065-2.29c0.868-0.987,1.55-2.16,2.043-3.523
		c0.493-1.362,0.74-2.865,0.74-4.51c0-1.596-0.247-3.076-0.74-4.439c-0.493-1.362-1.175-2.537-2.043-3.523
		c-0.87-0.987-1.893-1.75-3.065-2.29c-1.175-0.54-2.442-0.811-3.806-0.811s-2.631,0.282-3.805,0.846
		c-1.176,0.563-2.196,1.339-3.065,2.325c-0.87,0.986-1.55,2.161-2.043,3.523C598.656,156.402,598.41,157.882,598.41,159.479z"/>
	<path fill="#232323" d="M633.501,177.87v-10.147h7.752v10.147H633.501z"/>
	<path fill="#232323" d="M649.354,177.87v-10.147h7.751v10.147H649.354z"/>
</g>
<g>
	<path fill="#2AF598" d="M117.002,191.946h-76.96c-7.998,0-14.48-6.483-14.48-14.481v-49.456c0-7.998,6.482-14.481,14.48-14.481
		h76.96c7.998,0,14.481,6.483,14.481,14.481v49.456C131.483,185.462,125,191.946,117.002,191.946z"/>
	<polygon fill="#5ED895" points="112.518,188.843 112.518,204.64 96.428,188.55 	"/>
</g>
<g>
	<path fill="#C421FD" d="M816.464,185.368h76.96c7.998,0,14.48-6.484,14.48-14.481v-49.456c0-7.998-6.482-14.481-14.48-14.481
		h-76.96c-7.998,0-14.481,6.483-14.481,14.481v49.456C801.981,178.884,808.466,185.368,816.464,185.368z"/>
	<polygon fill="#C421FD" points="826.556,182.265 826.556,198.062 842.646,181.972 	"/>
</g>
<circle fill="#808080" cx="110.394" cy="252.479" r="10.131"/>
<circle fill="#B3E0FF" cx="364.1" cy="215.791" r="1.871"/>
<circle fill="#B3E0FF" cx="513.98" cy="109.216" r="2.852"/>
<circle fill="#B3E0FF" cx="525.091" cy="208.424" r="2.057"/>
<circle fill="#B3E0FF" cx="668.406" cy="259.97" r="2.452"/>
<circle fill="#B3E0FF" cx="575.314" cy="269.572" r="3.537"/>
<circle fill="#B3E0FF" cx="286.515" cy="261.192" r="4.569"/>
<circle fill="#B3E0FF" cx="281.05" cy="122.167" r="2.139"/>
<circle fill="#B3E0FF" cx="347.822" cy="76.068" r="2.852"/>
<circle fill="#B3E0FF" cx="668.852" cy="99.949" r="1.782"/>
<circle fill="#B3E0FF" cx="736.039" cy="84.622" r="4.545"/>
<circle fill="#FFD300" cx="374.615" cy="122.167" r="3.089"/>
<circle fill="#FFD300" cx="329.703" cy="197.078" r="1.337"/>
<circle fill="#FFD300" cx="384.416" cy="198.414" r="2.45"/>
<circle fill="#FFD300" cx="544.813" cy="191.196" r="1.426"/>
<circle fill="#FFD300" cx="476.992" cy="119.078" r="1.712"/>
<circle fill="#FFD300" cx="637.486" cy="142.365" r="2.733"/>
<circle fill="#FFD300" cx="634.754" cy="213.919" r="2.075"/>
<circle fill="#5ED895" cx="328.367" cy="257.519" r="1.663"/>
<circle fill="#5ED895" cx="714.889" cy="112.068" r="2.229"/>
<circle fill="#FF5956" cx="289.842" cy="219.592" r="3.327"/>
<circle fill="#FF5956" cx="398.185" cy="231.474" r="2.502"/>
<circle fill="#5ED895" cx="444.773" cy="199.632" r="2.965"/>
<circle fill="#FF5956" cx="431.109" cy="123.295" r="1.96"/>
<circle fill="#FF5956" cx="317.941" cy="106.365" r="1.515"/>
<circle fill="#5ED895" cx="543.387" cy="124.306" r="1.96"/>
<circle fill="#FF5956" cx="600.892" cy="124.306" r="1.96"/>
<circle fill="#FF5956" cx="574.04" cy="86.761" r="1.307"/>
<circle fill="#FF5956" cx="673.604" cy="151.157" r="1.426"/>
<circle fill="#5ED895" cx="596.139" cy="206.368" r="4.113"/>
<circle fill="#FF5956" cx="494.285" cy="198.414" r="1.218"/>
<circle fill="#FF5956" cx="683.076" cy="186.8" r="2.036"/>
<g>
	<path fill="#FF5956" d="M480.348,84.26l-6.179-6.178c-0.489-0.49-1.344-0.491-1.834,0l-4.556,4.554
		c-1.285,1.284-3.375,1.285-4.662,0l-4.555-4.555c-0.49-0.49-1.343-0.492-1.833,0l-4.555,4.555c-1.285,1.285-3.376,1.285-4.662,0
		l-4.555-4.555c-0.49-0.49-1.344-0.489-1.833,0l-4.556,4.555c-1.285,1.285-3.377,1.285-4.662,0l-4.555-4.555
		c-0.49-0.49-1.343-0.489-1.833,0l-4.555,4.555c-1.285,1.285-3.377,1.285-4.662,0l-4.555-4.555c-0.49-0.489-1.345-0.49-1.833,0
		l-6.18,6.178l-1.414-1.414l6.18-6.178c1.243-1.245,3.417-1.245,4.661,0l4.556,4.555c0.506,0.505,1.328,0.505,1.834,0l4.555-4.554
		c1.245-1.245,3.417-1.245,4.662,0l4.554,4.555c0.506,0.505,1.328,0.505,1.834,0l4.556-4.554c1.245-1.245,3.417-1.245,4.661,0
		l4.556,4.555c0.505,0.505,1.328,0.505,1.833,0l4.555-4.554c1.244-1.246,3.417-1.245,4.661,0l4.555,4.555
		c0.506,0.505,1.328,0.505,1.834,0l4.556-4.555c1.246-1.247,3.418-1.245,4.662,0l6.179,6.178L480.348,84.26z"/>
</g>
<g>
	<path fill="#C421FD" d="M610.654,247.249c-0.256,0-0.512-0.098-0.707-0.293l-6.179-6.179c-0.49-0.49-1.343-0.492-1.833,0
		l-4.555,4.555c-1.248,1.246-3.42,1.244-4.662,0l-4.556-4.555c-0.49-0.491-1.345-0.49-1.834,0l-4.555,4.555
		c-1.244,1.244-3.416,1.246-4.662,0l-4.555-4.555c-0.49-0.49-1.344-0.491-1.834,0l-6.178,6.178c-0.392,0.391-1.023,0.391-1.414,0
		c-0.392-0.39-0.392-1.023,0-1.414l6.178-6.179c1.246-1.247,3.418-1.245,4.662,0l4.555,4.555c0.49,0.489,1.344,0.489,1.834,0
		l4.555-4.555c1.243-1.245,3.415-1.247,4.662,0l4.556,4.555c0.488,0.489,1.343,0.49,1.834,0l4.555-4.554
		c1.245-1.246,3.418-1.245,4.661,0l6.179,6.179c0.392,0.391,0.392,1.023,0,1.414C611.167,247.151,610.91,247.249,610.654,247.249z"
		/>
</g>
<g>
	<path fill="#C421FD" d="M328.855,310.342c-0.256,0-0.512-0.098-0.707-0.293l-6.179-6.179c-0.506-0.506-1.328-0.506-1.834,0
		l-4.556,4.555c-1.243,1.246-3.416,1.246-4.661,0l-4.555-4.555c-0.506-0.506-1.328-0.506-1.834,0l-4.555,4.555
		c-1.245,1.246-3.417,1.246-4.662,0l-4.554-4.555c-0.507-0.506-1.328-0.506-1.834,0l-4.556,4.555c-1.245,1.246-3.417,1.246-4.663,0
		l-6.178-6.179c-0.391-0.391-0.391-1.023,0-1.414s1.023-0.391,1.414,0l6.178,6.179c0.49,0.49,1.344,0.49,1.833,0l4.556-4.555
		c1.284-1.285,3.377-1.285,4.661,0l4.556,4.555c0.489,0.49,1.344,0.49,1.833,0l4.555-4.555c1.285-1.285,3.377-1.285,4.662,0
		l4.555,4.555c0.49,0.49,1.345,0.49,1.833,0l4.556-4.555c1.285-1.285,3.377-1.285,4.662,0l6.179,6.179
		c0.391,0.391,0.391,1.023,0,1.414C329.367,310.244,329.111,310.342,328.855,310.342z"/>
</g>
<g>
	<path fill="#C421FD" d="M700.548,126.236c-0.256,0-0.513-0.098-0.707-0.293l-6.18-6.179c-0.506-0.505-1.328-0.505-1.834,0
		l-4.555,4.555c-1.248,1.247-3.419,1.244-4.662,0l-4.555-4.555c-0.506-0.505-1.328-0.505-1.834,0l-4.555,4.554
		c-1.244,1.244-3.417,1.246-4.661,0l-6.18-6.178c-0.391-0.391-0.391-1.023,0-1.414c0.392-0.391,1.023-0.391,1.414,0l6.18,6.178
		c0.489,0.491,1.343,0.489,1.833,0l4.555-4.555c1.283-1.285,3.375-1.287,4.662,0l4.555,4.555c0.489,0.489,1.343,0.49,1.834,0
		l4.555-4.554c1.284-1.285,3.374-1.286,4.662,0l6.18,6.179c0.391,0.391,0.391,1.023,0,1.414
		C701.059,126.139,700.803,126.236,700.548,126.236z"/>
</g>
<g>
	<path fill="#C421FD" d="M217.94,88.454c-0.256,0-0.512-0.098-0.707-0.293l-6.178-6.179c-0.507-0.505-1.328-0.505-1.834,0
		l-4.556,4.555c-1.285,1.285-3.377,1.285-4.662,0l-4.555-4.556c-0.506-0.505-1.328-0.505-1.833,0l-4.555,4.555
		c-1.285,1.285-3.377,1.285-4.662,0l-4.555-4.556c-0.507-0.505-1.328-0.505-1.833,0l-6.18,6.179c-0.391,0.391-1.022,0.391-1.414,0
		c-0.391-0.391-0.391-1.023,0-1.414l6.18-6.179c1.284-1.285,3.375-1.285,4.662,0l4.555,4.556c0.506,0.505,1.328,0.505,1.834,0
		l4.555-4.555c1.285-1.286,3.376-1.285,4.662,0l4.555,4.555c0.507,0.505,1.328,0.505,1.834,0l4.556-4.555
		c1.285-1.285,3.377-1.285,4.662,0l6.178,6.179c0.391,0.391,0.391,1.023,0,1.414C218.452,88.356,218.196,88.454,217.94,88.454z"/>
</g>
</svg>
