<?xml version="1.0" encoding="iso-8859-1"?>
<!-- Generator: Adobe Illustrator 16.0.0, SVG Export Plug-In . SVG Version: 6.00 Build 0)  -->
<!DOCTYPE svg PUBLIC "-//W3C//DTD SVG 1.1//EN" "http://www.w3.org/Graphics/SVG/1.1/DTD/svg11.dtd">
<svg version="1.1" id="Layer_1" xmlns="http://www.w3.org/2000/svg" xmlns:xlink="http://www.w3.org/1999/xlink" x="0px" y="0px"
	 width="450px" height="426px" viewBox="0 0 450 426" style="enable-background:new 0 0 450 426;" xml:space="preserve">
<g>
	<g>
		<g>
			<g style="opacity:0.3;">
				<g>
					<path style="fill:#C1E59E;" d="M229.365,11.036c0,0-84.992-33.818-125.897,16.947
						c-40.905,50.766,58.633,117.065-44.125,167.711c-72.566,35.765-35.448,132.515,41.375,120.095
						c87.418-14.135,27.992-63.555,220.997-34.143C417.313,296.213,487.953,93.059,229.365,11.036z"/>
				</g>
			</g>
			<g>
				<g>
					<path style="fill:#E6E9F4;" d="M312.131,31.073c3.967-4.857,2.258-12.123-3.307-15.018c-4.379-2.278-9.908-3.53-14.031,1.05
						c-7.98,8.862,3.99,14.845,10.324,16.62C307.803,34.477,310.9,32.58,312.131,31.073z"/>
				</g>
			</g>
			<g style="opacity:0.3;">
				<g>
					<path style="fill:#C1E59E;" d="M47.324,185.372c-3.211-5.387-10.623-6.262-15.244-2.021c-3.638,3.339-6.702,8.106-3.806,13.547
						c5.604,10.526,15.315,1.319,19.146-4.027C49.045,190.603,48.32,187.042,47.324,185.372z"/>
				</g>
			</g>
			<g>
				<g>
					<path style="fill:#C1E59E;" d="M424.105,229.875c0,0,8-17.488-0.381-24.475c-8.383-6.987-18.391,14.297-14.998,23.825
						C412.117,238.752,421.92,236.133,424.105,229.875z"/>
				</g>
			</g>
		</g>
		<g>
			<ellipse style="fill:#C7CAD8;" cx="224.53" cy="416.531" rx="225.47" ry="9.49"/>
		</g>
	</g>
	<g>
		<g>
			<g>
				<g>
					<path style="fill:#76C23A;" d="M343.244,70.037c21.736-24.884,4.666-61.832,4.666-61.832s-30.451,18.583-44.355,41.056
						c-13.906,22.473,1.02,46.813,1.02,46.813S324.746,91.211,343.244,70.037z"/>
				</g>
			</g>
			<g>
				<g>
					<path style="fill:#60A523;" d="M304.658,97.06c-0.131,0.011-0.266-0.003-0.398-0.048c-0.518-0.173-0.797-0.734-0.625-1.252
						c7.576-22.666,37.314-74.598,37.613-75.12c0.271-0.474,0.877-0.638,1.352-0.366c0.475,0.272,0.637,0.877,0.365,1.352
						c-0.299,0.521-29.939,52.281-37.451,74.762C305.385,96.774,305.041,97.028,304.658,97.06z"/>
				</g>
			</g>
			<g>
				<g>
					<path style="fill:#60A523;" d="M328.781,46.359c-0.398,0.034-0.795-0.177-0.979-0.558c-0.236-0.494-0.029-1.085,0.465-1.321
						l15.623-7.495c0.494-0.236,1.086-0.029,1.322,0.465c0.236,0.492,0.027,1.084-0.465,1.32l-15.625,7.495
						C329.012,46.318,328.896,46.349,328.781,46.359z"/>
				</g>
			</g>
			<g>
				<g>
					<path style="fill:#60A523;" d="M325.246,52.993c-0.424,0.037-0.84-0.206-1.006-0.623l-5.438-13.779
						c-0.201-0.509,0.049-1.084,0.559-1.284s1.082,0.05,1.283,0.558l5.438,13.779c0.201,0.508-0.049,1.084-0.557,1.284
						C325.434,52.963,325.34,52.985,325.246,52.993z"/>
				</g>
			</g>
			<g>
				<g>
					<path style="fill:#60A523;" d="M321.469,60.229c-0.502,0.043-0.965-0.302-1.057-0.809c-0.1-0.537,0.256-1.053,0.795-1.152
						l20.193-3.707c0.541-0.099,1.053,0.257,1.152,0.795c0.098,0.537-0.258,1.053-0.795,1.152l-20.193,3.707
						C321.531,60.221,321.5,60.226,321.469,60.229z"/>
				</g>
			</g>
			<g>
				<g>
					<path style="fill:#9A9FB2;" d="M318.121,66.807c-0.361,0.031-0.727-0.137-0.928-0.467l-9.934-16.108
						c-0.287-0.466-0.143-1.075,0.322-1.362c0.467-0.289,1.076-0.143,1.363,0.323l9.932,16.108c0.287,0.465,0.143,1.075-0.322,1.361
						C318.418,66.748,318.27,66.794,318.121,66.807z"/>
				</g>
			</g>
			<g>
				<g>
					<path style="fill:#60A523;" d="M312.453,78.438c-0.436,0.037-0.859-0.219-1.016-0.648c-0.188-0.514,0.078-1.082,0.592-1.269
						l19.445-7.07c0.514-0.187,1.082,0.078,1.268,0.592c0.188,0.514-0.078,1.082-0.592,1.269l-19.443,7.07
						C312.623,78.413,312.537,78.43,312.453,78.438z"/>
				</g>
			</g>
			<g>
				<g>
					<path style="fill:#9A9FB2;" d="M309.553,84.783c-0.412,0.036-0.82-0.192-0.994-0.595l-6.711-15.575
						c-0.217-0.502,0.016-1.085,0.516-1.301c0.502-0.217,1.086,0.015,1.303,0.517l6.711,15.576c0.217,0.502-0.016,1.084-0.516,1.301
						C309.76,84.749,309.656,84.774,309.553,84.783z"/>
				</g>
			</g>
		</g>
		<g>
			<g>
				<g>
					<g>
						<g>
							<g>
								<path style="fill:#60A523;" d="M125.376,202.165c-20.506-22.748-40.383-49.634-51.733-67.736
									c-14.829-23.652-21.495-42.992-19.812-57.486c0.112-0.961,0.981-1.649,1.942-1.538c0.961,0.112,1.649,0.981,1.538,1.942
									c-2.942,25.336,22.182,69.723,72.376,124.28L125.376,202.165z"/>
							</g>
						</g>
					</g>
				</g>
			</g>
			<g>
				<g>
					<g>
						<g>
							<path style="fill:#76C23A;" d="M62.181,112.243c0,0-11.52,9.034-26.613-11.84C35.568,100.403,57.124,91.574,62.181,112.243z"
								/>
						</g>
					</g>
				</g>
			</g>
			<g>
				<g>
					<g>
						<g>
							<path style="fill:#76C23A;" d="M69.405,123.407c0,0-9.662-11,10.34-27.23C79.745,96.176,89.76,117.208,69.405,123.407z"/>
						</g>
					</g>
				</g>
			</g>
			<g>
				<g>
					<g>
						<g>
							<path style="fill:#76C23A;" d="M55.878,88.111c0,0-12.776-7.148,0.67-29.12C56.549,58.991,73.001,75.481,55.878,88.111z"/>
						</g>
					</g>
				</g>
			</g>
			<g>
				<g>
					<g>
						<g>
							<path style="fill:#76C23A;" d="M83.246,146.315c0,0-7.785,12.398-29.048-2.141C54.198,144.174,71.496,128.576,83.246,146.315
								z"/>
						</g>
					</g>
				</g>
			</g>
			<g>
				<g>
					<g>
						<g>
							<path style="fill:#76C23A;" d="M92.328,156.575c0,0-11.418-9.162,5.476-28.608
								C97.804,127.966,111.304,146.948,92.328,156.575z"/>
						</g>
					</g>
				</g>
			</g>
			<g>
				<g>
					<g>
						<g>
							<path style="fill:#76C23A;" d="M103.367,171.857c0,0-7.548,12.544-29.084-1.589
								C74.283,170.268,91.283,154.343,103.367,171.857z"/>
						</g>
					</g>
				</g>
			</g>
			<g>
				<g>
					<g>
						<g>
							<path style="fill:#C7CAD8;" d="M111.897,183.651c0,0,14.106-3.916,6.253-28.449
								C118.15,155.202,98.256,167.321,111.897,183.651z"/>
						</g>
					</g>
				</g>
			</g>
		</g>
		<g>
			<g>
				<g>
					<g>
						<g>
							<g>
								<path style="fill:#60A523;" d="M295.219,368.951c19.318-23.764,37.799-51.629,48.211-70.287
									c13.604-24.377,19.273-44.031,16.854-58.422c-0.16-0.953-1.063-1.598-2.018-1.436c-0.953,0.16-1.598,1.063-1.438,2.018
									c4.23,25.152-18.596,70.764-65.941,127.809L295.219,368.951z"/>
							</g>
						</g>
					</g>
				</g>
			</g>
			<g>
				<g>
					<g>
						<g>
							<path style="fill:#76C23A;" d="M353.746,275.924c0,0,11.965,8.434,25.973-13.184
								C379.719,262.74,357.742,255.023,353.746,275.924z"/>
						</g>
					</g>
				</g>
			</g>
			<g>
				<g>
					<g>
						<g>
							<path style="fill:#76C23A;" d="M347.1,287.441c0,0,9.088-11.479-11.715-26.668
								C335.385,260.773,326.455,282.287,347.1,287.441z"/>
						</g>
					</g>
				</g>
			</g>
			<g>
				<g>
					<g>
						<g>
							<path style="fill:#76C23A;" d="M358.809,251.502c0,0,12.395-7.791-2.154-29.049
								C356.654,222.453,341.063,239.762,358.809,251.502z"/>
						</g>
					</g>
				</g>
			</g>
			<g>
				<g>
					<g>
						<g>
							<path style="fill:#76C23A;" d="M334.445,311.025c0,0,8.406,11.986,28.9-3.619
								C363.346,307.406,345.275,292.711,334.445,311.025z"/>
						</g>
					</g>
				</g>
			</g>
			<g>
				<g>
					<g>
						<g>
							<path style="fill:#76C23A;" d="M325.898,321.734c0,0,10.936-9.732-6.928-28.291
								C318.971,293.443,306.455,313.09,325.898,321.734z"/>
						</g>
					</g>
				</g>
			</g>
			<g>
				<g>
					<g>
						<g>
							<path style="fill:#76C23A;" d="M315.652,337.561c0,0,8.178,12.143,28.965-3.07
								C344.617,334.49,326.828,319.453,315.652,337.561z"/>
						</g>
					</g>
				</g>
			</g>
			<g>
				<g>
					<g>
						<g>
							<path style="fill:#C7CAD8;" d="M307.736,349.773c0,0-14.289-3.191-7.697-28.092
								C300.039,321.682,320.525,332.77,307.736,349.773z"/>
						</g>
					</g>
				</g>
			</g>
		</g>
	</g>
	<g>
		<g>
			<g>
				<g>
					<g>
						<path style="fill:#9A9FB2;" d="M408.07,79.817c-3.592,0-7.08-0.992-9.863-2.799l-8.117,2.02
							c-0.262,0.064-0.535-0.031-0.699-0.245c-0.162-0.214-0.184-0.503-0.051-0.737l3.836-6.854
							c-0.539-1.295-0.813-2.649-0.813-4.031c0-3.407,1.654-6.602,4.656-8.993c2.959-2.356,6.883-3.653,11.051-3.653
							c4.166,0,8.09,1.297,11.049,3.653c3.004,2.392,4.656,5.586,4.656,8.993c0,3.408-1.652,6.602-4.656,8.994
							C416.16,78.52,412.236,79.817,408.07,79.817z M398.332,75.619c0.135,0,0.266,0.04,0.379,0.116
							c2.602,1.764,5.926,2.734,9.359,2.734c7.916,0,14.357-5.068,14.357-11.299s-6.441-11.299-14.357-11.299
							c-7.918,0-14.359,5.068-14.359,11.299c0,1.301,0.279,2.576,0.83,3.791c0.09,0.195,0.08,0.42-0.025,0.607l-3.24,5.785
							l6.895-1.715C398.225,75.625,398.279,75.619,398.332,75.619z"/>
					</g>
				</g>
			</g>
			<g>
				<g>
					<g>
						<g>
							<g>
								<g>
									<path style="fill:#9A9FB2;" d="M414.965,70.316c-1.563,0-2.834-1.271-2.834-2.835c0-1.563,1.271-2.834,2.834-2.834
										s2.834,1.271,2.834,2.834C417.799,69.044,416.527,70.316,414.965,70.316z M414.965,65.964
										c-0.836,0-1.516,0.681-1.516,1.517c0,0.837,0.68,1.518,1.516,1.518c0.838,0,1.518-0.681,1.518-1.518
										C416.482,66.645,415.803,65.964,414.965,65.964z"/>
								</g>
							</g>
						</g>
					</g>
				</g>
				<g>
					<g>
						<g>
							<g>
								<g>
									<path style="fill:#9A9FB2;" d="M408.078,70.316c-1.563,0-2.834-1.271-2.834-2.835c0-1.563,1.271-2.834,2.834-2.834
										s2.834,1.271,2.834,2.834C410.912,69.044,409.641,70.316,408.078,70.316z M408.078,65.964
										c-0.836,0-1.518,0.681-1.518,1.517c0,0.837,0.682,1.518,1.518,1.518s1.518-0.681,1.518-1.518
										C409.596,66.645,408.914,65.964,408.078,65.964z"/>
								</g>
							</g>
						</g>
					</g>
				</g>
				<g>
					<g>
						<g>
							<g>
								<g>
									<path style="fill:#9A9FB2;" d="M401.191,70.316c-1.563,0-2.836-1.271-2.836-2.835c0-1.563,1.273-2.834,2.836-2.834
										s2.834,1.271,2.834,2.834C404.025,69.044,402.754,70.316,401.191,70.316z M401.191,65.964
										c-0.838,0-1.518,0.681-1.518,1.517c0,0.837,0.68,1.518,1.518,1.518c0.836,0,1.518-0.681,1.518-1.518
										C402.709,66.645,402.027,65.964,401.191,65.964z"/>
								</g>
							</g>
						</g>
					</g>
				</g>
			</g>
		</g>
		<g>
			<g>
				<g>
					<path style="fill:#9A9FB2;" d="M80.254,42.135c-5.987,0-10.858-4.87-10.858-10.857c0-5.986,4.871-10.857,10.858-10.857
						c5.987,0,10.857,4.871,10.857,10.857C91.112,37.265,86.241,42.135,80.254,42.135z M80.254,21.631
						c-5.319,0-9.646,4.328-9.646,9.646c0,5.319,4.327,9.646,9.646,9.646c5.319,0,9.646-4.327,9.646-9.646
						C89.9,25.959,85.573,21.631,80.254,21.631z"/>
				</g>
				<g>
					<path style="fill:#9A9FB2;" d="M80.254,31.883c-0.148,0-0.291-0.053-0.402-0.152c-0.129-0.115-0.204-0.279-0.204-0.453v-7.287
						c0-0.336,0.271-0.606,0.606-0.606c0.334,0,0.605,0.271,0.605,0.606v6.605l5.545-0.663c0.333-0.04,0.634,0.197,0.673,0.529
						c0.04,0.333-0.197,0.634-0.529,0.673l-6.223,0.744C80.302,31.882,80.278,31.883,80.254,31.883z"/>
				</g>
			</g>
		</g>
		<g>
			<path style="fill:#9A9FB2;" d="M39.22,165.721h-7.304c-0.334,0-0.606-0.271-0.606-0.605v-5.655h-5.657
				c-0.335,0-0.606-0.271-0.606-0.605v-7.304c0-0.335,0.271-0.605,0.606-0.605h5.657v-5.658c0-0.334,0.271-0.605,0.606-0.605h7.304
				c0.335,0,0.606,0.271,0.606,0.605v5.658h5.657c0.335,0,0.606,0.271,0.606,0.605v7.304c0,0.335-0.271,0.605-0.606,0.605h-5.657
				v5.655C39.826,165.451,39.555,165.721,39.22,165.721z M32.522,164.51h6.092v-5.655c0-0.335,0.271-0.606,0.606-0.606h5.657v-6.092
				H39.22c-0.334,0-0.606-0.271-0.606-0.605v-5.657h-6.092v5.657c0,0.334-0.271,0.605-0.606,0.605h-5.657v6.092h5.657
				c0.335,0,0.606,0.271,0.606,0.606V164.51z"/>
		</g>
		<g>
			<path style="fill:#9A9FB2;" d="M422.277,89.149h-31.525c-0.336,0-0.605-0.271-0.605-0.605c0-0.335,0.27-0.606,0.605-0.606h31.525
				c0.336,0,0.605,0.271,0.605,0.606C422.883,88.877,422.613,89.149,422.277,89.149z"/>
		</g>
		<g>
			<g>
				<path style="fill:#9A9FB2;" d="M272.699,18.359c-2.4,0-4.352-1.952-4.352-4.351c0-2.4,1.951-4.352,4.352-4.352
					c2.398,0,4.35,1.951,4.35,4.352C277.049,16.407,275.098,18.359,272.699,18.359z M272.699,10.868
					c-1.732,0-3.141,1.408-3.141,3.141c0,1.73,1.408,3.139,3.141,3.139c1.73,0,3.139-1.408,3.139-3.139
					C275.838,12.276,274.43,10.868,272.699,10.868z"/>
			</g>
			<g>
				<path style="fill:#9A9FB2;" d="M259.836,14.599h-88.968c-0.335,0-0.606-0.271-0.606-0.605s0.271-0.606,0.606-0.606h88.968
					c0.334,0,0.605,0.271,0.605,0.606S260.17,14.599,259.836,14.599z"/>
			</g>
		</g>
	</g>
	<g>
		<g>
			<g>
				<g>
					<g>
						<path style="fill:#707D88;" d="M317.873,43.516v352.48c0,5.498-2.219,10.479-5.809,14.096
							c-3.623,3.648-8.645,5.908-14.195,5.908H122.34c-11.049,0-20.004-8.953-20.004-20.004V43.516
							c0-7.783,4.442-14.523,10.93-17.832c2.726-1.39,5.807-2.172,9.074-2.172h175.529
							C308.918,23.512,317.873,32.467,317.873,43.516z"/>
					</g>
				</g>
			</g>
			<g>
				<g>
					<g>
						<path style="fill:#A7B8C1;" d="M317.873,121.303h5.143c0.467,0,0.844-0.379,0.844-0.845v-36.23
							c0-0.466-0.377-0.844-0.844-0.844h-5.143V121.303z"/>
					</g>
				</g>
				<g>
					<g>
						<path style="fill:#A7B8C1;" d="M102.337,133.487h-6.286c-0.569,0-1.031-0.463-1.031-1.031V87.952
							c0-0.57,0.462-1.031,1.031-1.031h6.286V133.487z"/>
					</g>
				</g>
				<g>
					<g>
						<path style="fill:#A7B8C1;" d="M102.337,186.372h-6.286c-0.569,0-1.031-0.461-1.031-1.031v-44.503
							c0-0.569,0.462-1.031,1.031-1.031h6.286V186.372z"/>
					</g>
				</g>
			</g>
			<g>
				<g>
					<g>
						<path style="fill:#C3D5E0;" d="M307.893,42.303v354.9c0,1.221-0.248,2.387-0.703,3.453c-1.346,3.154-4.465,5.361-8.107,5.361
							H121.134c-4.867,0-8.813-3.938-8.813-8.814v-354.9c0-3.629,2.203-6.752,5.349-8.109c1.063-0.455,2.229-0.703,3.463-0.703
							h177.948C303.945,33.491,307.893,37.439,307.893,42.303z"/>
					</g>
				</g>
			</g>
			<g>
				<path style="fill:#FFFFFF;" d="M307.893,333.588v63.615c0,1.221-0.248,2.387-0.703,3.453c-1.346,3.154-4.465,5.361-8.107,5.361
					H121.134c-4.867,0-8.813-3.938-8.813-8.814v-63.66c0.648-7.264,6.749-12.951,14.178-12.951h167.211
					C301.156,320.592,307.264,326.305,307.893,333.588z"/>
			</g>
			<g>
				<g>
					<path style="fill:#F6DD28;" d="M196.238,358.207h-58.7c-1.691,0-3.062-1.371-3.062-3.063v-7.461
						c0-1.691,1.371-3.061,3.062-3.061h58.7c1.691,0,3.062,1.369,3.062,3.061v7.461C199.3,356.836,197.929,358.207,196.238,358.207z
						"/>
				</g>
				<g>
					<path style="fill:#76C23A;" d="M196.238,388.041h-58.7c-1.691,0-3.062-1.371-3.062-3.063v-7.461
						c0-1.691,1.371-3.063,3.062-3.063h58.7c1.691,0,3.062,1.371,3.062,3.063v7.461C199.3,386.67,197.929,388.041,196.238,388.041z"
						/>
				</g>
				<g>
					<path style="fill:#D34E40;" d="M285.295,358.207h-58.699c-1.691,0-3.062-1.371-3.062-3.063v-7.461
						c0-1.691,1.371-3.061,3.062-3.061h58.699c1.691,0,3.063,1.369,3.063,3.061v7.461
						C288.357,356.836,286.986,358.207,285.295,358.207z"/>
				</g>
				<g>
					<path style="fill:#C7CAD8;" d="M285.295,388.041h-58.699c-1.691,0-3.062-1.371-3.062-3.063v-7.461
						c0-1.691,1.371-3.063,3.062-3.063h58.699c1.691,0,3.063,1.371,3.063,3.063v7.461
						C288.357,386.67,286.986,388.041,285.295,388.041z"/>
				</g>
			</g>
			<g>
				<path style="fill:#C7CAD8;" d="M257.359,331.092h-91.885c-1.171,0-2.121-0.949-2.121-2.121l0,0c0-1.17,0.95-2.119,2.121-2.119
					h91.885c1.172,0,2.121,0.949,2.121,2.119l0,0C259.48,330.143,258.531,331.092,257.359,331.092z"/>
			</g>
			<g>
				<g>
					<path style="fill:#FFFFFF;" d="M112.321,42.303v16.527h195.571V42.303c0-4.863-3.947-8.813-8.813-8.813H121.134
						c-1.233,0-2.401,0.248-3.463,0.703C114.525,35.551,112.321,38.674,112.321,42.303z"/>
				</g>
			</g>
			<g>
				<g>
					<g>
						<g>
							<g>
								<circle style="fill:#76C23A;" cx="273.038" cy="46.793" r="3.321"/>
							</g>
						</g>
					</g>
				</g>
				<g>
					<g>
						<g>
							<g>
								<circle style="fill:#EF6931;" cx="284.618" cy="46.793" r="3.321"/>
							</g>
						</g>
					</g>
				</g>
				<g>
					<g>
						<g>
							<g>
								<circle style="fill:#0C0B0B;" cx="296.148" cy="46.793" r="3.322"/>
							</g>
						</g>
					</g>
				</g>
			</g>
			<g>
				<g>
					<path style="fill:#C5DEEA;" d="M259.965,33.233l-4.867,4.867c-4.877,4.876-11.488,7.615-18.383,7.615h-53.198
						c-6.895,0-13.507-2.739-18.382-7.615l-4.829-4.828L259.965,33.233z"/>
				</g>
			</g>
			<g>
				<g>
					<path style="fill:#A7B8C1;" d="M174.74,39.474h70.73c0.129,0,0.236-0.106,0.236-0.237v-2.886c0-0.13-0.107-0.237-0.236-0.237
						h-70.73c-0.13,0-0.237,0.107-0.237,0.237v2.886C174.503,39.368,174.61,39.474,174.74,39.474z"/>
				</g>
			</g>
		</g>
		<g>
			<g>
				<g>
					<path style="fill:#9A9FB2;" d="M287.814,225.813H136.333c-3.079,0-5.575-2.496-5.575-5.574v-56.919
						c0-3.078,2.496-5.574,5.575-5.574h151.481c3.078,0,5.574,2.496,5.574,5.574v56.919
						C293.389,223.316,290.893,225.813,287.814,225.813z"/>
				</g>
				<g>
					<path style="fill:#FFFFFF;" d="M283.938,222.049H132.457c-3.079,0-5.574-2.496-5.574-5.574v-56.919
						c0-3.078,2.496-5.574,5.574-5.574h151.481c3.078,0,5.574,2.496,5.574,5.574v56.919
						C289.512,219.553,287.016,222.049,283.938,222.049z"/>
				</g>
				<g>
					<g>
						<path style="fill:#D34E40;" d="M277.52,174.825h-84.551c-1.398,0-2.532-1.133-2.532-2.531v-0.996
							c0-1.398,1.134-2.531,2.532-2.531h84.551c1.398,0,2.531,1.133,2.531,2.531v0.996
							C280.051,173.692,278.918,174.825,277.52,174.825z"/>
					</g>
					<g>
						<g>
							<path style="fill:#C7CAD8;" d="M228.031,187.703H192.47c-1.123,0-2.034-0.911-2.034-2.034v-0.799
								c0-1.123,0.911-2.033,2.034-2.033h35.562c1.123,0,2.033,0.91,2.033,2.033v0.799
								C230.064,186.792,229.154,187.703,228.031,187.703z"/>
						</g>
						<g>
							<path style="fill:#C7CAD8;" d="M228.031,208.919H192.47c-1.123,0-2.034-0.911-2.034-2.034v-0.799
								c0-1.123,0.911-2.033,2.034-2.033h35.562c1.123,0,2.033,0.91,2.033,2.033v0.799
								C230.064,208.008,229.154,208.919,228.031,208.919z"/>
						</g>
						<g>
							<path style="fill:#C7CAD8;" d="M228.031,198.213H192.47c-1.123,0-2.034-0.91-2.034-2.033v-0.799
								c0-1.123,0.911-2.034,2.034-2.034h35.562c1.123,0,2.033,0.911,2.033,2.034v0.799
								C230.064,197.303,229.154,198.213,228.031,198.213z"/>
						</g>
					</g>
					<g>
						<g>
							<path style="fill:#C7CAD8;" d="M278.018,187.703h-35.563c-1.123,0-2.033-0.911-2.033-2.034v-0.799
								c0-1.123,0.91-2.033,2.033-2.033h35.563c1.123,0,2.033,0.91,2.033,2.033v0.799
								C280.051,186.792,279.141,187.703,278.018,187.703z"/>
						</g>
						<g>
							<path style="fill:#C7CAD8;" d="M278.018,208.919h-35.563c-1.123,0-2.033-0.911-2.033-2.034v-0.799
								c0-1.123,0.91-2.033,2.033-2.033h35.563c1.123,0,2.033,0.91,2.033,2.033v0.799
								C280.051,208.008,279.141,208.919,278.018,208.919z"/>
						</g>
						<g>
							<path style="fill:#C7CAD8;" d="M278.018,198.213h-35.563c-1.123,0-2.033-0.91-2.033-2.033v-0.799
								c0-1.123,0.91-2.034,2.033-2.034h35.563c1.123,0,2.033,0.911,2.033,2.034v0.799
								C280.051,197.303,279.141,198.213,278.018,198.213z"/>
						</g>
					</g>
				</g>
				<g>
					<g>
						<g>
							<path style="fill:#D34E40;" d="M159.095,209.84c-12.035,0-21.826-9.791-21.826-21.826s9.791-21.826,21.826-21.826
								s21.826,9.791,21.826,21.826S171.13,209.84,159.095,209.84z M159.095,169.165c-10.394,0-18.85,8.456-18.85,18.85
								c0,10.395,8.456,18.85,18.85,18.85c10.394,0,18.85-8.455,18.85-18.85C177.945,177.621,169.489,169.165,159.095,169.165z"/>
						</g>
					</g>
					<g>
						<g>
							<path style="fill:#D34E40;" d="M159.095,189.502c-0.362,0-0.714-0.132-0.988-0.375c-0.318-0.282-0.5-0.688-0.5-1.113v-14.457
								c0-0.822,0.666-1.488,1.488-1.488c0.822,0,1.488,0.666,1.488,1.488v12.781l10.679-1.277c0.816-0.098,1.557,0.485,1.654,1.302
								c0.098,0.815-0.485,1.557-1.301,1.654l-12.344,1.476C159.213,189.5,159.154,189.502,159.095,189.502z"/>
						</g>
					</g>
				</g>
			</g>
			<g>
				<g>
					<path style="fill:#9A9FB2;" d="M287.814,141.512H136.333c-3.079,0-5.575-2.496-5.575-5.574V79.019
						c0-3.079,2.496-5.575,5.575-5.575h151.481c3.078,0,5.574,2.496,5.574,5.575v56.919
						C293.389,139.016,290.893,141.512,287.814,141.512z"/>
				</g>
				<g>
					<path style="fill:#FFFFFF;" d="M283.938,137.748H132.457c-3.079,0-5.574-2.495-5.574-5.574V75.254
						c0-3.078,2.496-5.574,5.574-5.574h151.481c3.078,0,5.574,2.496,5.574,5.574v56.919
						C289.512,135.252,287.016,137.748,283.938,137.748z"/>
				</g>
				<g>
					<path style="fill:#76C23A;" d="M172.643,124.418h-24.673c-4.172,0-7.555-3.383-7.555-7.555V92.19
						c0-4.172,3.382-7.555,7.555-7.555h24.673c4.172,0,7.555,3.383,7.555,7.555v24.674
						C180.197,121.036,176.815,124.418,172.643,124.418z"/>
				</g>
				<g>
					<g>
						<path style="fill:#FFFFFF;" d="M153.434,115.543c-0.115,0-0.229-0.011-0.344-0.032c-0.577-0.106-1.073-0.472-1.345-0.991
							l-3.833-7.332c-0.488-0.934-0.127-2.085,0.806-2.572c0.933-0.488,2.084-0.127,2.573,0.806l2.703,5.17l18.06-16.027
							c0.788-0.699,1.992-0.627,2.691,0.16c0.699,0.788,0.627,1.993-0.161,2.691l-19.885,17.647
							C154.347,115.375,153.896,115.543,153.434,115.543z"/>
					</g>
				</g>
				<g>
					<g>
						<path style="fill:#76C23A;" d="M277.52,90.524h-84.551c-1.398,0-2.532-1.133-2.532-2.531v-0.995
							c0-1.398,1.134-2.532,2.532-2.532h84.551c1.398,0,2.531,1.134,2.531,2.532v0.995C280.051,89.391,278.918,90.524,277.52,90.524
							z"/>
					</g>
					<g>
						<g>
							<path style="fill:#C7CAD8;" d="M228.031,103.403H192.47c-1.123,0-2.034-0.911-2.034-2.034v-0.799
								c0-1.124,0.911-2.034,2.034-2.034h35.562c1.123,0,2.033,0.91,2.033,2.034v0.799
								C230.064,102.492,229.154,103.403,228.031,103.403z"/>
						</g>
						<g>
							<path style="fill:#C7CAD8;" d="M228.031,124.619H192.47c-1.123,0-2.034-0.911-2.034-2.034v-0.799
								c0-1.123,0.911-2.033,2.034-2.033h35.562c1.123,0,2.033,0.91,2.033,2.033v0.799
								C230.064,123.708,229.154,124.619,228.031,124.619z"/>
						</g>
						<g>
							<path style="fill:#C7CAD8;" d="M228.031,113.913H192.47c-1.123,0-2.034-0.91-2.034-2.033v-0.799
								c0-1.123,0.911-2.033,2.034-2.033h35.562c1.123,0,2.033,0.91,2.033,2.033v0.799
								C230.064,113.002,229.154,113.913,228.031,113.913z"/>
						</g>
					</g>
					<g>
						<g>
							<path style="fill:#C7CAD8;" d="M278.018,103.403h-35.563c-1.123,0-2.033-0.911-2.033-2.034v-0.799
								c0-1.124,0.91-2.034,2.033-2.034h35.563c1.123,0,2.033,0.91,2.033,2.034v0.799
								C280.051,102.492,279.141,103.403,278.018,103.403z"/>
						</g>
						<g>
							<path style="fill:#C7CAD8;" d="M278.018,124.619h-35.563c-1.123,0-2.033-0.911-2.033-2.034v-0.799
								c0-1.123,0.91-2.033,2.033-2.033h35.563c1.123,0,2.033,0.91,2.033,2.033v0.799
								C280.051,123.708,279.141,124.619,278.018,124.619z"/>
						</g>
						<g>
							<path style="fill:#C7CAD8;" d="M278.018,113.913h-35.563c-1.123,0-2.033-0.91-2.033-2.033v-0.799
								c0-1.123,0.91-2.033,2.033-2.033h35.563c1.123,0,2.033,0.91,2.033,2.033v0.799
								C280.051,113.002,279.141,113.913,278.018,113.913z"/>
						</g>
					</g>
				</g>
			</g>
			<g>
				<g>
					<path style="fill:#9A9FB2;" d="M287.814,312.094H136.333c-3.079,0-5.575-2.496-5.575-5.574v-56.918
						c0-3.078,2.496-5.574,5.575-5.574h151.481c3.078,0,5.574,2.496,5.574,5.574v56.918
						C293.389,309.598,290.893,312.094,287.814,312.094z"/>
				</g>
				<g>
					<path style="fill:#FFFFFF;" d="M283.938,308.33H132.457c-3.079,0-5.574-2.496-5.574-5.574v-56.918
						c0-3.08,2.496-5.576,5.574-5.576h151.481c3.078,0,5.574,2.496,5.574,5.576v56.918
						C289.512,305.834,287.016,308.33,283.938,308.33z"/>
				</g>
				<g>
					<g>
						<path style="fill:#C7CAD8;" d="M172.027,274.971h-30.063c-0.949,0-1.719-0.77-1.719-1.719v-0.676
							c0-0.949,0.77-1.719,1.719-1.719h30.063c0.95,0,1.719,0.77,1.719,1.719v0.676
							C173.746,274.201,172.977,274.971,172.027,274.971z"/>
					</g>
					<g>
						<path style="fill:#C7CAD8;" d="M172.027,292.906h-30.063c-0.949,0-1.719-0.77-1.719-1.719v-0.676
							c0-0.949,0.77-1.719,1.719-1.719h30.063c0.95,0,1.719,0.77,1.719,1.719v0.676
							C173.746,292.137,172.977,292.906,172.027,292.906z"/>
					</g>
					<g>
						<path style="fill:#C7CAD8;" d="M172.027,283.855h-30.063c-0.949,0-1.719-0.77-1.719-1.719v-0.676
							c0-0.949,0.77-1.719,1.719-1.719h30.063c0.95,0,1.719,0.77,1.719,1.719v0.676
							C173.746,283.086,172.977,283.855,172.027,283.855z"/>
					</g>
				</g>
				<g>
					<g>
						<path style="fill:#C7CAD8;" d="M212.703,274.971H182.64c-0.949,0-1.719-0.77-1.719-1.719v-0.676
							c0-0.949,0.77-1.719,1.719-1.719h30.063c0.949,0,1.719,0.77,1.719,1.719v0.676
							C214.422,274.201,213.652,274.971,212.703,274.971z"/>
					</g>
					<g>
						<path style="fill:#C7CAD8;" d="M212.703,292.906H182.64c-0.949,0-1.719-0.77-1.719-1.719v-0.676
							c0-0.949,0.77-1.719,1.719-1.719h30.063c0.949,0,1.719,0.77,1.719,1.719v0.676
							C214.422,292.137,213.652,292.906,212.703,292.906z"/>
					</g>
					<g>
						<path style="fill:#C7CAD8;" d="M212.703,283.855H182.64c-0.949,0-1.719-0.77-1.719-1.719v-0.676
							c0-0.949,0.77-1.719,1.719-1.719h30.063c0.949,0,1.719,0.77,1.719,1.719v0.676
							C214.422,283.086,213.652,283.855,212.703,283.855z"/>
					</g>
				</g>
				<g>
					<g>
						<g>
							<path style="fill:#F6DD28;" d="M223.658,278.512c-0.03,1.219,0.287,2.365,0.862,3.34c0.278,0.475,0.567,0.941,0.835,1.422
								l4.557,8.223l2.988-5.387c0.795-1.43,1.654-2.82,2.49-4.227c0.561-0.943,0.881-2.043,0.881-3.217
								c0-3.623-3.059-6.537-6.738-6.293C226.309,272.586,223.734,275.281,223.658,278.512z M227.303,277.912
								c0-1.473,1.191-2.662,2.662-2.662c1.469,0,2.662,1.189,2.662,2.662c0,1.471-1.193,2.662-2.662,2.662
								C228.494,280.574,227.303,279.383,227.303,277.912z"/>
						</g>
					</g>
					<g>
						<g>
							<g>
								<path style="fill:#D34E40;" d="M242.246,276.729c0.047-0.197,0.094-0.395,0.143-0.592c0.172-0.693,0.502-1.305,0.971-1.846
									c0.334-0.387,0.723-0.717,1.16-0.969c0.604-0.348,1.289-0.199,1.734,0.338c0.797,0.961,1.59,1.926,2.375,2.895
									c0.482,0.596,0.404,1.41-0.193,1.939c-0.43,0.381-0.881,0.734-1.324,1.096c-0.057,0.047-0.123,0.082-0.172,0.113
									c1.055,2.842,2.848,5.035,5.418,6.615c0.313-0.26,0.639-0.531,0.965-0.803c0.168-0.139,0.334-0.279,0.506-0.41
									c0.518-0.396,1.115-0.436,1.654-0.086c0.168,0.111,0.309,0.277,0.439,0.436c0.721,0.869,1.43,1.746,2.15,2.613
									c0.229,0.275,0.373,0.578,0.424,0.932c-0.012,0.129-0.025,0.258-0.037,0.387c-0.125,0.217-0.213,0.475-0.385,0.645
									c-0.422,0.42-0.885,0.795-1.438,1.045c-0.646,0.291-1.322,0.469-2.029,0.406c-0.467-0.041-0.936-0.139-1.387-0.266
									c-1.164-0.324-2.225-0.879-3.221-1.551c-0.988-0.666-1.889-1.441-2.715-2.299c-1.115-1.158-2.104-2.418-3.002-3.752
									c-0.707-1.049-1.318-2.15-1.715-3.359c-0.199-0.607-0.334-1.23-0.377-1.869c-0.016-0.258-0.021-0.516-0.033-0.773
									C242.188,277.318,242.217,277.023,242.246,276.729z"/>
							</g>
						</g>
					</g>
					<g>
						<g>
							<g>
								<g>
									<path style="fill:#777D15;" d="M261.633,281.928c0,5.275,4.293,9.568,9.568,9.568s9.568-4.293,9.568-9.568
										s-4.293-9.568-9.568-9.568S261.633,276.652,261.633,281.928z M267.002,285.461c-0.313-1.041-0.484-2.168-0.512-3.354h4.326
										v3.354H267.002z M269.258,290.51c-2.432-0.549-4.498-2.09-5.729-4.279h2.914c0.4,1.131,0.959,2.158,1.662,3.049
										C268.461,289.73,268.848,290.143,269.258,290.51z M270.816,286.23v4.486c-0.291-0.17-1.207-0.766-2.125-1.938
										c-0.588-0.75-1.068-1.607-1.428-2.549H270.816z M267.475,277.217c1.02-2.262,2.521-3.652,3-4.059
										c0.113-0.008,0.229-0.016,0.342-0.021v4.08H267.475z M263.773,277.217c1.227-1.926,3.158-3.309,5.359-3.842
										c-0.434,0.457-0.84,0.957-1.211,1.49c-0.512,0.736-0.947,1.527-1.289,2.352H263.773z M266.496,281.338
										c0.045-1.145,0.268-2.271,0.664-3.352h3.656v3.352H266.496z M262.422,281.338c0.078-1.174,0.385-2.301,0.914-3.352h3.008
										c-0.369,1.086-0.576,2.213-0.617,3.352H262.422z M265.721,282.107c0.025,1.178,0.188,2.305,0.48,3.354h-3.057
										c-0.469-1.061-0.717-2.188-0.74-3.354H265.721z M276.592,282.107h3.406c-0.023,1.166-0.273,2.293-0.74,3.354h-3.146
										C276.404,284.412,276.566,283.285,276.592,282.107z M271.586,277.217v-4.08c0.082,0.004,0.162,0.008,0.244,0.014
										c0.332,0.279,1.137,1.014,1.941,2.174c0.414,0.596,0.773,1.232,1.07,1.893H271.586z M275.154,277.986
										c0.395,1.084,0.617,2.211,0.662,3.352h-4.23v-3.352H275.154z M275.68,277.217c-0.342-0.824-0.777-1.615-1.289-2.352
										c-0.379-0.543-0.793-1.053-1.236-1.518c2.25,0.514,4.223,1.906,5.473,3.869H275.68z M275.822,282.107
										c-0.027,1.189-0.199,2.316-0.51,3.354h-3.727v-3.354H275.822z M276.588,281.338c-0.043-1.139-0.25-2.266-0.619-3.352h3.098
										c0.529,1.051,0.836,2.178,0.914,3.352H276.588z M278.873,286.23c-1.238,2.197-3.395,3.783-5.846,4.305
										c0.42-0.373,0.816-0.795,1.18-1.256c0.701-0.891,1.262-1.918,1.662-3.049H278.873z M275.049,286.23
										c-1.063,2.758-2.881,4.068-3.463,4.432v-4.432H275.049z"/>
								</g>
							</g>
						</g>
					</g>
				</g>
				<g>
					<path style="fill:#453F3F;" d="M151.077,255.682c0,4.199-2.691,6.65-6.65,6.65c-1.422,0-2.811-0.344-3.719-0.943l1.457-2.828
						c0.703,0.498,1.422,0.635,2.176,0.635c1.372,0,2.331-0.703,2.605-2.039c-0.6,0.428-1.371,0.668-2.382,0.668
						c-2.194,0-4.113-1.49-4.113-3.84c0-2.57,2.159-4.199,4.867-4.199C148.746,249.785,151.077,251.758,151.077,255.682z
						 M146.827,253.797c0-0.754-0.514-1.217-1.234-1.217c-0.72,0-1.234,0.463-1.234,1.217s0.514,1.234,1.234,1.234
						C146.313,255.031,146.827,254.551,146.827,253.797z"/>
					<path style="fill:#453F3F;" d="M151.916,254.705c0-1.32,0.977-2.193,2.262-2.193s2.262,0.873,2.262,2.193
						c0,1.303-0.977,2.229-2.262,2.229S151.916,256.008,151.916,254.705z M151.916,260c0-1.318,0.977-2.193,2.262-2.193
						s2.262,0.875,2.262,2.193c0,1.303-0.977,2.229-2.262,2.229S151.916,261.303,151.916,260z"/>
					<path style="fill:#453F3F;" d="M166.895,258.219c0,2.057-1.646,4.113-5.485,4.113c-1.645,0-3.445-0.359-4.73-1.08l1.371-2.982
						c1.028,0.6,2.211,0.875,3.222,0.875c0.908,0,1.559-0.309,1.559-0.926c0-0.514-0.394-0.822-1.422-0.822h-1.594v-2.486
						l1.765-1.799h-4.285v-3.051h8.947v2.484l-2.228,2.264C165.901,255.27,166.895,256.557,166.895,258.219z"/>
					<path style="fill:#453F3F;" d="M167.802,256.059c0-3.977,2.262-6.273,5.433-6.273c3.17,0,5.433,2.297,5.433,6.273
						s-2.263,6.273-5.433,6.273C170.064,262.332,167.802,260.035,167.802,256.059z M174.606,256.059
						c0-2.313-0.583-3.033-1.371-3.033s-1.371,0.721-1.371,3.033c0,2.314,0.583,3.033,1.371,3.033S174.606,258.373,174.606,256.059z
						"/>
					<path style="fill:#453F3F;" d="M194.435,257.02v5.037h-3.599v-1.232c-0.446,0.941-1.337,1.404-2.657,1.404
						c-2.296,0-3.479-1.303-3.479-2.914c0-1.816,1.372-2.826,4.285-2.826h1.56c-0.12-0.721-0.668-1.098-1.765-1.098
						c-0.84,0-1.783,0.273-2.4,0.736l-1.234-2.553c1.097-0.686,2.759-1.063,4.216-1.063
						C192.583,252.512,194.435,253.9,194.435,257.02z M190.561,259.008v-0.652h-0.96c-0.822,0-1.183,0.273-1.183,0.789
						c0,0.428,0.343,0.754,0.926,0.754C189.875,259.898,190.355,259.623,190.561,259.008z"/>
					<path style="fill:#453F3F;" d="M212.258,256.711v5.346h-3.874v-4.678c0-1.166-0.428-1.611-1.045-1.611
						c-0.686,0-1.217,0.463-1.217,1.713v4.576h-3.874v-4.678c0-1.166-0.394-1.611-1.045-1.611c-0.686,0-1.217,0.463-1.217,1.713
						v4.576h-3.874v-9.373h3.685v0.873c0.703-0.703,1.628-1.045,2.657-1.045c1.217,0,2.279,0.445,2.931,1.422
						c0.754-0.908,1.851-1.422,3.136-1.422C210.646,252.512,212.258,253.762,212.258,256.711z"/>
				</g>
				<g>
					<path style="fill:#F6DD28;" d="M278.715,259.977H225.71c-1.135,0-2.055-0.92-2.055-2.055v-0.807
						c0-1.135,0.92-2.055,2.055-2.055h53.004c1.135,0,2.055,0.92,2.055,2.055v0.807C280.77,259.057,279.85,259.977,278.715,259.977z
						"/>
				</g>
			</g>
		</g>
	</g>
	<g>
		<g>
			<g>
				<g>
					<g>
						<g>
							<path style="fill:#707D88;" d="M95.667,379.564h-65.36c-0.269,0-0.487-0.219-0.487-0.486v-4.281
								c0-0.268,0.218-0.486,0.487-0.486h65.36c0.269,0,0.487,0.219,0.487,0.486v4.281
								C96.154,379.346,95.936,379.564,95.667,379.564z"/>
						</g>
					</g>
				</g>
				<g>
					<g>
						<path style="fill:#A7B8C1;" d="M32.734,316.092h60.636c1.008,0,1.825,0.818,1.825,1.826v7.449
							c0,1.008-0.817,1.826-1.825,1.826H32.734c-1.008,0-1.825-0.818-1.825-1.826v-7.449
							C30.909,316.91,31.727,316.092,32.734,316.092z"/>
					</g>
				</g>
				<g>
					<g>
						<g>
							<g>
								<g>
									<g>
										<path style="fill:#76C23A;" d="M47.052,268.867c0,0-25.568-5.055-32.703-22.893s18.953-31.217,32.703-21.639
											C61.763,234.584,47.052,268.867,47.052,268.867z"/>
									</g>
								</g>
							</g>
							<g>
								<g>
									<g>
										<path style="fill:#60A523;" d="M62.255,315.73c-0.226,0-0.423-0.166-0.457-0.396
											c-2.449-16.566-12.322-40.404-20.173-57.484c-8.513-18.521-16.548-33.303-16.628-33.451
											c-0.123-0.225-0.04-0.506,0.185-0.627c0.224-0.123,0.505-0.039,0.627,0.186c0.08,0.146,8.13,14.955,16.656,33.506
											c7.876,17.135,17.782,41.061,20.247,57.736c0.038,0.254-0.137,0.488-0.39,0.525
											C62.301,315.729,62.278,315.73,62.255,315.73z"/>
									</g>
								</g>
							</g>
						</g>
						<g>
							<g>
								<g>
									<path style="fill:#60A523;" d="M46.093,267.141c-0.165,0-0.325-0.088-0.408-0.244
										c-11.121-20.713-29.18-35.74-29.361-35.889c-0.197-0.164-0.225-0.455-0.063-0.652s0.454-0.225,0.651-0.063
										c0.183,0.15,18.378,15.287,29.587,36.166c0.121,0.225,0.037,0.506-0.188,0.627
										C46.242,267.123,46.167,267.141,46.093,267.141z"/>
								</g>
							</g>
						</g>
						<g>
							<g>
								<g>
									<path style="fill:#60A523;" d="M46.598,268.623c-0.131,0-0.261-0.055-0.353-0.162c-8.11-9.547-16.416-15.482-21.956-18.779
										c-6.004-3.574-10.144-4.906-10.185-4.92c-0.243-0.076-0.378-0.338-0.301-0.58c0.077-0.244,0.337-0.379,0.581-0.303
										c0.171,0.055,4.259,1.369,10.348,4.99c5.608,3.334,14.015,9.336,22.218,18.992c0.166,0.195,0.142,0.486-0.053,0.652
										C46.81,268.588,46.704,268.623,46.598,268.623z"/>
								</g>
							</g>
						</g>
						<g>
							<g>
								<g>
									<path style="fill:#60A523;" d="M44.348,263.193c-0.193,0-0.373-0.121-0.438-0.313c-6.234-18.297-3.94-40.531-3.917-40.754
										c0.028-0.254,0.254-0.438,0.509-0.41c0.254,0.027,0.438,0.256,0.411,0.51c-0.024,0.221-2.294,22.258,3.872,40.355
										c0.083,0.242-0.046,0.504-0.289,0.588C44.447,263.186,44.397,263.193,44.348,263.193z"/>
								</g>
							</g>
						</g>
						<g>
							<g>
								<g>
									<path style="fill:#60A523;" d="M45.916,266.816c-0.222,0-0.418-0.162-0.456-0.389c-1.908-11.582-0.441-21.029,1.124-26.914
										c1.7-6.393,3.825-9.992,3.915-10.141c0.131-0.221,0.415-0.291,0.634-0.16c0.219,0.131,0.291,0.414,0.161,0.633
										c-0.021,0.037-2.16,3.664-3.825,9.943c-1.536,5.791-2.973,15.088-1.095,26.488c0.042,0.252-0.129,0.49-0.381,0.531
										C45.966,266.813,45.94,266.816,45.916,266.816z"/>
								</g>
							</g>
						</g>
					</g>
					<g>
						<g>
							<g>
								<g>
									<g>
										<path style="fill:#76C23A;" d="M74.023,273.527c0,0,25.822-3.531,34.001-20.916c8.178-17.385-17.072-32.283-31.365-23.537
											C61.368,238.434,74.023,273.527,74.023,273.527z"/>
									</g>
								</g>
							</g>
							<g>
								<g>
									<g>
										<path style="fill:#60A523;" d="M64.228,314.215c-0.001,0-0.003,0-0.005,0c-0.255-0.004-0.46-0.213-0.457-0.469
											c0.102-8.533,1.962-18.252,5.531-28.889c2.85-8.496,6.791-17.596,11.712-27.045c8.376-16.084,16.811-27.771,16.895-27.887
											c0.15-0.207,0.439-0.252,0.646-0.104c0.207,0.15,0.253,0.439,0.103,0.646c-0.084,0.115-8.485,11.758-16.83,27.783
											c-7.69,14.768-16.905,36.387-17.132,55.506C64.688,314.012,64.481,314.215,64.228,314.215z"/>
									</g>
								</g>
							</g>
						</g>
						<g>
							<g>
								<g>
									<path style="fill:#60A523;" d="M75.11,271.861c-0.083,0-0.167-0.021-0.242-0.068c-0.218-0.135-0.286-0.42-0.151-0.637
										c12.425-20.178,31.485-34.213,31.676-34.352c0.206-0.15,0.496-0.105,0.646,0.102c0.15,0.205,0.105,0.496-0.101,0.646
										c-0.189,0.139-19.106,14.07-31.434,34.088C75.417,271.783,75.266,271.861,75.11,271.861z"/>
								</g>
							</g>
						</g>
						<g>
							<g>
								<g>
									<path style="fill:#60A523;" d="M74.519,273.313c-0.115,0-0.23-0.043-0.32-0.129c-0.185-0.176-0.191-0.469-0.015-0.654
										c8.761-9.154,17.508-14.646,23.304-17.645c6.292-3.254,10.451-4.324,10.625-4.367c0.246-0.063,0.499,0.088,0.562,0.336
										c0.063,0.246-0.087,0.498-0.334,0.561c-0.042,0.012-4.253,1.096-10.458,4.309c-5.726,2.965-14.368,8.396-23.029,17.447
										C74.762,273.264,74.641,273.313,74.519,273.313z"/>
								</g>
							</g>
						</g>
						<g>
							<g>
								<g>
									<path style="fill:#60A523;" d="M77.086,268.025c-0.058,0-0.117-0.012-0.175-0.035c-0.236-0.096-0.35-0.367-0.253-0.604
										c7.227-17.701,6.265-39.834,6.254-40.055c-0.012-0.256,0.185-0.473,0.44-0.484c0.252-0.014,0.472,0.184,0.484,0.439
										c0.011,0.223,0.984,22.555-6.322,40.449C77.441,267.916,77.269,268.025,77.086,268.025z"/>
								</g>
							</g>
						</g>
						<g>
							<g>
								<g>
									<path style="fill:#60A523;" d="M75.306,271.547c-0.034,0-0.068-0.004-0.102-0.012c-0.25-0.055-0.406-0.303-0.35-0.553
										c2.55-11.27,1.666-20.635,0.475-26.506c-1.291-6.367-3.211-10.115-3.23-10.152c-0.118-0.227-0.029-0.506,0.198-0.623
										s0.506-0.029,0.624,0.197c0.081,0.154,1.988,3.873,3.308,10.355c1.214,5.967,2.118,15.484-0.471,26.934
										C75.708,271.402,75.518,271.547,75.306,271.547z"/>
								</g>
							</g>
						</g>
					</g>
					<g>
						<g>
							<g>
								<g>
									<g>
										<path style="fill:#76C23A;" d="M64.081,239.889c0,0-21.879-14.162-21.901-33.375c-0.023-19.213,29.165-21.98,38.391-7.99
											C90.44,213.49,64.081,239.889,64.081,239.889z"/>
									</g>
								</g>
							</g>
							<g>
								<g>
									<g>
										<path style="fill:#60A523;" d="M61.022,289.082c-0.035,0-0.071-0.004-0.107-0.012c-0.249-0.059-0.402-0.309-0.344-0.557
											c3.86-16.297,3.516-42.098,2.548-60.869c-1.05-20.359-3.04-37.064-3.06-37.23c-0.031-0.254,0.15-0.484,0.404-0.515
											c0.251-0.029,0.484,0.15,0.515,0.403c0.02,0.168,2.014,16.904,3.065,37.292c0.971,18.834,1.313,44.727-2.571,61.131
											C61.422,288.939,61.232,289.082,61.022,289.082z"/>
									</g>
								</g>
							</g>
						</g>
						<g>
							<g>
								<g>
									<path style="fill:#60A523;" d="M63.999,237.963c-0.232,0-0.432-0.176-0.459-0.41c-2.66-23.359-13.871-44.005-13.983-44.212
										c-0.123-0.223-0.041-0.505,0.183-0.627c0.224-0.124,0.505-0.041,0.628,0.183c0.114,0.207,11.411,21.006,14.092,44.551
										c0.029,0.254-0.154,0.482-0.407,0.512C64.034,237.961,64.016,237.963,63.999,237.963z"/>
								</g>
							</g>
						</g>
						<g>
							<g>
								<g>
									<path style="fill:#60A523;" d="M63.919,239.527c-0.193,0-0.373-0.123-0.438-0.316
										c-3.999-11.871-9.517-20.459-13.441-25.573c-4.254-5.544-7.606-8.314-7.639-8.343c-0.198-0.161-0.227-0.453-0.065-0.65
										c0.162-0.197,0.453-0.227,0.651-0.064c0.139,0.113,3.45,2.848,7.765,8.466c3.975,5.174,9.562,13.862,13.606,25.87
										c0.082,0.242-0.048,0.506-0.291,0.586C64.018,239.52,63.969,239.527,63.919,239.527z"/>
								</g>
							</g>
						</g>
						<g>
							<g>
								<g>
									<path style="fill:#60A523;" d="M63.84,233.65c-0.008,0-0.016-0.002-0.023-0.002c-0.255-0.012-0.452-0.23-0.439-0.484
										c0.984-19.304,11.348-39.109,11.453-39.307c0.12-0.226,0.4-0.312,0.625-0.192c0.226,0.119,0.313,0.398,0.193,0.625
										c-0.104,0.195-10.373,19.826-11.346,38.921C64.29,233.457,64.085,233.65,63.84,233.65z"/>
								</g>
							</g>
						</g>
						<g>
							<g>
								<g>
									<path style="fill:#60A523;" d="M63.957,237.596c-0.033,0-0.066-0.004-0.1-0.012c-0.25-0.055-0.407-0.301-0.353-0.551
										c2.517-11.465,7.392-19.762,11.039-24.704c3.959-5.366,7.279-7.979,7.418-8.089c0.201-0.156,0.492-0.121,0.649,0.08
										c0.157,0.202,0.122,0.492-0.08,0.65c-0.033,0.025-3.378,2.664-7.266,7.938c-3.585,4.866-8.379,13.034-10.856,24.321
										C64.361,237.447,64.169,237.596,63.957,237.596z"/>
								</g>
							</g>
						</g>
					</g>
					<g>
						<g>
							<g>
								<path style="fill:#D34E40;" d="M90.812,286.596l-0.763,2.023l-0.482,1.283l-1.383,3.672l-0.483,1.283l-1.421,3.771
									l-0.481,1.279l-6.095,16.186H46.404l-6.095-16.186l-0.482-1.279l-1.421-3.771l-0.484-1.283l-1.383-3.672l-0.481-1.283
									l-0.763-2.023c-0.523-1.389,0.501-2.869,1.984-2.869h51.548C90.308,283.727,91.333,285.207,90.812,286.596z"/>
							</g>
						</g>
					</g>
					<g>
						<g>
							<g>
								<g>
									<polygon style="fill:#BB4000;" points="90.048,288.619 89.566,289.902 36.54,289.902 36.058,288.619 									"/>
								</g>
							</g>
						</g>
						<g>
							<g>
								<g>
									<polygon style="fill:#BB4000;" points="88.183,293.574 87.7,294.857 38.407,294.857 37.923,293.574 									"/>
								</g>
							</g>
						</g>
						<g>
							<g>
								<g>
									<polygon style="fill:#BB4000;" points="86.278,298.629 85.797,299.908 40.31,299.908 39.828,298.629 									"/>
								</g>
							</g>
						</g>
					</g>
				</g>
				<g>
					<g>
						<g>
							<polygon style="fill:#707D88;" points="54.133,327.193 52.287,333.146 26.583,416 21.559,416 37.86,334.838 39.396,327.193 
															"/>
						</g>
					</g>
				</g>
				<g>
					<g>
						<polygon style="fill:#707D88;" points="104.698,416 99.673,416 73.209,330.695 72.123,327.193 86.858,327.193 87.23,329.049 
							87.232,329.049 						"/>
					</g>
				</g>
				<g>
					<g>
						<g>
							<path style="fill:#A7B8C1;" d="M95.667,368.141h-65.36c-0.269,0-0.487-0.219-0.487-0.488v-4.279
								c0-0.27,0.218-0.486,0.487-0.486h65.36c0.269,0,0.487,0.217,0.487,0.486v4.279C96.154,367.922,95.936,368.141,95.667,368.141
								z"/>
						</g>
					</g>
				</g>
			</g>
		</g>
	</g>
</g>
</svg>
