<?xml version="1.0" encoding="iso-8859-1"?>
<!-- Generator: Adobe Illustrator 16.0.0, SVG Export Plug-In . SVG Version: 6.00 Build 0)  -->
<!DOCTYPE svg PUBLIC "-//W3C//DTD SVG 1.1//EN" "http://www.w3.org/Graphics/SVG/1.1/DTD/svg11.dtd">
<svg version="1.1" id="Layer_1" xmlns="http://www.w3.org/2000/svg" xmlns:xlink="http://www.w3.org/1999/xlink" x="0px" y="0px"
	 width="612px" height="322px" viewBox="0 0 612 322" style="enable-background:new 0 0 612 322;" xml:space="preserve">
<g>
	<g>
		<defs>
			<path id="SVGID_1_" d="M68.912,226.142H52.211C23.494,226.142,0,246.65,0,271.715c0,25.067,23.494,45.575,52.211,45.575h475.248
				c46.5,0,84.545-33.208,84.545-73.798c0-40.588-38.043-73.798-84.545-73.798c-19.66,0-37.443-14.042-37.443-31.204
				c0-17.161,16.086-31.202,35.746-31.202h20.217c20.443,0,37.166-14.599,37.166-32.441c0-17.842-16.723-32.441-37.166-32.441
				h-57.607c-7.961,0-14.471-5.684-14.471-12.629c0-6.948,6.51-12.63,14.471-12.63h9.588c5.494,0,9.988-3.923,9.988-8.716V8.429
				c0-4.793-4.496-8.716-9.988-8.716h-35.941c0,0-10.526,0-23.779,0c-13.252,0-14.729,13.665-48.206,13.665
				c-51.751,0-20.202,0-71.954,0c-7.166,0-13.029,5.12-13.029,11.374v0.001c0,6.256,5.863,11.375,13.029,11.375h12.516
				c10.383,0,18.879,7.416,18.879,16.48c0,9.063-8.496,16.479-18.879,16.479h-18.833c-50.854,0-58.037,11.602-66.944,34.675
				c-8.906,23.073-99.21,24.933-99.21,24.933H78.999c-15.649,0-28.453,11.175-28.453,24.835c0.064,8.878,3.262,19.218,24.257,26.986
				c9.541,3.53,16.052,12.115,16.052,21.738C90.855,215.394,83.964,226.142,68.912,226.142z M525.984,17.146
				c-5.518,0-9.988-3.902-9.988-8.716c0-4.815,4.471-8.717,9.988-8.717c5.514,0,9.984,3.902,9.984,8.717
				C535.969,13.244,531.498,17.146,525.984,17.146z"/>
		</defs>
		<clipPath id="SVGID_2_">
			<use xlink:href="#SVGID_1_"  style="overflow:visible;"/>
		</clipPath>
		<rect y="-0.287" style="opacity:0.3;clip-path:url(#SVGID_2_);fill:#C3D5E0;" width="612.004" height="317.577"/>
	</g>
	<rect x="299.918" y="265.175" style="fill-rule:evenodd;clip-rule:evenodd;fill:#FDA600;" width="92.756" height="11.896"/>
	<rect x="380.92" y="265.175" style="fill-rule:evenodd;clip-rule:evenodd;fill:#FDA600;" width="11.754" height="11.896"/>
	<rect x="369.024" y="265.175" style="fill-rule:evenodd;clip-rule:evenodd;fill:#FFD115;" width="11.896" height="11.896"/>
	<rect x="326.258" y="265.175" style="fill-rule:evenodd;clip-rule:evenodd;fill:#FCA700;" width="42.767" height="11.896"/>
	<rect x="308.273" y="265.175" style="fill-rule:evenodd;clip-rule:evenodd;fill:#EC830E;" width="17.984" height="11.896"/>
	<rect x="304.311" y="277.07" style="fill-rule:evenodd;clip-rule:evenodd;fill:#DF641E;" width="83.834" height="1.134"/>
	<rect x="316.032" y="278.204" style="fill-rule:evenodd;clip-rule:evenodd;fill:#FDA600;" width="92.755" height="11.895"/>
	<rect x="397.033" y="278.204" style="fill-rule:evenodd;clip-rule:evenodd;fill:#FDA600;" width="11.754" height="11.895"/>
	<rect x="385.139" y="278.204" style="fill-rule:evenodd;clip-rule:evenodd;fill:#FFD115;" width="11.895" height="11.895"/>
	<rect x="342.371" y="278.204" style="fill-rule:evenodd;clip-rule:evenodd;fill:#FCA700;" width="42.768" height="11.895"/>
	<rect x="324.387" y="278.204" style="fill-rule:evenodd;clip-rule:evenodd;fill:#EC830E;" width="17.984" height="11.895"/>
	<rect x="320.424" y="290.099" style="fill-rule:evenodd;clip-rule:evenodd;fill:#DF641E;" width="83.834" height="1.134"/>
	<rect x="324.61" y="291.232" style="fill-rule:evenodd;clip-rule:evenodd;fill:#FDA600;" width="92.755" height="11.896"/>
	<rect x="405.611" y="291.232" style="fill-rule:evenodd;clip-rule:evenodd;fill:#FDA600;" width="11.754" height="11.896"/>
	<rect x="393.715" y="291.232" style="fill-rule:evenodd;clip-rule:evenodd;fill:#FFD115;" width="11.896" height="11.896"/>
	<rect x="350.949" y="291.232" style="fill-rule:evenodd;clip-rule:evenodd;fill:#FCA700;" width="42.766" height="11.896"/>
	<rect x="332.965" y="291.232" style="fill-rule:evenodd;clip-rule:evenodd;fill:#EC830E;" width="17.984" height="11.896"/>
	<rect x="329.002" y="303.128" style="fill-rule:evenodd;clip-rule:evenodd;fill:#DF641E;" width="83.834" height="1.133"/>
	<rect x="317.392" y="304.261" style="fill-rule:evenodd;clip-rule:evenodd;fill:#FDA600;" width="92.755" height="11.896"/>
	<rect x="398.393" y="304.261" style="fill-rule:evenodd;clip-rule:evenodd;fill:#FDA600;" width="11.754" height="11.896"/>
	<rect x="386.498" y="304.261" style="fill-rule:evenodd;clip-rule:evenodd;fill:#FFD115;" width="11.895" height="11.896"/>
	<rect x="343.731" y="304.261" style="fill-rule:evenodd;clip-rule:evenodd;fill:#FCA700;" width="42.767" height="11.896"/>
	<rect x="325.746" y="304.261" style="fill-rule:evenodd;clip-rule:evenodd;fill:#EC830E;" width="17.985" height="11.896"/>
	<rect x="321.783" y="316.156" style="fill-rule:evenodd;clip-rule:evenodd;fill:#DF641E;" width="83.834" height="1.134"/>
	<rect x="397.302" y="57.989" style="fill-rule:evenodd;clip-rule:evenodd;fill:#3C6D0C;" width="112.337" height="174.638"/>
	
		<rect x="397.302" y="57.989" style="fill:none;stroke:#102B6E;stroke-width:0.5;stroke-miterlimit:22.9256;" width="112.337" height="174.638"/>
	<polygon style="fill-rule:evenodd;clip-rule:evenodd;fill:#C1E59E;" points="386.209,219.115 496.307,216.439 508.936,65.958 
		398.887,65.958 	"/>
	<path style="fill-rule:evenodd;clip-rule:evenodd;fill:#FDFDFD;" d="M396.863,57.192c-6.432,57.729-20.412,137.719-29.976,165.243
		c38.677,0.517,77.558,0.517,116.03,0.517c8.482-42.838,18.777-120.25,26.939-165.564L396.863,57.192z"/>
	<path style="fill-rule:evenodd;clip-rule:evenodd;fill:#76C23A;" d="M108.955,128.117c-1.961-0.182-4.592,0.422-9.102,3.407
		c-6.789,4.492-6.92,6.722-13.84,4.349c-6.921-2.373-13.445-7.71-16.609-3.559c-1.497,1.964-2.826,7.626-1.308,12.234
		c1.691,5.134,6.488,9.325,9.613,13.075c5.93,7.117,4.745,8.304,3.361,13.643c-9.58,36.961-98.309,142.841,4.371,147.032
		c11.156,0.454,19.281-0.326,23.514-0.467c8.405,0.28,33.114,0.89,40.239-0.779c70.97-16.619-3.468-111.499-12.354-145.786
		c-1.384-5.338-2.569-6.525,3.36-13.643c3.125-3.75,7.923-7.941,9.613-13.075c1.518-4.608,0.188-10.271-1.308-12.234
		c-3.164-4.151-9.688,1.186-16.609,3.559s-7.052,0.144-13.841-4.349C113.546,128.539,110.915,127.936,108.955,128.117"/>
	<path style="fill-rule:evenodd;clip-rule:evenodd;fill:#60A523;" d="M68.302,134.56c-0.898,2.639-1.322,6.599-0.206,9.989
		c1.691,5.134,6.488,9.325,9.613,13.075c5.93,7.117,4.744,8.304,3.361,13.643c-9.14,35.26-89.603,132.591-7.842,145.112
		c-17.412-21.528-17.399-34.184-11.476-57.203c6.18-24.017,18.88-58.454,29.074-83.612c0,0,1.66-0.775,0.475-8.248
		s-19.096-21.824-22.061-28.584C68.605,137.286,68.335,135.879,68.302,134.56"/>
	<path style="fill-rule:evenodd;clip-rule:evenodd;fill:#9ED86C;" d="M109.184,207.771v-7.002h7.835v6.835
		c8.765,0.973,14.489,5.154,17.171,12.516l-12.754,3.988c-1.306-3.445-3.959-5.168-7.96-5.168c-3.362,0-5.042,1.084-5.042,3.251
		c0,0.791,0.291,1.458,0.861,2.014c0.569,0.556,2.139,1.111,4.723,1.682c5.891,1.264,10.113,2.402,12.67,3.417
		c2.556,1.028,4.682,2.751,6.376,5.182c1.695,2.431,2.542,5.293,2.542,8.613c0,4.639-1.652,8.529-4.945,11.669
		c-3.307,3.14-7.849,5.029-13.642,5.682v7.001h-7.835v-7.001c-9.809-1.166-15.977-6.349-18.505-15.518l14.253-2.652
		c1.223,4.167,4.293,6.251,9.225,6.251c3.848,0,5.779-1.057,5.779-3.167c0-1.112-0.444-1.987-1.348-2.599
		c-0.889-0.625-2.486-1.167-4.765-1.64c-8.96-1.805-14.643-4.125-17.046-6.945c-2.402-2.82-3.598-6.071-3.598-9.724
		c0-4.043,1.32-7.628,3.945-10.767C99.764,210.563,103.779,208.591,109.184,207.771"/>
	<rect x="76.884" y="164.41" style="fill-rule:evenodd;clip-rule:evenodd;fill:#FDA600;" width="61.38" height="11.153"/>
	<rect x="130.485" y="164.41" style="fill-rule:evenodd;clip-rule:evenodd;fill:#FDA600;" width="7.778" height="11.153"/>
	<rect x="122.613" y="164.41" style="fill-rule:evenodd;clip-rule:evenodd;fill:#FFD115;" width="7.872" height="11.153"/>
	<rect x="94.313" y="164.41" style="fill-rule:evenodd;clip-rule:evenodd;fill:#FCA700;" width="28.3" height="11.153"/>
	<rect x="79.79" y="175.563" style="fill-rule:evenodd;clip-rule:evenodd;fill:#DF641E;" width="55.476" height="1.063"/>
	<path style="fill-rule:evenodd;clip-rule:evenodd;fill:#76C23A;" d="M234.918,26.105c-3.012-0.279-7.052,0.649-13.979,5.233
		c-10.43,6.901-10.631,10.325-21.26,6.68c-10.631-3.645-20.652-11.842-25.513-5.465c-2.298,3.016-4.341,11.712-2.009,18.792
		c2.598,7.886,9.967,14.324,14.766,20.083c9.109,10.932,7.288,12.755,5.162,20.955c-14.715,56.772-151,219.402,6.715,225.841
		c17.135,0.698,29.615-0.5,36.117-0.717c12.91,0.43,50.863,1.367,61.807-1.197c109.01-25.526-5.326-171.262-18.975-223.927
		c-2.125-8.199-3.947-10.023,5.162-20.955c4.799-5.759,12.169-12.197,14.766-20.083c2.332-7.079,0.289-15.775-2.008-18.792
		c-4.861-6.376-14.883,1.821-25.513,5.465s-10.831,0.221-21.261-6.68C241.97,26.754,237.928,25.827,234.918,26.105"/>
	<path style="fill-rule:evenodd;clip-rule:evenodd;fill:#60A523;" d="M172.475,36.001c-1.379,4.053-2.031,10.136-0.316,15.344
		c2.598,7.886,9.967,14.324,14.766,20.083c9.109,10.932,7.288,12.756,5.163,20.955c-14.038,54.16-137.63,203.66-12.044,222.893
		c-26.745-33.067-26.725-52.507-17.628-87.864c9.493-36.89,28.999-89.785,44.657-128.429c0,0,2.551-1.191,0.729-12.668
		c-1.821-11.478-29.332-33.521-33.887-43.905C172.941,40.188,172.527,38.028,172.475,36.001"/>
	<path style="fill-rule:evenodd;clip-rule:evenodd;fill:#9ED86C;" d="M235.269,149.704v-10.755h12.034v10.498
		c13.465,1.494,22.256,7.917,26.374,19.226l-19.588,6.124c-2.007-5.292-6.081-7.938-12.228-7.938c-5.163,0-7.745,1.664-7.745,4.993
		c0,1.217,0.448,2.24,1.323,3.094s3.285,1.707,7.254,2.582c9.048,1.942,15.535,3.691,19.461,5.249
		c3.926,1.579,7.191,4.226,9.794,7.959c2.604,3.735,3.905,8.13,3.905,13.23c0,7.126-2.539,13.101-7.597,17.923
		c-5.079,4.822-12.056,7.726-20.954,8.728v10.754h-12.034v-10.754c-15.064-1.792-24.54-9.751-28.423-23.834l21.894-4.076
		c1.877,6.401,6.593,9.603,14.169,9.603c5.91,0,8.876-1.621,8.876-4.865c0-1.707-0.684-3.052-2.069-3.99
		c-1.366-0.96-3.82-1.792-7.319-2.518c-13.763-2.774-22.491-6.337-26.182-10.67c-3.692-4.331-5.526-9.324-5.526-14.936
		c0-6.209,2.026-11.715,6.059-16.537C220.801,153.993,226.967,150.963,235.269,149.704"/>
	<rect x="171.833" y="261.167" style="fill-rule:evenodd;clip-rule:evenodd;fill:#D3D3D3;" width="109.472" height="56.123"/>
	<path style="fill-rule:evenodd;clip-rule:evenodd;fill:#A7B8C1;" d="M271.781,277.932c-4.442-0.984-7.873-4.579-8.656-9.057
		h-72.904c-0.784,4.478-4.214,8.072-8.656,9.057v22.598c4.442,0.985,7.872,4.579,8.656,9.058h72.904
		c0.783-4.479,4.214-8.072,8.656-9.058V277.932z M276.734,268.772v40.915c0,2.68-2.174,4.853-4.854,4.853h-90.416
		c-2.68,0-4.854-2.173-4.854-4.853v-40.915c0-2.679,2.174-4.852,4.854-4.852h90.416
		C274.561,263.921,276.734,266.094,276.734,268.772z"/>
	<path style="fill-rule:evenodd;clip-rule:evenodd;fill:#8BB7D0;" d="M225.115,273.418c8.525,0,15.438,6.911,15.438,15.437
		s-6.912,15.437-15.438,15.437s-15.437-6.911-15.437-15.437S216.59,273.418,225.115,273.418"/>
	
		<rect x="158.715" y="246.956" transform="matrix(-0.9813 0.1927 -0.1927 -0.9813 475.893 503.7561)" style="fill-rule:evenodd;clip-rule:evenodd;fill:#D3D3D3;" width="109.473" height="56.124"/>
	<path style="fill-rule:evenodd;clip-rule:evenodd;fill:#A7B8C1;" d="M255.641,255.222c-4.549-0.109-8.607-2.977-10.24-7.22
		l-71.537,14.047c0.094,4.546-2.58,8.733-6.749,10.556l4.354,22.174c4.549,0.111,8.606,2.977,10.238,7.221l71.539-14.048
		c-0.095-4.545,2.579-8.733,6.748-10.555L255.641,255.222z M258.736,245.28l7.883,40.148c0.516,2.629-1.198,5.18-3.827,5.696
		l-88.723,17.422c-2.628,0.516-5.181-1.198-5.697-3.827l-7.884-40.147c-0.516-2.629,1.199-5.181,3.828-5.696l88.723-17.422
		C255.668,240.938,258.22,242.651,258.736,245.28z"/>
	<path style="fill-rule:evenodd;clip-rule:evenodd;fill:#8BB7D0;" d="M208.98,259.784c8.365-1.643,16.479,3.807,18.121,12.173
		s-3.807,16.479-12.174,18.122c-8.365,1.643-16.479-3.807-18.121-12.174C195.164,269.54,200.613,261.427,208.98,259.784"/>
	
		<rect x="153.907" y="236.25" transform="matrix(-0.9813 0.1927 -0.1927 -0.9813 464.3028 483.4694)" style="fill-rule:evenodd;clip-rule:evenodd;fill:#D3D3D3;" width="109.471" height="56.123"/>
	<path style="fill-rule:evenodd;clip-rule:evenodd;fill:#A7B8C1;" d="M250.83,244.515c-4.549-0.109-8.606-2.976-10.238-7.219
		l-71.539,14.047c0.094,4.545-2.579,8.733-6.748,10.556l4.354,22.174c4.549,0.11,8.607,2.977,10.24,7.221l71.537-14.048
		c-0.094-4.546,2.58-8.733,6.749-10.556L250.83,244.515z M253.926,234.574l7.884,40.147c0.517,2.63-1.198,5.181-3.827,5.697
		l-88.723,17.422c-2.629,0.516-5.181-1.198-5.697-3.827l-7.883-40.148c-0.517-2.629,1.197-5.18,3.827-5.696l88.722-17.422
		C250.857,230.231,253.41,231.945,253.926,234.574z"/>
	<path style="fill-rule:evenodd;clip-rule:evenodd;fill:#A7B8C1;" d="M204.17,249.077c8.365-1.643,16.479,3.808,18.122,12.174
		c1.642,8.365-3.808,16.479-12.175,18.121c-8.365,1.644-16.479-3.807-18.121-12.173S195.804,250.72,204.17,249.077"/>
	<g>
		<defs>
			<path id="SVGID_3_" d="M481.08,161.229l3.473-19.971l0.516-2.969l2.879-16.55l0.584-3.369l3.311-19.043l4.064-20.804
				c0.467-2.385-0.881-4.443-3.025-5.072c-0.486-0.142-1.016-0.212-1.578-0.197l-0.043,0.002l-1.607,0.045l-36.669,1.013
				l-38.317,1.059c-3.053,0.084-5.961,2.643-6.512,5.752l-7.194,40.615l-6.867,39.489c-0.525,3.023,1.499,5.488,4.526,5.488h37.998
				h38.008c0.025,0,0.053,0,0.08,0C477.703,166.675,480.557,164.228,481.08,161.229"/>
		</defs>
		<clipPath id="SVGID_4_">
			<use xlink:href="#SVGID_3_"  style="overflow:visible;"/>
		</clipPath>
		<rect x="393.567" y="73.24" style="clip-path:url(#SVGID_4_);fill:#C5DEEA;" width="102.806" height="93.478"/>
	</g>
	<polygon style="fill-rule:evenodd;clip-rule:evenodd;fill:#76C23A;" points="408.452,111.362 437.623,93.023 442.243,100.532 
		470.094,82.14 468.646,79.069 478.055,79.607 474.26,87.686 472.102,84.714 440.943,105.441 436.143,97.571 410.186,114.106 	"/>
	<path style="fill-rule:evenodd;clip-rule:evenodd;fill:#44494C;" d="M374.945,318.801h-31.316c-1.482,0-2.688-1.104-2.875-2.512
		c-0.025-0.199-0.034-0.403-0.018-0.61l1.272-16.449c0,0,1.305-0.601,3.128-1.032c1.082-0.256,1.995-1.042,2.322-2.107
		c0.023-0.078,0.043-0.157,0.064-0.238c0.719-3.165,5.282-4.172,6.125-1.079c0.11,0.399,0.204,0.789,0.285,1.162
		c0.021,0.092,0.041,0.188,0.057,0.276c0.136,0.665,0.234,1.277,0.303,1.813l0.006,0.034c0.171,1.364,0.156,2.237,0.156,2.237
		c0.414,0.525,0.814,1.042,1.201,1.553c0.2,0.254,0.39,0.507,0.58,0.754c0.411,0.535,0.812,1.056,1.205,1.557
		c0.182,0.235,0.362,0.463,0.545,0.688c0.434,0.544,0.861,1.059,1.291,1.539c0.193,0.218,0.386,0.431,0.584,0.636
		c1.615,1.697,3.243,2.858,5.168,3.126c3.396,0.465,8.943,0.84,11.623,5.823c0.059,0.104,0.102,0.21,0.135,0.317
		C377.182,317.492,376.277,318.801,374.945,318.801"/>
	<path style="fill:#343851;" d="M374.945,318.8h-31.316c-1.482,0-2.688-1.104-2.875-2.513h36.033
		C377.182,317.491,376.277,318.8,374.945,318.8"/>
	<path style="fill-rule:evenodd;clip-rule:evenodd;fill:#707D88;" d="M306.164,189.392v19.273c0,21.366,3.77,68.288,5.136,94.218
		l14.341-0.28l11.77-93.52l22.171,3.174l0.634-25.572l0,0c-1.004-88.403-46.658-67.925-42.705-17.904
		C317.945,174.286,304.053,183.35,306.164,189.392"/>
	<polygon style="fill-rule:evenodd;clip-rule:evenodd;fill:#707D88;" points="360.02,194.584 332.182,194.584 341.719,302.991 
		356.837,303.383 	"/>
	<path style="fill-rule:evenodd;clip-rule:evenodd;fill:#44494C;" d="M330.649,317.261c-0.259,4.569-16.456,2.995-19.046,1.624
		c-1.001-0.529-1.42-1.552-1.498-2.787c-0.127-1.972,0.609-4.494,1.246-6.47c1.037-3.22,0.894-3.16,1.613-5.36
		c0,0-0.186-3.577,5.121-4.944c5.308-1.368,7.254,7.542,8.16,9.256c0.829,1.57,4.055,3.718,4.387,7.581
		C330.665,316.513,330.671,316.879,330.649,317.261"/>
	<path style="fill:#343851;" d="M330.649,317.261c-0.259,4.569-16.456,2.995-19.046,1.624c-1.001-0.529-1.42-1.552-1.498-2.787
		c1.702,0.856,4.701,1.924,9.18,1.995c5.495,0.087,9.457-0.895,11.348-1.933C330.665,316.513,330.671,316.879,330.649,317.261"/>
	<path style="fill-rule:evenodd;clip-rule:evenodd;fill:#D34E40;" d="M343.146,131.774c4.918,10.795,11.018,23.164,25.095,25.261
		c11.417,1.701,28.128-19.791,29.771-23.298c1.643-3.506-4.598-12.663-6.611-11.604s-18.564,13.839-20.076,13.741
		c-1.766-0.113-7.793-19.28-18.726-25.589C350.893,109.303,341.031,127.132,343.146,131.774"/>
	<path style="fill-rule:evenodd;clip-rule:evenodd;fill:#D34E40;" d="M315.89,105.153c-6.944,0-13.924,3.522-16.964,8.056
		c-4.688,6.989,9.182,50.318,5.272,85.828c19.744,0,38.69,0,58.435,0c0.357-14.698-1.474-59.237-4.795-84.149
		C350.562,103.438,327.074,105.153,315.89,105.153"/>
	<path style="fill-rule:evenodd;clip-rule:evenodd;fill:#C1E59E;" d="M337.885,105.673c8.604,4.653,10.588,40.334,12.959,93.381
		h-21.847c-0.938-52.09-10.737-84.99-14-93.882C322.012,104.709,329.295,104.336,337.885,105.673"/>
	<path style="fill-rule:evenodd;clip-rule:evenodd;fill:#C4E8FA;" d="M337.885,105.673c8.605,4.653,10.373,32.577,12.743,85.623
		h-2.519c0.82-16.897-1.811-79.123-11.103-85.755C337.297,105.583,337.589,105.627,337.885,105.673"/>
	<path style="fill-rule:evenodd;clip-rule:evenodd;fill:#F7AAAC;" d="M342.186,97.411c-2.199,2.641-4.734,4.771-7.343,5.349v2.843
		l0.507,0.685c1.857,3.229,0.003,8.771-3.072,10.352c-4.813-1.726-10.475-5.034-11.781-11.013l0.857-0.796l1.172-0.82l0.574-7.085
		c-0.363-0.107-2.686-2.251-3.425-2.682s-1.552-2.238-1.253-3.877c0.3-1.64,2.682-0.531,2.682-0.531h0.001
		c-2.067-4.859-4.713-9.05,0.612-11.751c5.326-2.7,16.066-2.498,16.066-2.498l6.656-0.7c-1.278,1.943-1.061,8.406-0.511,13.202
		C344.42,92.389,345.137,93.866,342.186,97.411"/>
	<path style="fill-rule:evenodd;clip-rule:evenodd;fill:#EA8287;" d="M325.803,98.454c0,0,2.092,6.786,4.826,7.993
		c2.736,1.208,3.117,1.053,4.214,1.175v-4.862C332.798,102.617,330.085,101.926,325.803,98.454"/>
	<path style="fill-rule:evenodd;clip-rule:evenodd;fill:#D34E40;" d="M311.541,123.401c2.535-5.219,2.05-9.895-2.814-13.137l0,0
		c-4.863-3.243-9.012,0.713-11.547,5.932c-4.979,10.242-8.625,33.078-3.355,39.579c4.305,5.312,30.455,5.068,34.074,4.096
		c0.846-0.228,6.871-5.993,5.191-10.911c-0.179-0.525-1.258-0.74-2.105-0.746c-4.93-0.03-20.746-2.009-22.936-3.189
		C304.605,143.169,309.762,127.06,311.541,123.401"/>
	<path style="fill-rule:evenodd;clip-rule:evenodd;fill:#D3D3D3;" d="M331.232,149.388c-1.963,1.173-3.623,3.763-4.506,6.381
		c-0.994,2.946-1.391,4.421,1.926,3.365c2.322-0.738,5.316-1.731,5.316-1.731c2.475-2.806,3.298-6.424,2.651-8.735L331.232,149.388z
		"/>
	<path style="fill-rule:evenodd;clip-rule:evenodd;fill:#D3D3D3;" d="M391.972,123.374c-0.527,3.313,2.562,8.657,4.909,9.605
		c0.262-0.467,1.832-2.489,2.871-4.043c2.233-3.339-3.037-10.312-4.583-8.765L391.972,123.374z"/>
	<path style="fill-rule:evenodd;clip-rule:evenodd;fill:#F7AAAC;" d="M398.185,118.133c0.329-1.522,1.712-7.539,2.835-8.552
		c0.572-0.516,0.709-0.282,0.963,0.046c0.223,0.286,0.412,1.066,0.35,1.599c-0.133,1.116-0.219,2.133-0.389,2.734
		c3.389-2.948,6.881-5.531,9.461-8.211c1.049-1.088,2.777-0.91,1.741,1.204c-0.772,1.579-4.901,5.752-4.901,5.752
		c2.169,4.025,0.611,6.706,0.457,6.761c-0.061,0.022-3.541,2.752-4.15,3.2c-2.398,1.174-3.521,3.338-5.214,5.098
		c-0.937-0.718-3.29-3.454-3.625-6.822L398.185,118.133z"/>
	<polygon style="fill-rule:evenodd;clip-rule:evenodd;fill:#EC830E;" points="376.996,131.863 350.313,131.863 340.238,165.617 
		366.924,165.617 	"/>
	<path style="fill-rule:evenodd;clip-rule:evenodd;fill:#F7AAAC;" d="M336.331,149.171l3.737-0.615l4.27-2.833
		c0,0,1.695-1.874,2.317-1.608c0.118,0.051-0.999,3.544-0.867,3.645c1.113,0.857,8.261-0.241,8.224-0.117
		c-3.422,11.438-10.92,5.905-19.086,8.502c-1.203,0.383-1.435,0.245-1.362-0.791C333.676,153.723,334.623,151.057,336.331,149.171"
		/>
	<path style="fill-rule:evenodd;clip-rule:evenodd;fill:#FFFFFF;" d="M370.124,130.911h-2.985c0.005-0.023,0.008-0.046,0.008-0.068
		c0-0.437-0.898-0.789-2.006-0.789s-2.006,0.353-2.006,0.789c0,0.022,0.002,0.045,0.008,0.068h-3.516l-0.743,2.477h10.298
		L370.124,130.911z"/>
	<path style="fill-rule:evenodd;clip-rule:evenodd;fill:#44494C;" d="M338.742,82.755c-7.326,0.729-10.602-3.406-13.5-1.301
		c-1.477,2.092-1.406,5.111,0.258,10.153c0.365,1.22,0.932,2.153-0.932,1.02c-0.855-0.521-2.276-1.272-2.83-0.92
		c-1.233,0.785-0.881,2.768-0.05,3.488c0.372,0.321,1.087,0.82,1.087,0.82s-2.373,0.614-4.551-1.142
		c-2.178-1.757-7.137-6.631-6.197-14.159c1.164-9.326,6.429-8.874,14.51-13.556c5.887-3.412,3.198-2.061,4.922-2.885
		C347.227,56.729,353.439,78.065,338.742,82.755"/>
	<path style="fill-rule:evenodd;clip-rule:evenodd;fill:#3C6D0C;" d="M6.512,317.29h602.617c1.223,0,2.223,1,2.223,2.222l0,0
		c0,1.223-1,2.223-2.223,2.223H6.512c-1.222,0-2.222-1-2.222-2.223l0,0C4.29,318.29,5.29,317.29,6.512,317.29"/>
	<rect x="76.998" y="278.204" style="fill-rule:evenodd;clip-rule:evenodd;fill:#FDA600;" width="92.754" height="11.895"/>
	<rect x="157.998" y="278.204" style="fill-rule:evenodd;clip-rule:evenodd;fill:#FDA600;" width="11.754" height="11.895"/>
	<rect x="146.104" y="278.204" style="fill-rule:evenodd;clip-rule:evenodd;fill:#FFD115;" width="11.895" height="11.895"/>
	<rect x="103.338" y="278.204" style="fill-rule:evenodd;clip-rule:evenodd;fill:#FCA700;" width="42.766" height="11.895"/>
	<rect x="85.353" y="278.204" style="fill-rule:evenodd;clip-rule:evenodd;fill:#EC830E;" width="17.985" height="11.895"/>
	<rect x="81.391" y="290.099" style="fill-rule:evenodd;clip-rule:evenodd;fill:#DF641E;" width="83.833" height="1.134"/>
	<rect x="88.417" y="291.232" style="fill-rule:evenodd;clip-rule:evenodd;fill:#FDA600;" width="92.755" height="11.896"/>
	<rect x="169.418" y="291.232" style="fill-rule:evenodd;clip-rule:evenodd;fill:#FDA600;" width="11.754" height="11.896"/>
	<rect x="157.523" y="291.232" style="fill-rule:evenodd;clip-rule:evenodd;fill:#FFD115;" width="11.895" height="11.896"/>
	<rect x="114.757" y="291.232" style="fill-rule:evenodd;clip-rule:evenodd;fill:#FCA700;" width="42.767" height="11.896"/>
	<rect x="96.771" y="291.232" style="fill-rule:evenodd;clip-rule:evenodd;fill:#EC830E;" width="17.985" height="11.896"/>
	<rect x="92.81" y="303.128" style="fill-rule:evenodd;clip-rule:evenodd;fill:#DF641E;" width="83.833" height="1.133"/>
	<rect x="82.293" y="304.261" style="fill-rule:evenodd;clip-rule:evenodd;fill:#FDA600;" width="92.754" height="11.896"/>
	<rect x="163.293" y="304.261" style="fill-rule:evenodd;clip-rule:evenodd;fill:#FDA600;" width="11.754" height="11.896"/>
	<rect x="151.398" y="304.261" style="fill-rule:evenodd;clip-rule:evenodd;fill:#FFD115;" width="11.895" height="11.896"/>
	<rect x="108.632" y="304.261" style="fill-rule:evenodd;clip-rule:evenodd;fill:#FCA700;" width="42.767" height="11.896"/>
	<rect x="90.646" y="304.261" style="fill-rule:evenodd;clip-rule:evenodd;fill:#EC830E;" width="17.985" height="11.896"/>
	<rect x="86.684" y="316.156" style="fill-rule:evenodd;clip-rule:evenodd;fill:#DF641E;" width="83.834" height="1.134"/>
	<rect x="153.585" y="304.261" style="fill-rule:evenodd;clip-rule:evenodd;fill:#FDA600;" width="92.755" height="11.896"/>
	<rect x="234.586" y="304.261" style="fill-rule:evenodd;clip-rule:evenodd;fill:#FDA600;" width="11.754" height="11.896"/>
	<rect x="222.691" y="304.261" style="fill-rule:evenodd;clip-rule:evenodd;fill:#FFD115;" width="11.895" height="11.896"/>
	<rect x="179.925" y="304.261" style="fill-rule:evenodd;clip-rule:evenodd;fill:#FCA700;" width="42.767" height="11.896"/>
	<rect x="161.939" y="304.261" style="fill-rule:evenodd;clip-rule:evenodd;fill:#EC830E;" width="17.985" height="11.896"/>
	<rect x="157.978" y="316.156" style="fill-rule:evenodd;clip-rule:evenodd;fill:#DF641E;" width="83.833" height="1.134"/>
	<rect x="185.656" y="81.852" style="fill-rule:evenodd;clip-rule:evenodd;fill:#FDA600;" width="94.279" height="17.132"/>
	<rect x="267.988" y="81.852" style="fill-rule:evenodd;clip-rule:evenodd;fill:#FDA600;" width="11.947" height="17.132"/>
	<rect x="255.898" y="81.852" style="fill-rule:evenodd;clip-rule:evenodd;fill:#FFD115;" width="12.09" height="17.132"/>
	<rect x="212.428" y="81.852" style="fill-rule:evenodd;clip-rule:evenodd;fill:#FCA700;" width="43.471" height="17.132"/>
	<rect x="190.12" y="98.983" style="fill-rule:evenodd;clip-rule:evenodd;fill:#DF641E;" width="85.212" height="1.632"/>
	<rect x="404.918" y="232.627" style="fill-rule:evenodd;clip-rule:evenodd;fill:#3C6D0C;" width="5.83" height="82.627"/>
	<rect x="496.039" y="232.627" style="fill-rule:evenodd;clip-rule:evenodd;fill:#3C6D0C;" width="5.83" height="82.627"/>
	<rect x="393.623" y="315.254" style="fill-rule:evenodd;clip-rule:evenodd;fill:#3C6D0C;" width="118.234" height="2.036"/>
	<rect x="76.998" y="239.118" style="fill-rule:evenodd;clip-rule:evenodd;fill:#FDA600;" width="92.754" height="11.895"/>
	<rect x="157.998" y="239.118" style="fill-rule:evenodd;clip-rule:evenodd;fill:#FDA600;" width="11.754" height="11.895"/>
	<rect x="146.104" y="239.118" style="fill-rule:evenodd;clip-rule:evenodd;fill:#FFD115;" width="11.895" height="11.895"/>
	<rect x="103.338" y="239.118" style="fill-rule:evenodd;clip-rule:evenodd;fill:#FCA700;" width="42.766" height="11.895"/>
	<rect x="85.353" y="239.118" style="fill-rule:evenodd;clip-rule:evenodd;fill:#EC830E;" width="17.985" height="11.895"/>
	<rect x="81.391" y="251.013" style="fill-rule:evenodd;clip-rule:evenodd;fill:#DF641E;" width="83.833" height="1.134"/>
	<rect x="88.417" y="252.146" style="fill-rule:evenodd;clip-rule:evenodd;fill:#FDA600;" width="92.755" height="11.896"/>
	<rect x="169.418" y="252.146" style="fill-rule:evenodd;clip-rule:evenodd;fill:#FDA600;" width="11.754" height="11.896"/>
	<rect x="157.523" y="252.146" style="fill-rule:evenodd;clip-rule:evenodd;fill:#FFD115;" width="11.895" height="11.896"/>
	<rect x="114.757" y="252.146" style="fill-rule:evenodd;clip-rule:evenodd;fill:#FCA700;" width="42.767" height="11.896"/>
	<rect x="96.771" y="252.146" style="fill-rule:evenodd;clip-rule:evenodd;fill:#EC830E;" width="17.985" height="11.896"/>
	<rect x="92.81" y="264.042" style="fill-rule:evenodd;clip-rule:evenodd;fill:#DF641E;" width="83.833" height="1.133"/>
	<rect x="82.293" y="265.175" style="fill-rule:evenodd;clip-rule:evenodd;fill:#FDA600;" width="92.754" height="11.896"/>
	<rect x="163.293" y="265.175" style="fill-rule:evenodd;clip-rule:evenodd;fill:#FDA600;" width="11.754" height="11.896"/>
	<rect x="151.398" y="265.175" style="fill-rule:evenodd;clip-rule:evenodd;fill:#FFD115;" width="11.895" height="11.896"/>
	<rect x="108.632" y="265.175" style="fill-rule:evenodd;clip-rule:evenodd;fill:#FCA700;" width="42.767" height="11.896"/>
	<rect x="90.646" y="265.175" style="fill-rule:evenodd;clip-rule:evenodd;fill:#EC830E;" width="17.985" height="11.896"/>
	<rect x="86.684" y="277.07" style="fill-rule:evenodd;clip-rule:evenodd;fill:#DF641E;" width="83.834" height="1.134"/>
	<path style="fill:#E58927;" d="M519.031,286.775c-3.449-20.463,10.342-39.849,30.805-43.299s39.85,10.341,43.299,30.805
		c3.451,20.463-10.34,39.848-30.803,43.298C541.867,321.03,522.482,307.238,519.031,286.775"/>
	<path style="fill:#FFEF95;" d="M516.393,284.52c-3.449-20.464,10.342-39.849,30.805-43.299
		c20.463-3.451,39.85,10.341,43.299,30.804c3.451,20.463-10.342,39.849-30.805,43.299
		C539.229,318.774,519.844,304.982,516.393,284.52"/>
	<path style="fill:#FBCA0D;" d="M517.777,285.562c-3.451-20.463,10.342-39.849,30.805-43.299s39.848,10.341,43.299,30.805
		c3.451,20.463-10.342,39.848-30.805,43.299C540.613,319.816,521.229,306.025,517.777,285.562"/>
	<path style="fill:#FFD915;" d="M517.777,285.563c-0.018-0.108-0.033-0.216-0.051-0.323l74.096-12.493
		c0.02,0.107,0.041,0.214,0.059,0.321c3.451,20.463-10.342,39.848-30.805,43.299C540.613,319.816,521.229,306.025,517.777,285.563"
		/>
	<circle style="fill:#FCA700;" cx="554.828" cy="279.314" r="31.889"/>
	<circle style="fill:none;stroke:#FCA700;stroke-width:0.216;stroke-miterlimit:10;" cx="554.828" cy="279.314" r="31.889"/>
	<path style="fill:#EC830E;" d="M566.756,249.702c7.48,6.046,11.584,13.613,12.635,19.849c5.066,30.044-22.377,41.584-48.209,31.133
		c7.059,7.782,17.813,11.916,28.943,10.039c17.367-2.929,29.07-19.381,26.143-36.748
		C584.357,262.641,576.684,253.719,566.756,249.702"/>
	<path style="fill:#FFD915;" d="M529.377,286.565c-2.584-15.331,7.748-29.854,23.078-32.439c8.961-1.51,17.645,1.394,23.83,7.127
		c-6.195-7.513-16.125-11.6-26.416-9.864c-15.332,2.585-25.664,17.108-23.078,32.438c1.074,6.37,4.211,11.875,8.607,15.951
		C532.365,296.101,530.227,291.603,529.377,286.565"/>
	<rect x="452.291" y="278.204" style="fill-rule:evenodd;clip-rule:evenodd;fill:#FDA600;" width="92.754" height="11.895"/>
	<rect x="533.291" y="278.204" style="fill-rule:evenodd;clip-rule:evenodd;fill:#FDA600;" width="11.754" height="11.895"/>
	<rect x="521.396" y="278.204" style="fill-rule:evenodd;clip-rule:evenodd;fill:#FFD115;" width="11.895" height="11.895"/>
	<rect x="478.629" y="278.204" style="fill-rule:evenodd;clip-rule:evenodd;fill:#FCA700;" width="42.768" height="11.895"/>
	<rect x="460.645" y="278.204" style="fill-rule:evenodd;clip-rule:evenodd;fill:#EC830E;" width="17.984" height="11.895"/>
	<rect x="456.682" y="290.099" style="fill-rule:evenodd;clip-rule:evenodd;fill:#DF641E;" width="83.834" height="1.134"/>
	<rect x="463.709" y="291.232" style="fill-rule:evenodd;clip-rule:evenodd;fill:#FDA600;" width="92.756" height="11.896"/>
	<rect x="544.711" y="291.232" style="fill-rule:evenodd;clip-rule:evenodd;fill:#FDA600;" width="11.754" height="11.896"/>
	<rect x="532.816" y="291.232" style="fill-rule:evenodd;clip-rule:evenodd;fill:#FFD115;" width="11.895" height="11.896"/>
	<rect x="490.049" y="291.232" style="fill-rule:evenodd;clip-rule:evenodd;fill:#FCA700;" width="42.768" height="11.896"/>
	<rect x="472.064" y="291.232" style="fill-rule:evenodd;clip-rule:evenodd;fill:#EC830E;" width="17.984" height="11.896"/>
	<rect x="468.102" y="303.128" style="fill-rule:evenodd;clip-rule:evenodd;fill:#DF641E;" width="83.834" height="1.133"/>
	<rect x="457.585" y="304.261" style="fill-rule:evenodd;clip-rule:evenodd;fill:#FDA600;" width="92.755" height="11.896"/>
	<rect x="538.586" y="304.261" style="fill-rule:evenodd;clip-rule:evenodd;fill:#FDA600;" width="11.754" height="11.896"/>
	<rect x="526.691" y="304.261" style="fill-rule:evenodd;clip-rule:evenodd;fill:#FFD115;" width="11.895" height="11.896"/>
	<rect x="483.924" y="304.261" style="fill-rule:evenodd;clip-rule:evenodd;fill:#FCA700;" width="42.768" height="11.896"/>
	<rect x="465.939" y="304.261" style="fill-rule:evenodd;clip-rule:evenodd;fill:#EC830E;" width="17.984" height="11.896"/>
	<rect x="461.977" y="316.156" style="fill-rule:evenodd;clip-rule:evenodd;fill:#DF641E;" width="83.834" height="1.134"/>
	<rect x="176.918" y="291.396" style="fill-rule:evenodd;clip-rule:evenodd;fill:#FDA600;" width="92.755" height="11.895"/>
	<rect x="257.92" y="291.396" style="fill-rule:evenodd;clip-rule:evenodd;fill:#FDA600;" width="11.753" height="11.895"/>
	<rect x="246.023" y="291.396" style="fill-rule:evenodd;clip-rule:evenodd;fill:#FFD115;" width="11.896" height="11.895"/>
	<rect x="203.258" y="291.396" style="fill-rule:evenodd;clip-rule:evenodd;fill:#FCA700;" width="42.766" height="11.895"/>
	<rect x="185.273" y="291.396" style="fill-rule:evenodd;clip-rule:evenodd;fill:#EC830E;" width="17.984" height="11.895"/>
	<rect x="181.311" y="303.29" style="fill-rule:evenodd;clip-rule:evenodd;fill:#DF641E;" width="83.834" height="1.134"/>
	<polygon style="fill-rule:evenodd;clip-rule:evenodd;fill:#76C23A;" points="410.121,152.742 412.071,141.574 414.012,130.397 
		406.513,130.397 404.572,141.574 402.623,152.742 	"/>
	<polygon style="fill-rule:evenodd;clip-rule:evenodd;fill:#76C23A;" points="423.367,152.742 426.108,137.004 429.438,118.077 
		421.904,118.055 418.619,137.004 415.885,152.742 	"/>
	<polygon style="fill-rule:evenodd;clip-rule:evenodd;fill:#76C23A;" points="436.619,152.742 440.099,132.769 442.903,116.617 
		435.412,116.633 432.609,132.769 429.131,152.742 	"/>
	<polygon style="fill-rule:evenodd;clip-rule:evenodd;fill:#76C23A;" points="449.883,152.742 454.425,126.604 458.714,101.971 
		451.21,101.999 446.936,126.604 442.385,152.742 	"/>
	<polygon style="fill-rule:evenodd;clip-rule:evenodd;fill:#76C23A;" points="462.539,152.742 467.762,122.695 472.068,97.977 
		464.572,97.956 460.273,122.695 455.049,152.742 	"/>
	<polygon style="fill-rule:evenodd;clip-rule:evenodd;fill:#76C23A;" points="474.311,152.742 479.533,122.695 484.766,92.648 
		477.266,92.648 472.043,122.695 466.82,152.742 	"/>
	<path style="fill-rule:evenodd;clip-rule:evenodd;fill:#C1E59E;" d="M380.6,23.296c-17.105,7.979-24.504,28.313-16.526,45.419
		c7.979,17.106,28.313,24.506,45.42,16.527c17.104-7.979,24.505-28.314,16.526-45.42S397.707,15.318,380.6,23.296"/>
	<path style="fill-rule:evenodd;clip-rule:evenodd;fill:#9ED86C;" d="M374.828,81.83c9.736,7.129,22.957,8.873,34.665,3.413
		c17.106-7.979,24.505-28.313,16.526-45.42c-7.805-16.734-27.435-24.176-44.299-17.022C402.449,29.204,414.695,66.687,374.828,81.83
		"/>
	<path style="fill-rule:evenodd;clip-rule:evenodd;fill:#4B8FD0;" d="M384.339,86.724c1.071,0.354,2.159,0.654,3.263,0.902
		l4.23-16.115c-1.1,1.071-2.311,2.109-3.633,3.112L384.339,86.724z"/>
	<path style="fill-rule:evenodd;clip-rule:evenodd;fill:#4D97DD;" d="M384.339,86.724c1.071,0.354,2.159,0.654,3.263,0.902
		l4.23-16.115c-1.1,1.071-2.311,2.109-3.633,3.112L384.339,86.724z"/>
	<path style="fill-rule:evenodd;clip-rule:evenodd;fill:#FFFFFF;" d="M383.866,30.297C370.627,36.473,364.9,52.21,371.074,65.45
		c6.176,13.24,21.914,18.966,35.153,12.791s18.966-21.913,12.791-35.152S397.105,24.122,383.866,30.297"/>
	<polygon style="fill-rule:evenodd;clip-rule:evenodd;fill:#FFFFFF;" points="395.946,54.188 395.946,54.188 397.782,61.486 
		394.564,57.96 389.688,59.156 395.15,53.925 	"/>
	<path style="fill-rule:evenodd;clip-rule:evenodd;fill:#C1E1FF;" d="M386.687,79.364c0.943,0.313,1.904,0.576,2.878,0.783
		l6.022-22.946l-1.784-0.137L386.687,79.364z"/>
	<path style="fill-rule:evenodd;clip-rule:evenodd;fill:#C1E59E;" d="M387.132,37.299c-9.372,4.372-13.427,15.514-9.056,24.886
		s15.514,13.427,24.885,9.057c9.373-4.372,13.428-15.515,9.057-24.887S396.504,32.927,387.132,37.299"/>
	<polygon style="fill-rule:evenodd;clip-rule:evenodd;fill:#4D97DD;" points="395.946,54.188 395.946,54.188 397.782,61.486 
		394.564,57.96 389.688,59.156 395.15,53.925 	"/>
	<path style="fill-rule:evenodd;clip-rule:evenodd;fill:#4D97DD;" d="M389.035,72.004c0.814,0.276,1.647,0.496,2.494,0.657
		l4.058-15.46l-1.784-0.137L389.035,72.004z"/>
	<path style="fill-rule:evenodd;clip-rule:evenodd;fill:#9ED86C;" d="M390.786,72.505c3.945,0.925,8.218,0.581,12.175-1.264
		c9.373-4.372,13.428-15.515,9.057-24.887c-2.883-6.181-8.71-10.048-15.032-10.712C403.132,46.387,403.219,61.308,390.786,72.505"/>
	<path style="fill-rule:evenodd;clip-rule:evenodd;fill:#4B8FD0;" d="M390.786,72.505c0.247,0.058,0.494,0.11,0.743,0.158
		l0.297-1.134C391.49,71.857,391.143,72.184,390.786,72.505"/>
	<path style="fill-rule:evenodd;clip-rule:evenodd;fill:#FFFFFF;" d="M390.396,44.3c-5.506,2.568-7.887,9.113-5.318,14.619
		c2.567,5.506,9.112,7.889,14.618,5.32c5.507-2.568,7.888-9.113,5.319-14.619S395.902,41.732,390.396,44.3"/>
	<polygon style="fill-rule:evenodd;clip-rule:evenodd;fill:#C1E1FF;" points="395.946,54.188 395.946,54.188 397.782,61.486 
		394.564,57.96 389.688,59.156 395.15,53.925 	"/>
	<path style="fill-rule:evenodd;clip-rule:evenodd;fill:#C1E1FF;" d="M391.385,64.642c0.684,0.241,1.392,0.416,2.113,0.519
		l2.089-7.959l-1.784-0.137L391.385,64.642z"/>
	<polygon style="fill-rule:evenodd;clip-rule:evenodd;fill:#4A73DB;" points="395.884,54.166 395.884,54.166 391.473,48.069 
		392.105,52.8 388.054,55.769 395.573,54.945 	"/>
	<path style="fill-rule:evenodd;clip-rule:evenodd;fill:#4A73DB;" d="M353.271,33.577c-0.421-0.087-0.566-0.188-1.295,0.151
		c-0.729,0.339-1.322,2.064-1.002,2.751c0.322,0.688,0.398,0.616,0.684,0.817l40.645,16.663l1.041-1.455L353.271,33.577z"/>
	<polygon style="fill-rule:evenodd;clip-rule:evenodd;fill:#4A73DB;" points="358.453,31.738 346.873,25.982 349.291,33.537 
		341.752,37.686 355.096,42.146 360.1,38.654 	"/>
	<polygon style="fill-rule:evenodd;clip-rule:evenodd;fill:#7092EA;" points="358.453,31.738 346.873,25.982 349.291,33.537 
		360.037,38.395 359.602,36.566 	"/>
	<path style="fill-rule:evenodd;clip-rule:evenodd;fill:#9ED86C;" d="M434.886,178.59h39.333c0.988,0,1.799,0.809,1.799,1.798l0,0
		c0,0.99-0.811,1.798-1.799,1.798h-39.333c-0.989,0-1.798-0.808-1.798-1.798l0,0C433.088,179.398,433.896,178.59,434.886,178.59"/>
	<path style="fill-rule:evenodd;clip-rule:evenodd;fill:#9ED86C;" d="M431.58,191.488h39.59c0.988,0,1.799,0.809,1.799,1.798l0,0
		c0,0.989-0.811,1.798-1.799,1.798h-39.59c-0.988,0-1.799-0.809-1.799-1.798l0,0C429.781,192.297,430.592,191.488,431.58,191.488"/>
	<path style="fill-rule:evenodd;clip-rule:evenodd;fill:#9ED86C;" d="M429.283,204.387h39.482c0.988,0,1.798,0.809,1.798,1.798
		v0.001c0,0.988-0.81,1.797-1.798,1.797h-39.482c-0.988,0-1.797-0.809-1.797-1.797v-0.001
		C427.486,205.195,428.295,204.387,429.283,204.387"/>
	<path style="fill-rule:evenodd;clip-rule:evenodd;fill:#C1E59E;" d="M416.744,209.792c2.158-10.179,4.83-21.022,6.483-30.538
		c0.155-0.89-0.306-1.649-1.073-1.899c-0.174-0.057-0.363-0.087-0.566-0.087h-0.016h-0.576h-13.145h-13.736
		c-1.094,0-2.047,0.914-2.326,1.986l-7.965,30.592c-0.298,1.142,0.572,2.16,1.688,2.194l28.833-0.485
		c0.011-0.001,0.021,0.001,0.03,0.002C415.48,211.614,416.531,210.802,416.744,209.792"/>
	<polygon style="fill-rule:evenodd;clip-rule:evenodd;fill:#9ED86C;" points="390.713,193.138 402.093,185.982 403.896,188.912 
		414.762,181.736 414.197,180.538 417.867,180.749 416.387,183.899 415.546,182.74 403.389,190.827 401.516,187.757 
		391.389,194.208 	"/>
	<path style="fill-rule:evenodd;clip-rule:evenodd;fill:#FFFFFF;" d="M390.6,197.766h22.629c0.33,0,0.601,0.271,0.601,0.602l0,0
		c0,0.331-0.271,0.601-0.601,0.601H390.6c-0.33,0-0.601-0.27-0.601-0.601l0,0C389.999,198.036,390.27,197.766,390.6,197.766"/>
	<path style="fill-rule:evenodd;clip-rule:evenodd;fill:#FFFFFF;" d="M389.617,201.865h22.628c0.33,0,0.601,0.27,0.601,0.601l0,0
		c0,0.331-0.271,0.602-0.601,0.602h-22.628c-0.332,0-0.602-0.271-0.602-0.602l0,0C389.016,202.135,389.285,201.865,389.617,201.865"
		/>
	<path style="fill-rule:evenodd;clip-rule:evenodd;fill:#FFFFFF;" d="M388.633,205.964h22.628c0.331,0,0.601,0.271,0.601,0.601
		v0.001c0,0.331-0.27,0.601-0.601,0.601h-22.628c-0.331,0-0.602-0.27-0.602-0.601v-0.001
		C388.031,206.234,388.302,205.964,388.633,205.964"/>
	<path style="fill-rule:evenodd;clip-rule:evenodd;fill:#76C23A;" d="M436.137,54.788h35.906c1.129,0,2.051,0.922,2.051,2.05
		s-0.922,2.05-2.051,2.05h-35.906c-1.129,0-2.051-0.922-2.051-2.05S435.008,54.788,436.137,54.788"/>
	<rect x="401.844" y="156.501" style="fill-rule:evenodd;clip-rule:evenodd;fill:#76C23A;" width="71.926" height="1.709"/>
	<rect x="507.209" y="304.261" style="fill-rule:evenodd;clip-rule:evenodd;fill:#FDA600;" width="92.756" height="11.896"/>
	<rect x="588.211" y="304.261" style="fill-rule:evenodd;clip-rule:evenodd;fill:#FDA600;" width="11.754" height="11.896"/>
	<rect x="576.316" y="304.261" style="fill-rule:evenodd;clip-rule:evenodd;fill:#FFD115;" width="11.895" height="11.896"/>
	<rect x="533.549" y="304.261" style="fill-rule:evenodd;clip-rule:evenodd;fill:#FCA700;" width="42.768" height="11.896"/>
	<rect x="515.564" y="304.261" style="fill-rule:evenodd;clip-rule:evenodd;fill:#EC830E;" width="17.984" height="11.896"/>
	<rect x="511.602" y="316.156" style="fill-rule:evenodd;clip-rule:evenodd;fill:#DF641E;" width="83.834" height="1.134"/>
	<path style="fill-rule:evenodd;clip-rule:evenodd;fill:#FFFFFF;" d="M333.305,127.62c-0.595,0.063-1.025,0.596-0.961,1.19
		c0.063,0.594,0.596,1.023,1.19,0.961c0.593-0.063,1.023-0.597,0.96-1.191C334.432,127.986,333.898,127.557,333.305,127.62
		 M332.637,121.381c-0.594,0.063-1.023,0.597-0.96,1.191c0.063,0.594,0.597,1.022,1.19,0.96c0.594-0.063,1.023-0.596,0.961-1.19
		C333.765,121.747,333.231,121.317,332.637,121.381z M333.705,106.563c2.385,4.031,0.844,8.76-2.604,11.196
		c-5.526-2.803-10.414-5.984-11.088-12.294c0,0-0.624,0.062-1.182,0.477c-0.551,0.409-1.336,1.166-1.76,2.635
		c-1.42,4.787,4.666,13.509,4.666,13.509s1.2-4.168,4.158-4.737c2.957-0.569,5.292,0.9,5.292,0.9
		c3.518-3.209,6.508,0.144,9.347,2.531c0.08-6.874,0.124-9.694-5.516-14.402l-1.315-0.231L333.705,106.563z"/>
</g>
</svg>
