<?xml version="1.0" encoding="iso-8859-1"?>
<!-- Generator: Adobe Illustrator 16.0.0, SVG Export Plug-In . SVG Version: 6.00 Build 0)  -->
<!DOCTYPE svg PUBLIC "-//W3C//DTD SVG 1.1//EN" "http://www.w3.org/Graphics/SVG/1.1/DTD/svg11.dtd">
<svg version="1.1" id="Layer_1" xmlns="http://www.w3.org/2000/svg" xmlns:xlink="http://www.w3.org/1999/xlink" x="0px" y="0px"
	 width="433px" height="324px" viewBox="0 0 433 324" style="enable-background:new 0 0 433 324;" xml:space="preserve">
<g>
	<g>
		<g>
			<linearGradient id="SVGID_1_" gradientUnits="userSpaceOnUse" x1="142.5708" y1="295.1221" x2="444.0558" y2="-69.3598">
				<stop  offset="0" style="stop-color:#76C23A"/>
				<stop  offset="1" style="stop-color:#F6DD28"/>
			</linearGradient>
			<path style="opacity:0.2;fill:url(#SVGID_1_);" d="M404.674,255.025c2.182,11.129,8.04,20.273,11.908,30.75
				c3.531,9.566,0.619,19.679-9.421,23.619c-6.47,2.539-13.638,2.652-20.472,3.324c-68.323,6.707-135.992,12.033-204.747,10.379
				c-1.39-0.034-2.779-0.07-4.168-0.108c-10.364-0.28-20.724-0.686-31.078-1.22c-27.516-1.42-55.135-3.578-82.344-8.049
				c-8.878-1.457-17.82-3.092-26.438-5.723c-3.832-1.17-10.537-2.691-12.97-6.324c-0.44-0.657-0.859-1.258-0.859-2.086
				c0-0.671-0.28-2.18-0.248-2.368c1.865-11.161,10.633-15.038,17.588-20.761c6.956-5.722,15.335-12.303,14.71-21.127
				c-0.967-13.811-21.364-19.198-30.083-27.319C14.863,217.59,7.45,203.42,3.893,188.642c-5.969-24.8-5.587-58.925,13.213-78.335
				c10.704-11.049,28.562-9.238,38.146-21.938c7.642-10.128,7.178-24.006,11.587-35.521c2.897-7.564,7.588-14.684,14.397-19.071
				c5.771-3.719,12.701-5.262,19.548-5.749c10.839-0.767,21.857,0.996,31.925,5.081c10.556,4.282,21.187,6.214,32.669,6.374
				c13.149,0.186,25.592-1.978,38.229-5.246c12.352-3.194,25.474-4.356,36.844-10.576c16.069-8.791,27.606-20.805,46.554-23.424
				c20.261-2.802,42.823,4.227,56.617,19.656c9.315,10.416,13.259,23.961,10.328,37.688c-1.806,8.463-6.066,17.82,0.501,25.354
				c4.349,4.989,11.396,6.591,17.993,7.094c17.76,1.351,33.301,4.938,46.13,18.346c12.667,13.241,13.739,26.076,14.534,43.47
				c0.358,7.806,0.52,15.798-1.957,23.233c-3.36,10.099-11.186,18.098-16.911,27.135
				C404.391,217.759,401.152,237.053,404.674,255.025z"/>
			<linearGradient id="SVGID_2_" gradientUnits="userSpaceOnUse" x1="361.4746" y1="63.1489" x2="395.0439" y2="63.1489">
				<stop  offset="0" style="stop-color:#76C23A"/>
				<stop  offset="1" style="stop-color:#F6DD28"/>
			</linearGradient>
			<path style="opacity:0.2;fill:url(#SVGID_2_);" d="M395.044,63.152c0,0.886-0.067,1.756-0.202,2.604
				c-1.245,8.026-8.197,14.177-16.578,14.177c-5.498,0-10.383-2.641-13.443-6.721c-2.1-2.806-3.346-6.286-3.346-10.061
				c0-9.271,7.517-16.788,16.789-16.788C387.529,46.364,395.044,53.881,395.044,63.152z"/>
		</g>
	</g>
	<g>
		<g>
			<path style="fill:#76C23A;" d="M249.758,222.515c-1.571-0.921-3.004-0.712-4.716-1.172c-2.761-0.741-4.522-2.353-6.785-4.063
				c-3.237-2.448-6.091-4.916-8.382-8.344c-4.555-6.81-6.73-16.185-6.153-24.31c0.743-10.458,5.861-17.385,11.825-25.121
				c2.948,5.143,5.043,11.372,6.662,17.044c1.105,3.87,4.002,15.784,9.495,15.431c7.809-0.506-5.527-18.708-6.571-20.802
				c-2.438-4.886-3.387-10.177-5.652-14.927c5.988-3.526,10.187-11.116,16.996-13.505c-0.879,5.242-1.805,30.081,8.041,28.997
				c6.791-0.747,0.257-13.705-1.076-17.282c-1.646-4.415-3.788-9.27-3.848-14.046c4.151-0.059,8.966-5.957,13.169-7.287
				c-0.011,4.1,1.675,25.923,8.576,23.631c5.778-1.92-2.259-18.511-1.063-23.124c0.738-2.849,2.877-4.082,5.557-5.229
				c7.274-3.116,14.719-5.183,22.141-7.76c-0.32,5.592,1.656,11.64,3.457,16.855c1.352,3.911,3.678,9.988,1.424,14.111
				c-3.758,6.876-15.616,3.749-19.781,10.809c2.741,2.711,9.708,0.335,12.949,0.081c3.699-0.292,6.857-0.147,10.027-2.189
				c0.508,5.281,1.377,11.498,0.896,16.731c-5.584-1.331-11.928,0.317-17.465,1.247c-3.792,0.639-12.816,1.63-13.764,6.738
				c-1.201,6.473,11.27,3.163,14.189,2.046c5.588-2.134,10.717-3.73,16.707-4.241c0.119,5.806,0.234,12.699-0.885,18.438
				c-7.002-3.32-16.809-2.146-24.389-0.729c-2.993,0.561-13.424,1.673-13.925,5.938c-0.329,2.809,4.167,4.561,6.105,5.183
				c6.594,2.115,13.245,0.267,19.638-1.462c3.912-1.057,8.393-2.214,12.439-1.589c-5.373,18.807-27.706,35.5-47.904,30.841
				c-5.058-1.167-15.82-4.74-17.492-10.397C249.49,226.653,250.555,223.877,249.758,222.515z"/>
			<g>
				<g>
					
						<linearGradient id="SVGID_3_" gradientUnits="userSpaceOnUse" x1="-106.8833" y1="770.8281" x2="-20.4575" y2="770.8281" gradientTransform="matrix(0.8964 -0.4433 0.4433 0.8964 -7.2295 -537.9214)">
						<stop  offset="0.0267" style="stop-color:#41265D"/>
						<stop  offset="1" style="stop-color:#290B49"/>
					</linearGradient>
					<path style="fill:url(#SVGID_3_);" d="M276.52,219.238c1.292,0.52,2.58,1.084,3.875,1.679
						C279.205,220.228,277.889,219.689,276.52,219.238z M276.686,171.151c-1.014-9.827-5.014-19.001-8.253-28.239
						c-0.092-0.262-0.531-0.112-0.46,0.151c2.591,9.441,6.781,18.438,7.755,28.271C275.791,171.961,276.75,171.773,276.686,171.151z
						 M307.372,168.899c-9.38-3.441-18.729,0.353-27.806,3.146c3.439-5.994,7.08-11.869,10.615-17.806
						c4.023-6.76,7.574-13.727,11.743-20.395c0.27-0.434-0.263-0.828-0.617-0.479c-2.72,2.696-4.538,6.38-6.366,9.706
						c-2.23,4.055-4.549,8.027-7.024,11.94c-3.813,6.026-7.708,12.009-11.604,17.979c-0.02,0.007-0.037,0.012-0.055,0.017
						c-0.26,0.069-0.322,0.283-0.269,0.482c-0.257,0.393-0.513,0.785-0.769,1.178c-4.146,6.353-7.234,13.136-10.545,19.917
						c0.285-3.58-3.252-8.147-4.462-10.989c-2.633-6.186-4.97-13.272-10.001-17.983c-0.104-0.096-0.25,0.072-0.167,0.175
						c4.03,5.038,6.399,10.767,8.735,16.716c0.876,2.229,1.762,4.43,2.846,6.563c1.002,1.978,2.549,4.527,1.498,6.755
						c-0.217,0.46,0.182,0.772,0.577,0.746c-1.732,3.494-3.474,6.993-5.323,10.429c-0.545,1.009-1.154,1.98-1.776,2.944
						c-7.411-5.421-14.404-11.568-21.226-17.704c-0.354-0.318-0.779,0.256-0.448,0.577c6.657,6.477,13.762,12.424,20.567,18.734
						c0.014,0.013,0.027,0.021,0.043,0.031c-0.895,1.373-1.764,2.757-2.473,4.229c-0.422,0.877,0.959,1.494,1.381,0.616
						c0.738-1.536,1.704-2.968,2.716-4.379c3.462,2.02,6.811,3.773,10.728,4.909c2.651,0.767,5.757,1.335,8.629,2.283
						c-2.205-0.888-4.441-1.684-6.83-2.396c-4.399-1.313-8.133-3.181-11.996-5.529c0.963-1.324,1.939-2.639,2.785-4.012
						c1.866-3.032,3.611-6.127,5.277-9.271c9.077-1.856,18.313-2.232,27.519-3.089c0.22-0.02,0.175-0.353-0.043-0.338
						c-8.899,0.61-17.841,0.842-26.694,1.973c3.615-6.962,7.132-13.947,10.921-20.818c0.478-0.869,0.979-1.723,1.466-2.584
						c9.172-2.86,18.66-7.127,28.219-3.735C307.497,169.563,307.727,169.029,307.372,168.899z M282.121,221.717
						c-0.582-0.28-1.153-0.533-1.727-0.8c0.553,0.323,1.082,0.677,1.573,1.069C282.141,222.127,282.33,221.818,282.121,221.717z"/>
				</g>
			</g>
		</g>
		<g>
			<path style="fill:#76C23A;" d="M110.833,261.196c1.769-1.088,3.41-0.888,5.35-1.455c3.133-0.915,5.103-2.796,7.641-4.806
				c3.633-2.876,6.825-5.761,9.355-9.73c5.025-7.887,7.272-18.638,6.409-27.895c-1.111-11.915-7.125-19.689-14.124-28.367
				c-3.234,5.943-5.469,13.104-7.173,19.615c-1.164,4.446-4.169,18.113-10.446,17.846c-8.924-0.378,5.835-21.485,6.974-23.899
				c2.66-5.638,3.609-11.698,6.072-17.175c-6.921-3.874-11.901-12.428-19.731-14.981c1.135,5.96,2.815,34.279-8.446,33.29
				c-7.766-0.684-0.639-15.632,0.793-19.749c1.766-5.078,4.089-10.672,4.037-16.122c-4.739,0.035-10.38-6.573-15.21-7.985
				c0.117,4.678-1.258,29.621-9.191,27.181c-6.642-2.045,2.112-21.179,0.633-26.412c-0.914-3.232-3.386-4.587-6.471-5.828
				c-8.381-3.371-16.927-5.542-25.462-8.297c0.508,6.373-1.595,13.323-3.521,19.321c-1.443,4.497-3.944,11.488-1.268,16.137
				c4.46,7.752,17.913,3.887,22.843,11.836c-3.06,3.161-11.069,0.627-14.773,0.417c-4.229-0.239-7.829,0.005-11.497-2.246
				c-0.449,6.039-1.284,13.156-0.604,19.113c6.339-1.658,13.618,0.063,19.96,0.986c4.344,0.633,14.665,1.537,15.875,7.341
				c1.533,7.356-12.781,3.894-16.141,2.692c-6.43-2.295-12.321-3.988-19.17-4.418c0.011,6.627,0.052,14.494,1.475,21.012
				c7.905-3.963,19.124-2.872,27.809-1.442c3.429,0.564,15.36,1.571,16.038,6.427c0.447,3.194-4.639,5.308-6.835,6.066
				c-7.471,2.58-15.106,0.637-22.444-1.173c-4.491-1.108-9.633-2.317-14.234-1.501c6.604,21.324,32.506,39.808,55.437,33.986
				c5.743-1.458,17.931-5.808,19.697-12.305C111.241,265.912,109.957,262.771,110.833,261.196z"/>
			<g>
				<g>
					
						<linearGradient id="SVGID_4_" gradientUnits="userSpaceOnUse" x1="-2806.728" y1="-503.4233" x2="-2708.082" y2="-503.4233" gradientTransform="matrix(-0.9059 -0.4234 -0.4234 0.9059 -2632.834 -496.5999)">
						<stop  offset="0.0267" style="stop-color:#41265D"/>
						<stop  offset="1" style="stop-color:#290B49"/>
					</linearGradient>
					<path style="fill:url(#SVGID_4_);" d="M79.911,203.451c0.864-11.243,5.419-21.615,8.137-32.454
						c0.075-0.302-0.43-0.462-0.527-0.159c-3.463,10.62-7.798,21.189-8.708,32.432C78.756,203.978,79.855,204.167,79.911,203.451z
						 M80.212,258.133c-1.55,0.549-3.039,1.197-4.377,2.014C77.295,259.434,78.751,258.758,80.212,258.133z M74.064,261.405
						c0.552-0.462,1.146-0.877,1.771-1.259c-0.649,0.316-1.295,0.619-1.951,0.956C73.647,261.222,73.871,261.568,74.064,261.405z
						 M127.006,226.936c0.368-0.374-0.129-1.02-0.526-0.647c-7.629,7.173-15.455,14.362-23.773,20.735
						c-0.736-1.084-1.454-2.179-2.101-3.316c-2.199-3.873-4.273-7.82-6.338-11.767c0.451,0.021,0.899-0.345,0.641-0.863
						c-1.256-2.516,0.445-5.466,1.541-7.746c1.183-2.462,2.138-4.995,3.08-7.561c2.517-6.847,5.075-13.442,9.547-19.294
						c0.091-0.118-0.079-0.307-0.195-0.194c-5.624,5.503-8.11,13.646-10.958,20.771c-1.309,3.272-5.232,8.573-4.816,12.65
						c-3.948-7.655-7.642-15.317-12.532-22.459c-0.303-0.44-0.604-0.886-0.906-1.325c0.056-0.23-0.023-0.471-0.32-0.545
						c-0.02-0.005-0.041-0.01-0.063-0.016c-4.598-6.718-9.191-13.443-13.692-20.225c-2.925-4.402-5.669-8.877-8.316-13.449
						c-2.17-3.749-4.338-7.906-7.509-10.913c-0.413-0.392-1.011,0.074-0.691,0.562c4.925,7.503,9.149,15.363,13.912,22.975
						c4.184,6.686,8.484,13.297,12.561,20.05c-10.427-2.958-21.19-7.053-31.807-2.89c-0.401,0.158-0.126,0.761,0.274,0.609
						c10.823-4.11,21.757,0.521,32.294,3.553c0.58,0.971,1.171,1.933,1.738,2.91c4.497,7.746,8.685,15.629,12.985,23.482
						c-10.132-1.067-20.34-1.108-30.509-1.58c-0.249-0.013-0.294,0.369-0.042,0.387c10.527,0.745,21.073,0.941,31.479,2.831
						c1.98,3.547,4.05,7.034,6.255,10.447c0.999,1.546,2.147,3.021,3.279,4.507c-4.35,2.779-8.563,5.003-13.548,6.613
						c-2.709,0.873-5.24,1.836-7.734,2.904c3.253-1.154,6.782-1.879,9.789-2.823c4.44-1.393,8.217-3.479,12.117-5.87
						c1.189,1.583,2.327,3.193,3.209,4.926c0.502,0.992,2.062,0.256,1.559-0.735c-0.845-1.662-1.872-3.22-2.925-4.765
						c0.016-0.012,0.032-0.021,0.048-0.037C111.614,241.457,119.571,234.494,127.006,226.936z"/>
				</g>
			</g>
		</g>
		<g>
			<g>
				<path style="fill:#76C23A;" d="M313.066,80.566c14.398,7.085-6.817,19.218-23.875,16.064
					C289.191,96.631,298.663,73.493,313.066,80.566z"/>
				<path style="fill:#76C23A;" d="M272.349,106.496c12.563-8.456,33.438-4.867,28.073,5.256
					C295.053,121.884,272.349,106.496,272.349,106.496z"/>
				<path style="fill:#76C23A;" d="M252.18,120.576c10.071-7.994,34.277-10.956,28.918,1.738
					C275.729,134.992,252.18,120.576,252.18,120.576z"/>
				<path style="fill:#76C23A;" d="M278.479,78.49c14.684-4.151,10.038,16.493-6.13,28.006
					C272.349,106.496,263.808,82.644,278.479,78.49z"/>
				<path style="fill:#76C23A;" d="M261.138,136.389c-1.865,17.891-27.716-0.355-27.716-0.355
					C246.409,126.4,262.238,125.722,261.138,136.389z"/>
				<path style="fill:#76C23A;" d="M257.129,91.324c10.883-3.358,9.27,16.749-4.949,29.252
					C252.18,120.576,241.236,96.22,257.129,91.324z"/>
				<linearGradient id="SVGID_5_" gradientUnits="userSpaceOnUse" x1="306.4463" y1="67.2129" x2="196.9673" y2="148.8419">
					<stop  offset="0" style="stop-color:#26879A"/>
					<stop  offset="0.2658" style="stop-color:#2391A1"/>
					<stop  offset="0.7218" style="stop-color:#1BADB5"/>
					<stop  offset="1" style="stop-color:#15C1C3"/>
				</linearGradient>
				<path style="fill:url(#SVGID_5_);" d="M230.484,109.533c12.203-7.606,13.064,9.205,2.938,26.5
					C233.422,136.033,218.271,117.137,230.484,109.533z"/>
				<path style="fill:#60A523;" d="M207.622,160.271c11.135-13.569,23.678-26.067,37.387-37.166
					c13.805-10.945,28.669-20.752,44.95-27.64c1.291-0.513,1.919,0.91,0.715,1.539c-15.24,8.386-29.256,18.829-42.82,29.654
					c-13.471,10.984-26.406,22.622-38.932,34.804C207.855,162.472,206.725,161.336,207.622,160.271z"/>
			</g>
		</g>
		<g>
			<path style="fill:#76C23A;" d="M65.921,109.01c-15.413,5.857,5.122,20.313,22.874,18.731
				C88.795,127.741,81.336,103.16,65.921,109.01z"/>
			<path style="fill:#76C23A;" d="M105.073,139.457c-12.036-9.861-33.736-8.203-29.223,2.668
				C80.365,153.008,105.073,139.457,105.073,139.457z"/>
			<path style="fill:#76C23A;" d="M124.348,155.803c-9.533-9.148-34.009-14.51-29.749-1.009
				C98.869,168.281,124.348,155.803,124.348,155.803z"/>
			<path style="fill:#76C23A;" d="M101.501,110.217c-14.619-5.66-11.857,15.903,3.571,29.24
				C105.073,139.457,116.11,115.881,101.501,110.217z"/>
			<linearGradient id="SVGID_6_" gradientUnits="userSpaceOnUse" x1="161.4834" y1="200.5273" x2="55.8435" y2="119.3767">
				<stop  offset="0" style="stop-color:#15C1C3"/>
				<stop  offset="0.2782" style="stop-color:#1BADB5"/>
				<stop  offset="0.7342" style="stop-color:#2391A1"/>
				<stop  offset="1" style="stop-color:#26879A"/>
			</linearGradient>
			<path style="fill:url(#SVGID_6_);" d="M113.66,171.115c0.183,18.48,28.387,2.308,28.387,2.308
				C129.688,162.317,113.562,160.098,113.66,171.115z"/>
			<linearGradient id="SVGID_7_" gradientUnits="userSpaceOnUse" x1="176.3838" y1="181.1299" x2="70.7465" y2="99.9813">
				<stop  offset="0" style="stop-color:#15C1C3"/>
				<stop  offset="0.2782" style="stop-color:#1BADB5"/>
				<stop  offset="0.7342" style="stop-color:#2391A1"/>
				<stop  offset="1" style="stop-color:#26879A"/>
			</linearGradient>
			<path style="fill:url(#SVGID_7_);" d="M122.104,125.404c-10.809-4.485-11.096,16.24,2.243,30.398
				C124.348,155.803,137.889,131.942,122.104,125.404z"/>
			<linearGradient id="SVGID_8_" gradientUnits="userSpaceOnUse" x1="174.875" y1="183.0947" x2="69.236" y2="101.9448">
				<stop  offset="0" style="stop-color:#15C1C3"/>
				<stop  offset="0.2782" style="stop-color:#1BADB5"/>
				<stop  offset="0.7342" style="stop-color:#2391A1"/>
				<stop  offset="1" style="stop-color:#26879A"/>
			</linearGradient>
			<path style="fill:url(#SVGID_8_);" d="M147.604,146.6c-11.748-8.959-14.252,8.157-5.558,26.823
				C142.047,173.423,159.364,155.554,147.604,146.6z"/>
			<path style="fill:#60A523;" d="M166.101,200.704c-10.081-14.955-21.708-28.948-34.662-41.621
				c-13.068-12.527-27.327-23.991-43.316-32.608c-1.27-0.648-2.052,0.747-0.88,1.506c14.781,10.048,28.111,22.082,40.945,34.461
				c12.721,12.535,24.83,25.688,36.47,39.357C165.648,202.934,166.915,201.879,166.101,200.704z"/>
		</g>
	</g>
	<g>
		<g>
			<g>
				<g>
					<path style="fill:#707D88;" d="M233.566,20.402h-17.263H142.68h-17.264c-10.092,0-18.268,8.176-18.268,18.26v24.703v7.046
						v12.996v22.451v5.515v22.453v144.83c0,10.082,8.176,18.258,18.268,18.258h108.151c10.092,0,18.268-8.176,18.268-18.258V113.641
						V91.189V38.662C251.834,28.578,243.658,20.402,233.566,20.402z"/>
					<g>
						<linearGradient id="SVGID_9_" gradientUnits="userSpaceOnUse" x1="112.6377" y1="158.6533" x2="246.3408" y2="158.6533">
							<stop  offset="0" style="stop-color:#9CEFB3"/>
							<stop  offset="1" style="stop-color:#F6DD86"/>
						</linearGradient>
						<path style="fill:url(#SVGID_9_);" d="M246.341,40.323v236.679c0,7.949-6.354,14.379-14.189,14.379H126.827
							c-7.835,0-14.189-6.445-14.189-14.396V40.323c0-7.948,6.354-14.397,14.189-14.397h23.09c0.956,0,1.752,0.794,1.752,1.779
							v2.828c0,3.101,2.469,5.604,5.526,5.604h44.589c3.058,0,5.542-2.504,5.542-5.604v-2.828c0-0.985,0.78-1.779,1.751-1.779
							h23.074C239.987,25.926,246.341,32.375,246.341,40.323z"/>
					</g>
					<path style="fill:#1D262D;" d="M183.471,28.999h-14.046c-0.601,0-1.091,0.484-1.091,1.091c0,0.598,0.49,1.089,1.091,1.089
						h14.046c0.599,0,1.089-0.491,1.089-1.089C184.56,29.483,184.07,28.999,183.471,28.999z M189.417,28.851
						c-0.684,0-1.232,0.556-1.232,1.239c0,0.675,0.549,1.23,1.232,1.23s1.231-0.556,1.231-1.23
						C190.648,29.406,190.101,28.851,189.417,28.851z"/>
					<path style="fill:none;" d="M233.172,27.918h-10.4h-6.47h-5.744v1.926c-0.002,4.607-3.732,8.339-8.34,8.339h-45.456
						c-4.606,0-8.337-3.731-8.338-8.339v-1.926h-5.744h-7.695H125.8c-3.258,0.004-6.185,1.313-8.324,3.449
						c-2.134,2.139-3.446,5.063-3.447,8.324v237.936c0.001,3.258,1.313,6.184,3.447,8.323c2.139,2.134,5.065,3.446,8.324,3.447
						h107.382c3.256-0.001,6.182-1.312,8.317-3.444c2.133-2.137,3.444-5.061,3.444-8.317V39.691c0-3.261-1.313-6.186-3.447-8.324
						C239.357,29.231,236.432,27.922,233.172,27.918z"/>
				</g>
			</g>
		</g>
		<g>
			<g>
				<rect x="125.238" y="94.718" style="fill:#FFFFFF;" width="108.505" height="16.71"/>
				<g>
					<path style="fill:#808285;" d="M133.218,105.009h-0.74l-1.63-3.403c0.029,0.33,0.076,0.819,0.076,1.563v1.84h-0.518v-4.011
						h0.721l1.647,3.41c-0.012-0.093-0.074-0.732-0.074-1.222v-2.188h0.518V105.009z"/>
					<path style="fill:#808285;" d="M136.68,104.706l-0.123,0.372c-0.308-0.034-0.506-0.157-0.599-0.459
						c-0.215,0.318-0.541,0.459-0.913,0.459c-0.612,0-0.979-0.379-0.979-0.926c0-0.658,0.496-1.013,1.351-1.013h0.472v-0.227
						c0-0.441-0.216-0.606-0.641-0.606c-0.227,0-0.513,0.059-0.827,0.165l-0.133-0.392c0.377-0.139,0.715-0.208,1.059-0.208
						c0.739,0,1.077,0.378,1.077,1.017v1.404C136.423,104.561,136.522,104.647,136.68,104.706z M135.888,104.2v-0.706h-0.402
						c-0.565,0-0.851,0.211-0.851,0.629c0,0.361,0.182,0.554,0.53,0.554C135.479,104.677,135.713,104.52,135.888,104.2z"/>
					<path style="fill:#808285;" d="M141.438,102.809v2.2h-0.536v-2.125c0-0.459-0.199-0.593-0.43-0.593
						c-0.333,0-0.513,0.215-0.724,0.541v2.177h-0.534v-2.125c0-0.459-0.198-0.593-0.43-0.593c-0.332,0-0.518,0.215-0.722,0.541
						v2.177h-0.536v-3.067h0.461l0.045,0.449c0.204-0.311,0.483-0.519,0.885-0.519c0.378,0,0.659,0.202,0.774,0.553
						c0.219-0.331,0.5-0.553,0.912-0.553C141.105,101.872,141.438,102.232,141.438,102.809z"/>
					<path style="fill:#808285;" d="M144.824,103.657h-1.955c0.052,0.71,0.383,0.985,0.826,0.985c0.302,0,0.529-0.082,0.797-0.269
						l0.232,0.319c-0.302,0.24-0.646,0.385-1.071,0.385c-0.856,0-1.356-0.599-1.356-1.57c0-0.955,0.483-1.636,1.275-1.636
						c0.826,0,1.263,0.576,1.263,1.512C144.835,103.49,144.831,103.589,144.824,103.657z M144.306,103.228
						c0-0.601-0.237-0.932-0.721-0.932c-0.407,0-0.676,0.286-0.716,0.967h1.437V103.228z"/>
				</g>
			</g>
			<g>
				<rect x="125.238" y="119.23" style="fill:#FFFFFF;" width="108.505" height="16.71"/>
				<g>
					<path style="fill:#808285;" d="M132.513,125.953h-1.554v1.312h1.35v0.44h-1.35v1.374h1.665v0.442h-2.217v-4.011h2.171
						L132.513,125.953z"/>
					<path style="fill:#808285;" d="M137.349,127.321v2.2h-0.536v-2.123c0-0.461-0.199-0.596-0.431-0.596
						c-0.331,0-0.513,0.217-0.722,0.543v2.176h-0.536v-2.123c0-0.461-0.197-0.596-0.43-0.596c-0.333,0-0.519,0.217-0.723,0.543
						v2.176h-0.535v-3.064h0.46l0.045,0.444c0.204-0.307,0.483-0.518,0.885-0.518c0.378,0,0.659,0.206,0.775,0.554
						c0.22-0.332,0.5-0.554,0.913-0.554C137.016,126.384,137.349,126.747,137.349,127.321z"/>
					<path style="fill:#808285;" d="M140.751,129.219l-0.123,0.372c-0.309-0.035-0.506-0.156-0.598-0.459
						c-0.215,0.319-0.541,0.459-0.913,0.459c-0.611,0-0.979-0.378-0.979-0.925c0-0.658,0.495-1.011,1.351-1.011h0.471v-0.228
						c0-0.443-0.216-0.605-0.64-0.605c-0.227,0-0.512,0.059-0.827,0.162l-0.134-0.39c0.378-0.138,0.716-0.211,1.059-0.211
						c0.74,0,1.076,0.38,1.076,1.02v1.402C140.495,129.073,140.594,129.161,140.751,129.219z M139.961,128.712v-0.704h-0.401
						c-0.565,0-0.85,0.21-0.85,0.629c0,0.361,0.181,0.554,0.53,0.554C139.554,129.19,139.786,129.032,139.961,128.712z"/>
					<path style="fill:#808285;" d="M142.24,125.348c0,0.206-0.152,0.363-0.379,0.363c-0.22,0-0.373-0.157-0.373-0.363
						c0-0.209,0.152-0.365,0.373-0.365C142.088,124.982,142.24,125.139,142.24,125.348z M142.135,129.521H141.6v-3.064h0.535
						V129.521z"/>
					<path style="fill:#808285;" d="M143.212,128.916v-3.696l0.535-0.063v3.748c0,0.162,0.053,0.244,0.192,0.244
						c0.076,0,0.14-0.012,0.198-0.034l0.14,0.372c-0.116,0.064-0.267,0.104-0.424,0.104
						C143.463,129.591,143.212,129.354,143.212,128.916z"/>
				</g>
			</g>
			<g>
				<rect x="125.238" y="143.743" style="fill:#F9FBFC;" width="108.505" height="78.856"/>
				<g>
					<path style="fill:#808285;" d="M133.991,154.033h-0.536l-0.139-1.811c-0.053-0.628-0.093-1.303-0.099-1.635l-0.868,2.991
						h-0.518l-0.914-2.997c0,0.472-0.029,1.094-0.077,1.683l-0.133,1.769h-0.525l0.332-4.011h0.746l0.844,2.917l0.802-2.917h0.752
						L133.991,154.033z"/>
					<path style="fill:#808285;" d="M137.215,152.684h-1.955c0.052,0.709,0.383,0.982,0.826,0.982c0.302,0,0.529-0.08,0.797-0.268
						l0.232,0.322c-0.302,0.236-0.646,0.382-1.071,0.382c-0.856,0-1.357-0.6-1.357-1.57c0-0.955,0.483-1.636,1.275-1.636
						c0.826,0,1.263,0.577,1.263,1.514C137.227,152.514,137.222,152.613,137.215,152.684z M136.697,152.252
						c0-0.599-0.238-0.93-0.721-0.93c-0.407,0-0.676,0.283-0.716,0.966h1.437V152.252z"/>
					<path style="fill:#808285;" d="M139.961,151.246l-0.227,0.338c-0.274-0.176-0.512-0.262-0.797-0.262
						c-0.35,0-0.565,0.155-0.565,0.399c0,0.252,0.163,0.368,0.657,0.496c0.646,0.163,1.019,0.419,1.019,0.954
						c0,0.641-0.588,0.931-1.209,0.931c-0.519,0-0.891-0.168-1.159-0.399l0.286-0.326c0.244,0.185,0.529,0.295,0.861,0.295
						c0.401,0,0.657-0.174,0.657-0.465c0-0.303-0.151-0.419-0.745-0.576c-0.663-0.174-0.925-0.46-0.925-0.891
						c0-0.488,0.471-0.844,1.107-0.844C139.35,150.896,139.669,151.024,139.961,151.246z"/>
					<path style="fill:#808285;" d="M142.622,151.246l-0.227,0.338c-0.274-0.176-0.513-0.262-0.797-0.262
						c-0.35,0-0.564,0.155-0.564,0.399c0,0.252,0.163,0.368,0.657,0.496c0.646,0.163,1.019,0.419,1.019,0.954
						c0,0.641-0.587,0.931-1.209,0.931c-0.518,0-0.891-0.168-1.158-0.399l0.285-0.326c0.244,0.185,0.529,0.295,0.861,0.295
						c0.402,0,0.657-0.174,0.657-0.465c0-0.303-0.151-0.419-0.745-0.576c-0.664-0.174-0.926-0.46-0.926-0.891
						c0-0.488,0.472-0.844,1.107-0.844C142.011,150.896,142.331,151.024,142.622,151.246z"/>
					<path style="fill:#808285;" d="M145.734,153.73l-0.123,0.372c-0.308-0.034-0.506-0.155-0.599-0.46
						c-0.215,0.322-0.541,0.46-0.913,0.46c-0.612,0-0.979-0.378-0.979-0.925c0-0.657,0.496-1.012,1.351-1.012h0.471v-0.227
						c0-0.444-0.216-0.607-0.641-0.607c-0.227,0-0.511,0.061-0.827,0.163l-0.133-0.39c0.377-0.14,0.715-0.209,1.059-0.209
						c0.74,0,1.077,0.379,1.077,1.018v1.403C145.478,153.586,145.577,153.672,145.734,153.73z M144.942,153.225v-0.704h-0.402
						c-0.565,0-0.85,0.208-0.85,0.628c0,0.361,0.182,0.555,0.53,0.555C144.535,153.703,144.768,153.545,144.942,153.225z"/>
					<path style="fill:#808285;" d="M148.998,151.105c-0.256,0.082-0.548,0.094-0.896,0.094c0.36,0.162,0.541,0.418,0.541,0.774
						c0,0.604-0.437,1.041-1.17,1.041c-0.14,0-0.262-0.017-0.39-0.058c-0.088,0.063-0.152,0.174-0.152,0.285
						c0,0.14,0.088,0.25,0.402,0.25h0.489c0.628,0,1.048,0.361,1.048,0.85c0,0.594-0.489,0.932-1.438,0.932
						c-1.001,0-1.315-0.31-1.315-0.932h0.483c0,0.35,0.157,0.513,0.832,0.513c0.664,0,0.897-0.169,0.897-0.478
						c0-0.291-0.233-0.438-0.618-0.438h-0.482c-0.547,0-0.792-0.273-0.792-0.582c0-0.197,0.116-0.395,0.338-0.54
						c-0.355-0.187-0.519-0.454-0.519-0.851c0-0.627,0.507-1.07,1.182-1.07c0.762,0.018,1.042-0.111,1.402-0.273L148.998,151.105z
						 M146.802,151.967c0,0.408,0.227,0.692,0.646,0.692c0.419,0,0.646-0.257,0.646-0.697c0-0.448-0.22-0.682-0.657-0.682
						C147.024,151.28,146.802,151.566,146.802,151.967z"/>
					<path style="fill:#808285;" d="M151.764,152.684h-1.954c0.052,0.709,0.383,0.982,0.827,0.982c0.302,0,0.527-0.08,0.795-0.268
						l0.232,0.322c-0.302,0.236-0.646,0.382-1.069,0.382c-0.855,0-1.356-0.6-1.356-1.57c0-0.955,0.483-1.636,1.275-1.636
						c0.825,0,1.262,0.577,1.262,1.514C151.776,152.514,151.77,152.613,151.764,152.684z M151.245,152.252
						c0-0.599-0.237-0.93-0.719-0.93c-0.407,0-0.675,0.283-0.716,0.966h1.435V152.252z"/>
				</g>
			</g>
		</g>
		<g>
			<path style="fill:#1D262D;" d="M157.042,74.301l-0.554,0.645c-0.333-0.264-0.671-0.403-1.06-0.403
				c-0.796,0-1.409,0.578-1.409,2.126c0,1.508,0.597,2.12,1.409,2.12c0.496,0,0.835-0.215,1.167-0.464l0.514,0.646
				c-0.348,0.357-0.944,0.695-1.723,0.695c-1.482,0-2.517-1.051-2.517-2.998c0-1.92,1.093-2.972,2.5-2.972
				C156.098,73.696,156.571,73.912,157.042,74.301z"/>
			<path style="fill:#1D262D;" d="M163.248,76.676c0,1.89-0.969,2.99-2.501,2.99c-1.531,0-2.508-1.066-2.508-2.98
				c0-1.88,0.977-2.989,2.508-2.989C162.279,73.696,163.248,74.764,163.248,76.676z M159.389,76.686c0,1.54,0.522,2.146,1.358,2.146
				c0.852,0,1.349-0.605,1.349-2.155c0-1.53-0.489-2.145-1.349-2.145C159.894,74.531,159.389,75.146,159.389,76.686z"/>
			<path style="fill:#1D262D;" d="M169.331,79.543h-1.417l-1.962-4.63c0.059,0.506,0.149,1.234,0.149,2.294v2.336h-0.995V73.82
				h1.383l1.996,4.637c-0.049-0.315-0.148-1.144-0.148-1.955V73.82h0.994V79.543z"/>
			<path style="fill:#1D262D;" d="M175.063,74.689h-1.492v4.854h-1.101v-4.854h-1.539V73.82h4.248L175.063,74.689z"/>
			<path style="fill:#1D262D;" d="M178.983,78.217h-1.896l-0.356,1.326h-1.135l1.781-5.723h1.35l1.772,5.723h-1.159L178.983,78.217z
				 M178.76,77.389l-0.729-2.732l-0.729,2.732H178.76z"/>
			<path style="fill:#1D262D;" d="M185.743,74.301l-0.554,0.645c-0.333-0.264-0.671-0.403-1.06-0.403
				c-0.796,0-1.409,0.578-1.409,2.126c0,1.508,0.597,2.12,1.409,2.12c0.497,0,0.836-0.215,1.167-0.464l0.514,0.646
				c-0.349,0.357-0.944,0.695-1.724,0.695c-1.48,0-2.515-1.051-2.515-2.998c0-1.92,1.092-2.972,2.499-2.972
				C184.799,73.696,185.271,73.912,185.743,74.301z"/>
			<path style="fill:#1D262D;" d="M190.899,74.689h-1.492v4.854h-1.101v-4.854h-1.541V73.82h4.25L190.899,74.689z"/>
			<path style="fill:#1D262D;" d="M199.63,77.671c0,1.151-0.737,1.995-2.137,1.995c-1.408,0-2.12-0.819-2.12-1.995V73.82h1.093
				v3.793c0,0.805,0.323,1.199,1.027,1.199c0.713,0,1.036-0.395,1.036-1.199V73.82h1.102V77.671z"/>
			<path style="fill:#1D262D;" d="M205.206,74.4l-0.538,0.619c-0.413-0.338-0.81-0.488-1.283-0.488
				c-0.513,0-0.885,0.232-0.885,0.681c0,0.413,0.223,0.597,1.176,0.893c1,0.314,1.695,0.729,1.695,1.807
				c0,1.026-0.802,1.755-2.168,1.755c-0.911,0-1.59-0.322-2.063-0.786l0.563-0.628c0.423,0.354,0.879,0.57,1.474,0.57
				c0.613,0,1.051-0.299,1.051-0.854c0-0.48-0.239-0.694-1.133-0.969c-1.2-0.372-1.722-0.853-1.722-1.724
				c0-0.95,0.819-1.58,1.946-1.58C204.155,73.696,204.709,73.944,205.206,74.4z"/>
		</g>
	</g>
	<g>
		<rect x="256.512" y="215.033" style="fill:#E0B12F;" width="124.395" height="80.522"/>
		<g>
			<g>
				<linearGradient id="SVGID_10_" gradientUnits="userSpaceOnUse" x1="318.7236" y1="215.0361" x2="318.7236" y2="262.9142">
					<stop  offset="0" style="stop-color:#F6DD28"/>
					<stop  offset="1" style="stop-color:#F6DD86"/>
				</linearGradient>
				<polygon style="fill:url(#SVGID_10_);" points="379.24,215.036 258.207,215.036 318.725,262.332 				"/>
				<g>
					<linearGradient id="SVGID_11_" gradientUnits="userSpaceOnUse" x1="400.1787" y1="256.417" x2="331.1788" y2="252.417">
						<stop  offset="0" style="stop-color:#F6DD28"/>
						<stop  offset="1" style="stop-color:#F6DD86"/>
					</linearGradient>
					<polygon style="fill:url(#SVGID_11_);" points="380.92,216.346 331.074,255.303 380.92,294.255 					"/>
				</g>
				<polygon style="fill:#6273FD;" points="380.92,215.711 380.92,215.036 380.392,215.036 				"/>
				<linearGradient id="SVGID_12_" gradientUnits="userSpaceOnUse" x1="318.7246" y1="296.2861" x2="318.7246" y2="260.0629">
					<stop  offset="0" style="stop-color:#F6DD28"/>
					<stop  offset="1" style="stop-color:#F6DD86"/>
				</linearGradient>
				<polygon style="fill:url(#SVGID_12_);" points="379.23,295.556 329.396,256.613 318.725,264.955 308.042,256.605 
					258.219,295.556 				"/>
				<polygon style="fill:#6273FD;" points="380.396,295.556 380.92,295.556 380.92,294.886 				"/>
				<polygon style="fill:#6273FD;" points="257.057,215.036 256.529,215.036 256.529,215.711 				"/>
				<polygon style="fill:#6273FD;" points="256.529,294.886 256.529,295.556 257.053,295.556 				"/>
				<linearGradient id="SVGID_13_" gradientUnits="userSpaceOnUse" x1="256.5293" y1="255.3008" x2="306.3652" y2="255.3008">
					<stop  offset="0" style="stop-color:#F6DD28"/>
					<stop  offset="1" style="stop-color:#F6DD86"/>
				</linearGradient>
				<polygon style="fill:url(#SVGID_13_);" points="306.365,255.295 256.529,216.346 256.529,294.255 				"/>
			</g>
		</g>
	</g>
</g>
</svg>
