<?xml version="1.0" encoding="iso-8859-1"?>
<!-- Generator: Adobe Illustrator 16.0.0, SVG Export Plug-In . SVG Version: 6.00 Build 0)  -->
<!DOCTYPE svg PUBLIC "-//W3C//DTD SVG 1.1//EN" "http://www.w3.org/Graphics/SVG/1.1/DTD/svg11.dtd">
<svg version="1.1" id="Layer_1" xmlns="http://www.w3.org/2000/svg" xmlns:xlink="http://www.w3.org/1999/xlink" x="0px" y="0px"
	 width="518px" height="526px" viewBox="0 0 518 526" style="enable-background:new 0 0 518 526;" xml:space="preserve">
<g>
	<path style="opacity:0.3;fill:#C1E59E;" d="M457.891,453.718c-10.648,11.209-20.723,18.438-28.684,24.15
		c-93.572,67.14-204.293,47.568-227.824,42.789c-34.749-7.059-101.916-20.699-150.478-77.807
		c-73.469-86.397-62.028-222.516-5.041-312.369C56.288,114.046,111.35,22.825,223.264,8.196
		c67.729-8.854,146.679,9.002,203.852,56.901C547.129,165.646,538.584,368.766,457.891,453.718z"/>
	<g>
		
			<linearGradient id="SVGID_1_" gradientUnits="userSpaceOnUse" x1="954.5371" y1="-68.8174" x2="698.849" y2="212.2285" gradientTransform="matrix(0.9909 0.1349 -0.1349 0.9909 -436.7412 210.0557)">
			<stop  offset="0" style="stop-color:#76C23A"/>
			<stop  offset="1" style="stop-color:#F6DD28"/>
		</linearGradient>
		<path style="fill:url(#SVGID_1_);" d="M353.938,509.396c-0.9-0.121-1.707-0.597-2.25-1.326
			c-7.897-10.646-65.325-93.941,11.104-170.08c72.555-72.281,105.443-87.123,109.816-129.591c0.511-4.959,7.217-6.149,9.422-1.678
			c16.486,33.413,42.172,111.386-42.83,162.563c-93.767,56.453-86.08,118.34-81.547,135.926
			C358.252,507.535,356.316,509.72,353.938,509.396L353.938,509.396z"/>
		
			<linearGradient id="SVGID_2_" gradientUnits="userSpaceOnUse" x1="1013.7568" y1="-14.9468" x2="758.0646" y2="266.1037" gradientTransform="matrix(0.9909 0.1349 -0.1349 0.9909 -436.7412 210.0557)">
			<stop  offset="0" style="stop-color:#76C23A"/>
			<stop  offset="1" style="stop-color:#F6DD28"/>
		</linearGradient>
		<path style="fill:url(#SVGID_2_);" d="M365.568,510.979c-2.135-0.29-3.826-1.935-4.155-4.063
			c-2.237-14.486-7.734-68.609,32.14-82.963c43.896-15.801,79.334,25.081,111.601-6.916c1.698-1.685,4.553-0.217,4.147,2.14
			c-2.873,16.714-15.664,55.429-72.577,63.218c-60.915,8.338-67.771,15.327-66.541,23.996
			C370.563,509.063,368.241,511.345,365.568,510.979L365.568,510.979z"/>
		<path style="opacity:0.47;fill:#FFFFFF;" d="M470.485,251.697c-0.743,3.151-1.732,6.106-2.914,9.043
			c-1.16,2.931-2.494,5.788-3.948,8.586c-2.883,5.613-6.342,10.923-10.128,15.98c-7.624,10.092-16.848,18.956-27.014,26.475
			c-5.071,3.736-10.491,7.172-15.851,10.275c-5.217,3.026-10.236,6.411-15.045,10.078c-9.624,7.332-18.35,15.841-26.055,25.167
			c-15.352,18.671-26.246,41.203-29.833,65.193c-1.83,11.967-1.852,24.221-0.204,36.287c1.63,12.084,5.074,23.914,9.615,35.323
			c0.245,0.608-0.049,1.3-0.657,1.545c-0.583,0.236-1.249-0.034-1.519-0.594c-5.311-11.274-9.278-23.26-11.475-35.634
			c-1.122-6.182-1.787-12.459-1.978-18.762c-0.15-6.301,0.114-12.629,0.909-18.898c1.525-12.552,5.066-24.849,10.166-36.423
			c5.114-11.581,11.871-22.398,19.764-32.265c7.889-9.88,17.041-18.721,27.051-26.443c5.014-3.854,10.258-7.418,15.729-10.62
			c5.357-3.074,10.445-6.198,15.371-9.753c9.833-7.023,18.92-15.132,26.737-24.385c3.959-4.586,7.541-9.496,10.814-14.613
			c3.21-5.126,6.21-10.536,8.368-16.13l0.028-0.073c0.215-0.559,0.843-0.836,1.4-0.621
			C470.332,250.634,470.609,251.178,470.485,251.697z"/>
		<path style="opacity:0.47;fill:#FFFFFF;" d="M363.039,501.156c0.186-0.524,0.127-1.012,0.109-1.513l-0.047-1.493l-0.034-2.983
			c0.005-1.989,0.048-3.979,0.134-5.965c0.177-3.975,0.516-7.943,1.047-11.894c1.084-7.886,2.871-15.749,6.055-23.155
			c3.148-7.354,7.915-14.384,14.834-18.977c3.447-2.255,7.335-3.86,11.364-4.676c4.026-0.848,8.162-0.974,12.208-0.619
			c15.858,1.84,31.4,4.881,46.984,7.349c7.763,1.157,15.634,2.19,23.254,1.148c1.895-0.277,3.762-0.69,5.573-1.274
			c1.794-0.625,3.556-1.357,5.202-2.324c3.314-1.891,6.228-4.479,8.832-7.348l0.009-0.01c0.358-0.396,0.97-0.426,1.364-0.067
			c0.391,0.354,0.424,0.956,0.082,1.351c-2.641,3.038-5.656,5.847-9.179,7.961c-1.749,1.076-3.638,1.913-5.563,2.629
			c-1.941,0.672-3.939,1.158-5.954,1.497c-8.116,1.188-16.163,0.179-24.013-0.897c-7.875-1.121-15.65-2.582-23.453-3.845
			c-7.777-1.265-15.646-2.489-23.392-3.397c-3.823-0.37-7.69-0.28-11.418,0.473c-3.734,0.721-7.303,2.162-10.497,4.207
			c-6.438,4.1-11.109,10.623-14.28,17.685c-3.209,7.098-5.116,14.781-6.325,22.534c-0.597,3.884-1.003,7.801-1.25,11.729
			c-0.122,1.964-0.2,3.931-0.24,5.899l-0.019,2.95l0.018,1.475c0.013,0.487-0.009,0.988,0.23,1.452
			c0.229,0.44,0.056,0.982-0.383,1.21c-0.44,0.228-0.982,0.056-1.21-0.384c-0.119-0.229-0.129-0.484-0.05-0.711L363.039,501.156z"/>
	</g>
	<g>
		<g>
			<path style="fill:#60A523;" d="M280.187,6.321c-23.891-0.188-47.988,3.601-69.31,12.448
				c-49.631,20.592-91.751,75.08-75.268,130.736c5.354,18.08,2.542,38.026,20.553,45.884c9.745,4.252,36.284,6.781,46.375,3.431
				c26.819-8.903,44.449-33.274,29.861-60.3c-4.67-8.654-10.716-16.562-14.75-25.53c-4.033-8.97-5.871-19.616-1.759-28.551
				c8.072-17.537,34.888-23.111,52.277-22.586c20.525,0.621,39.124,10.772,50.17,28.189c13.766,21.705,17.253,48.105,15.239,73.301
				c-2.157,26.959-13.523,47.547-30.559,68.229c-14.668,17.807-30.819,34.897-40.567,55.806
				c-8.95,19.194-11.874,40.462-12.277,61.461c-0.079,4.07-20.32,42.426-20.232,54.145c0.012,1.654,22.957,7.139,24.611,7.156
				c8.639,0.098,33.105,0.371,42.112,0.471c1.853,0.021,3.378-1.458,3.399-3.311c0.642-57.01,18.177-111.361,62.567-149.649
				c16.151-13.932,33.546-25.278,46.106-42.862c17.899-25.063,26.731-49.729,24.183-80.662c-2.328-28.25-11.63-56.516-30.045-78.435
				c-19.792-23.559-48.761-38.271-78.867-44.62C309.967,8.11,295.117,6.44,280.187,6.321z"/>
			<path style="fill:#60A523;" d="M324.244,474.521c0,26.215-14.531,49.408-40.746,49.408c-5.664,0-24.925,0.053-29.961-1.767
				c-18.275-6.602-18.342-20.643-18.342-41.194c0-26.215,8.854-51.998,35.068-51.998
				C296.479,428.97,324.244,448.306,324.244,474.521z"/>
		</g>
		<g>
			<path style="fill:#76C23A;" d="M257.486,0.349c-23.892-0.188-47.989,3.6-69.311,12.446
				c-49.63,20.593-91.75,75.081-75.267,130.737c5.354,18.08,17.734,40.839,35.745,48.695c9.746,4.252,21.092,3.97,31.182,0.619
				c26.82-8.903,44.448-33.275,29.863-60.3c-4.672-8.655-10.718-16.562-14.751-25.53c-4.034-8.971-5.872-19.616-1.761-28.552
				c8.072-17.536,34.89-23.11,52.279-22.585c20.525,0.62,39.124,10.773,50.169,28.189c13.766,21.705,17.253,48.105,15.239,73.3
				c-2.156,26.96-13.523,47.548-30.559,68.229c-14.668,17.806-30.819,34.897-40.567,55.805
				c-8.949,19.195-11.874,40.463-12.277,61.462c-0.078,4.07,1.292,46.572,1.379,58.291c0.012,1.655,1.346,2.992,3.001,3.011
				c8.639,0.097,33.105,0.37,42.111,0.471c1.853,0.021,3.379-1.459,3.4-3.312c0.641-57.01,18.176-111.362,62.566-149.65
				c16.151-13.932,33.547-25.277,46.105-42.861c17.901-25.063,26.732-49.729,24.184-80.661
				c-2.328-28.25-11.629-56.517-30.044-78.437c-19.792-23.559-48.761-38.27-78.868-44.619
				C287.267,2.137,272.417,0.466,257.486,0.349z"/>
			<circle style="fill:#76C23A;" cx="259.962" cy="474.993" r="47.468"/>
		</g>
		<g>
			<path style="fill:#FFFFFF;" d="M128.62,138.08c-0.279,0-0.531-0.193-0.594-0.478c-3.327-15.021-3.814-38.541,12.749-65.297
				c16.167-26.116,38.845-43.591,67.404-51.939c30.527-8.923,66.773-7.012,107.732,5.68c0.32,0.099,0.5,0.44,0.401,0.762
				c-0.1,0.321-0.441,0.5-0.763,0.401c-40.727-12.62-76.735-14.527-107.029-5.673c-28.263,8.261-50.706,25.558-66.71,51.41
				c-16.349,26.408-15.874,49.593-12.596,64.393c0.072,0.328-0.135,0.653-0.464,0.727C128.708,138.075,128.663,138.08,128.62,138.08
				z"/>
		</g>
		<g>
			<path style="fill:#FFFFFF;" d="M138.605,162.246c-0.188,0-0.372-0.087-0.493-0.25c-0.145-0.196-3.563-4.923-6.744-13.247
				c-0.12-0.313,0.037-0.666,0.351-0.786c0.315-0.12,0.667,0.037,0.787,0.351c3.122,8.174,6.557,12.918,6.59,12.965
				c0.199,0.271,0.141,0.652-0.131,0.851C138.856,162.208,138.73,162.246,138.605,162.246z"/>
		</g>
		<g>
			<path style="fill:#FFFFFF;" d="M275.846,444.229c-0.093,0-0.187-0.021-0.275-0.066c-4.863-2.467-10.114-3.719-15.608-3.719
				c-0.336,0-0.609-0.271-0.609-0.608c0-0.336,0.273-0.609,0.609-0.609c5.687,0,11.124,1.296,16.159,3.85
				c0.301,0.152,0.42,0.519,0.268,0.819C276.281,444.106,276.067,444.229,275.846,444.229z"/>
		</g>
		<g>
			<path style="fill:#FFFFFF;" d="M240.304,504.756c-0.117,0-0.235-0.032-0.34-0.104c-9.874-6.671-15.77-17.759-15.77-29.659
				c0-13.193,7.227-25.273,18.857-31.525c0.296-0.159,0.666-0.049,0.825,0.248s0.048,0.666-0.249,0.825
				c-11.235,6.039-18.215,17.708-18.215,30.452c0,11.496,5.694,22.205,15.232,28.649c0.279,0.188,0.353,0.565,0.164,0.847
				C240.692,504.662,240.499,504.756,240.304,504.756z"/>
		</g>
	</g>
	<g>
		<g>
			<g style="opacity:0.3;">
				
					<linearGradient id="SVGID_3_" gradientUnits="userSpaceOnUse" x1="-2495.1475" y1="1465.46" x2="-2413.2124" y2="1465.46" gradientTransform="matrix(-0.5449 0.8385 0.8385 0.5449 -2512.4248 1363.5996)">
					<stop  offset="0" style="stop-color:#B37CFF"/>
					<stop  offset="1" style="stop-color:#F895E7"/>
				</linearGradient>
				<path style="fill:url(#SVGID_3_);" d="M102.063,89.146c-0.5,0.617-1.405,0.712-2.021,0.213
					c-1.197-0.971-2.455-1.903-3.738-2.771c-0.649-0.44-0.824-1.317-0.399-1.972c0.005-0.008,0.011-0.015,0.016-0.023
					c0.445-0.656,1.338-0.828,1.995-0.384c1.35,0.914,2.675,1.896,3.936,2.918c0.577,0.466,0.697,1.288,0.302,1.896
					C102.124,89.065,102.094,89.106,102.063,89.146z M89.768,82.788c-1.389-0.687-2.82-1.319-4.255-1.882
					c-0.737-0.289-1.103-1.124-0.813-1.861c0.293-0.741,1.124-1.103,1.862-0.813c1.51,0.592,3.017,1.258,4.479,1.979
					c0.711,0.35,1.003,1.212,0.652,1.923c-0.026,0.053-0.055,0.102-0.085,0.149C91.216,82.885,90.429,83.112,89.768,82.788z
					 M78.304,78.646c-1.502-0.359-3.039-0.656-4.566-0.883c-0.785-0.118-1.326-0.85-1.209-1.635
					c0.118-0.782,0.848-1.324,1.633-1.209c1.609,0.241,3.227,0.555,4.809,0.933c0.771,0.183,1.247,0.958,1.065,1.729
					c-0.04,0.165-0.106,0.315-0.193,0.449C79.521,78.526,78.911,78.79,78.304,78.646z M66.2,77.173
					c-1.546-0.016-3.11,0.039-4.65,0.157c-0.791,0.061-1.481-0.53-1.543-1.321c-0.061-0.791,0.532-1.481,1.322-1.542
					c1.621-0.126,3.269-0.183,4.896-0.169c0.793,0.007,1.432,0.655,1.425,1.449c-0.002,0.284-0.086,0.547-0.231,0.77
					C67.16,76.915,66.711,77.175,66.2,77.173z M54.071,78.432c-1.506,0.328-3.021,0.727-4.501,1.185
					c-0.758,0.234-1.562-0.19-1.796-0.947c-0.235-0.76,0.189-1.564,0.948-1.797c1.556-0.482,3.149-0.9,4.735-1.248
					c0.774-0.17,1.541,0.321,1.71,1.096c0.086,0.391,0.003,0.779-0.199,1.091C54.771,78.116,54.456,78.347,54.071,78.432z
					 M42.523,82.342c-1.398,0.655-2.787,1.38-4.126,2.152c-0.687,0.396-1.565,0.159-1.962-0.527s-0.161-1.565,0.526-1.962
					c1.409-0.813,2.87-1.574,4.342-2.264c0.719-0.337,1.574-0.028,1.911,0.69c0.219,0.468,0.164,0.99-0.097,1.394
					C42.977,82.043,42.775,82.225,42.523,82.342z M10.147,124.736c-0.783-0.119-1.324-0.851-1.206-1.634
					c0.243-1.607,0.559-3.227,0.94-4.811c0.186-0.771,0.961-1.246,1.732-1.061s1.247,0.961,1.061,1.731
					c-0.362,1.505-0.662,3.042-0.892,4.567c-0.032,0.21-0.106,0.401-0.216,0.568C11.271,124.556,10.724,124.824,10.147,124.736z
					 M32.136,88.713c-1.218,0.948-2.409,1.963-3.541,3.015c-0.581,0.54-1.49,0.506-2.03-0.075c-0.539-0.582-0.502-1.488,0.076-2.03
					c1.191-1.107,2.445-2.174,3.729-3.174c0.624-0.489,1.527-0.378,2.016,0.248c0.387,0.496,0.396,1.166,0.072,1.667
					C32.372,88.493,32.264,88.612,32.136,88.713z M13.087,112.567c-0.737-0.292-1.1-1.126-0.81-1.863
					c0.597-1.513,1.267-3.018,1.989-4.477c0.351-0.713,1.214-1.002,1.926-0.648c0.71,0.352,1,1.214,0.648,1.925
					c-0.688,1.386-1.323,2.817-1.89,4.255c-0.037,0.091-0.082,0.177-0.134,0.256C14.453,112.575,13.733,112.822,13.087,112.567z
					 M23.434,97.243c-0.974,1.198-1.909,2.452-2.777,3.731c-0.447,0.656-1.341,0.826-1.997,0.38
					c-0.647-0.439-0.821-1.316-0.396-1.97c0.004-0.01,0.01-0.018,0.017-0.025c0.915-1.347,1.898-2.669,2.923-3.929
					c0.502-0.615,1.407-0.709,2.021-0.209c0.575,0.468,0.694,1.288,0.3,1.896C23.496,97.161,23.466,97.203,23.434,97.243z"/>
				
					<linearGradient id="SVGID_4_" gradientUnits="userSpaceOnUse" x1="-2409.2295" y1="1443.8809" x2="-2404.4438" y2="1443.8809" gradientTransform="matrix(-0.5449 0.8385 0.8385 0.5449 -2512.4248 1363.5996)">
					<stop  offset="0" style="stop-color:#B37CFF"/>
					<stop  offset="1" style="stop-color:#F895E7"/>
				</linearGradient>
				<path style="fill:url(#SVGID_4_);" d="M10.972,134.169c0.154-0.238,0.24-0.523,0.23-0.828c-0.024-0.739-0.031-1.492-0.025-2.238
					c0.008-0.793-0.628-1.442-1.422-1.449c-0.793-0.008-1.443,0.63-1.449,1.424c-0.009,0.782,0,1.574,0.024,2.354
					c0.025,0.792,0.688,1.415,1.481,1.391C10.3,134.808,10.724,134.548,10.972,134.169z"/>
			</g>
			<g style="opacity:0.3;">
				
					<linearGradient id="SVGID_5_" gradientUnits="userSpaceOnUse" x1="-2384.3901" y1="1480.4453" x2="-2381.1074" y2="1480.4453" gradientTransform="matrix(-0.5449 0.8385 0.8385 0.5449 -2512.4248 1363.5996)">
					<stop  offset="0" style="stop-color:#B37CFF"/>
					<stop  offset="1" style="stop-color:#F895E7"/>
				</linearGradient>
				<path style="fill:url(#SVGID_5_);" d="M29.33,173.929c0.378-0.582,0.289-1.367-0.242-1.847
					c-0.548-0.497-1.098-1.013-1.629-1.534c-0.565-0.557-1.476-0.549-2.031,0.017c-0.558,0.569-0.547,1.476,0.019,2.032
					c0.559,0.549,1.137,1.093,1.715,1.616c0.589,0.532,1.497,0.486,2.03-0.103C29.243,174.053,29.289,173.992,29.33,173.929z"/>
				
					<linearGradient id="SVGID_6_" gradientUnits="userSpaceOnUse" x1="-2464.8008" y1="1517.7969" x2="-2380.4048" y2="1517.7969" gradientTransform="matrix(-0.5449 0.8385 0.8385 0.5449 -2512.4248 1363.5996)">
					<stop  offset="0" style="stop-color:#B37CFF"/>
					<stop  offset="1" style="stop-color:#F895E7"/>
				</linearGradient>
				<path style="fill:url(#SVGID_6_);" d="M112.166,165.325c-0.463,0.643-1.361,0.788-2.005,0.322
					c-0.644-0.463-0.788-1.359-0.323-2.004c0.883-1.226,1.729-2.507,2.522-3.822c0.405-0.678,1.294-0.898,1.972-0.489
					c0.68,0.409,0.898,1.293,0.489,1.972c-0.345,0.57-0.695,1.134-1.056,1.688C113.252,163.782,112.714,164.567,112.166,165.325z
					 M116.512,155.093c-0.729-0.314-1.064-1.159-0.75-1.889c0.603-1.398,1.154-2.838,1.635-4.277
					c0.25-0.752,1.066-1.157,1.818-0.906s1.157,1.065,0.906,1.818c-0.507,1.516-1.086,3.031-1.721,4.502
					c-0.033,0.076-0.072,0.148-0.115,0.217C117.91,155.133,117.165,155.373,116.512,155.093z M107.161,171.343
					c-1.104,1.155-2.272,2.279-3.474,3.343c-0.594,0.523-1.502,0.469-2.027-0.126s-0.469-1.501,0.125-2.028
					c1.141-1.007,2.25-2.075,3.298-3.173c0.548-0.573,1.457-0.595,2.032-0.047c0.507,0.485,0.581,1.253,0.213,1.82
					C107.279,171.206,107.225,171.277,107.161,171.343z M120.414,143.407c-0.778-0.147-1.293-0.898-1.146-1.677
					c0.28-1.495,0.5-3.019,0.653-4.532c0.081-0.789,0.785-1.363,1.574-1.283c0.79,0.079,1.364,0.785,1.284,1.572
					c-0.162,1.593-0.393,3.199-0.688,4.772c-0.037,0.19-0.107,0.364-0.207,0.518C121.577,143.251,121.005,143.517,120.414,143.407z
					 M97.484,179.45c-1.33,0.884-2.717,1.724-4.121,2.495c-0.695,0.382-1.568,0.128-1.95-0.567s-0.129-1.568,0.567-1.951
					c1.334-0.732,2.651-1.53,3.915-2.37c0.66-0.438,1.552-0.26,1.991,0.401c0.326,0.492,0.311,1.113,0.008,1.579
					C97.79,179.196,97.653,179.337,97.484,179.45z M86.266,185.237c-1.494,0.574-3.031,1.091-4.566,1.537
					c-0.763,0.221-1.559-0.217-1.78-0.979c-0.222-0.763,0.216-1.56,0.978-1.78c1.459-0.424,2.92-0.915,4.341-1.46
					c0.739-0.284,1.571,0.086,1.854,0.827c0.172,0.446,0.105,0.925-0.137,1.298C86.795,184.927,86.559,185.126,86.266,185.237z
					 M74.05,188.444c-1.585,0.234-3.197,0.404-4.792,0.505c-0.791,0.051-1.474-0.551-1.524-1.342
					c-0.051-0.793,0.551-1.476,1.343-1.525c1.516-0.096,3.048-0.258,4.555-0.48c0.784-0.115,1.515,0.427,1.631,1.211
					c0.054,0.36-0.032,0.71-0.217,0.993C74.829,188.139,74.475,188.382,74.05,188.444z M61.428,188.909
					c-1.598-0.119-3.209-0.307-4.788-0.558c-0.785-0.125-1.318-0.862-1.193-1.645s0.861-1.318,1.645-1.193
					c1.5,0.24,3.03,0.418,4.548,0.529c0.791,0.059,1.386,0.748,1.327,1.539c-0.019,0.249-0.1,0.479-0.227,0.676
					C62.463,188.683,61.97,188.949,61.428,188.909z M49.005,186.588c-1.529-0.466-3.058-1.004-4.546-1.598
					c-0.736-0.294-1.096-1.132-0.801-1.868c0.294-0.734,1.13-1.096,1.866-0.801c1.414,0.564,2.866,1.075,4.318,1.518
					c0.758,0.232,1.186,1.034,0.954,1.794c-0.039,0.132-0.097,0.254-0.169,0.364C50.288,186.521,49.632,186.778,49.005,186.588z
					 M37.406,181.6c-1.025-0.58-2.045-1.199-3.03-1.839c-0.356-0.232-0.709-0.468-1.061-0.706c-0.655-0.446-0.843-1.341-0.378-1.996
					c0.446-0.655,1.34-0.825,1.996-0.378c0.332,0.226,0.668,0.449,1.008,0.67c0.938,0.609,1.906,1.197,2.88,1.749
					c0.69,0.392,0.935,1.269,0.542,1.958c-0.015,0.025-0.03,0.052-0.046,0.076C38.907,181.765,38.069,181.976,37.406,181.6z"/>
				
					<linearGradient id="SVGID_7_" gradientUnits="userSpaceOnUse" x1="-2473.2134" y1="1535.5859" x2="-2468.4888" y2="1535.5859" gradientTransform="matrix(-0.5449 0.8385 0.8385 0.5449 -2512.4248 1363.5996)">
					<stop  offset="0" style="stop-color:#B37CFF"/>
					<stop  offset="1" style="stop-color:#F895E7"/>
				</linearGradient>
				<path style="fill:url(#SVGID_7_);" d="M122.801,130.46c0.156-0.239,0.242-0.528,0.23-0.834
					c-0.029-0.777-0.072-1.567-0.135-2.353c-0.062-0.791-0.752-1.382-1.543-1.32s-1.383,0.751-1.321,1.543
					c0.058,0.745,0.101,1.496,0.128,2.234c0.028,0.792,0.694,1.412,1.487,1.383C122.134,131.096,122.554,130.839,122.801,130.46z"/>
			</g>
			<g>
				<path style="fill:#60A523;" d="M104.783,113.673c-0.088-0.273-0.338-0.461-0.625-0.466l-8.169-0.181
					c-1.963-3.272-4.462-6.256-7.45-8.802l1.164-8.083c0.042-0.283-0.103-0.562-0.357-0.693l-8.714-4.484
					c-0.254-0.131-0.564-0.086-0.771,0.111l-5.9,5.646c-3.809-0.953-7.689-1.252-11.492-0.948l-4.895-6.543
					c-0.171-0.229-0.47-0.324-0.741-0.237l-9.335,2.99c-0.272,0.088-0.46,0.338-0.467,0.626l-0.18,8.169
					c-3.272,1.961-6.256,4.461-8.802,7.451l-8.082-1.166c-0.283-0.041-0.563,0.104-0.692,0.357l-4.486,8.714
					c-0.131,0.255-0.086,0.564,0.112,0.771l5.646,5.901c-0.953,3.809-1.251,7.688-0.948,11.492l-6.542,4.894
					c-0.229,0.172-0.324,0.471-0.237,0.743l2.99,9.333c0.087,0.273,0.339,0.46,0.624,0.467l8.17,0.181
					c1.962,3.271,4.461,6.255,7.45,8.801l-1.165,8.083c-0.04,0.284,0.103,0.562,0.357,0.691l8.715,4.486
					c0.254,0.131,0.564,0.086,0.771-0.112l5.899-5.646c3.81,0.953,7.69,1.252,11.494,0.948l4.893,6.543
					c0.172,0.229,0.47,0.324,0.744,0.237l9.333-2.991c0.272-0.087,0.46-0.338,0.466-0.623l0.181-8.171
					c3.272-1.962,6.256-4.461,8.802-7.45l8.082,1.165c0.284,0.042,0.562-0.102,0.693-0.357l4.484-8.714
					c0.132-0.256,0.086-0.565-0.112-0.772l-5.645-5.899c0.953-3.81,1.251-7.689,0.947-11.492l6.543-4.895
					c0.23-0.172,0.324-0.471,0.237-0.742L104.783,113.673z"/>
				<path style="opacity:0.56;fill:#FFFFFF;" d="M72.687,137.986c-3.594,4.074-9.831,4.467-13.906,0.874
					c-1.974-1.739-3.151-4.145-3.317-6.771c-0.165-2.625,0.702-5.159,2.442-7.133c3.594-4.074,9.831-4.468,13.907-0.875
					c3.707,3.27,4.366,8.727,1.749,12.753C73.302,137.233,73.01,137.618,72.687,137.986z M57.756,131.945
					c0.127,2.014,1.031,3.857,2.545,5.193c3.124,2.753,7.907,2.452,10.66-0.673c2.758-3.124,2.455-7.906-0.67-10.66
					c-3.124-2.756-7.907-2.455-10.661,0.67c-0.249,0.283-0.476,0.582-0.678,0.892C58.075,128.719,57.653,130.309,57.756,131.945z"/>
				<path style="opacity:0.56;fill:#FFFFFF;" d="M85.383,144.757c0.45-0.69,0.867-1.41,1.249-2.153l0,0
					c0.121-0.232,0.237-0.47,0.351-0.707c0.557-1.173,1.019-2.388,1.381-3.626c0.004-0.017,0.01-0.033,0.014-0.051
					c0.015-0.048,0.028-0.096,0.041-0.145c0.026-0.094,0.052-0.187,0.078-0.281c0.066-0.246-0.039-0.498-0.242-0.63
					c-0.049-0.033-0.104-0.058-0.164-0.074c-0.306-0.082-0.62,0.101-0.703,0.406c-0.425,1.577-1.022,3.118-1.775,4.581
					c-3.741,7.271-10.837,11.714-18.431,12.416c-4.225,0.391-8.604-0.375-12.647-2.457c-0.71-0.365-1.395-0.763-2.055-1.192
					c-4.439-2.885-7.724-7.174-9.36-12.284c-1.881-5.869-1.364-12.121,1.457-17.601c5.827-11.319,19.765-15.78,31.077-9.958
					c0.698,0.358,1.375,0.752,2.028,1.177c2.831,1.841,5.229,4.28,7.011,7.152c0.047,0.075,0.106,0.135,0.175,0.179
					c0.181,0.117,0.421,0.128,0.616,0.006c0.27-0.167,0.354-0.52,0.186-0.791c-1.872-3.016-4.388-5.578-7.362-7.509
					c-0.685-0.446-1.396-0.859-2.127-1.237c-11.878-6.111-26.515-1.419-32.627,10.455c-2.96,5.753-3.503,12.315-1.528,18.478
					c1.718,5.365,5.166,9.867,9.827,12.896c0.692,0.451,1.412,0.869,2.156,1.252c5.754,2.961,12.316,3.504,18.479,1.529
					C77.851,152.869,82.354,149.419,85.383,144.757z"/>
			</g>
		</g>
		<g>
			<g style="opacity:0.3;">
				
					<linearGradient id="SVGID_8_" gradientUnits="userSpaceOnUse" x1="-2543.8853" y1="1533.7031" x2="-2541.5508" y2="1533.7031" gradientTransform="matrix(-0.5449 0.8385 0.8385 0.5449 -2512.4248 1363.5996)">
					<stop  offset="0" style="stop-color:#B37CFF"/>
					<stop  offset="1" style="stop-color:#F895E7"/>
				</linearGradient>
				<path style="fill:url(#SVGID_8_);" d="M160.604,68.548c0.209-0.321,0.191-0.755-0.071-1.061c-0.49-0.572-1.005-1.137-1.53-1.679
					c-0.34-0.352-0.9-0.36-1.253-0.021c-0.354,0.34-0.361,0.902-0.021,1.254c0.5,0.517,0.99,1.055,1.458,1.6
					c0.319,0.373,0.879,0.415,1.251,0.097C160.502,68.682,160.558,68.617,160.604,68.548z"/>
				
					<linearGradient id="SVGID_9_" gradientUnits="userSpaceOnUse" x1="-2544.8311" y1="1507.4658" x2="-2499.0586" y2="1507.4658" gradientTransform="matrix(-0.5449 0.8385 0.8385 0.5449 -2512.4248 1363.5996)">
					<stop  offset="0" style="stop-color:#B37CFF"/>
					<stop  offset="1" style="stop-color:#F895E7"/>
				</linearGradient>
				<path style="fill:url(#SVGID_9_);" d="M155.649,63.871c-0.308,0.382-0.866,0.442-1.247,0.135
					c-0.964-0.776-1.979-1.511-3.015-2.185c-0.219-0.143-0.44-0.282-0.663-0.42c-0.416-0.258-0.545-0.806-0.286-1.223
					c0.261-0.385,0.806-0.544,1.222-0.286c0.234,0.146,0.465,0.292,0.694,0.441c1.087,0.706,2.15,1.476,3.16,2.29
					c0.358,0.287,0.433,0.796,0.188,1.173C155.687,63.823,155.668,63.847,155.649,63.871z M146.759,59.263
					c-1.361-0.63-2.773-1.182-4.196-1.637c-0.468-0.15-0.725-0.649-0.574-1.116c0.149-0.464,0.648-0.724,1.115-0.573
					c1.492,0.479,2.974,1.056,4.399,1.716c0.444,0.206,0.639,0.733,0.434,1.179c-0.019,0.039-0.04,0.076-0.063,0.111
					C147.638,59.306,147.163,59.45,146.759,59.263z M138.194,56.52c-1.473-0.276-2.977-0.464-4.473-0.556
					c-0.488-0.031-0.86-0.452-0.83-0.94c0.031-0.49,0.45-0.861,0.94-0.831c1.568,0.097,3.146,0.293,4.689,0.583
					c0.481,0.091,0.799,0.555,0.708,1.036c-0.023,0.117-0.066,0.225-0.128,0.318C138.911,56.423,138.558,56.587,138.194,56.52z
					 M129.217,55.965c-1.497,0.093-3.001,0.278-4.471,0.555c-0.481,0.09-0.945-0.228-1.035-0.709
					c-0.089-0.479,0.227-0.944,0.708-1.035c1.54-0.289,3.119-0.484,4.688-0.581c0.488-0.032,0.91,0.341,0.94,0.829
					c0.011,0.198-0.042,0.384-0.143,0.538C129.758,55.789,129.509,55.946,129.217,55.965z M120.375,57.618
					c-1.427,0.454-2.841,0.999-4.201,1.623c-0.444,0.205-0.971,0.01-1.176-0.436c-0.204-0.446-0.01-0.973,0.437-1.176
					c1.425-0.655,2.907-1.228,4.403-1.704c0.467-0.147,0.967,0.111,1.115,0.577c0.082,0.265,0.036,0.538-0.103,0.753
					C120.743,57.422,120.579,57.553,120.375,57.618z M112.204,61.367c-1.273,0.786-2.509,1.661-3.674,2.598
					c-0.382,0.306-0.94,0.246-1.248-0.136c-0.307-0.381-0.246-0.938,0.136-1.248c1.222-0.982,2.518-1.898,3.854-2.723
					c0.417-0.258,0.964-0.129,1.221,0.287c0.186,0.303,0.17,0.673-0.011,0.951C112.413,61.203,112.32,61.296,112.204,61.367z
					 M105.201,66.999c-1.037,1.071-2.022,2.223-2.927,3.424c-0.295,0.39-0.852,0.469-1.242,0.173
					c-0.393-0.294-0.465-0.845-0.176-1.243c0.949-1.257,1.98-2.465,3.07-3.588c0.341-0.353,0.903-0.361,1.255-0.021
					c0.31,0.301,0.354,0.771,0.126,1.12C105.278,66.911,105.242,66.957,105.201,66.999z M96.619,78.686
					c-0.451-0.19-0.662-0.711-0.471-1.162c0.528-1.25,1.135-2.491,1.799-3.688c0.101-0.183,0.203-0.363,0.307-0.542
					c0.231-0.43,0.788-0.57,1.212-0.324c0.425,0.246,0.568,0.788,0.324,1.213c-0.098,0.168-0.193,0.338-0.289,0.512
					c-0.637,1.146-1.215,2.328-1.72,3.521c-0.02,0.05-0.045,0.095-0.072,0.138C97.479,78.707,97.021,78.855,96.619,78.686z"/>
			</g>
			<g style="opacity:0.3;">
				
					<linearGradient id="SVGID_10_" gradientUnits="userSpaceOnUse" x1="-2524.4043" y1="1551.3447" x2="-2472.1621" y2="1551.3447" gradientTransform="matrix(-0.5449 0.8385 0.8385 0.5449 -2512.4248 1363.5996)">
					<stop  offset="0" style="stop-color:#B37CFF"/>
					<stop  offset="1" style="stop-color:#F895E7"/>
				</linearGradient>
				<path style="fill:url(#SVGID_10_);" d="M163.281,113.771c-0.858,1.285-1.805,2.529-2.809,3.699
					c-0.32,0.371-0.88,0.414-1.253,0.094c-0.371-0.32-0.407-0.879-0.093-1.252c0.958-1.114,1.859-2.301,2.68-3.527
					c0.272-0.408,0.822-0.518,1.229-0.244c0.404,0.27,0.516,0.814,0.251,1.221C163.287,113.761,163.284,113.767,163.281,113.771z
					 M164.434,110.149c-0.436-0.222-0.611-0.756-0.39-1.193c0.667-1.314,1.26-2.683,1.765-4.066
					c0.168-0.458,0.676-0.699,1.138-0.529c0.46,0.167,0.696,0.676,0.529,1.137c-0.527,1.451-1.149,2.884-1.849,4.263
					c-0.016,0.027-0.03,0.056-0.048,0.082C165.336,110.217,164.843,110.356,164.434,110.149z M157.231,120.801
					c-1.146,1.04-2.364,2.02-3.621,2.911c-0.4,0.282-0.954,0.188-1.237-0.211c-0.283-0.401-0.188-0.953,0.211-1.238
					c1.2-0.849,2.361-1.783,3.455-2.774c0.362-0.33,0.924-0.303,1.252,0.06c0.277,0.305,0.303,0.749,0.088,1.08
					C157.338,120.69,157.289,120.748,157.231,120.801z M167.731,101.704c-0.478-0.109-0.775-0.586-0.666-1.064
					c0.332-1.437,0.577-2.905,0.73-4.371c0.052-0.486,0.487-0.84,0.975-0.79c0.487,0.052,0.841,0.487,0.791,0.976
					c-0.162,1.536-0.42,3.078-0.767,4.586c-0.024,0.103-0.065,0.197-0.12,0.283C168.478,101.626,168.104,101.79,167.731,101.704z
					 M149.664,126.158c-1.358,0.732-2.776,1.39-4.214,1.954c-0.457,0.179-0.972-0.047-1.149-0.503
					c-0.18-0.456,0.045-0.972,0.501-1.15c1.372-0.536,2.724-1.163,4.021-1.863c0.43-0.232,0.969-0.071,1.201,0.36
					c0.159,0.296,0.134,0.643-0.038,0.905C149.908,125.981,149.8,126.086,149.664,126.158z M141.031,129.544
					c-1.498,0.388-3.032,0.687-4.56,0.89c-0.485,0.065-0.932-0.275-0.997-0.763c-0.064-0.484,0.277-0.931,0.763-0.995
					c1.457-0.195,2.922-0.481,4.351-0.849c0.475-0.124,0.958,0.162,1.08,0.637c0.064,0.25,0.017,0.504-0.115,0.706
					C141.437,129.349,141.255,129.487,141.031,129.544z M131.835,130.767c-1.547,0.018-3.11-0.061-4.642-0.231
					c-0.487-0.054-0.838-0.492-0.784-0.979c0.054-0.486,0.493-0.837,0.979-0.783c1.462,0.162,2.951,0.235,4.427,0.219
					c0.49-0.005,0.893,0.388,0.896,0.877c0.002,0.184-0.05,0.353-0.142,0.493C132.413,130.603,132.145,130.763,131.835,130.767z"/>
				
					<linearGradient id="SVGID_11_" gradientUnits="userSpaceOnUse" x1="-2530.1465" y1="1554.6133" x2="-2526.5742" y2="1554.6133" gradientTransform="matrix(-0.5449 0.8385 0.8385 0.5449 -2512.4248 1363.5996)">
					<stop  offset="0" style="stop-color:#B37CFF"/>
					<stop  offset="1" style="stop-color:#F895E7"/>
				</linearGradient>
				<path style="fill:url(#SVGID_11_);" d="M169.619,92.268c0.094-0.144,0.146-0.315,0.143-0.499
					c-0.014-0.76-0.051-1.522-0.108-2.267c-0.038-0.488-0.466-0.853-0.953-0.816c-0.487,0.04-0.854,0.466-0.816,0.954
					c0.055,0.709,0.09,1.438,0.104,2.161c0.01,0.491,0.414,0.88,0.904,0.871C169.197,92.665,169.464,92.507,169.619,92.268z"/>
			</g>
			<g>
				<path style="fill:#60A523;" d="M157.605,80.395c-0.06-0.183-0.227-0.308-0.418-0.312l-5.467-0.121
					c-1.313-2.189-2.984-4.186-4.985-5.89l0.78-5.409c0.027-0.188-0.069-0.375-0.239-0.463l-5.832-3.002
					c-0.17-0.087-0.378-0.057-0.516,0.077l-3.948,3.776c-2.55-0.637-5.146-0.838-7.69-0.635l-3.274-4.377
					c-0.116-0.154-0.314-0.217-0.498-0.159l-6.245,2.001c-0.183,0.059-0.308,0.227-0.313,0.418l-0.119,5.467
					c-2.19,1.313-4.187,2.984-5.89,4.985l-5.409-0.78c-0.189-0.026-0.375,0.068-0.464,0.239l-3.001,5.832
					c-0.088,0.17-0.059,0.378,0.074,0.516l3.778,3.948c-0.638,2.55-0.838,5.146-0.634,7.69l-4.379,3.275
					c-0.153,0.115-0.217,0.313-0.159,0.496l2.002,6.247c0.058,0.183,0.226,0.307,0.417,0.312l5.467,0.119
					c1.313,2.19,2.986,4.187,4.986,5.89l-0.78,5.41c-0.027,0.188,0.069,0.375,0.239,0.463l5.831,3.002
					c0.171,0.087,0.378,0.057,0.517-0.076l3.947-3.777c2.549,0.637,5.146,0.839,7.691,0.633l3.275,4.379
					c0.114,0.155,0.313,0.218,0.495,0.159l6.246-2.001c0.183-0.059,0.309-0.226,0.313-0.418l0.119-5.466
					c2.191-1.313,4.187-2.986,5.891-4.985l5.409,0.779c0.188,0.027,0.375-0.069,0.463-0.239l3.001-5.832
					c0.088-0.17,0.058-0.378-0.075-0.515l-3.777-3.948c0.638-2.55,0.838-5.146,0.634-7.692l4.379-3.273
					c0.153-0.115,0.218-0.314,0.158-0.496L157.605,80.395z"/>
				<path style="opacity:0.56;fill:#FFFFFF;" d="M136.216,96.743c-1.185,1.345-2.822,2.147-4.612,2.26
					c-1.788,0.113-3.515-0.479-4.859-1.664c-2.775-2.447-3.041-6.689-0.596-9.473c2.447-2.774,6.697-3.043,9.472-0.596
					c1.345,1.186,2.147,2.824,2.26,4.612c0.092,1.455-0.282,2.867-1.062,4.067C136.639,96.226,136.438,96.491,136.216,96.743z
					 M127.918,96.007c0.989,0.873,2.258,1.309,3.574,1.225c1.315-0.083,2.521-0.673,3.394-1.662l0,0
					c0.87-0.99,1.306-2.259,1.224-3.574c-0.082-1.316-0.674-2.521-1.662-3.394c-2.041-1.8-5.167-1.604-6.967,0.438
					c-0.163,0.185-0.309,0.377-0.438,0.577C125.729,91.634,126.061,94.37,127.918,96.007z"/>
				<path style="opacity:0.56;fill:#FFFFFF;" d="M145.054,101.454c0.307-0.471,0.591-0.961,0.854-1.47
					c0.521-1.012,0.939-2.076,1.244-3.17c0.014-0.049,0.027-0.099,0.04-0.147c0.104-0.381-0.059-0.77-0.372-0.975
					c-0.075-0.049-0.161-0.089-0.254-0.113c-0.473-0.127-0.957,0.154-1.087,0.626c-0.275,1.024-0.662,2.021-1.149,2.967h-0.001
					c-0.025,0.052-0.053,0.104-0.08,0.155c-1.173,2.227-2.856,4.075-4.897,5.436c-1.107,0.738-2.321,1.33-3.618,1.758
					c-0.01,0.004-0.02,0.008-0.03,0.011c-0.033,0.011-0.064,0.021-0.098,0.031c-3.799,1.217-7.846,0.883-11.395-0.944
					c-0.458-0.235-0.902-0.493-1.329-0.771c-2.874-1.867-5-4.645-6.061-7.953c-1.217-3.8-0.882-7.848,0.944-11.395
					c1.826-3.545,4.924-6.171,8.724-7.39c3.801-1.217,7.848-0.883,11.395,0.943c0.451,0.232,0.89,0.486,1.313,0.762
					c1.833,1.191,3.386,2.771,4.539,4.63c0.071,0.115,0.164,0.208,0.27,0.276c0.278,0.182,0.65,0.197,0.952,0.01
					c0.415-0.259,0.545-0.805,0.286-1.222c-1.292-2.08-3.028-3.849-5.078-5.181c-0.474-0.309-0.963-0.594-1.469-0.853
					c-3.971-2.044-8.497-2.419-12.749-1.058c-4.251,1.364-7.72,4.296-9.76,8.27c-2.043,3.969-2.419,8.496-1.055,12.748
					c1.185,3.701,3.563,6.807,6.778,8.896c0.478,0.311,0.975,0.6,1.488,0.863C131.083,111.151,140.442,108.551,145.054,101.454z"/>
			</g>
		</g>
	</g>
	<g>
		<polygon style="fill:#F6DD28;" points="340.289,161.683 314.489,188.075 345.438,179.808 		"/>
		<path style="fill:#F6DD28;" d="M493.81,172.606l-146.603,7.115c-3.765,0.183-6.918-2.82-6.918-6.59v-60.313
			c0-6.556,5.207-11.926,11.76-12.129l132.127-4.087c9.84,0,17.815,7.976,17.815,17.814v49.601
			C501.991,168.604,498.392,172.384,493.81,172.606z"/>
		<path style="opacity:0.85;fill:#FFFFFF;" d="M351.592,177.3c-2.337,0-4.539-0.881-6.243-2.506
			c-1.811-1.728-2.808-4.057-2.808-6.559v-54.359c0-6.406,5.137-11.581,11.693-11.777l127.928-3.863
			c9.697,0,17.577,7.693,17.577,17.15v46.866c0,4.509-3.612,8.214-8.224,8.431l-139.481,6.606
			C351.887,177.297,351.739,177.3,351.592,177.3z M482.173,98.871l-127.919,3.862c-6.212,0.188-11.078,5.082-11.078,11.143v54.359
			c0,2.327,0.928,4.493,2.612,6.1c1.685,1.604,3.893,2.427,6.218,2.319l139.479-6.605l0.017,0.316l-0.017-0.316
			c4.272-0.202,7.618-3.628,7.618-7.797v-46.866C499.104,106.279,491.508,98.871,482.173,98.871z"/>
		<path style="opacity:0.94;fill:#FFFFFF;" d="M481.745,109.867l-117.226,4.387c-1.151,0.043-2.059,0.807-2.019,1.7l0.044,1.029
			c0.037,0.885,0.986,1.566,2.125,1.523l117.23-4.281c1.153-0.042,2.061-0.805,2.021-1.699l-0.049-1.137
			C483.835,110.505,482.885,109.824,481.745,109.867z"/>
		<path style="opacity:0.94;fill:#FFFFFF;" d="M471.255,139.545l-117.227,4.364c-1.151,0.043-2.056,0.832-2.017,1.758l0.045,1.067
			c0.04,0.915,0.99,1.622,2.13,1.58l117.231-4.255c1.151-0.041,2.058-0.83,2.018-1.758l-0.05-1.178
			C473.347,140.208,472.395,139.502,471.255,139.545z"/>
		<path style="opacity:0.94;fill:#FFFFFF;" d="M484.95,151.959l-130.683,4.935c-1.283,0.049-2.295,0.85-2.256,1.783l0.046,1.078
			c0.04,0.926,1.097,1.634,2.366,1.586l130.687-4.822c1.285-0.047,2.3-0.848,2.259-1.783l-0.051-1.189
			C487.279,152.62,486.221,151.911,484.95,151.959z"/>
		<path style="opacity:0.94;fill:#FFFFFF;" d="M417.474,127.363l-63.894,1.863c-0.628,0.018-1.097,0.879-1.045,1.919l0.059,1.198
			c0.051,1.027,0.593,1.844,1.213,1.825l63.9-1.738c0.628-0.016,1.098-0.879,1.047-1.918l-0.066-1.321
			C418.638,128.162,418.095,127.347,417.474,127.363z"/>
		<path style="opacity:0.94;fill:#FFFFFF;" d="M487.875,125.155l-60.392,1.731c-0.593,0.017-1.034,0.876-0.982,1.916l0.061,1.198
			c0.051,1.028,0.565,1.845,1.151,1.829l60.398-1.606c0.593-0.016,1.035-0.877,0.983-1.917l-0.065-1.322
			C488.977,125.955,488.462,125.139,487.875,125.155z"/>
	</g>
	<g>
		<path style="fill:#707D88;" d="M117.689,505.267c0,0-1.209,6.841-1.801,13.612c-0.232,2.646,1.809,4.944,4.463,5.056
			c9.018,0.375,28.309,1.105,35.23,0.797c1.041-0.047,1.721-1.112,1.336-2.08l0,0c-0.323-0.811-0.945-1.467-1.738-1.832
			l-31.864-14.644L117.689,505.267z"/>
		
			<linearGradient id="SVGID_12_" gradientUnits="userSpaceOnUse" x1="6601.0508" y1="505.2383" x2="6611.4141" y2="505.2383" gradientTransform="matrix(1 0 0 1 -6484.3516 0)">
			<stop  offset="0" style="stop-color:#F9B776"/>
			<stop  offset="1" style="stop-color:#F47960"/>
		</linearGradient>
		<path style="fill:url(#SVGID_12_);" d="M116.7,501.247l0.97,8.182c0,0,5.582,2.6,9.394-0.328l-2.312-9.117L116.7,501.247z"/>
		<path style="fill:#707D88;" d="M117.43,347.409c-0.42,2.136-2.251,106.635,8.918,153.464c0.183,0.765-0.205,1.552-0.932,1.849
			c-1.713,0.699-5.071,1.713-9.098,1.85c-1.246,0.041-2.363-0.77-2.716-1.966c-3.192-10.866-18.492-65.302-20.489-117.304
			c-2.229-58.107,0-1.979,0-1.979l1.309-35.919L117.43,347.409z"/>
		<path style="fill:#707D88;" d="M81.036,508.835c0,0-1.923,3.453-3.785,12.63c-0.338,1.657,0.82,3.244,2.504,3.41
			c2.978,0.292,7.562,0.669,11.233,0.644c1.693-0.012,3.015-1.486,2.81-3.166c-0.406-3.35-1.673-8.846-5.588-13.129L81.036,508.835z
			"/>
		
			<linearGradient id="SVGID_13_" gradientUnits="userSpaceOnUse" x1="6563.6973" y1="504.7061" x2="6572.6465" y2="504.7061" gradientTransform="matrix(1 0 0 1 -6484.3516 0)">
			<stop  offset="0" style="stop-color:#F9B776"/>
			<stop  offset="1" style="stop-color:#F47960"/>
		</linearGradient>
		<path style="fill:url(#SVGID_13_);" d="M79.346,498.311l2.27,12.374c0,0,2.242,1.668,6.68,0.459l-1.082-13.314L79.346,498.311z"/>
		<path style="fill:#707D88;" d="M73.218,350.616c-9.136,55.135,1.981,136.267,5.73,152.148c0.23,0.971,1.015,1.716,2,1.879
			c1.674,0.277,4.429,0.505,7.146-0.285c0.936-0.271,1.593-1.115,1.631-2.09c0.503-12.838-0.402-91.654,8.11-122.802
			c0.432-1.578,1.396-2.955,2.729-3.903l16.522-11.746l1.267-18.984L73.218,350.616z"/>
		<g>
			<path style="fill:#F6DD28;" d="M131.43,246.147c-27.378-0.452-57.585,7.188-57.585,7.188
				c-8.161,47.617-1.428,102.541-1.428,102.541c21.195,5.56,45.104-3.399,45.104-3.399c3.524-19.902,19.961-75.916,19.961-75.916
				c13.376-1.659,24.396-5.519,33.47-10.621c-6.922-8.023-10.185-18.233-11.603-24.27
				C149.669,244.681,139.874,246.287,131.43,246.147z"/>
			
				<linearGradient id="SVGID_14_" gradientUnits="userSpaceOnUse" x1="-4905.2012" y1="173.1509" x2="-4886.9146" y2="225.3988" gradientTransform="matrix(-1 0 0 1 -4701.0684 0)">
				<stop  offset="0" style="stop-color:#F9B776"/>
				<stop  offset="1" style="stop-color:#F47960"/>
			</linearGradient>
			<path style="fill:url(#SVGID_14_);" d="M212.299,205.821c-2.689-3.248-6.093-1.711-6.093-1.711
				c-4.029,17.019-25.154,30.816-46.857,37.561c1.418,6.036,4.681,16.246,11.603,24.27
				C206.969,245.688,212.299,205.821,212.299,205.821z"/>
		</g>
		<g>
			
				<linearGradient id="SVGID_15_" gradientUnits="userSpaceOnUse" x1="-4920.832" y1="178.6221" x2="-4902.5459" y2="230.8687" gradientTransform="matrix(-1 0 0 1 -4701.0684 0)">
				<stop  offset="0" style="stop-color:#F9B776"/>
				<stop  offset="1" style="stop-color:#F47960"/>
			</linearGradient>
			<path style="fill:url(#SVGID_15_);" d="M211.646,206.647c0.282,0.895-2.977,2.257-4.896-1.402
				c-0.067-1.754-1.133-9.266-0.086-10.693c5.581-7.609,16.4-17.146,16.4-17.146c1.828,1.805,0.322,3.576,0.322,3.576l-5.248,5.468
				c1.098,1.984,2.437,3.659,3.064,6.059c0.476,1.817,0.185,3.761-0.733,5.414c-0.922,1.659-2.178,3.817-3.367,5.505
				C214.853,206.624,211.646,206.647,211.646,206.647z"/>
			
				<linearGradient id="SVGID_16_" gradientUnits="userSpaceOnUse" x1="-4906.7842" y1="212.0034" x2="-4920.5591" y2="184.2158" gradientTransform="matrix(-1 0 0 1 -4701.0684 0)">
				<stop  offset="0" style="stop-color:#F9B776"/>
				<stop  offset="1" style="stop-color:#F47960"/>
			</linearGradient>
			<path style="fill:url(#SVGID_16_);" d="M215.842,189.997l-4.782,4.056l-1.502,4.036l4.265,4.732c0,0,1.434-8.012,2.5-9.744
				C217.387,191.343,216.835,190.503,215.842,189.997z"/>
		</g>
		<path style="fill:#F6DD28;" d="M84.346,279.846l-10.501-26.51c0,0-25.573,17.375-29.778,39.404
			c4.832,0.356,13.625,1.614,22.23,5.959C68.188,288.297,84.346,279.846,84.346,279.846z"/>
		
			<linearGradient id="SVGID_17_" gradientUnits="userSpaceOnUse" x1="6527.8359" y1="309.8457" x2="6594.8438" y2="309.8457" gradientTransform="matrix(1 0 0 1 -6484.3516 0)">
			<stop  offset="0" style="stop-color:#F9B776"/>
			<stop  offset="1" style="stop-color:#F47960"/>
		</linearGradient>
		<path style="fill:url(#SVGID_17_);" d="M106.692,304.79c0,0-28.711,16.227-38.398,2.371c-2.012-2.877-2.492-5.736-1.997-8.462
			c-8.605-4.345-17.398-5.603-22.23-5.959c-1.268,6.642-0.598,13.706,3.305,20.845c16.97,31.042,63.121-1.716,63.121-1.716
			L106.692,304.79z"/>
		<g>
			<path style="fill:#707D88;" d="M103.243,325.318l15.668-54.721c0.179-0.622,0.709-1.075,1.351-1.149
				c2.84-0.332,11.065-1.262,20.564-2.065c11.44-0.968,24.728-1.751,32.666-1.085c1.129,0.096,1.812,1.289,1.309,2.305
				c-4.514,9.135-23.085,46.289-32.386,58.461c-0.309,0.404-0.785,0.64-1.292,0.635l-36.355-0.338
				C103.709,327.351,102.951,326.335,103.243,325.318z"/>
			
				<linearGradient id="SVGID_18_" gradientUnits="userSpaceOnUse" x1="6110.0566" y1="1634.4395" x2="6076.5825" y2="1722.3087" gradientTransform="matrix(1 0 0 1 -6484.3516 0)">
				<stop  offset="0" style="stop-color:#53D8FF"/>
				<stop  offset="1" style="stop-color:#3840F7"/>
			</linearGradient>
			<path style="fill:url(#SVGID_18_);" d="M142.45,262.639l11.362-1.894c0.604-0.101,1.1,0.479,0.907,1.061l-1.124,3.408
				c-0.099,0.297-0.357,0.511-0.666,0.553l-10.933,1.46c-0.565,0.075-1.032-0.438-0.902-0.993l0.696-2.976
				C141.866,262.937,142.126,262.692,142.45,262.639z"/>
			
				<linearGradient id="SVGID_19_" gradientUnits="userSpaceOnUse" x1="6110.9912" y1="1634.7002" x2="6077.519" y2="1722.5641" gradientTransform="matrix(1 0 0 1 -6484.3516 0)">
				<stop  offset="0" style="stop-color:#53D8FF"/>
				<stop  offset="1" style="stop-color:#3840F7"/>
			</linearGradient>
			<path style="fill:url(#SVGID_19_);" d="M133.944,272.256l0.936-4.873c0.095-0.491,0.498-0.859,0.993-0.909l22.946-2.329
				c0.772-0.077,1.391,0.63,1.21,1.385l-1.459,6.074c-0.118,0.485-0.541,0.838-1.04,0.862l-22.422,1.129
				C134.378,273.631,133.806,272.974,133.944,272.256z"/>
			
				<linearGradient id="SVGID_20_" gradientUnits="userSpaceOnUse" x1="6589.8691" y1="302.8203" x2="6610.7441" y2="302.8203" gradientTransform="matrix(1 0 0 1 -6484.3516 0)">
				<stop  offset="0" style="stop-color:#F9B776"/>
				<stop  offset="1" style="stop-color:#F47960"/>
			</linearGradient>
			<path style="fill:url(#SVGID_20_);" d="M107.029,312.097c0,0-2.184-8.975-1.303-12.158c0.881-3.186,2.586-7.279,8.272-6.369
				c5.686,0.909,12.394,3.305,12.394,3.305s-0.339,4.147-4.66,2.81l2.68,2.073c0,0-0.382,3.322-4.033,1.547l2.492,2.75
				c0,0-1.567,2.728-4.254,0.979C115.933,305.282,114.646,313.179,107.029,312.097z"/>
		</g>
		
			<linearGradient id="SVGID_21_" gradientUnits="userSpaceOnUse" x1="6579.2881" y1="238.21" x2="6605.7813" y2="238.21" gradientTransform="matrix(1 0 0 1 -6484.3516 0)">
			<stop  offset="0" style="stop-color:#F9B776"/>
			<stop  offset="1" style="stop-color:#F47960"/>
		</linearGradient>
		<path style="fill:url(#SVGID_21_);" d="M103.698,223.922l-8.711,25.191c-0.144,0.417,0.027,0.88,0.414,1.093
			c2.375,1.313,10.93,5.107,21.239-1.428c1.073-0.682,1.806-1.793,1.969-3.053l2.82-21.804H103.698z"/>
		<g>
			
				<linearGradient id="SVGID_22_" gradientUnits="userSpaceOnUse" x1="-1039.3281" y1="2412.3086" x2="-1049.2281" y2="2379.6563" gradientTransform="matrix(0.746 -0.6659 0.6659 0.746 -703.2871 -2270.3169)">
				<stop  offset="0" style="stop-color:#F9B776"/>
				<stop  offset="1" style="stop-color:#F47960"/>
			</linearGradient>
			<path style="fill:url(#SVGID_22_);" d="M122.653,200.593c0,0,9.564,18.006,8.339,25.279s-13.081,6.753-23.434,0.844
				l-7.234-19.442L122.653,200.593z"/>
			<path style="fill:#585B5E;" d="M108.017,217.168c0.42-0.186,0.576-0.7,0.323-1.086c-0.766-1.171-2.202-3.559-2.661-5.651
				c0,0-1.72-1.101,4.378-2.56c6.095-1.46,15.187-3.724,17.098-8.913c1.863-5.06-3.032-17.783-10.842-7.645
				c-0.297,0.386-0.879,0.394-1.176,0.007c-1.28-1.665-4.646-5.124-9.319-3.027c-4.374,1.962-4.865,5.167-4.806,6.781
				c0.018,0.475-0.407,0.846-0.874,0.756c-2.212-0.421-7.518-0.784-9.994,4.659c-2.04,4.483-0.714,7.021,0.493,8.263
				c0.392,0.401,0.221,1.064-0.315,1.229c-1.454,0.444-3.331,1.675-3.143,5.08c0.259,4.707,5.522,4.292,7.021,4.078
				c0.245-0.036,0.493,0.049,0.659,0.232c1.284,1.422,7.072,7.458,13.337,8.186c0.541,0.063,0.962-0.474,0.785-0.988l-2.712-7.882
				c-0.126-0.366,0.05-0.767,0.403-0.925L108.017,217.168z"/>
			
				<linearGradient id="SVGID_23_" gradientUnits="userSpaceOnUse" x1="-1049.4478" y1="2412.1611" x2="-1058.3564" y2="2382.7783" gradientTransform="matrix(0.746 -0.6659 0.6659 0.746 -703.2871 -2270.3169)">
				<stop  offset="0" style="stop-color:#F9B776"/>
				<stop  offset="1" style="stop-color:#F47960"/>
			</linearGradient>
			<path style="fill:url(#SVGID_23_);" d="M109.105,218.287c0,0-6.81-4.673-7.308-0.738c-0.498,3.937,6.133,5.7,9.418,4.233
				L109.105,218.287z"/>
		</g>
	</g>
</g>
</svg>
