<?xml version="1.0" encoding="iso-8859-1"?>
<!-- Generator: Adobe Illustrator 16.0.0, SVG Export Plug-In . SVG Version: 6.00 Build 0)  -->
<!DOCTYPE svg PUBLIC "-//W3C//DTD SVG 1.1//EN" "http://www.w3.org/Graphics/SVG/1.1/DTD/svg11.dtd">
<svg version="1.1" id="Layer_1" xmlns="http://www.w3.org/2000/svg" xmlns:xlink="http://www.w3.org/1999/xlink" x="0px" y="0px"
	 width="500px" height="350px" viewBox="0 0 500 350" style="enable-background:new 0 0 500 350;" xml:space="preserve">
<g>
	<path style="opacity:0.34;fill:#C1E59E;" d="M197.317,46.511c-61.978,3.905-147.115,30.517-153.808,70.726
		c-4.145,24.896,21.744,55.261,48.045,68.545c36.045,18.205,73.586,4.693,92.938,31.822c3.984,5.585,2.835,6.777,7.828,19.074
		c4.961,12.219,31.224,76.895,86.117,90.183c21.537,5.214,40.26,0.769,48.364-1.249c63.179-15.729,122.052-88.45,118.453-149.146
		C439.893,86.003,296.831,40.241,197.317,46.511z"/>
	<path style="opacity:0.2;fill:#3A7EC1;" d="M386.319,106.367L236.226,74.04c-3.931-0.847-7.839,1.677-8.686,5.607l-40.133,186.342
		c-0.847,3.932,1.677,7.84,5.607,8.687l150.094,32.326c3.93,0.847,7.839-1.677,8.686-5.607l40.133-186.342
		C392.773,111.122,390.25,107.213,386.319,106.367z"/>
	<g>
		<path style="fill:#FFFFFF;" d="M342.458,298.924l-158.612-34.16c-1.588-0.342-2.607-1.922-2.266-3.51l41.968-194.86
			c0.342-1.588,1.921-2.607,3.51-2.266L385.67,98.289c1.588,0.342,2.607,1.921,2.266,3.51l-41.968,194.859
			C345.625,298.246,344.046,299.267,342.458,298.924z"/>
		<path style="fill:#76C23A;" d="M289.359,104.692l-52.098-11.221c-0.673-0.145-1.104-0.813-0.959-1.486l1.5-6.968
			c0.145-0.673,0.814-1.104,1.487-0.96l52.099,11.221c0.672,0.145,1.104,0.813,0.959,1.486l-1.5,6.969
			C290.701,104.405,290.032,104.838,289.359,104.692z"/>
		<path style="fill:#E4F7F0;" d="M359.705,142.126l-127.03-27.359c-0.672-0.145-1.104-0.813-0.959-1.486l1.5-6.968
			c0.145-0.673,0.814-1.105,1.487-0.96l127.03,27.358c0.673,0.146,1.104,0.814,0.96,1.487l-1.501,6.968
			C361.047,141.839,360.377,142.271,359.705,142.126z"/>
		<path style="fill:#E4F7F0;" d="M355.118,163.421l-127.029-27.359c-0.673-0.145-1.105-0.813-0.96-1.486l1.5-6.968
			c0.145-0.673,0.814-1.105,1.487-0.96l127.03,27.358c0.672,0.145,1.104,0.813,0.959,1.486l-1.5,6.969
			C356.46,163.134,355.791,163.565,355.118,163.421z"/>
		<path style="fill:#E4F7F0;" d="M350.532,184.716l-127.03-27.359c-0.673-0.145-1.104-0.813-0.96-1.486l1.501-6.969
			c0.145-0.673,0.814-1.104,1.486-0.959l127.03,27.358c0.673,0.145,1.104,0.813,0.96,1.486l-1.501,6.969
			C351.874,184.429,351.205,184.86,350.532,184.716z"/>
		<path style="fill:#E4F7F0;" d="M345.945,206.011l-127.029-27.359c-0.673-0.145-1.104-0.813-0.959-1.486l1.5-6.969
			c0.145-0.673,0.814-1.104,1.487-0.96l127.03,27.359c0.673,0.145,1.104,0.813,0.959,1.486l-1.5,6.969
			C347.287,205.724,346.618,206.155,345.945,206.011z"/>
		<path style="fill:#E4F7F0;" d="M341.359,227.306l-92.147-19.847c-0.673-0.145-1.104-0.814-0.96-1.486l1.501-6.969
			c0.145-0.673,0.813-1.104,1.486-0.96l92.147,19.847c0.673,0.145,1.104,0.813,0.96,1.486l-1.501,6.968
			C342.701,227.019,342.032,227.45,341.359,227.306z"/>
		<path style="fill:#E4F7F0;" d="M336.773,248.6l-127.03-27.358c-0.672-0.146-1.104-0.814-0.959-1.487l1.5-6.968
			c0.145-0.673,0.814-1.104,1.487-0.959l127.03,27.358c0.673,0.145,1.104,0.813,0.96,1.486l-1.501,6.968
			C338.115,248.313,337.445,248.745,336.773,248.6z"/>
		<path style="fill:#E4F7F0;" d="M332.187,269.895l-127.029-27.358c-0.673-0.146-1.105-0.814-0.96-1.487l1.501-6.968
			c0.145-0.673,0.814-1.104,1.486-0.96l127.03,27.359c0.673,0.145,1.104,0.813,0.959,1.486l-1.501,6.968
			C333.528,269.607,332.859,270.039,332.187,269.895z"/>
	</g>
	<path style="opacity:0.2;fill:#3A7EC1;" d="M309.815,235.486c0-0.008,0.001-0.019,0.001-0.025
		c-0.003-0.011-0.001-0.027-0.003-0.038c-0.002-0.077-0.004-0.16-0.011-0.237c-0.008-0.081-0.01-0.164-0.022-0.245
		c-0.002-0.032-0.004-0.065-0.008-0.104c-0.005-0.021-0.004-0.043-0.009-0.064c-0.007-0.055-0.014-0.108-0.024-0.156
		c-0.007-0.054-0.014-0.108-0.026-0.16c-0.021-0.117-0.042-0.229-0.066-0.341l-0.066-0.286l0,0l-0.032-0.142l-20.859-90.781
		c-0.025-0.111-0.057-0.226-0.088-0.336c-0.019-0.079-0.043-0.162-0.071-0.239c-0.027-0.094-0.06-0.187-0.098-0.278
		c-0.028-0.076-0.058-0.153-0.092-0.229c-0.028-0.076-0.062-0.146-0.096-0.223c-0.044-0.095-0.087-0.186-0.137-0.279
		c-0.099-0.189-0.203-0.377-0.322-0.555c-0.001-0.006-0.007-0.01-0.009-0.015c-0.075-0.111-0.15-0.222-0.23-0.325
		c-0.284-0.391-0.61-0.744-0.971-1.057c-0.085-0.075-0.174-0.149-0.269-0.223c-0.205-0.164-0.416-0.311-0.636-0.443
		c-0.072-0.044-0.144-0.089-0.219-0.127c-0.096-0.056-0.192-0.111-0.298-0.16c-0.013-0.008-0.031-0.016-0.05-0.022l-0.397-0.181
		c0,0-0.001-0.006-0.005,0.001l-11.443-5.157l-7.26-31.6c-1.482-6.451-7.914-10.479-14.365-8.997l-45.331,10.416l-15.948-7.188
		c-2.774-1.254-6.045-0.503-7.995,1.837l-11.211,13.429l-47.48,10.909c-6.451,1.483-10.479,7.914-8.997,14.365l7.635,33.229
		l-6.273,7.514l-0.278,0.336c-0.013,0.015-0.027,0.028-0.035,0.042c-0.724,0.939-1.194,2.065-1.342,3.263
		c-0.093,0.755-0.059,1.537,0.121,2.319l20.958,91.208c0.039,0.17,0.082,0.332,0.135,0.492c0.011,0.038,0.024,0.074,0.036,0.111
		c0.009,0.027,0.018,0.057,0.027,0.085c0.005,0.016,0.009,0.031,0.015,0.047c0,0.001,0,0.001,0.001,0.003
		c0.006,0.016,0.013,0.029,0.019,0.045c0.033,0.097,0.071,0.195,0.108,0.29c0.009,0.015,0.014,0.036,0.022,0.051
		c0.017,0.036,0.034,0.071,0.05,0.107c0.017,0.039,0.035,0.077,0.053,0.116c0.009,0.02,0.018,0.04,0.028,0.061
		c0.009,0.018,0.017,0.035,0.026,0.053c0.049,0.102,0.103,0.202,0.157,0.303c0.012,0.021,0.024,0.039,0.036,0.061
		c0.024,0.042,0.049,0.082,0.074,0.123c0.026,0.045,0.052,0.092,0.08,0.134c0.068,0.102,0.137,0.208,0.204,0.305
		c0.002,0.004,0.005,0.006,0.008,0.01c0.048,0.068,0.102,0.13,0.152,0.195c0.022,0.028,0.041,0.06,0.063,0.088
		c0.064,0.086,0.139,0.168,0.208,0.253c0.012,0.012,0.023,0.024,0.035,0.036c0.015,0.018,0.032,0.034,0.048,0.051
		c0.045,0.049,0.088,0.098,0.138,0.146c0.02,0.02,0.042,0.035,0.062,0.055c0.083,0.084,0.167,0.168,0.256,0.247
		c0.019,0.017,0.034,0.036,0.053,0.053c0.088,0.079,0.18,0.151,0.273,0.224c0.045,0.036,0.091,0.072,0.137,0.107
		c0.067,0.05,0.134,0.101,0.2,0.146c0.027,0.02,0.058,0.033,0.085,0.052c0.128,0.087,0.259,0.168,0.393,0.245
		c0.042,0.024,0.084,0.049,0.127,0.072c0.054,0.03,0.107,0.062,0.162,0.09c0.218,0.111,0.44,0.214,0.669,0.301
		c0.039,0.016,0.078,0.026,0.117,0.041c0.057,0.021,0.112,0.043,0.169,0.061c0.09,0.029,0.181,0.059,0.271,0.088
		c0.01,0.003,0.021,0.004,0.032,0.006c0.044,0.013,0.09,0.021,0.135,0.031c0.088,0.022,0.176,0.042,0.265,0.061
		c0.172,0.037,0.346,0.066,0.521,0.089c0.052,0.008,0.101,0.021,0.152,0.027c0.053,0.005,0.11,0.009,0.166,0.014
		c0.028,0.002,0.057,0.005,0.085,0.007c0.005,0,0.01,0.001,0.015,0.002c0.142,0.012,0.281,0.013,0.421,0.014
		c0.039,0.002,0.073,0.006,0.112,0.002c0.018,0,0.036-0.002,0.054-0.002c0.026-0.001,0.053-0.003,0.08-0.004
		c0.086-0.002,0.171-0.002,0.257-0.012c0.006,0,0.013-0.001,0.02-0.001c0.021-0.002,0.043-0.004,0.065-0.006
		c0.025-0.003,0.048-0.004,0.074-0.007c0.052-0.003,0.103-0.011,0.153-0.017c0.023-0.003,0.046-0.004,0.07-0.008
		c0.018-0.002,0.036-0.003,0.054-0.006c0.08-0.013,0.166-0.026,0.247-0.04c0.117-0.021,0.235-0.043,0.351-0.069l161.14-37.024
		c0.116-0.027,0.23-0.06,0.346-0.092c0.078-0.023,0.162-0.048,0.24-0.071c0.026-0.006,0.046-0.017,0.067-0.021
		c0.035-0.015,0.076-0.029,0.112-0.043c0.021-0.005,0.041-0.015,0.063-0.021c0.046-0.016,0.087-0.031,0.128-0.046
		c0.004-0.007,0.01-0.007,0.02-0.01c0.051-0.023,0.106-0.047,0.157-0.069c0.041-0.016,0.088-0.031,0.127-0.052
		c0.008-0.004,0.016-0.007,0.023-0.012c0.002,0,0.003-0.001,0.004-0.002c0.057-0.027,0.112-0.055,0.168-0.081
		c0.125-0.062,0.25-0.124,0.372-0.197c0.005-0.002,0.008-0.005,0.013-0.007c0.029-0.017,0.058-0.035,0.087-0.053
		c0.036-0.022,0.075-0.043,0.11-0.066c0.02-0.01,0.044-0.026,0.064-0.037c0.02-0.01,0.033-0.023,0.053-0.034
		c0.03-0.019,0.055-0.045,0.084-0.064c0.257-0.174,0.502-0.358,0.729-0.563c0.005-0.006,0.013-0.01,0.018-0.015
		c0.038-0.03,0.074-0.067,0.11-0.104c0.038-0.03,0.069-0.061,0.101-0.095c0.041-0.037,0.082-0.08,0.122-0.123
		c0.017-0.016,0.034-0.036,0.052-0.057c0.018-0.019,0.035-0.038,0.052-0.057c0.063-0.068,0.124-0.138,0.186-0.203
		c0.008-0.014,0.016-0.026,0.025-0.034c0.039-0.046,0.075-0.097,0.113-0.146c0.035-0.043,0.069-0.087,0.103-0.131
		c0.013-0.017,0.025-0.031,0.037-0.048c0.009-0.014,0.022-0.028,0.03-0.041c0.033-0.047,0.067-0.094,0.096-0.139
		c0.031-0.035,0.056-0.074,0.08-0.112c0.021-0.034,0.041-0.065,0.06-0.097c0.021-0.034,0.042-0.068,0.063-0.103
		c0.043-0.068,0.086-0.137,0.124-0.208c0.039-0.069,0.078-0.145,0.116-0.22c0.021-0.041,0.042-0.083,0.063-0.125
		c0.057-0.114,0.109-0.229,0.163-0.346c0.016-0.05,0.037-0.1,0.057-0.151c0.013-0.032,0.023-0.065,0.036-0.098
		c0.029-0.078,0.06-0.157,0.085-0.237c0.021-0.049,0.032-0.102,0.049-0.15c0.015-0.054,0.032-0.102,0.048-0.155
		c0.015-0.054,0.029-0.112,0.041-0.16c0.042-0.154,0.071-0.316,0.103-0.474c-0.003-0.011,0.004-0.029,0.006-0.046
		c0.005-0.051,0.015-0.104,0.023-0.161c0.01-0.058,0.018-0.121,0.025-0.184c0.004-0.007,0.002-0.012,0.002-0.018
		c0.007-0.051,0.009-0.104,0.013-0.155c0.005-0.048,0.01-0.096,0.013-0.144c0.002-0.023,0.004-0.047,0.006-0.069
		c0.003-0.013,0.005-0.029,0.003-0.04c0.001-0.066,0.006-0.141,0.007-0.213c0.001-0.039,0.004-0.078,0-0.117
		c0.004-0.021,0-0.044-0.002-0.065C309.813,235.537,309.815,235.512,309.815,235.486z"/>
	<g>
		<path style="fill:#DFE5EA;" d="M281.223,138.687l20.957,91.209c0.025,0.11,0.046,0.223,0.066,0.341
			c0.013,0.053,0.02,0.106,0.026,0.16c0.011,0.048,0.018,0.102,0.024,0.156c0.005,0.021,0.005,0.043,0.01,0.063
			c0.003,0.039,0.005,0.072,0.007,0.104c0.013,0.081,0.016,0.163,0.023,0.245c0.006,0.076,0.009,0.159,0.01,0.237
			c0.003,0.038,0.001,0.077-0.001,0.117c0.006,0.026,0.008,0.06,0.003,0.088c0.004,0.038,0.002,0.078-0.001,0.117
			c0,0.072-0.005,0.146-0.007,0.213c0.003,0.011,0.001,0.027-0.002,0.039c-0.01,0.125-0.015,0.248-0.031,0.369
			c0.001,0.006,0.002,0.011-0.002,0.017c-0.008,0.063-0.016,0.126-0.024,0.184c-0.009,0.059-0.02,0.11-0.024,0.162
			c-0.002,0.017-0.009,0.035-0.006,0.046c-0.031,0.157-0.06,0.319-0.103,0.474c-0.012,0.048-0.025,0.106-0.041,0.16
			c-0.016,0.053-0.032,0.102-0.048,0.155c-0.017,0.049-0.026,0.101-0.049,0.15c-0.032,0.102-0.07,0.205-0.108,0.303
			c-0.023,0.067-0.05,0.123-0.069,0.183c-0.063,0.138-0.121,0.273-0.19,0.406c-0.049,0.1-0.1,0.194-0.151,0.285
			c-0.051,0.095-0.107,0.186-0.165,0.276c-0.022,0.045-0.053,0.085-0.081,0.13c-0.024,0.039-0.049,0.078-0.08,0.113
			c-0.028,0.045-0.062,0.092-0.096,0.139c-0.008,0.013-0.021,0.027-0.029,0.04c-0.08,0.112-0.166,0.222-0.254,0.325
			c-0.01,0.008-0.018,0.021-0.025,0.034c-0.071,0.077-0.142,0.16-0.218,0.238c-0.027,0.029-0.049,0.057-0.071,0.078
			c-0.04,0.043-0.08,0.085-0.122,0.123c-0.031,0.034-0.063,0.064-0.101,0.095c-0.036,0.036-0.072,0.072-0.109,0.104
			c-0.257,0.237-0.536,0.451-0.832,0.642c-0.02,0.01-0.033,0.024-0.054,0.034c-0.02,0.011-0.043,0.027-0.063,0.037
			c-0.067,0.043-0.136,0.087-0.21,0.126c-0.123,0.073-0.247,0.135-0.372,0.197c-0.064,0.031-0.13,0.063-0.194,0.095
			c-0.041,0.021-0.087,0.036-0.128,0.051c-0.051,0.023-0.106,0.047-0.156,0.07c-0.011,0.002-0.016,0.003-0.02,0.01
			c-0.042,0.015-0.083,0.03-0.129,0.046c-0.021,0.005-0.041,0.016-0.063,0.021c-0.035,0.014-0.076,0.028-0.112,0.042
			c-0.021,0.005-0.041,0.015-0.067,0.021c-0.078,0.023-0.161,0.048-0.24,0.071c-0.114,0.032-0.229,0.064-0.346,0.091l-161.14,37.025
			c-0.116,0.026-0.233,0.048-0.351,0.069c-0.081,0.013-0.166,0.027-0.247,0.04c-0.091,0.016-0.184,0.025-0.277,0.03
			c-0.054,0.007-0.108,0.014-0.158,0.014c-0.13,0.014-0.263,0.017-0.391,0.018c-0.038,0.004-0.073,0-0.112-0.002
			c-0.14-0.001-0.279-0.002-0.42-0.015c-0.085-0.008-0.165-0.013-0.244-0.021c-0.382-0.04-0.761-0.115-1.128-0.214
			c-0.09-0.029-0.18-0.059-0.271-0.088c-0.102-0.032-0.205-0.069-0.303-0.108c-0.604-0.233-1.167-0.55-1.68-0.943
			c-0.121-0.089-0.237-0.185-0.35-0.287c-0.383-0.335-0.725-0.712-1.022-1.134c-0.066-0.096-0.136-0.202-0.204-0.303
			c-0.068-0.102-0.126-0.211-0.19-0.318c-0.058-0.109-0.117-0.218-0.169-0.328c-0.052-0.105-0.098-0.206-0.145-0.313
			c-0.008-0.014-0.014-0.035-0.022-0.05c-0.04-0.102-0.082-0.21-0.116-0.313c-0.006-0.004-0.009-0.015-0.012-0.025
			c-0.029-0.082-0.053-0.16-0.078-0.244c-0.054-0.159-0.097-0.322-0.135-0.491l-20.957-91.209c-0.18-0.781-0.215-1.563-0.122-2.319
			c0.148-1.196,0.618-2.322,1.342-3.263c0.008-0.013,0.021-0.026,0.035-0.041l0.279-0.336c0.888-1,2.086-1.743,3.492-2.065
			l161.139-37.025c0.158-0.036,0.313-0.066,0.471-0.086c0.024-0.011,0.058-0.013,0.085-0.014c0.15-0.023,0.308-0.043,0.455-0.055
			c0.033-0.002,0.071-0.005,0.104-0.007c0.132-0.008,0.265-0.011,0.394-0.007c0.033-0.002,0.065-0.004,0.1-0.001
			c0.162,0.002,0.319,0.01,0.479,0.023c0.147,0.011,0.302,0.031,0.446,0.054c0.207,0.03,0.413,0.077,0.614,0.131
			c0.111,0.024,0.224,0.055,0.332,0.091c0.191,0.056,0.38,0.124,0.56,0.205c0.004-0.007,0.005-0.001,0.005-0.001l0.397,0.181
			c0.019,0.007,0.037,0.015,0.05,0.022c0.105,0.048,0.202,0.104,0.298,0.159c0.076,0.039,0.147,0.083,0.219,0.128
			c0.22,0.133,0.432,0.279,0.637,0.444c0.094,0.072,0.184,0.146,0.268,0.222c0.36,0.312,0.687,0.665,0.971,1.056
			c0.08,0.104,0.155,0.215,0.231,0.326c0.001,0.005,0.007,0.009,0.009,0.015c0.118,0.178,0.223,0.365,0.322,0.554
			c0.049,0.095,0.092,0.185,0.136,0.28c0.034,0.076,0.067,0.146,0.097,0.223c0.033,0.076,0.063,0.152,0.091,0.229
			c0.038,0.092,0.07,0.185,0.098,0.278c0.028,0.077,0.053,0.16,0.071,0.239C281.165,138.46,281.196,138.575,281.223,138.687z"/>
		<path style="fill:#F9C067;" d="M280.319,136.547l-173.409,39.844c0.148-1.196,0.618-2.322,1.342-3.263
			c0.008-0.013,0.021-0.026,0.035-0.041l0.279-0.336l66.327-79.445c1.949-2.34,5.22-3.091,7.994-1.837l94.348,42.526
			c0.004-0.007,0.005-0.001,0.005-0.001l0.397,0.181c0.019,0.007,0.037,0.015,0.05,0.022c0.105,0.048,0.202,0.104,0.298,0.159
			c0.076,0.039,0.147,0.083,0.219,0.128c0.22,0.133,0.432,0.279,0.637,0.444c0.094,0.072,0.184,0.146,0.268,0.222
			c0.36,0.312,0.687,0.665,0.971,1.056c0.08,0.104,0.155,0.215,0.231,0.326C280.312,136.537,280.317,136.541,280.319,136.547z"/>
		<path style="fill:#FFFFFF;" d="M290.081,234.546l-151.328,34.771l-33.148-144.269c-0.599-2.606,1.029-5.205,3.635-5.805
			l141.888-32.602c2.606-0.599,5.205,1.029,5.805,3.636L290.081,234.546z"/>
		<path style="fill:#E4F7F0;" d="M245.296,122.69l-115.075,26.44c-0.491,0.112-0.984-0.196-1.098-0.688l-1.168-5.084
			c-0.113-0.491,0.196-0.984,0.688-1.098l115.074-26.44c0.491-0.113,0.985,0.196,1.098,0.687l1.168,5.085
			C246.097,122.083,245.787,122.577,245.296,122.69z"/>
		<path style="fill:#E4F7F0;" d="M248.668,137.364l-115.075,26.44c-0.491,0.113-0.985-0.196-1.097-0.687l-1.168-5.085
			c-0.113-0.49,0.197-0.984,0.688-1.097l115.075-26.441c0.491-0.112,0.984,0.196,1.098,0.688l1.168,5.084
			C249.469,136.758,249.159,137.252,248.668,137.364z"/>
		<path style="fill:#E4F7F0;" d="M252.04,152.038l-115.075,26.441c-0.491,0.112-0.984-0.196-1.097-0.688l-1.168-5.084
			c-0.113-0.491,0.196-0.984,0.687-1.098l115.075-26.44c0.49-0.113,0.984,0.196,1.097,0.688l1.169,5.084
			C252.84,151.432,252.531,151.926,252.04,152.038z"/>
		<path style="fill:#E4F7F0;" d="M255.412,166.713l-115.075,26.441c-0.491,0.112-0.985-0.197-1.098-0.688l-1.168-5.084
			c-0.113-0.491,0.196-0.985,0.688-1.098l115.074-26.441c0.491-0.112,0.985,0.197,1.098,0.688l1.168,5.084
			C256.212,166.106,255.902,166.601,255.412,166.713z"/>
		<path style="fill:#E4F7F0;" d="M258.783,181.388l-115.075,26.44c-0.491,0.112-0.984-0.196-1.097-0.688l-1.168-5.084
			c-0.113-0.49,0.197-0.984,0.688-1.097l115.075-26.441c0.49-0.113,0.984,0.196,1.098,0.688l1.168,5.084
			C259.584,180.78,259.274,181.274,258.783,181.388z"/>
		<path style="fill:#F4B545;" d="M205.17,206.749l0.001,0.005c-0.191,0.333-0.434,0.656-0.729,0.946l-68.07,67.162l-0.359,0.083
			c-0.66,0.151-1.316,0.202-1.956,0.154c-0.091-0.007-0.181-0.014-0.267-0.022c-1.124-0.119-2.19-0.525-3.099-1.162
			c-0.086-0.059-0.172-0.122-0.261-0.19c-0.255-0.191-0.495-0.409-0.72-0.642c-0.079-0.076-0.147-0.155-0.221-0.232
			c-0.069-0.085-0.144-0.167-0.208-0.253c-0.609-0.761-1.061-1.664-1.294-2.679l-20.957-91.209c-0.18-0.781-0.215-1.563-0.122-2.319
			c0.148-1.196,0.618-2.322,1.342-3.263c0.008-0.013,0.021-0.026,0.035-0.041l0.279-0.336c0.888-1,2.086-1.743,3.492-2.065
			l0.464-0.106c0.671-0.154,1.371-0.119,2.023,0.102l6.954,2.357l73.3,24.862l2.757,0.936l5.26,1.784
			c0.392,0.132,0.751,0.316,1.068,0.533l0.001,0.005C205.679,202.398,206.243,204.855,205.17,206.749z"/>
		<path style="fill:#F4B545;" d="M281.223,138.687l20.957,91.209c0.025,0.11,0.046,0.223,0.066,0.341
			c0.013,0.053,0.02,0.106,0.026,0.16c0.011,0.048,0.018,0.102,0.024,0.156c0.005,0.021,0.005,0.043,0.01,0.063
			c0.003,0.039,0.005,0.072,0.007,0.104c0.013,0.081,0.016,0.163,0.023,0.245c0.006,0.076,0.009,0.159,0.01,0.237
			c0.002,0.011,0,0.027,0.003,0.038c0,0.022,0.001,0.05-0.004,0.079c0.006,0.026,0.008,0.06,0.003,0.088
			c0.004,0.038,0.002,0.078-0.001,0.117c0,0.072-0.001,0.14-0.007,0.213c0.003,0.011,0.001,0.027-0.002,0.039
			c-0.005,0.124-0.015,0.248-0.031,0.369c0.001,0.006,0.002,0.011-0.002,0.017c-0.008,0.063-0.012,0.12-0.024,0.184
			c-0.005,0.052-0.016,0.104-0.024,0.162c-0.003,0.012-0.004,0.028-0.006,0.046c-0.031,0.157-0.06,0.319-0.103,0.474
			c-0.012,0.048-0.025,0.106-0.041,0.16c-0.016,0.053-0.032,0.102-0.048,0.155c-0.017,0.049-0.026,0.101-0.049,0.15
			c-0.032,0.102-0.07,0.205-0.108,0.303c-0.023,0.067-0.05,0.123-0.069,0.183c-0.063,0.143-0.126,0.274-0.19,0.406
			c-0.049,0.1-0.1,0.194-0.151,0.285c-0.051,0.095-0.107,0.186-0.165,0.276c-0.022,0.045-0.053,0.085-0.081,0.13
			c-0.024,0.039-0.049,0.078-0.08,0.113c-0.028,0.045-0.062,0.092-0.096,0.139c-0.008,0.013-0.021,0.027-0.029,0.04
			c-0.08,0.112-0.166,0.222-0.254,0.325c-0.01,0.008-0.018,0.021-0.025,0.034c-0.071,0.077-0.142,0.16-0.218,0.238
			c-0.027,0.029-0.049,0.057-0.071,0.078c-0.04,0.043-0.08,0.085-0.122,0.123c-0.031,0.034-0.063,0.064-0.101,0.095
			c-0.036,0.036-0.072,0.072-0.109,0.104c-0.257,0.237-0.536,0.451-0.832,0.642c-0.02,0.01-0.038,0.025-0.054,0.034
			c-0.02,0.011-0.043,0.027-0.063,0.037c-0.067,0.043-0.136,0.087-0.21,0.126c-0.123,0.073-0.247,0.135-0.372,0.197
			c-0.064,0.031-0.13,0.063-0.194,0.095c-0.041,0.021-0.087,0.036-0.128,0.051c-0.051,0.023-0.106,0.047-0.156,0.07l-0.016,0.003
			c-0.047,0.017-0.092,0.038-0.133,0.053c-0.021,0.005-0.041,0.016-0.063,0.021c-0.035,0.014-0.071,0.027-0.112,0.042
			c-0.021,0.005-0.041,0.015-0.067,0.021c-0.078,0.023-0.161,0.048-0.24,0.071c-0.114,0.032-0.229,0.064-0.346,0.091l-0.359,0.082
			l-90.56-30.714c-0.392-0.132-0.751-0.316-1.063-0.534l-0.001-0.005c-1.798-1.239-2.36-3.686-1.285-5.591l-0.001-0.005
			c0.185-0.332,0.428-0.655,0.723-0.945l3.949-3.9l2.072-2.045l55.102-54.364l5.977-5.896l1.49-0.343
			c0.158-0.036,0.313-0.066,0.471-0.086c0.024-0.011,0.058-0.013,0.085-0.014c0.15-0.023,0.308-0.043,0.455-0.055
			c0.033-0.002,0.071-0.005,0.104-0.007c0.132-0.008,0.265-0.011,0.394-0.007c0.033-0.002,0.065-0.004,0.1-0.001
			c0.162,0.002,0.319,0.01,0.479,0.023c0.147,0.011,0.302,0.031,0.446,0.054c0.207,0.03,0.413,0.077,0.614,0.131
			c0.111,0.024,0.224,0.055,0.332,0.091c0.191,0.056,0.38,0.124,0.56,0.205c0.004-0.007,0.005-0.001,0.005-0.001l0.397,0.181
			c0.019,0.007,0.037,0.015,0.05,0.022c0.105,0.048,0.202,0.104,0.298,0.159c0.076,0.039,0.147,0.083,0.219,0.128
			c0.22,0.133,0.432,0.279,0.637,0.444c0.094,0.072,0.184,0.146,0.268,0.222c0.36,0.312,0.687,0.665,0.971,1.056
			c0.08,0.104,0.155,0.215,0.231,0.326c0.001,0.005,0.007,0.009,0.009,0.015c0.118,0.178,0.223,0.365,0.322,0.554
			c0.049,0.095,0.092,0.185,0.136,0.28c0.034,0.076,0.067,0.146,0.097,0.223c0.033,0.076,0.063,0.152,0.091,0.229
			c0.038,0.092,0.07,0.185,0.098,0.278c0.028,0.077,0.053,0.16,0.071,0.239C281.165,138.46,281.196,138.575,281.223,138.687z"/>
		<path style="opacity:0.25;fill:#474747;" d="M301.896,228.66l0.218,0.949c0.864,3.761-1.356,7.482-4.96,8.311l-161.14,37.025
			c-3.604,0.828-7.226-1.551-8.09-5.313l-0.218-0.948l70.352-73.574c2.184-2.284,5.46-3.037,8.422-1.936L301.896,228.66z"/>
		<path style="fill:#F9C067;" d="M301.971,228.986l0.209,0.909c0.827,3.604-1.423,7.196-5.026,8.024l-161.14,37.025
			c-3.604,0.828-7.197-1.423-8.024-5.026l-0.209-0.908l70.878-71.285c2.201-2.213,5.477-2.966,8.422-1.935L301.971,228.986z"/>
		<path style="fill:#9ED86C;" d="M179.224,122.422l-52.374,12.034c-0.491,0.113-0.985-0.196-1.098-0.688l-1.168-5.084
			c-0.112-0.49,0.197-0.984,0.688-1.097l52.374-12.034c0.491-0.113,0.984,0.196,1.098,0.688l1.168,5.084
			C180.024,121.815,179.715,122.31,179.224,122.422z"/>
	</g>
	<path style="opacity:0.2;fill:#3A7EC1;" d="M293.112,261.743c-13.268,0-24.022,7.448-24.022,16.638
		c0,2.335,0.697,4.556,1.951,6.572l-22.928,15.685c-3.198-1.091-6.795-1.707-10.603-1.707c-13.267,0-24.022,7.449-24.022,16.637
		c0,9.189,10.755,16.639,24.022,16.639c13.268,0,24.022-7.449,24.022-16.639c0-4.809-2.95-9.139-7.661-12.176l20.882-14.286
		c4.406,3.614,10.993,5.912,18.358,5.912c13.267,0,24.021-7.448,24.021-16.637C317.134,269.191,306.379,261.743,293.112,261.743z"/>
	<g>
		<path style="fill:#636466;" d="M300.39,274.008c-1.219,0.852-2.897,0.554-3.749-0.664c-2.205-3.156-7.548,0.072-7.602,0.106
			l-69.921,48.868c-1.219,0.852-2.897,0.554-3.749-0.665c-0.852-1.218-0.554-2.896,0.665-3.748l70.055-48.956
			c3.485-2.147,10.901-4.505,14.966,1.311C301.905,271.478,301.607,273.157,300.39,274.008z"/>
		<path style="fill:#636466;" d="M230.882,322.581c1.218-0.851,1.516-2.53,0.665-3.748c-2.206-3.156,2.663-7.063,2.713-7.103
			l69.927-48.86c1.219-0.852,1.516-2.529,0.664-3.748s-2.529-1.517-3.748-0.665l-70.055,48.956
			c-3.214,2.535-7.978,8.688-3.914,14.504C227.985,323.135,229.664,323.433,230.882,322.581z"/>
		<circle style="opacity:0.28;fill:#F2F2F2;" cx="234.034" cy="308.61" r="20.079"/>
		<circle style="opacity:0.28;fill:#F2F2F2;" cx="286.492" cy="271.951" r="20.079"/>
		<path style="fill:#707D88;" d="M273.129,252.826c-8.621,6.024-11.913,16.886-8.802,26.381c-7.06,0.27-13.179,4.547-15.858,11.082
			c-7.848-6.185-19.164-6.838-27.799-0.804c-10.548,7.371-13.121,21.956-5.76,32.488c7.371,10.548,21.941,13.131,32.489,5.761
			c3.501-2.447,6.123-5.682,7.802-9.327c0.417-0.906,0.79-1.845,1.088-2.798c0.335-1.087,0.594-2.188,0.769-3.317
			c0.92-5.766-0.29-11.883-3.898-17.047c-0.145-0.206-0.298-0.426-0.457-0.622c0.133-0.53,0.276-1.046,0.444-1.558
			c0.917-2.635,2.518-4.825,4.65-6.316c2.133-1.49,4.74-2.239,7.529-2.196c0.539,0.019,1.087,0.052,1.627,0.134
			c0.129,0.217,0.272,0.422,0.417,0.628c3.598,5.149,8.926,8.388,14.656,9.507c1.12,0.225,2.243,0.358,3.38,0.419
			c0.997,0.048,2.017,0.035,3.012-0.047c4-0.321,7.938-1.672,11.439-4.119c10.548-7.371,13.131-21.94,5.76-32.488
			C298.256,248.053,283.676,245.456,273.129,252.826z M251.316,313.414c-1.061,3.871-3.442,7.419-7.002,9.906
			c-8.121,5.675-19.316,3.689-24.991-4.431c-5.665-8.105-3.69-19.316,4.431-24.99c7.34-5.13,17.229-3.982,23.242,2.304l0.01,0.014
			c0.621,0.639,1.204,1.348,1.739,2.112c0.308,0.441,0.603,0.894,0.855,1.351c1.688,2.915,2.445,6.131,2.355,9.323
			C251.924,310.492,251.713,311.976,251.316,313.414z M296.772,286.661c-3.56,2.488-7.709,3.505-11.71,3.169
			c-1.486-0.121-2.952-0.433-4.361-0.915c-3.029-1.013-5.788-2.83-7.945-5.416c-0.343-0.396-0.666-0.827-0.974-1.269
			c-0.535-0.765-1-1.556-1.387-2.359c0,0,0,0-0.01-0.014c-3.836-7.808-1.514-17.487,5.827-22.618
			c8.12-5.674,19.326-3.675,24.991,4.431C306.878,269.79,304.894,280.986,296.772,286.661z"/>
	</g>
	
		<path style="fill:none;stroke:#52D1BD;stroke-width:3;stroke-linecap:round;stroke-linejoin:round;stroke-miterlimit:10;stroke-dasharray:8;" d="
		M361.57,139.297c21.503-3.042,40.749,7.201,46.865,23.122c4.353,11.33,3.794,30.063-9.553,38.145
		c-11.848,7.173-29.988,3.663-35.946-7.279c-6.477-11.894,3.42-28.935,14.57-35.617c20.822-12.479,61,2.185,70.369,31.466
		c8.153,25.479-11.18,49.03-12.901,51.063"/>
	<path style="fill:#76C23A;" d="M76.763,116.475l4.936-2.595c1.118-0.588,2.425,0.362,2.211,1.607l-0.943,5.495
		c-0.084,0.494,0.08,0.999,0.438,1.349l3.993,3.893c0.904,0.882,0.405,2.418-0.845,2.6l-5.518,0.802
		c-0.497,0.072-0.926,0.384-1.147,0.834l-2.468,4.999c-0.559,1.133-2.174,1.133-2.733,0l-2.468-4.999
		c-0.222-0.45-0.651-0.762-1.147-0.834l-5.518-0.802c-1.25-0.182-1.75-1.718-0.845-2.6l3.993-3.893
		c0.359-0.35,0.523-0.854,0.438-1.349l-0.942-5.495c-0.213-1.245,1.093-2.195,2.211-1.607l4.936,2.595
		C75.789,116.708,76.319,116.708,76.763,116.475z"/>
	<circle style="fill:#76C23A;" cx="161.07" cy="313.981" r="6.238"/>
	<circle style="fill:#76C23A;" cx="377.152" cy="271.95" r="4.411"/>
	<g>
		<path style="fill:#76C23A;" d="M425.304,132.726c-6.837,0-12.397-5.561-12.397-12.396c0-6.837,5.561-12.398,12.397-12.398
			c6.836,0,12.398,5.562,12.398,12.398C437.702,127.165,432.14,132.726,425.304,132.726z M425.304,111.342
			c-4.955,0-8.986,4.032-8.986,8.987s4.031,8.985,8.986,8.985s8.987-4.03,8.987-8.985S430.259,111.342,425.304,111.342z"/>
		<circle style="fill:#76C23A;" cx="425.304" cy="120.328" r="6.313"/>
	</g>
	<g>
		<circle style="opacity:0.2;fill:#3A7EC1;" cx="431.479" cy="249.269" r="25.45"/>
		<g>
			<circle style="fill:#9ED86C;" cx="427.836" cy="243.807" r="25.45"/>
			<g>
				<path style="fill:#FFFFFF;" d="M431.834,236.129l0.459-2.036l4.843-0.001l-2.786,13.154c-0.172,0.832-0.257,1.382-0.257,1.651
					c0,0.281,0.07,0.501,0.211,0.66c0.141,0.158,0.309,0.238,0.505,0.238c0.66,0,1.514-0.431,2.559-1.294
					c1.046-0.862,1.956-2.036,2.733-3.522c0.776-1.486,1.164-3.109,1.163-4.871c0-1.468-0.278-2.85-0.835-4.146
					c-0.557-1.297-1.361-2.421-2.413-3.375s-2.352-1.699-3.898-2.237c-1.548-0.538-3.3-0.807-5.256-0.807
					c-1.994,0-3.822,0.261-5.485,0.78c-1.663,0.521-3.125,1.267-4.385,2.24c-1.259,0.972-2.311,2.174-3.154,3.604
					c-0.745,1.247-1.314,2.63-1.705,4.146s-0.587,3.063-0.586,4.642c0,2.103,0.419,4.026,1.258,5.769
					c0.838,1.743,2.055,3.204,3.651,4.384c1.596,1.181,3.525,2.018,5.788,2.513c2.263,0.494,4.818,0.595,7.668,0.302
					c2.263-0.27,4.18-0.784,5.751-1.542c1.571-0.759,2.901-1.823,3.989-3.193h3.907c-0.635,1.309-1.464,2.477-2.484,3.504
					c-1.021,1.027-2.217,1.893-3.586,2.597c-1.37,0.703-2.904,1.238-4.604,1.605s-3.553,0.552-5.559,0.552
					c-3.009,0-5.718-0.394-8.127-1.183c-2.409-0.788-4.438-1.925-6.082-3.411c-1.646-1.485-2.89-3.258-3.734-5.318
					c-0.844-2.061-1.267-4.339-1.267-6.834c-0.001-2.604,0.433-5.038,1.301-7.302c0.868-2.262,2.118-4.229,3.751-5.898
					c1.632-1.669,3.625-2.975,5.979-3.918c2.354-0.941,4.949-1.413,7.787-1.414c2.324,0,4.455,0.34,6.394,1.018
					c1.938,0.678,3.599,1.653,4.981,2.925c1.382,1.272,2.437,2.779,3.165,4.522c0.729,1.741,1.093,3.665,1.093,5.769
					c0,1.639-0.293,3.244-0.88,4.816c-0.587,1.571-1.428,2.983-2.521,4.238c-1.095,1.254-2.382,2.244-3.861,2.972
					c-1.479,0.729-3.076,1.092-4.787,1.093c-0.991,0-1.762-0.168-2.312-0.504c-0.551-0.336-0.918-0.872-1.102-1.605
					c-1.064,1.053-2.286,1.716-3.669,1.991c-1.382,0.275-2.722,0.147-4.018-0.385c-1.297-0.531-2.346-1.428-3.146-2.687
					c-0.801-1.26-1.202-2.813-1.203-4.659c0-1.92,0.413-3.811,1.238-5.669c0.825-1.859,1.999-3.382,3.521-4.568
					c1.521-1.187,3.243-1.78,5.164-1.781C429.191,233.653,430.807,234.479,431.834,236.129z M421.801,245.634
					c0,1.468,0.306,2.593,0.918,3.376c0.611,0.782,1.413,1.174,2.403,1.173c1.149,0,2.162-0.459,3.036-1.376
					c0.874-0.918,1.537-2.076,1.99-3.478c0.451-1.399,0.678-2.754,0.677-4.063c0-0.647-0.076-1.231-0.229-1.751
					c-0.153-0.52-0.38-0.976-0.68-1.367c-0.3-0.391-0.66-0.688-1.082-0.89c-0.422-0.201-0.901-0.302-1.44-0.302
					c-1.076,0-2.045,0.419-2.907,1.257s-1.525,1.926-1.99,3.266C422.033,242.817,421.801,244.203,421.801,245.634z"/>
			</g>
		</g>
	</g>
	<circle style="fill:#76C23A;" cx="197.301" cy="24.25" r="6.456"/>
</g>
</svg>
