<?xml version="1.0" encoding="iso-8859-1"?>
<!-- Generator: Adobe Illustrator 16.0.0, SVG Export Plug-In . SVG Version: 6.00 Build 0)  -->
<!DOCTYPE svg PUBLIC "-//W3C//DTD SVG 1.1//EN" "http://www.w3.org/Graphics/SVG/1.1/DTD/svg11.dtd">
<svg version="1.1" id="Layer_1" xmlns="http://www.w3.org/2000/svg" xmlns:xlink="http://www.w3.org/1999/xlink" x="0px" y="0px"
	 width="30px" height="30px" viewBox="0 0 30 30" style="enable-background:new 0 0 30 30;" xml:space="preserve">
<g>
	<path style="fill:#76C23A;" d="M1.333,12.436c1.193,0.959,2.341,1.956,3.445,2.988c1.123,1.017,2.188,2.082,3.263,3.138
		c2.136,2.124,4.176,4.327,6.16,6.576l-3.1,0.265c2.345-4.476,4.866-8.851,7.591-13.108c1.366-2.127,2.771-4.233,4.278-6.28
		c0.376-0.512,0.73-1.037,1.125-1.538l1.162-1.518C26.049,1.957,26.852,0.961,27.714,0c-0.385,1.233-0.83,2.432-1.286,3.625
		l-0.71,1.774c-0.229,0.596-0.498,1.168-0.746,1.754c-0.987,2.343-2.079,4.626-3.208,6.888c-2.265,4.521-4.735,8.924-7.381,13.228
		l-1.474,2.397l-1.626-2.133c-1.819-2.384-3.582-4.814-5.249-7.323c-0.827-1.26-1.663-2.513-2.441-3.813
		C2.795,15.114,2.042,13.793,1.333,12.436z"/>
</g>
</svg>
