<?xml version="1.0" encoding="utf-8"?>
<!-- Generator: Adobe Illustrator 16.0.0, SVG Export Plug-In . SVG Version: 6.00 Build 0)  -->
<!DOCTYPE svg PUBLIC "-//W3C//DTD SVG 1.1//EN" "http://www.w3.org/Graphics/SVG/1.1/DTD/svg11.dtd">
<svg version="1.1" id="Layer_1" xmlns="http://www.w3.org/2000/svg" xmlns:xlink="http://www.w3.org/1999/xlink" x="0px" y="0px"
	 width="960px" height="560px" viewBox="0 0 960 560" style="enable-background:new 0 0 960 560;" xml:space="preserve">
<style type="text/css">
<![CDATA[
	.st0{fill:#E38601;}
	.st1{fill:#B5EA7D;}
	.st2{fill:#F8FCFF;}
	.st3{opacity:0.5;fill:#9ED86C;}
	.st4{fill:#C1E59E;}
	.st5{fill:#C1F98C;}
	.st6{fill:url(#SVGID_1_);}
	.st7{fill:url(#SVGID_2_);}
	.st8{fill:#60A523;}
	.st9{fill:#FFB127;}
	.st10{fill:#A4E269;}
]]>
</style>
<path class="st4" d="M56.7,530.5c0,0-99.4-118.4-11.9-221.9c70.6-83.6,138-13.5,173.9-120.2C260.4,65,418.2-21.1,548.9,54.9
	c130.7,76,105.1,104.5,219.5,99.5c114.4-5,118.8,96.2,120.8,147.2c2,51,118.9,78.3,26.5,229.5L56.7,530.5z"/>
<path class="st8" d="M66.6,433.5c-11.3-36.3,47.1-59.8,47.1-59.8s69.9,31.6,81,26.3c11.1-5.3-54.5-38.7-54.5-38.7
	c18.8-14.6,85.2-22.5,85.2-22.5s37,65.2,46.4,57.4c9.5-7.8-35.7-56.1-35.7-56.1c23-6.5,55.4,4.6,55.4,4.6
	c45.9,22.4,14.8,80.2,14.8,80.2s13.3,22.3,42.8,38.8h0c0,0,6,2.7,14.1,8.6l-5.3,3.4c-1.3-1.1-2.7-2.2-4-3.2c0,0,0,0,0,0
	c0,0,0,0-0.1,0c-0.9-0.6-2.1-1.4-3.7-2.4c0,0,0,0,0,0c0,0,0,0,0,0c-3.6-2.1-6.2-3.8-7.9-5c0,0,0,0,0,0
	c-11.1-6.8-26.3-15.3-32.6-15.1c0,0,0.1-1.2-0.4-3.1c0.1,1,0.3,2,0.4,3.1c3.3,25.1-39.8,57-68.2,67.8c-28.4,10.8-22-3.2-15.8-23.3
	s36.5-35.1,42-45c5.5-9.8-9.6-6.6-25.5,5.4c-15.9,11.9-13.7,34-39.1,53.8c-25.4,19.8-78.4-18-78.4-18c22.4-6.1,49.3-37.7,46.5-45
	c-2.8-7.3-52,24.9-61,27.9C101.3,476.6,77.9,469.8,66.6,433.5z"/>
<path class="st8" d="M780.7,210.8c-15.2-30.5-67.6-9.6-67.6-9.6s-25.8,63.8-36.3,67.3c-10.5,3.5,11.4-58.9,11.4-58.9
	c-21.2,2.1-69.3,38.2-69.3,38.2s16.5,65.2,5.4,66c-11,0.8-11.6-58.5-11.6-58.5c-19,10.1-33.1,37.3-33.1,37.3
	c-15.9,43,40.1,61.2,40.1,61.2s5.2,22.7-3.7,51.8l0,0c0,0-2.2,5.5-3.8,14.3l5.5-1.1c0.2-1.6,0.4-3.1,0.6-4.6c0,0,0,0,0,0
	c0,0,0,0,0-0.1c0.2-0.9,0.5-2.2,0.9-3.8c0,0,0,0,0,0c0,0,0,0,0,0c1-3.6,1.7-6.3,2-8.2c0,0,0,0,0,0c3-11.3,7.6-26.2,11.8-30
	c0,0-0.8-0.7-1.7-2.3c0.5,0.7,1.1,1.5,1.7,2.3c13.4,18.3,61.2,12.3,86.3,1.7c25.2-10.6,12.3-15.7-4.3-24.9s-45.5-0.2-55.1-3.1
	c-9.7-3,2.2-10.2,19.9-12.3c17.8-2.1,30,13.6,58.7,10.7c28.8-2.9,39.7-60.3,39.7-60.3c-18.3,9.9-55.4,6.1-58.1-0.3
	c-2.7-6.5,49.2-16.1,56.9-19.7C785,260.3,795.9,241.4,780.7,210.8z"/>
<path class="st8" d="M888.2,452.5c7.7-24.6-31.9-40.7-31.9-40.7s-47.5,21.4-55.1,17.8c-7.6-3.6,37.1-26.2,37.1-26.2
	c-12.7-10-57.9-15.4-57.9-15.4s-25.2,44.3-31.6,38.9c-6.4-5.3,24.3-38.1,24.3-38.1c-15.6-4.4-37.7,3-37.7,3
	c-31.2,15.2-19.2,69.6-39.3,80.8h0c0,0-4.1,1.8-9.6,5.8l3.6,2.3c0.9-0.8,1.8-1.5,2.7-2.2c0,0,0,0,0,0c0,0,0,0,0,0
	c0.6-0.4,1.5-1,2.5-1.6c0,0,0,0,0,0c0,0,0,0,0,0c2.5-1.4,4.2-2.6,5.4-3.4c0,0,0,0,0,0c7.6-4.6,22.3-10.9,22.2-10.2
	c-2.3,17,27,38.8,46.3,46.2c19.3,7.4,14.9-2.2,10.7-15.8c-4.2-13.7-24.8-23.9-28.5-30.6c-3.7-6.7,6.5-4.4,17.4,3.7
	c10.8,8.1,9.2,23.1,26.5,36.6c17.3,13.5,53.3-12.1,53.3-12.1c-15.2-4.2-33.5-25.7-31.6-30.6c1.9-4.9,35.3,17,41.4,19.1
	C864.6,481.8,880.5,477.2,888.2,452.5z"/>
<g>
	<path class="st3" d="M557.5,278.9c0,0,3.1-62.8,32.5-102.2c3.9-5.2,12.2-2.6,12.6,3.9c0,0.1,0,0.2,0,0.3
		C602.9,192,570.4,241.4,557.5,278.9z"/>
	<path class="st3" d="M554.9,297c0,0,26.5-80.1,78.4-118.3c3.2-2.3,7.7-1.9,10.2,1.2c1.6,2,2.5,5.3,1.2,10.5
		C641.2,204.4,583.8,254.7,554.9,297z"/>
</g>
<path class="st8" d="M296.1,156.1c10.1-24.3,51.6-10.9,51.6-10.9s23.2,47.9,31.4,50s-11.8-44.8-11.8-44.8
	c16.5,0.5,55.4,25.9,55.4,25.9s-9.3,51.1-0.7,51.2c8.5,0,5.9-45.7,5.9-45.7c15.1,6.8,27.5,27.1,27.5,27.1
	c14.5,32.3-27.7,49.3-27.7,49.3s-2.8,17.8,5.5,39.7l0,0c0,0,2,4.1,3.7,10.9l-4.3-0.6c-0.2-1.2-0.4-2.4-0.7-3.5c0,0,0,0,0,0
	c0,0,0,0,0,0c-0.2-0.7-0.5-1.7-0.9-2.9c0,0,0,0,0,0c0,0,0,0,0,0c-1-2.7-1.6-4.8-2-6.2c0,0,0,0,0,0c-2.9-8.6-7.2-19.8-10.7-22.5
	c0,0,0.6-0.6,1.2-1.9c-0.4,0.6-0.8,1.2-1.2,1.9c-9.4,14.8-46.5,12.7-66.4,5.8c-19.9-6.9-10.3-11.5,2-19.4c12.2-8,35-2.5,42.3-5.3
	c7.3-2.8-2.2-7.8-16-8.5c-13.8-0.7-22.4,12.1-44.7,11.3c-22.3-0.8-33.8-44.4-33.8-44.4c14.6,6.7,43,1.8,44.8-3.3
	c1.7-5.1-38.8-9.8-44.9-12.2C295.4,194.4,286,180.4,296.1,156.1z"/>
<path class="st2" d="M406.3,89.1c0,0,7-15.5,23.6-13.8c0,0,24.2-25.8,49.9-3.4c0,0,27.4-5.5,47.7,4.8c13.5,6.9,18,14.1,18,14.1
	L406.3,89.1z"/>
<path class="st2" d="M509.8,131.7c0,0,4-9.5,13.7-8.4c0,0,14-15.8,29-2.1c0,0,15.9-3.4,27.7,2.9c7.9,4.2,10.5,8.6,10.5,8.6
	L509.8,131.7z"/>
<path class="st2" d="M210,260.5c0,0,4.7-12.7,16-11.3c0,0,16.4-21.1,33.9-2.8c0,0,18.6-4.5,32.3,3.9c9.2,5.6,12.2,11.6,12.2,11.6
	L210,260.5z"/>
<path class="st9" d="M600.7,296.6H369c-5.1,0-8.1-5.8-5.2-10l48.9-69.5c1.2-1.7,3.1-2.7,5.2-2.7h131c2,0,3.9,0.9,5.1,2.5l51.7,69.5
	C608.8,290.7,605.9,296.6,600.7,296.6z"/>
<path class="st1" d="M710.8,449.7H260.3c-5.9,0-9.4-6.7-6-11.5l46-65.5c1.4-1.9,3.6-3.1,6-3.1H662c2.3,0,4.5,1.1,5.9,2.9l48.7,65.5
	C720.2,442.8,716.8,449.7,710.8,449.7z"/>
<path class="st5" d="M196.2,512.3l40.6-57.8c2.1-3,5.5-4.8,9.2-4.8h467.5c3.6,0,6.9,1.7,9,4.5l43,57.8c5.5,7.4,0.2,18-9,18H205.4
	C196.3,530,191,519.7,196.2,512.3z"/>
<path class="st10" d="M338.2,362.5l43.5-61.8c1.8-2.6,4.8-4.1,7.9-4.1h246.5c3.1,0,5.9,1.4,7.8,3.9l43.8,58.8c3.4,4.6,0.1,11-5.5,11
	H342.2C338.2,370.4,335.9,365.8,338.2,362.5z"/>
<path class="st0" d="M433.7,209l60.2-85.7c1.3-1.9,4.2-2,5.6-0.1l63.8,85.7c1.7,2.3,0.1,5.5-2.8,5.5h-124
	C433.7,214.4,432.1,211.3,433.7,209z"/>
<linearGradient id="SVGID_1_" gradientUnits="userSpaceOnUse" x1="278.5278" y1="959.7012" x2="278.5278" y2="1017.6932" gradientTransform="matrix(1 0 0 -1 84 536)">
	<stop  offset="0" style="stop-color:#FFFFFF;stop-opacity:0"/>
	<stop  offset="9.080000e-002" style="stop-color:#DFF8E3;stop-opacity:0.1247"/>
	<stop  offset="0.1947" style="stop-color:#C1F1CA;stop-opacity:0.2673"/>
	<stop  offset="0.3051" style="stop-color:#AAECB7;stop-opacity:0.4189"/>
	<stop  offset="0.4235" style="stop-color:#9AE8A9;stop-opacity:0.5814"/>
	<stop  offset="0.5554" style="stop-color:#90E6A1;stop-opacity:0.7625"/>
	<stop  offset="0.7284" style="stop-color:#8DE59E"/>
</linearGradient>
<polygon class="st6" points="384.9,-483.6 373.7,-498.4 362.5,-513.2 351.4,-498.4 340.2,-483.6 350.8,-483.6 350.8,-417 
	374.3,-417 374.3,-483.6 "/>
<linearGradient id="SVGID_2_" gradientUnits="userSpaceOnUse" x1="244.4424" y1="-206.2192" x2="244.4424" y2="-153.1628" gradientTransform="matrix(1 0 0 1 84 -246.7695)">
	<stop  offset="0" style="stop-color:#FFFFFF;stop-opacity:0"/>
	<stop  offset="9.080000e-002" style="stop-color:#DFF8E3;stop-opacity:0.1247"/>
	<stop  offset="0.1947" style="stop-color:#C1F1CA;stop-opacity:0.2673"/>
	<stop  offset="0.3051" style="stop-color:#AAECB7;stop-opacity:0.4189"/>
	<stop  offset="0.4235" style="stop-color:#9AE8A9;stop-opacity:0.5814"/>
	<stop  offset="0.5554" style="stop-color:#90E6A1;stop-opacity:0.7625"/>
	<stop  offset="0.7284" style="stop-color:#8DE59E"/>
</linearGradient>
<polygon class="st7" points="344.7,-409.5 336.6,-398.7 328.4,-387.9 320.3,-398.7 312.2,-409.5 319.9,-409.5 319.9,-457.9 
	337,-457.9 337,-409.5 "/>
<image style="overflow:visible;" width="1905" height="1479" xlink:href="../../../../../../Palet.png"  transform="matrix(0.24 0 0 0.24 -213.9819 -174.0991)">
</image>
</svg>
