<?xml version="1.0" encoding="utf-8"?>
<!-- Generator: Adobe Illustrator 16.0.0, SVG Export Plug-In . SVG Version: 6.00 Build 0)  -->
<!DOCTYPE svg PUBLIC "-//W3C//DTD SVG 1.1//EN" "http://www.w3.org/Graphics/SVG/1.1/DTD/svg11.dtd">
<svg version="1.1" id="Layer_1" xmlns="http://www.w3.org/2000/svg" xmlns:xlink="http://www.w3.org/1999/xlink" x="0px" y="0px"
	 width="612px" height="322px" viewBox="0 0 612 322" enable-background="new 0 0 612 322" xml:space="preserve">
<g>
	<g>
		<g>
			<defs>
				<path id="SVGID_1_" d="M68.912,226.143H52.211C23.494,226.143,0,246.65,0,271.715c0,25.067,23.494,45.575,52.211,45.575h475.248
					c46.5,0,84.545-33.208,84.545-73.798c0-40.588-38.043-73.799-84.545-73.799c-19.66,0-37.443-14.042-37.443-31.203
					c0-17.161,16.086-31.202,35.746-31.202h20.217c20.443,0,37.166-14.599,37.166-32.441c0-17.842-16.723-32.441-37.166-32.441
					h-57.606c-7.961,0-14.471-5.684-14.471-12.629c0-6.948,6.51-12.63,14.471-12.63h9.588c5.494,0,9.988-3.923,9.988-8.716V8.429
					c0-4.793-4.496-8.716-9.988-8.716h-35.941c0,0-10.525,0-23.778,0c-13.252,0-14.729,13.665-48.206,13.665
					c-51.751,0-20.202,0-71.954,0c-7.166,0-13.029,5.12-13.029,11.374v0.001c0,6.256,5.863,11.375,13.029,11.375h12.516
					c10.383,0,18.879,7.416,18.879,16.48c0,9.063-8.496,16.479-18.879,16.479h-18.833c-50.854,0-58.037,11.602-66.944,34.675
					c-8.906,23.073-99.21,24.933-99.21,24.933h-66.61c-15.649,0-28.453,11.175-28.453,24.835
					c0.064,8.878,3.262,19.218,24.257,26.986c9.541,3.53,16.052,12.115,16.052,21.738C90.855,215.395,83.964,226.143,68.912,226.143
					z M525.984,17.146c-5.519,0-9.988-3.902-9.988-8.716c0-4.815,4.471-8.717,9.988-8.717c5.514,0,9.983,3.902,9.983,8.717
					C535.969,13.244,531.498,17.146,525.984,17.146z"/>
			</defs>
			<clipPath id="SVGID_2_">
				<use xlink:href="#SVGID_1_"  overflow="visible"/>
			</clipPath>
			
				<rect y="-0.287" opacity="0.3" clip-path="url(#SVGID_2_)" fill="#C3D5E0" enable-background="new    " width="612.004" height="317.577"/>
		</g>
	</g>
	<rect x="299.918" y="265.175" fill="#FDA600" width="92.756" height="11.896"/>
	<rect x="380.92" y="265.175" fill="#FDA600" width="11.754" height="11.896"/>
	<rect x="369.024" y="265.175" fill="#FFD115" width="11.896" height="11.896"/>
	<rect x="326.258" y="265.175" fill="#FCA700" width="42.768" height="11.896"/>
	<rect x="308.273" y="265.175" fill="#EC830E" width="17.983" height="11.896"/>
	<rect x="304.311" y="277.07" fill="#DF641E" width="83.833" height="1.134"/>
	<rect x="316.032" y="278.204" fill="#FDA600" width="92.755" height="11.896"/>
	<rect x="397.033" y="278.204" fill="#FDA600" width="11.754" height="11.896"/>
	<rect x="385.139" y="278.204" fill="#FFD115" width="11.896" height="11.896"/>
	<rect x="342.371" y="278.204" fill="#FCA700" width="42.768" height="11.896"/>
	<rect x="324.387" y="278.204" fill="#EC830E" width="17.984" height="11.896"/>
	<rect x="320.424" y="290.1" fill="#DF641E" width="83.834" height="1.133"/>
	<rect x="324.61" y="291.232" fill="#FDA600" width="92.755" height="11.896"/>
	<rect x="405.611" y="291.232" fill="#FDA600" width="11.754" height="11.896"/>
	<rect x="393.715" y="291.232" fill="#FFD115" width="11.896" height="11.896"/>
	<rect x="350.949" y="291.232" fill="#FCA700" width="42.766" height="11.896"/>
	<rect x="332.965" y="291.232" fill="#EC830E" width="17.984" height="11.896"/>
	<rect x="329.002" y="303.128" fill="#DF641E" width="83.834" height="1.133"/>
	<rect x="317.392" y="304.261" fill="#FDA600" width="92.756" height="11.896"/>
	<rect x="398.393" y="304.261" fill="#FDA600" width="11.755" height="11.896"/>
	<rect x="386.498" y="304.261" fill="#FFD115" width="11.895" height="11.896"/>
	<rect x="343.731" y="304.261" fill="#FCA700" width="42.767" height="11.896"/>
	<rect x="325.746" y="304.261" fill="#EC830E" width="17.985" height="11.896"/>
	<rect x="321.783" y="316.156" fill="#DF641E" width="83.834" height="1.134"/>
	<rect x="397.302" y="57.989" fill="#3C6D0C" width="112.337" height="174.638"/>
	
		<rect x="397.302" y="57.989" fill="none" stroke="#102B6E" stroke-width="0.5" stroke-miterlimit="22.9256" width="112.337" height="174.638"/>
	<polygon fill="#C1E59E" points="386.209,219.115 496.307,216.439 508.936,65.958 398.887,65.958 	"/>
	<path fill="#FDFDFD" d="M396.863,57.192c-6.433,57.729-20.412,137.719-29.977,165.244c38.678,0.517,77.559,0.517,116.03,0.517
		c8.482-42.839,18.777-120.25,26.939-165.564L396.863,57.192z"/>
	<path fill="#76C23A" d="M108.955,128.117c-1.961-0.182-4.592,0.422-9.102,3.407c-6.789,4.492-6.92,6.722-13.84,4.349
		c-6.921-2.373-13.445-7.71-16.609-3.559c-1.497,1.964-2.826,7.626-1.308,12.234c1.691,5.134,6.488,9.325,9.613,13.075
		c5.93,7.117,4.745,8.304,3.361,13.643c-9.58,36.961-98.309,142.842,4.371,147.032c11.156,0.454,19.281-0.325,23.514-0.467
		c8.405,0.28,33.114,0.89,40.239-0.779c70.97-16.618-3.468-111.499-12.354-145.786c-1.384-5.338-2.569-6.524,3.36-13.643
		c3.125-3.75,7.923-7.941,9.613-13.075c1.518-4.608,0.188-10.271-1.308-12.234c-3.164-4.151-9.688,1.186-16.609,3.559
		s-7.052,0.144-13.841-4.349C113.546,128.539,110.915,127.936,108.955,128.117"/>
	<path fill="#60A523" d="M68.302,134.56c-0.898,2.639-1.322,6.599-0.206,9.989c1.691,5.134,6.488,9.325,9.613,13.075
		c5.93,7.117,4.744,8.304,3.361,13.644c-9.14,35.26-89.603,132.59-7.842,145.111c-17.412-21.527-17.399-34.184-11.476-57.203
		c6.18-24.017,18.88-58.453,29.074-83.611c0,0,1.66-0.775,0.475-8.248c-1.185-7.474-19.096-21.824-22.061-28.584
		C68.605,137.286,68.335,135.879,68.302,134.56"/>
	<rect x="76.884" y="164.41" fill="#FDA600" width="61.38" height="11.152"/>
	<rect x="130.485" y="164.41" fill="#FDA600" width="7.778" height="11.152"/>
	<rect x="122.613" y="164.41" fill="#FFD115" width="7.872" height="11.152"/>
	<rect x="94.313" y="164.41" fill="#FCA700" width="28.3" height="11.152"/>
	<rect x="79.79" y="175.563" fill="#DF641E" width="55.476" height="1.063"/>
	<path fill="#76C23A" d="M234.918,26.105c-3.012-0.279-7.052,0.649-13.979,5.233c-10.43,6.901-10.631,10.325-21.26,6.68
		c-10.631-3.645-20.652-11.842-25.513-5.465c-2.298,3.016-4.341,11.712-2.009,18.792c2.598,7.886,9.967,14.324,14.766,20.083
		c9.109,10.932,7.288,12.755,5.162,20.955c-14.715,56.772-151,219.402,6.715,225.842c17.135,0.697,29.615-0.5,36.117-0.718
		c12.91,0.431,50.863,1.367,61.807-1.196c109.01-25.526-5.326-171.263-18.975-223.928c-2.125-8.199-3.947-10.023,5.162-20.955
		c4.799-5.759,12.169-12.197,14.766-20.083c2.332-7.079,0.289-15.775-2.008-18.792c-4.861-6.376-14.883,1.821-25.513,5.465
		c-10.63,3.644-10.831,0.221-21.261-6.68C241.97,26.754,237.928,25.827,234.918,26.105"/>
	<path fill="#60A523" d="M172.475,36.001c-1.379,4.053-2.031,10.136-0.316,15.344c2.598,7.886,9.967,14.324,14.766,20.083
		c9.109,10.932,7.288,12.756,5.163,20.955c-14.038,54.16-137.63,203.66-12.044,222.893c-26.745-33.066-26.725-52.506-17.628-87.863
		c9.493-36.891,28.999-89.785,44.657-128.429c0,0,2.551-1.191,0.729-12.668c-1.821-11.478-29.332-33.521-33.887-43.905
		C172.941,40.188,172.527,38.028,172.475,36.001"/>
	<rect x="171.833" y="261.167" fill="#D3D3D3" width="109.472" height="56.123"/>
	<path fill="#A7B8C1" d="M271.781,277.932c-4.442-0.983-7.873-4.578-8.656-9.057h-72.904c-0.784,4.479-4.214,8.072-8.656,9.057
		v22.598c4.442,0.986,7.872,4.58,8.656,9.059h72.904c0.783-4.479,4.214-8.072,8.656-9.059V277.932z M276.734,268.771v40.916
		c0,2.68-2.174,4.853-4.854,4.853h-90.416c-2.68,0-4.854-2.173-4.854-4.853v-40.916c0-2.679,2.174-4.852,4.854-4.852h90.416
		C274.561,263.921,276.734,266.094,276.734,268.771z"/>
	<path fill="#8BB7D0" d="M225.115,273.418c8.525,0,15.438,6.911,15.438,15.438c0,8.525-6.912,15.437-15.438,15.437
		c-8.526,0-15.437-6.911-15.437-15.437C209.678,280.329,216.59,273.418,225.115,273.418"/>
	
		<rect x="158.698" y="246.95" transform="matrix(0.9813 -0.1927 0.1927 0.9813 -48.9933 46.2822)" fill="#D3D3D3" width="109.478" height="56.126"/>
	<path fill="#A7B8C1" d="M255.641,255.223c-4.549-0.109-8.607-2.978-10.24-7.221l-71.537,14.047
		c0.094,4.547-2.58,8.733-6.749,10.557l4.354,22.174c4.549,0.111,8.606,2.977,10.238,7.221l71.539-14.048
		c-0.095-4.545,2.579-8.733,6.748-10.556L255.641,255.223z M258.736,245.279l7.883,40.148c0.516,2.629-1.198,5.18-3.827,5.696
		l-88.723,17.422c-2.628,0.517-5.181-1.198-5.697-3.827l-7.884-40.146c-0.516-2.629,1.199-5.182,3.828-5.696l88.723-17.422
		C255.668,240.938,258.22,242.65,258.736,245.279z"/>
	<path fill="#8BB7D0" d="M208.98,259.784c8.365-1.644,16.479,3.807,18.121,12.173s-3.807,16.479-12.174,18.122
		c-8.365,1.644-16.479-3.808-18.121-12.175C195.164,269.54,200.613,261.427,208.98,259.784"/>
	
		<rect x="153.891" y="236.243" transform="matrix(0.9813 -0.1927 0.1927 0.9813 -47.021 45.1559)" fill="#D3D3D3" width="109.476" height="56.126"/>
	<path fill="#A7B8C1" d="M250.83,244.516c-4.549-0.109-8.606-2.977-10.238-7.22l-71.539,14.047
		c0.094,4.546-2.579,8.733-6.748,10.556l4.354,22.175c4.549,0.11,8.607,2.977,10.24,7.221l71.537-14.048
		c-0.094-4.546,2.58-8.732,6.749-10.557L250.83,244.516z M253.926,234.574l7.884,40.146c0.517,2.631-1.198,5.182-3.827,5.697
		L169.26,297.84c-2.629,0.516-5.181-1.197-5.697-3.826l-7.883-40.148c-0.517-2.629,1.197-5.18,3.827-5.696l88.722-17.422
		C250.857,230.23,253.41,231.945,253.926,234.574z"/>
	<path fill="#A7B8C1" d="M204.17,249.077c8.365-1.644,16.479,3.808,18.122,12.174c1.642,8.365-3.808,16.479-12.175,18.121
		c-8.365,1.644-16.479-3.808-18.121-12.173C190.354,258.833,195.804,250.721,204.17,249.077"/>
	<g>
		<g>
			<defs>
				<path id="SVGID_3_" d="M481.08,161.229l3.473-19.971l0.517-2.969l2.879-16.55l0.584-3.369l3.311-19.043l4.064-20.804
					c0.467-2.385-0.881-4.443-3.025-5.072c-0.485-0.142-1.016-0.212-1.578-0.197l-0.043,0.002l-1.606,0.045l-36.669,1.013
					l-38.317,1.059c-3.053,0.084-5.961,2.643-6.512,5.752l-7.194,40.615l-6.867,39.489c-0.524,3.023,1.499,5.488,4.526,5.488h37.998
					h38.008c0.025,0,0.053,0,0.08,0C477.703,166.675,480.557,164.229,481.08,161.229"/>
			</defs>
			<clipPath id="SVGID_4_">
				<use xlink:href="#SVGID_3_"  overflow="visible"/>
			</clipPath>
			<rect x="393.567" y="73.24" clip-path="url(#SVGID_4_)" fill="#C5DEEA" width="102.806" height="93.478"/>
		</g>
	</g>
	<polygon fill="#76C23A" points="408.452,111.362 437.623,93.023 442.243,100.532 470.094,82.14 468.646,79.069 478.055,79.607 
		474.26,87.686 472.102,84.714 440.943,105.441 436.143,97.571 410.186,114.106 	"/>
	<path fill="#44494C" d="M374.945,318.801h-31.316c-1.481,0-2.688-1.104-2.875-2.512c-0.025-0.199-0.034-0.403-0.018-0.609
		l1.271-16.449c0,0,1.305-0.602,3.128-1.032c1.082-0.257,1.995-1.042,2.322-2.107c0.023-0.077,0.043-0.157,0.063-0.237
		c0.72-3.166,5.282-4.172,6.125-1.08c0.11,0.399,0.204,0.789,0.285,1.162c0.021,0.092,0.041,0.188,0.058,0.276
		c0.136,0.665,0.233,1.276,0.303,1.813l0.006,0.033c0.171,1.364,0.156,2.237,0.156,2.237c0.414,0.524,0.813,1.042,1.201,1.554
		c0.2,0.254,0.39,0.506,0.58,0.754c0.411,0.535,0.812,1.056,1.205,1.557c0.182,0.234,0.361,0.463,0.545,0.688
		c0.434,0.545,0.86,1.059,1.291,1.539c0.192,0.219,0.386,0.432,0.584,0.637c1.614,1.696,3.242,2.857,5.168,3.125
		c3.396,0.465,8.942,0.84,11.623,5.824c0.059,0.104,0.102,0.209,0.135,0.316C377.182,317.492,376.277,318.801,374.945,318.801"/>
	<path fill="#343851" d="M374.945,318.8h-31.316c-1.481,0-2.688-1.104-2.875-2.513h36.033
		C377.182,317.491,376.277,318.8,374.945,318.8"/>
	<path fill="#707D88" d="M306.164,189.393v19.272c0,21.366,3.77,68.288,5.136,94.218l14.341-0.279l11.771-93.521l22.171,3.174
		l0.634-25.571l0,0c-1.004-88.403-46.658-67.926-42.705-17.904C317.945,174.286,304.053,183.35,306.164,189.393"/>
	<polygon fill="#707D88" points="360.02,194.584 332.182,194.584 341.719,302.991 356.837,303.383 	"/>
	<path fill="#44494C" d="M330.649,317.261c-0.26,4.569-16.456,2.995-19.047,1.624c-1.001-0.529-1.42-1.552-1.497-2.787
		c-0.128-1.972,0.608-4.494,1.245-6.47c1.037-3.22,0.895-3.16,1.613-5.36c0,0-0.186-3.576,5.121-4.943
		c5.308-1.368,7.254,7.542,8.16,9.256c0.829,1.57,4.055,3.718,4.387,7.581C330.665,316.514,330.671,316.879,330.649,317.261"/>
	<path fill="#343851" d="M330.649,317.261c-0.26,4.569-16.456,2.995-19.047,1.624c-1.001-0.529-1.42-1.552-1.497-2.787
		c1.701,0.856,4.7,1.924,9.18,1.995c5.495,0.087,9.457-0.895,11.348-1.933C330.665,316.514,330.671,316.879,330.649,317.261"/>
	<path fill="#D34E40" d="M343.146,131.774c4.918,10.795,11.018,23.164,25.095,25.261c11.417,1.701,28.128-19.791,29.771-23.298
		c1.644-3.506-4.598-12.663-6.61-11.604c-2.014,1.059-18.564,13.839-20.076,13.741c-1.767-0.113-7.793-19.28-18.727-25.589
		C350.893,109.303,341.031,127.132,343.146,131.774"/>
	<path fill="#D34E40" d="M315.89,105.153c-6.943,0-13.924,3.522-16.964,8.056c-4.688,6.989,9.183,50.318,5.272,85.828
		c19.744,0,38.689,0,58.435,0c0.357-14.698-1.474-59.237-4.795-84.149C350.563,103.438,327.074,105.153,315.89,105.153"/>
	<path fill="#C1E59E" d="M337.885,105.673c8.604,4.653,10.588,40.334,12.959,93.382h-21.847c-0.938-52.091-10.737-84.991-14-93.883
		C322.012,104.709,329.295,104.336,337.885,105.673"/>
	<path fill="#C4E8FA" d="M337.885,105.673c8.605,4.653,10.373,32.577,12.743,85.623h-2.519c0.819-16.897-1.812-79.123-11.104-85.755
		C337.297,105.583,337.589,105.627,337.885,105.673"/>
	<path fill="#F7AAAC" d="M342.186,97.411c-2.198,2.641-4.733,4.771-7.343,5.349v2.843l0.507,0.685
		c1.857,3.229,0.003,8.771-3.071,10.352c-4.813-1.726-10.476-5.034-11.781-11.013l0.856-0.796l1.173-0.82l0.573-7.085
		c-0.362-0.107-2.686-2.251-3.425-2.682c-0.739-0.431-1.552-2.238-1.253-3.877c0.3-1.64,2.683-0.531,2.683-0.531h0.001
		c-2.067-4.859-4.714-9.05,0.611-11.751c5.326-2.7,16.066-2.498,16.066-2.498l6.656-0.7c-1.278,1.943-1.062,8.406-0.512,13.202
		C344.42,92.389,345.137,93.866,342.186,97.411"/>
	<path fill="#EA8287" d="M325.803,98.454c0,0,2.092,6.786,4.826,7.993c2.736,1.208,3.117,1.053,4.214,1.175v-4.862
		C332.798,102.617,330.085,101.926,325.803,98.454"/>
	<path fill="#D34E40" d="M311.541,123.401c2.535-5.219,2.05-9.895-2.814-13.137l0,0c-4.863-3.243-9.012,0.713-11.546,5.932
		c-4.979,10.242-8.625,33.078-3.355,39.579c4.305,5.312,30.455,5.068,34.074,4.096c0.846-0.228,6.87-5.993,5.19-10.911
		c-0.179-0.525-1.258-0.74-2.104-0.746c-4.931-0.03-20.746-2.009-22.937-3.189C304.605,143.169,309.762,127.06,311.541,123.401"/>
	<path fill="#D3D3D3" d="M331.232,149.388c-1.964,1.173-3.623,3.763-4.507,6.381c-0.993,2.946-1.391,4.421,1.927,3.365
		c2.321-0.738,5.315-1.731,5.315-1.731c2.476-2.806,3.298-6.424,2.651-8.735L331.232,149.388z"/>
	<path fill="#D3D3D3" d="M391.972,123.374c-0.526,3.313,2.563,8.657,4.909,9.605c0.262-0.467,1.832-2.489,2.871-4.043
		c2.233-3.339-3.037-10.312-4.583-8.765L391.972,123.374z"/>
	<path fill="#F7AAAC" d="M398.185,118.133c0.329-1.522,1.713-7.539,2.835-8.552c0.572-0.516,0.709-0.282,0.964,0.046
		c0.223,0.286,0.411,1.066,0.35,1.599c-0.133,1.116-0.219,2.133-0.389,2.734c3.389-2.948,6.881-5.531,9.461-8.211
		c1.049-1.088,2.776-0.91,1.741,1.204c-0.772,1.579-4.901,5.752-4.901,5.752c2.169,4.025,0.611,6.706,0.457,6.761
		c-0.062,0.022-3.541,2.752-4.15,3.2c-2.397,1.174-3.521,3.338-5.214,5.098c-0.937-0.718-3.29-3.454-3.625-6.822L398.185,118.133z"
		/>
	<polygon fill="#EC830E" points="376.996,131.863 350.313,131.863 340.238,165.617 366.924,165.617 	"/>
	<path fill="#F7AAAC" d="M336.331,149.171l3.737-0.615l4.27-2.833c0,0,1.695-1.874,2.317-1.608c0.118,0.051-0.999,3.544-0.867,3.645
		c1.113,0.857,8.261-0.241,8.224-0.117c-3.422,11.438-10.92,5.905-19.086,8.502c-1.203,0.383-1.435,0.245-1.361-0.791
		C333.676,153.723,334.623,151.057,336.331,149.171"/>
	<path fill="#FFFFFF" d="M370.124,130.911h-2.985c0.005-0.023,0.009-0.046,0.009-0.068c0-0.437-0.898-0.789-2.007-0.789
		c-1.107,0-2.006,0.353-2.006,0.789c0,0.022,0.002,0.045,0.008,0.068h-3.516l-0.743,2.477h10.298L370.124,130.911z"/>
	<path fill="#44494C" d="M338.742,82.755c-7.326,0.729-10.603-3.406-13.5-1.301c-1.478,2.092-1.406,5.111,0.258,10.153
		c0.365,1.22,0.932,2.153-0.932,1.02c-0.855-0.521-2.276-1.272-2.83-0.92c-1.233,0.785-0.881,2.768-0.05,3.488
		c0.371,0.321,1.087,0.82,1.087,0.82s-2.373,0.614-4.552-1.142c-2.178-1.757-7.137-6.631-6.196-14.159
		c1.164-9.326,6.429-8.874,14.51-13.556c5.887-3.412,3.198-2.061,4.922-2.885C347.227,56.729,353.439,78.065,338.742,82.755"/>
	<path fill="#3C6D0C" d="M6.512,317.29h602.617c1.223,0,2.223,1,2.223,2.222l0,0c0,1.223-1,2.223-2.223,2.223H6.512
		c-1.222,0-2.222-1-2.222-2.223l0,0C4.29,318.29,5.29,317.29,6.512,317.29"/>
	<rect x="76.998" y="278.204" fill="#FDA600" width="92.754" height="11.896"/>
	<rect x="157.998" y="278.204" fill="#FDA600" width="11.754" height="11.896"/>
	<rect x="146.104" y="278.204" fill="#FFD115" width="11.895" height="11.896"/>
	<rect x="103.338" y="278.204" fill="#FCA700" width="42.766" height="11.896"/>
	<rect x="85.353" y="278.204" fill="#EC830E" width="17.985" height="11.896"/>
	<rect x="81.391" y="290.1" fill="#DF641E" width="83.833" height="1.133"/>
	<rect x="88.417" y="291.232" fill="#FDA600" width="92.755" height="11.896"/>
	<rect x="169.418" y="291.232" fill="#FDA600" width="11.754" height="11.896"/>
	<rect x="157.523" y="291.232" fill="#FFD115" width="11.895" height="11.896"/>
	<rect x="114.757" y="291.232" fill="#FCA700" width="42.767" height="11.896"/>
	<rect x="96.771" y="291.232" fill="#EC830E" width="17.985" height="11.896"/>
	<rect x="92.81" y="303.128" fill="#DF641E" width="83.833" height="1.133"/>
	<rect x="82.293" y="304.261" fill="#FDA600" width="92.754" height="11.896"/>
	<rect x="163.293" y="304.261" fill="#FDA600" width="11.754" height="11.896"/>
	<rect x="151.398" y="304.261" fill="#FFD115" width="11.895" height="11.896"/>
	<rect x="108.632" y="304.261" fill="#FCA700" width="42.767" height="11.896"/>
	<rect x="90.646" y="304.261" fill="#EC830E" width="17.985" height="11.896"/>
	<rect x="86.684" y="316.156" fill="#DF641E" width="83.834" height="1.134"/>
	<rect x="153.585" y="304.261" fill="#FDA600" width="92.755" height="11.896"/>
	<rect x="234.586" y="304.261" fill="#FDA600" width="11.754" height="11.896"/>
	<rect x="222.691" y="304.261" fill="#FFD115" width="11.895" height="11.896"/>
	<rect x="179.925" y="304.261" fill="#FCA700" width="42.767" height="11.896"/>
	<rect x="161.939" y="304.261" fill="#EC830E" width="17.985" height="11.896"/>
	<rect x="157.978" y="316.156" fill="#DF641E" width="83.833" height="1.134"/>
	<rect x="185.656" y="81.852" fill="#FDA600" width="94.279" height="17.132"/>
	<rect x="267.988" y="81.852" fill="#FDA600" width="11.947" height="17.132"/>
	<rect x="255.898" y="81.852" fill="#FFD115" width="12.09" height="17.132"/>
	<rect x="212.428" y="81.852" fill="#FCA700" width="43.471" height="17.132"/>
	<rect x="190.12" y="98.983" fill="#DF641E" width="85.212" height="1.632"/>
	<rect x="404.918" y="232.627" fill="#3C6D0C" width="5.83" height="82.627"/>
	<rect x="496.039" y="232.627" fill="#3C6D0C" width="5.83" height="82.627"/>
	<rect x="393.623" y="315.254" fill="#3C6D0C" width="118.234" height="2.036"/>
	<rect x="76.998" y="239.118" fill="#FDA600" width="92.754" height="11.896"/>
	<rect x="157.998" y="239.118" fill="#FDA600" width="11.754" height="11.896"/>
	<rect x="146.104" y="239.118" fill="#FFD115" width="11.895" height="11.896"/>
	<rect x="103.338" y="239.118" fill="#FCA700" width="42.766" height="11.896"/>
	<rect x="85.353" y="239.118" fill="#EC830E" width="17.985" height="11.896"/>
	<rect x="81.391" y="251.014" fill="#DF641E" width="83.833" height="1.133"/>
	<rect x="88.417" y="252.146" fill="#FDA600" width="92.755" height="11.896"/>
	<rect x="169.418" y="252.146" fill="#FDA600" width="11.754" height="11.896"/>
	<rect x="157.523" y="252.146" fill="#FFD115" width="11.895" height="11.896"/>
	<rect x="114.757" y="252.146" fill="#FCA700" width="42.767" height="11.896"/>
	<rect x="96.771" y="252.146" fill="#EC830E" width="17.985" height="11.896"/>
	<rect x="92.81" y="264.042" fill="#DF641E" width="83.833" height="1.133"/>
	<rect x="82.293" y="265.175" fill="#FDA600" width="92.754" height="11.896"/>
	<rect x="163.293" y="265.175" fill="#FDA600" width="11.754" height="11.896"/>
	<rect x="151.398" y="265.175" fill="#FFD115" width="11.895" height="11.896"/>
	<rect x="108.632" y="265.175" fill="#FCA700" width="42.767" height="11.896"/>
	<rect x="90.646" y="265.175" fill="#EC830E" width="17.985" height="11.896"/>
	<rect x="86.684" y="277.07" fill="#DF641E" width="83.834" height="1.134"/>
	<path fill="#E58927" d="M519.031,286.775c-3.449-20.463,10.342-39.85,30.805-43.299c20.463-3.451,39.85,10.34,43.299,30.805
		c3.451,20.463-10.34,39.848-30.803,43.298C541.867,321.029,522.482,307.238,519.031,286.775"/>
	<path fill="#FFEF95" d="M516.393,284.52c-3.448-20.463,10.343-39.849,30.806-43.299c20.463-3.451,39.85,10.342,43.299,30.805
		c3.451,20.463-10.342,39.849-30.805,43.299C539.229,318.773,519.844,304.982,516.393,284.52"/>
	<path fill="#FBCA0D" d="M517.777,285.563c-3.451-20.463,10.342-39.85,30.805-43.299c20.463-3.451,39.848,10.34,43.299,30.805
		c3.451,20.463-10.342,39.848-30.805,43.299C540.613,319.816,521.229,306.025,517.777,285.563"/>
	<path fill="#FFD915" d="M517.777,285.563c-0.019-0.107-0.033-0.215-0.052-0.322l74.097-12.493c0.02,0.106,0.041,0.214,0.059,0.321
		c3.451,20.463-10.342,39.848-30.805,43.299C540.613,319.816,521.229,306.025,517.777,285.563"/>
	<circle fill="#FCA700" cx="554.828" cy="279.314" r="31.889"/>
	<circle fill="none" stroke="#FCA700" stroke-width="0.216" stroke-miterlimit="10" cx="554.828" cy="279.314" r="31.889"/>
	<path fill="#EC830E" d="M566.756,249.702c7.48,6.046,11.584,13.612,12.635,19.849c5.066,30.045-22.377,41.584-48.209,31.133
		c7.06,7.782,17.813,11.916,28.943,10.039c17.367-2.929,29.07-19.381,26.143-36.748
		C584.357,262.641,576.684,253.719,566.756,249.702"/>
	<path fill="#FFD915" d="M529.377,286.564c-2.584-15.33,7.748-29.854,23.078-32.438c8.961-1.51,17.645,1.394,23.83,7.127
		c-6.195-7.513-16.125-11.601-26.416-9.864c-15.332,2.586-25.664,17.108-23.078,32.438c1.074,6.37,4.211,11.875,8.607,15.95
		C532.365,296.102,530.227,291.604,529.377,286.564"/>
	<rect x="452.291" y="278.204" fill="#FDA600" width="92.754" height="11.896"/>
	<rect x="533.291" y="278.204" fill="#FDA600" width="11.754" height="11.896"/>
	<rect x="521.396" y="278.204" fill="#FFD115" width="11.895" height="11.896"/>
	<rect x="478.629" y="278.204" fill="#FCA700" width="42.768" height="11.896"/>
	<rect x="460.645" y="278.204" fill="#EC830E" width="17.984" height="11.896"/>
	<rect x="456.682" y="290.1" fill="#DF641E" width="83.834" height="1.133"/>
	<rect x="463.709" y="291.232" fill="#FDA600" width="92.756" height="11.896"/>
	<rect x="544.711" y="291.232" fill="#FDA600" width="11.754" height="11.896"/>
	<rect x="532.816" y="291.232" fill="#FFD115" width="11.895" height="11.896"/>
	<rect x="490.049" y="291.232" fill="#FCA700" width="42.769" height="11.896"/>
	<rect x="472.064" y="291.232" fill="#EC830E" width="17.983" height="11.896"/>
	<rect x="468.102" y="303.128" fill="#DF641E" width="83.834" height="1.133"/>
	<rect x="457.585" y="304.261" fill="#FDA600" width="92.755" height="11.896"/>
	<rect x="538.586" y="304.261" fill="#FDA600" width="11.754" height="11.896"/>
	<rect x="526.691" y="304.261" fill="#FFD115" width="11.895" height="11.896"/>
	<rect x="483.924" y="304.261" fill="#FCA700" width="42.769" height="11.896"/>
	<rect x="465.939" y="304.261" fill="#EC830E" width="17.983" height="11.896"/>
	<rect x="461.977" y="316.156" fill="#DF641E" width="83.834" height="1.134"/>
	<rect x="176.918" y="291.396" fill="#FDA600" width="92.755" height="11.895"/>
	<rect x="257.92" y="291.396" fill="#FDA600" width="11.753" height="11.895"/>
	<rect x="246.023" y="291.396" fill="#FFD115" width="11.896" height="11.895"/>
	<rect x="203.258" y="291.396" fill="#FCA700" width="42.766" height="11.895"/>
	<rect x="185.273" y="291.396" fill="#EC830E" width="17.984" height="11.895"/>
	<rect x="181.311" y="303.29" fill="#DF641E" width="83.834" height="1.134"/>
	<polygon fill="#76C23A" points="410.121,152.742 412.071,141.574 414.012,130.397 406.513,130.397 404.572,141.574 
		402.623,152.742 	"/>
	<polygon fill="#76C23A" points="423.367,152.742 426.108,137.004 429.438,118.077 421.904,118.055 418.619,137.004 
		415.885,152.742 	"/>
	<polygon fill="#76C23A" points="436.619,152.742 440.099,132.769 442.903,116.617 435.412,116.633 432.609,132.769 
		429.131,152.742 	"/>
	<polygon fill="#76C23A" points="449.883,152.742 454.425,126.604 458.714,101.971 451.21,101.999 446.936,126.604 442.385,152.742 
			"/>
	<polygon fill="#76C23A" points="462.539,152.742 467.762,122.695 472.068,97.977 464.572,97.956 460.273,122.695 455.049,152.742 	
		"/>
	<polygon fill="#76C23A" points="474.311,152.742 479.533,122.695 484.766,92.648 477.266,92.648 472.043,122.695 466.82,152.742 	
		"/>
	<path fill="#C1E59E" d="M380.6,23.296c-17.104,7.979-24.504,28.313-16.525,45.419s28.313,24.506,45.42,16.527
		c17.104-7.979,24.505-28.314,16.525-45.42C418.041,22.716,397.707,15.318,380.6,23.296"/>
	<path fill="#9ED86C" d="M374.828,81.83c9.736,7.129,22.957,8.873,34.665,3.413c17.105-7.979,24.505-28.313,16.525-45.42
		c-7.805-16.734-27.435-24.176-44.299-17.022C402.449,29.204,414.695,66.687,374.828,81.83"/>
	<path fill="#4B8FD0" d="M384.339,86.724c1.071,0.354,2.159,0.654,3.263,0.902l4.23-16.115c-1.1,1.071-2.311,2.109-3.633,3.112
		L384.339,86.724z"/>
	<path fill="#4D97DD" d="M384.339,86.724c1.071,0.354,2.159,0.654,3.263,0.902l4.23-16.115c-1.1,1.071-2.311,2.109-3.633,3.112
		L384.339,86.724z"/>
	<path fill="#FFFFFF" d="M383.866,30.297C370.627,36.473,364.9,52.21,371.074,65.45c6.176,13.24,21.914,18.966,35.152,12.791
		c13.239-6.175,18.967-21.913,12.791-35.152C412.843,29.85,397.105,24.122,383.866,30.297"/>
	<polygon fill="#FFFFFF" points="395.946,54.188 395.946,54.188 397.782,61.486 394.564,57.96 389.688,59.156 395.15,53.925 	"/>
	<path fill="#C1E1FF" d="M386.688,79.364c0.942,0.313,1.903,0.576,2.878,0.783l6.021-22.946l-1.784-0.137L386.688,79.364z"/>
	<path fill="#C1E59E" d="M387.132,37.299c-9.372,4.372-13.427,15.514-9.056,24.886s15.514,13.427,24.885,9.057
		c9.373-4.372,13.428-15.515,9.057-24.887C407.647,36.983,396.504,32.927,387.132,37.299"/>
	<polygon fill="#4D97DD" points="395.946,54.188 395.946,54.188 397.782,61.486 394.564,57.96 389.688,59.156 395.15,53.925 	"/>
	<path fill="#4D97DD" d="M389.035,72.004c0.813,0.276,1.646,0.496,2.494,0.657l4.058-15.46l-1.784-0.137L389.035,72.004z"/>
	<path fill="#9ED86C" d="M390.786,72.505c3.945,0.925,8.218,0.581,12.175-1.264c9.373-4.372,13.428-15.515,9.057-24.887
		c-2.883-6.181-8.71-10.048-15.031-10.712C403.132,46.387,403.219,61.308,390.786,72.505"/>
	<path fill="#4B8FD0" d="M390.786,72.505c0.247,0.058,0.494,0.11,0.743,0.158l0.297-1.134
		C391.49,71.857,391.143,72.184,390.786,72.505"/>
	<path fill="#FFFFFF" d="M390.396,44.3c-5.507,2.568-7.888,9.113-5.318,14.619c2.566,5.506,9.112,7.889,14.618,5.32
		c5.507-2.568,7.888-9.113,5.318-14.619C402.446,44.114,395.902,41.732,390.396,44.3"/>
	<polygon fill="#C1E1FF" points="395.946,54.188 395.946,54.188 397.782,61.486 394.564,57.96 389.688,59.156 395.15,53.925 	"/>
	<path fill="#C1E1FF" d="M391.385,64.642c0.685,0.241,1.393,0.416,2.113,0.519l2.089-7.959l-1.784-0.137L391.385,64.642z"/>
	<polygon fill="#4A73DB" points="395.884,54.166 395.884,54.166 391.473,48.069 392.105,52.8 388.054,55.769 395.573,54.945 	"/>
	<path fill="#4A73DB" d="M353.271,33.577c-0.422-0.087-0.566-0.188-1.296,0.151c-0.729,0.339-1.321,2.064-1.002,2.751
		c0.322,0.688,0.398,0.616,0.685,0.817l40.645,16.663l1.041-1.455L353.271,33.577z"/>
	<polygon fill="#4A73DB" points="358.453,31.738 346.873,25.982 349.291,33.537 341.752,37.686 355.096,42.146 360.1,38.654 	"/>
	<polygon fill="#7092EA" points="358.453,31.738 346.873,25.982 349.291,33.537 360.037,38.395 359.602,36.566 	"/>
	<path fill="#9ED86C" d="M434.886,178.59h39.333c0.988,0,1.799,0.809,1.799,1.799l0,0c0,0.989-0.811,1.797-1.799,1.797h-39.333
		c-0.989,0-1.798-0.808-1.798-1.797l0,0C433.088,179.398,433.896,178.59,434.886,178.59"/>
	<path fill="#9ED86C" d="M431.58,191.488h39.59c0.988,0,1.799,0.809,1.799,1.798l0,0c0,0.989-0.811,1.798-1.799,1.798h-39.59
		c-0.988,0-1.799-0.809-1.799-1.798l0,0C429.781,192.297,430.592,191.488,431.58,191.488"/>
	<path fill="#9ED86C" d="M429.283,204.387h39.481c0.988,0,1.798,0.809,1.798,1.799l0,0c0,0.988-0.81,1.797-1.798,1.797h-39.481
		c-0.988,0-1.797-0.809-1.797-1.797l0,0C427.486,205.195,428.295,204.387,429.283,204.387"/>
	<path fill="#C1E59E" d="M416.744,209.792c2.158-10.179,4.83-21.022,6.482-30.538c0.155-0.89-0.306-1.648-1.072-1.898
		c-0.174-0.058-0.363-0.088-0.566-0.088h-0.016h-0.576h-13.146h-13.735c-1.094,0-2.047,0.914-2.326,1.986l-7.965,30.592
		c-0.298,1.143,0.572,2.16,1.688,2.194l28.833-0.485c0.012,0,0.021,0.002,0.03,0.002
		C415.48,211.613,416.531,210.802,416.744,209.792"/>
	<polygon fill="#9ED86C" points="390.713,193.139 402.093,185.982 403.896,188.912 414.762,181.736 414.197,180.538 
		417.867,180.749 416.387,183.898 415.546,182.74 403.389,190.827 401.516,187.757 391.389,194.208 	"/>
	<path fill="#FFFFFF" d="M390.6,197.766h22.629c0.33,0,0.602,0.271,0.602,0.603l0,0c0,0.331-0.271,0.601-0.602,0.601H390.6
		c-0.33,0-0.601-0.27-0.601-0.601l0,0C389.999,198.036,390.27,197.766,390.6,197.766"/>
	<path fill="#FFFFFF" d="M389.617,201.865h22.628c0.33,0,0.601,0.27,0.601,0.601l0,0c0,0.331-0.271,0.603-0.601,0.603h-22.628
		c-0.332,0-0.603-0.271-0.603-0.603l0,0C389.016,202.135,389.285,201.865,389.617,201.865"/>
	<path fill="#FFFFFF" d="M388.633,205.964h22.628c0.331,0,0.602,0.271,0.602,0.601v0.002c0,0.33-0.271,0.601-0.602,0.601h-22.628
		c-0.331,0-0.602-0.271-0.602-0.601v-0.002C388.031,206.234,388.302,205.964,388.633,205.964"/>
	<path fill="#76C23A" d="M436.137,54.788h35.906c1.129,0,2.051,0.922,2.051,2.05s-0.922,2.05-2.051,2.05h-35.906
		c-1.129,0-2.051-0.922-2.051-2.05S435.008,54.788,436.137,54.788"/>
	<rect x="401.844" y="156.501" fill="#76C23A" width="71.926" height="1.709"/>
	<rect x="507.209" y="304.261" fill="#FDA600" width="92.756" height="11.896"/>
	<rect x="588.211" y="304.261" fill="#FDA600" width="11.754" height="11.896"/>
	<rect x="576.316" y="304.261" fill="#FFD115" width="11.895" height="11.896"/>
	<rect x="533.549" y="304.261" fill="#FCA700" width="42.769" height="11.896"/>
	<rect x="515.564" y="304.261" fill="#EC830E" width="17.983" height="11.896"/>
	<rect x="511.602" y="316.156" fill="#DF641E" width="83.834" height="1.134"/>
	<path fill="#FFFFFF" d="M333.305,127.62c-0.595,0.063-1.024,0.596-0.961,1.19c0.063,0.594,0.597,1.023,1.19,0.961
		c0.593-0.063,1.022-0.597,0.96-1.191C334.432,127.986,333.898,127.557,333.305,127.62 M332.637,121.381
		c-0.594,0.063-1.022,0.597-0.96,1.191c0.063,0.594,0.598,1.022,1.19,0.96c0.594-0.063,1.022-0.596,0.961-1.19
		C333.765,121.747,333.231,121.317,332.637,121.381z M333.705,106.563c2.385,4.031,0.844,8.76-2.604,11.196
		c-5.525-2.803-10.414-5.984-11.088-12.294c0,0-0.624,0.062-1.182,0.477c-0.551,0.409-1.336,1.166-1.76,2.635
		c-1.42,4.787,4.666,13.509,4.666,13.509s1.199-4.168,4.157-4.737c2.957-0.569,5.292,0.9,5.292,0.9
		c3.519-3.209,6.509,0.144,9.348,2.531c0.08-6.874,0.124-9.694-5.517-14.402l-1.314-0.231L333.705,106.563z"/>
</g>
</svg>
