<?xml version="1.0" encoding="iso-8859-1"?>
<!-- Generator: Adobe Illustrator 16.0.0, SVG Export Plug-In . SVG Version: 6.00 Build 0)  -->
<!DOCTYPE svg PUBLIC "-//W3C//DTD SVG 1.1//EN" "http://www.w3.org/Graphics/SVG/1.1/DTD/svg11.dtd">
<svg version="1.1" id="Layer_1" xmlns="http://www.w3.org/2000/svg" xmlns:xlink="http://www.w3.org/1999/xlink" x="0px" y="0px"
	 width="344px" height="254px" viewBox="0 0 344 254" style="enable-background:new 0 0 344 254;" xml:space="preserve">
<g>
	<g style="opacity:0.74;">
		<g>
			<path style="fill:#E5DAF2;" d="M296.67,144.653c-2.46,4.632-5.561,8.312-8.724,12.101c-1.01,1.209-2.062,2.379-3.153,3.507
				c-0.491,0.508-0.977,1.005-1.463,1.503c-6.267,6.438-13.735,11.472-21.896,14.557c-0.261,0.098-0.522,0.195-0.785,0.29
				c-7.691,2.739-15.477,4.776-23.609,5.216c-8.267,0.801-16.604,0.775-25.18,0.601c-1.099-0.023-2.2-0.009-3.301,0.038
				c-3.529,0.146-6.84,0.305-10.15,0.902c-13.199,1.793-24.17,8.574-33.935,17.393c-4.883,4.408-9.469,9.312-13.892,14.322
				c-15.482,21.468-37.532,40.772-64.328,38.072c-2.322-0.177-4.485-0.389-6.808-0.566c-3.869-0.69-7.716-1.218-11.491-2.437
				c-2.069-0.74-4.116-1.316-6.186-2.057c-8.14-3.158-14.909-7.12-21.578-12.796c-1.838-1.468-3.357-3.004-4.898-4.703
				c-3.83-4.087-6.818-8.016-9.393-12.541c-11.027-18.623-4.542-41.354-1.458-62.505c0.438-3.481,0.306-6.925-0.17-10.299
				c-1.117-12.399-3.923-24.94-0.919-37.304c0.584-2.538,1.236-5.054,1.943-7.559c1.123-5.125,3.072-9.915,5.674-14.307
				c1.301-2.196,2.766-4.292,4.372-6.282c9.282-11.224,23.942-14.823,37.131-16.644c12.503-1.68,24.851-3.251,36.868-7.171
				c2.72-0.845,5.42-1.751,8.06-2.96c2.638-1.209,5.203-2.77,7.674-4.767c2.976-2.311,5.925-4.656,8.861-7.015
				c2.937-2.358,5.86-4.729,8.785-7.095c3.044-2.67,6.199-5.229,9.449-7.642c3.25-2.414,6.598-4.683,10.027-6.774
				c20.73-12.58,44.756-21.712,67.182-18.488C315.49,13.622,312.992,113.915,296.67,144.653z"/>
			<g>
				<path style="fill:#E5DAF2;" d="M131.62,23.669c0.489,5.569-1.926,10.868-6.225,14.934c-4.3,4.067-10.499,6.98-17.586,7.92
					c-7.095,0.964-13.749,0.025-18.722-2.325c-4.973-2.35-8.32-6.699-8.857-12.795c-0.269-3.048,0.208-6.17,1.317-9.09
					s2.846-5.602,5.04-7.902c4.386-4.591,10.629-7.751,17.703-8.497c7.08-0.745,13.66,0.937,18.601,4.169
					C127.831,13.317,131.131,18.101,131.62,23.669z"/>
				<path style="fill:#E5DAF2;" d="M179.99,237.101c-3.92,3.599-9.595,3.775-12.677,0.396c-3.081-3.379-2.4-9.035,1.519-12.634
					c3.92-3.597,9.596-3.774,12.678-0.396C184.591,227.848,183.91,233.503,179.99,237.101z"/>
				<path style="fill:#E5DAF2;" d="M164.381,247.826c-2.329,2.328-5.897,2.521-7.969,0.435c-2.073-2.088-1.866-5.666,0.462-7.994
					c2.328-2.326,5.896-2.521,7.97-0.433C166.917,241.922,166.709,245.501,164.381,247.826z"/>
			</g>
		</g>
	</g>
	<ellipse style="fill:#BFACD6;" cx="181.738" cy="216.007" rx="135.378" ry="10.351"/>
	<g>
		<g>
			<linearGradient id="SVGID_1_" gradientUnits="userSpaceOnUse" x1="3.9272" y1="168.7822" x2="95.0581" y2="168.7822">
				<stop  offset="0" style="stop-color:#ED79B5"/>
				<stop  offset="1" style="stop-color:#E5CDEB"/>
			</linearGradient>
			<path style="fill:url(#SVGID_1_);" d="M95.058,199.931c-7.947-4.021-16.157-0.684-24.276,1.482
				c-8.662,2.255-13.803-6.406-19.972-10.657c-1.229-0.938-2.488-1.803-3.803-2.556c-2.629-1.503-5.486-2.545-8.794-2.756
				c-3.519-0.271-7.038,0.089-10.566-0.261c-1.323-0.15-2.629-0.424-3.908-0.874s-2.532-1.076-3.75-1.934
				c-8.661-6.044-9.653-16.779-14.164-25.226c-0.86-1.866-1.525-3.564-1.783-5.241c-0.516-3.351,0.679-6.679,4.082-9.908
				c1.702-1.615,3.53-2.803,5.471-3.618c12.98-3.1,30.753-5.806,40.045,6.733c0.857,1.151,1.601,2.329,2.28,3.527
				c0.68,1.198,1.294,2.415,1.906,3.634c2.129,4.659,5.467,8.718,10.429,10.433c7.939,2.887,17.953,5.052,19.938,15.065
				c1.263,6.766,1.804,13.353,5.105,19.197C94.4,198.885,95.058,199.931,95.058,199.931z"/>
			<g style="opacity:0.31;">
				<path style="fill:#4A2382;" d="M84.874,197.281c-0.141-0.121-14.319-12.31-31.79-24.52
					c-17.451-12.196-35.051-19.76-35.227-19.834l0.389-0.912c0.177,0.074,17.872,7.677,35.406,19.932
					c17.514,12.239,31.727,24.46,31.869,24.582L84.874,197.281z"/>
				
					<rect x="29.023" y="156.657" transform="matrix(0.3312 0.9436 -0.9436 0.3312 175.8892 82.8212)" style="fill:#4A2382;" width="0.994" height="17.664"/>
				
					<rect x="32.809" y="158.493" transform="matrix(0.4128 0.9108 -0.9108 0.4128 171.4905 51.9807)" style="fill:#4A2382;" width="25.245" height="0.993"/>
				
					<rect x="53.234" y="172.255" transform="matrix(0.252 0.9677 -0.9677 0.252 213.0073 81.58)" style="fill:#4A2382;" width="0.992" height="12.656"/>
			</g>
		</g>
		<g>
			<linearGradient id="SVGID_2_" gradientUnits="userSpaceOnUse" x1="27.4883" y1="138.3193" x2="76.0903" y2="138.3193">
				<stop  offset="0" style="stop-color:#5871ED"/>
				<stop  offset="1" style="stop-color:#9BA0EB"/>
			</linearGradient>
			<path style="fill:url(#SVGID_2_);" d="M75.165,182.415c-3.694-2.799-74.996-57.059-36.105-82.66
				C83.631,70.414,75.818,166.588,75.165,182.415z"/>
			<g style="opacity:0.31;">
				<path style="fill:#4A2382;" d="M73.258,172.932c-0.049-0.152-4.982-15.524-12.329-32.399
					c-7.336-16.853-16.879-30.369-16.974-30.504l0.699-0.496c0.096,0.135,9.688,13.721,17.062,30.657
					c7.364,16.917,12.31,32.329,12.358,32.482L73.258,172.932z"/>
				
					<rect x="40.008" y="122.703" transform="matrix(0.9152 0.4029 -0.4029 0.9152 53.6398 -8.6946)" style="fill:#4A2382;" width="14.95" height="0.857"/>
				
					<rect x="60.144" y="109.774" transform="matrix(0.9996 0.0296 -0.0296 0.9996 3.6943 -1.7406)" style="fill:#4A2382;" width="0.857" height="27.987"/>
				
					<rect x="45.841" y="142.893" transform="matrix(0.9331 0.3596 -0.3596 0.9331 55.2281 -10.2758)" style="fill:#4A2382;" width="18.791" height="0.856"/>
			</g>
		</g>
		<g>
			<path style="fill:#737373;" d="M205.202,211.751l-0.843-0.669c0.137-0.172,13.883-17.379,38.091-38.455
				c24.206-21.075,44.094-33.153,44.291-33.272l0.556,0.92c-0.197,0.119-20.011,12.153-44.141,33.163
				C219.028,194.444,205.338,211.58,205.202,211.751z"/>
			<g>
				<path style="fill:#63AD55;" d="M237.236,182.171c0,0,94.175-3.533,79.877,22.651
					C302.814,231.008,237.236,182.171,237.236,182.171z"/>
				<path style="fill:#63AD55;" d="M249.215,165.207c0,0-10.088-85.293,14.744-74.217
					C288.79,102.066,249.215,165.207,249.215,165.207z"/>
				<path style="fill:#63AD55;" d="M252.481,169.886c0,0,82.212-24.858,75.651,1.527C321.574,197.8,252.481,169.886,252.481,169.886
					z"/>
				<path style="fill:#63AD55;" d="M279.073,152.291c0,0,66.642-34.167,60.614-11.014
					C333.66,164.43,279.073,152.291,279.073,152.291z"/>
				<path style="fill:#63AD55;" d="M267.254,151.744c0,0,10.941-69.043,27.946-54.881
					C312.206,111.026,267.254,151.744,267.254,151.744z"/>
				<path style="fill:#63AD55;" d="M280.802,143.891c0,0,37.526-58.979,47.487-39.217
					C338.248,124.436,280.802,143.891,280.802,143.891z"/>
				<path style="fill:#63AD55;" d="M234.75,180.043c0,0-36.349-86.948-6.812-82.746C257.475,101.499,234.75,180.043,234.75,180.043z
					"/>
			</g>
			<g style="opacity:0.27;">
				<defs>
					<filter id="Adobe_OpacityMaskFilter" filterUnits="userSpaceOnUse" x="237.236" y="182.012" width="81.354" height="30.529">
						<feFlood  style="flood-color:white;flood-opacity:1" result="back"/>
						<feBlend  in="SourceGraphic" in2="back" mode="normal"/>
					</filter>
				</defs>
				<mask maskUnits="userSpaceOnUse" x="237.236" y="182.012" width="81.354" height="30.529" id="SVGID_3_">
					<g style="filter:url(#Adobe_OpacityMaskFilter);">
						<defs>
							
								<filter id="Adobe_OpacityMaskFilter_1_" filterUnits="userSpaceOnUse" x="237.236" y="182.012" width="81.354" height="30.529">
								<feFlood  style="flood-color:white;flood-opacity:1" result="back"/>
								<feBlend  in="SourceGraphic" in2="back" mode="normal"/>
							</filter>
						</defs>
						<mask maskUnits="userSpaceOnUse" x="237.236" y="182.012" width="81.354" height="30.529" id="SVGID_3_">
							<g style="filter:url(#Adobe_OpacityMaskFilter_1_);">
							</g>
						</mask>
						<linearGradient id="SVGID_4_" gradientUnits="userSpaceOnUse" x1="237.2363" y1="197.2764" x2="318.5908" y2="197.2764">
							<stop  offset="0" style="stop-color:#000000"/>
							<stop  offset="0.2097" style="stop-color:#030303"/>
							<stop  offset="0.3448" style="stop-color:#0B0B0B"/>
							<stop  offset="0.4589" style="stop-color:#1A1A1A"/>
							<stop  offset="0.5613" style="stop-color:#2F2F2F"/>
							<stop  offset="0.6559" style="stop-color:#4A4A4A"/>
							<stop  offset="0.7448" style="stop-color:#6C6C6C"/>
							<stop  offset="0.8291" style="stop-color:#949494"/>
							<stop  offset="0.91" style="stop-color:#C2C2C2"/>
							<stop  offset="0.9853" style="stop-color:#F4F4F4"/>
							<stop  offset="1" style="stop-color:#FFFFFF"/>
						</linearGradient>
						<path style="mask:url(#SVGID_3_);fill:url(#SVGID_4_);" d="M237.236,182.171c0,0,94.175-3.533,79.877,22.651
							C302.814,231.008,237.236,182.171,237.236,182.171z"/>
					</g>
				</mask>
				<linearGradient id="SVGID_5_" gradientUnits="userSpaceOnUse" x1="237.2363" y1="197.2764" x2="318.5908" y2="197.2764">
					<stop  offset="0" style="stop-color:#FFFFFF"/>
					<stop  offset="0.2607" style="stop-color:#FCFEFF"/>
					<stop  offset="0.4286" style="stop-color:#F4FCFF"/>
					<stop  offset="0.5704" style="stop-color:#E5F9FF"/>
					<stop  offset="0.6977" style="stop-color:#D0F4FF"/>
					<stop  offset="0.8151" style="stop-color:#B5EEFF"/>
					<stop  offset="0.9239" style="stop-color:#94E6FF"/>
					<stop  offset="1" style="stop-color:#78E0FF"/>
				</linearGradient>
				<path style="fill:url(#SVGID_5_);" d="M237.236,182.171c0,0,94.175-3.533,79.877,22.651
					C302.814,231.008,237.236,182.171,237.236,182.171z"/>
				<defs>
					<filter id="Adobe_OpacityMaskFilter_2_" filterUnits="userSpaceOnUse" x="247.188" y="89.998" width="24.958" height="75.209">
						<feFlood  style="flood-color:white;flood-opacity:1" result="back"/>
						<feBlend  in="SourceGraphic" in2="back" mode="normal"/>
					</filter>
				</defs>
				<mask maskUnits="userSpaceOnUse" x="247.188" y="89.998" width="24.958" height="75.209" id="SVGID_6_">
					<g style="filter:url(#Adobe_OpacityMaskFilter_2_);">
						<defs>
							
								<filter id="Adobe_OpacityMaskFilter_3_" filterUnits="userSpaceOnUse" x="247.188" y="89.998" width="24.958" height="75.209">
								<feFlood  style="flood-color:white;flood-opacity:1" result="back"/>
								<feBlend  in="SourceGraphic" in2="back" mode="normal"/>
							</filter>
						</defs>
						<mask maskUnits="userSpaceOnUse" x="247.188" y="89.998" width="24.958" height="75.209" id="SVGID_6_">
							<g style="filter:url(#Adobe_OpacityMaskFilter_3_);">
							</g>
						</mask>
						<linearGradient id="SVGID_7_" gradientUnits="userSpaceOnUse" x1="247.1875" y1="127.6025" x2="272.1455" y2="127.6025">
							<stop  offset="0" style="stop-color:#000000"/>
							<stop  offset="0.2097" style="stop-color:#030303"/>
							<stop  offset="0.3448" style="stop-color:#0B0B0B"/>
							<stop  offset="0.4589" style="stop-color:#1A1A1A"/>
							<stop  offset="0.5613" style="stop-color:#2F2F2F"/>
							<stop  offset="0.6559" style="stop-color:#4A4A4A"/>
							<stop  offset="0.7448" style="stop-color:#6C6C6C"/>
							<stop  offset="0.8291" style="stop-color:#949494"/>
							<stop  offset="0.91" style="stop-color:#C2C2C2"/>
							<stop  offset="0.9853" style="stop-color:#F4F4F4"/>
							<stop  offset="1" style="stop-color:#FFFFFF"/>
						</linearGradient>
						<path style="mask:url(#SVGID_6_);fill:url(#SVGID_7_);" d="M249.215,165.207c0,0-10.088-85.293,14.744-74.217
							C288.79,102.066,249.215,165.207,249.215,165.207z"/>
					</g>
				</mask>
				<linearGradient id="SVGID_8_" gradientUnits="userSpaceOnUse" x1="247.1875" y1="127.6025" x2="272.1455" y2="127.6025">
					<stop  offset="0" style="stop-color:#FFFFFF"/>
					<stop  offset="0.2607" style="stop-color:#FCFEFF"/>
					<stop  offset="0.4286" style="stop-color:#F4FCFF"/>
					<stop  offset="0.5704" style="stop-color:#E5F9FF"/>
					<stop  offset="0.6977" style="stop-color:#D0F4FF"/>
					<stop  offset="0.8151" style="stop-color:#B5EEFF"/>
					<stop  offset="0.9239" style="stop-color:#94E6FF"/>
					<stop  offset="1" style="stop-color:#78E0FF"/>
				</linearGradient>
				<path style="fill:url(#SVGID_8_);" d="M249.215,165.207c0,0-10.088-85.293,14.744-74.217
					C288.79,102.066,249.215,165.207,249.215,165.207z"/>
				<defs>
					<filter id="Adobe_OpacityMaskFilter_4_" filterUnits="userSpaceOnUse" x="252.481" y="159.276" width="76.024" height="23.48">
						<feFlood  style="flood-color:white;flood-opacity:1" result="back"/>
						<feBlend  in="SourceGraphic" in2="back" mode="normal"/>
					</filter>
				</defs>
				<mask maskUnits="userSpaceOnUse" x="252.481" y="159.276" width="76.024" height="23.48" id="SVGID_9_">
					<g style="filter:url(#Adobe_OpacityMaskFilter_4_);">
						<defs>
							
								<filter id="Adobe_OpacityMaskFilter_5_" filterUnits="userSpaceOnUse" x="252.481" y="159.276" width="76.024" height="23.48">
								<feFlood  style="flood-color:white;flood-opacity:1" result="back"/>
								<feBlend  in="SourceGraphic" in2="back" mode="normal"/>
							</filter>
						</defs>
						<mask maskUnits="userSpaceOnUse" x="252.481" y="159.276" width="76.024" height="23.48" id="SVGID_9_">
							<g style="filter:url(#Adobe_OpacityMaskFilter_5_);">
							</g>
						</mask>
						<linearGradient id="SVGID_10_" gradientUnits="userSpaceOnUse" x1="252.4814" y1="171.0166" x2="328.5059" y2="171.0166">
							<stop  offset="0" style="stop-color:#000000"/>
							<stop  offset="0.2097" style="stop-color:#030303"/>
							<stop  offset="0.3448" style="stop-color:#0B0B0B"/>
							<stop  offset="0.4589" style="stop-color:#1A1A1A"/>
							<stop  offset="0.5613" style="stop-color:#2F2F2F"/>
							<stop  offset="0.6559" style="stop-color:#4A4A4A"/>
							<stop  offset="0.7448" style="stop-color:#6C6C6C"/>
							<stop  offset="0.8291" style="stop-color:#949494"/>
							<stop  offset="0.91" style="stop-color:#C2C2C2"/>
							<stop  offset="0.9853" style="stop-color:#F4F4F4"/>
							<stop  offset="1" style="stop-color:#FFFFFF"/>
						</linearGradient>
						<path style="mask:url(#SVGID_9_);fill:url(#SVGID_10_);" d="M252.481,169.886c0,0,82.212-24.858,75.651,1.527
							C321.574,197.8,252.481,169.886,252.481,169.886z"/>
					</g>
				</mask>
				<linearGradient id="SVGID_11_" gradientUnits="userSpaceOnUse" x1="252.4814" y1="171.0166" x2="328.5059" y2="171.0166">
					<stop  offset="0" style="stop-color:#FFFFFF"/>
					<stop  offset="0.2607" style="stop-color:#FCFEFF"/>
					<stop  offset="0.4286" style="stop-color:#F4FCFF"/>
					<stop  offset="0.5704" style="stop-color:#E5F9FF"/>
					<stop  offset="0.6977" style="stop-color:#D0F4FF"/>
					<stop  offset="0.8151" style="stop-color:#B5EEFF"/>
					<stop  offset="0.9239" style="stop-color:#94E6FF"/>
					<stop  offset="1" style="stop-color:#78E0FF"/>
				</linearGradient>
				<path style="fill:url(#SVGID_11_);" d="M252.481,169.886c0,0,82.212-24.858,75.651,1.527
					C321.574,197.8,252.481,169.886,252.481,169.886z"/>
				<defs>
					<filter id="Adobe_OpacityMaskFilter_6_" filterUnits="userSpaceOnUse" x="279.073" y="133.229" width="61" height="22.242">
						<feFlood  style="flood-color:white;flood-opacity:1" result="back"/>
						<feBlend  in="SourceGraphic" in2="back" mode="normal"/>
					</filter>
				</defs>
				<mask maskUnits="userSpaceOnUse" x="279.073" y="133.229" width="61" height="22.242" id="SVGID_12_">
					<g style="filter:url(#Adobe_OpacityMaskFilter_6_);">
						<defs>
							<filter id="Adobe_OpacityMaskFilter_7_" filterUnits="userSpaceOnUse" x="279.073" y="133.229" width="61" height="22.242">
								<feFlood  style="flood-color:white;flood-opacity:1" result="back"/>
								<feBlend  in="SourceGraphic" in2="back" mode="normal"/>
							</filter>
						</defs>
						<mask maskUnits="userSpaceOnUse" x="279.073" y="133.229" width="61" height="22.242" id="SVGID_12_">
							<g style="filter:url(#Adobe_OpacityMaskFilter_7_);">
							</g>
						</mask>
						<linearGradient id="SVGID_13_" gradientUnits="userSpaceOnUse" x1="279.0732" y1="144.3506" x2="340.0732" y2="144.3506">
							<stop  offset="0" style="stop-color:#000000"/>
							<stop  offset="0.2097" style="stop-color:#030303"/>
							<stop  offset="0.3448" style="stop-color:#0B0B0B"/>
							<stop  offset="0.4589" style="stop-color:#1A1A1A"/>
							<stop  offset="0.5613" style="stop-color:#2F2F2F"/>
							<stop  offset="0.6559" style="stop-color:#4A4A4A"/>
							<stop  offset="0.7448" style="stop-color:#6C6C6C"/>
							<stop  offset="0.8291" style="stop-color:#949494"/>
							<stop  offset="0.91" style="stop-color:#C2C2C2"/>
							<stop  offset="0.9853" style="stop-color:#F4F4F4"/>
							<stop  offset="1" style="stop-color:#FFFFFF"/>
						</linearGradient>
						<path style="mask:url(#SVGID_12_);fill:url(#SVGID_13_);" d="M279.073,152.291c0,0,66.642-34.167,60.614-11.014
							C333.66,164.43,279.073,152.291,279.073,152.291z"/>
					</g>
				</mask>
				<linearGradient id="SVGID_14_" gradientUnits="userSpaceOnUse" x1="279.0732" y1="144.3506" x2="340.0732" y2="144.3506">
					<stop  offset="0" style="stop-color:#FFFFFF"/>
					<stop  offset="0.2607" style="stop-color:#FCFEFF"/>
					<stop  offset="0.4286" style="stop-color:#F4FCFF"/>
					<stop  offset="0.5704" style="stop-color:#E5F9FF"/>
					<stop  offset="0.6977" style="stop-color:#D0F4FF"/>
					<stop  offset="0.8151" style="stop-color:#B5EEFF"/>
					<stop  offset="0.9239" style="stop-color:#94E6FF"/>
					<stop  offset="1" style="stop-color:#78E0FF"/>
				</linearGradient>
				<path style="fill:url(#SVGID_14_);" d="M279.073,152.291c0,0,66.642-34.167,60.614-11.014
					C333.66,164.43,279.073,152.291,279.073,152.291z"/>
				<defs>
					<filter id="Adobe_OpacityMaskFilter_8_" filterUnits="userSpaceOnUse" x="267.254" y="94.948" width="31.789" height="56.796">
						<feFlood  style="flood-color:white;flood-opacity:1" result="back"/>
						<feBlend  in="SourceGraphic" in2="back" mode="normal"/>
					</filter>
				</defs>
				<mask maskUnits="userSpaceOnUse" x="267.254" y="94.948" width="31.789" height="56.796" id="SVGID_15_">
					<g style="filter:url(#Adobe_OpacityMaskFilter_8_);">
						<defs>
							
								<filter id="Adobe_OpacityMaskFilter_9_" filterUnits="userSpaceOnUse" x="267.254" y="94.948" width="31.789" height="56.796">
								<feFlood  style="flood-color:white;flood-opacity:1" result="back"/>
								<feBlend  in="SourceGraphic" in2="back" mode="normal"/>
							</filter>
						</defs>
						<mask maskUnits="userSpaceOnUse" x="267.254" y="94.948" width="31.789" height="56.796" id="SVGID_15_">
							<g style="filter:url(#Adobe_OpacityMaskFilter_9_);">
							</g>
						</mask>
						<linearGradient id="SVGID_16_" gradientUnits="userSpaceOnUse" x1="267.2539" y1="123.3462" x2="299.043" y2="123.3462">
							<stop  offset="0" style="stop-color:#000000"/>
							<stop  offset="0.2097" style="stop-color:#030303"/>
							<stop  offset="0.3448" style="stop-color:#0B0B0B"/>
							<stop  offset="0.4589" style="stop-color:#1A1A1A"/>
							<stop  offset="0.5613" style="stop-color:#2F2F2F"/>
							<stop  offset="0.6559" style="stop-color:#4A4A4A"/>
							<stop  offset="0.7448" style="stop-color:#6C6C6C"/>
							<stop  offset="0.8291" style="stop-color:#949494"/>
							<stop  offset="0.91" style="stop-color:#C2C2C2"/>
							<stop  offset="0.9853" style="stop-color:#F4F4F4"/>
							<stop  offset="1" style="stop-color:#FFFFFF"/>
						</linearGradient>
						<path style="mask:url(#SVGID_15_);fill:url(#SVGID_16_);" d="M267.254,151.744c0,0,10.941-69.043,27.946-54.881
							C312.206,111.026,267.254,151.744,267.254,151.744z"/>
					</g>
				</mask>
				<linearGradient id="SVGID_17_" gradientUnits="userSpaceOnUse" x1="267.2539" y1="123.3462" x2="299.043" y2="123.3462">
					<stop  offset="0" style="stop-color:#FFFFFF"/>
					<stop  offset="0.2607" style="stop-color:#FCFEFF"/>
					<stop  offset="0.4286" style="stop-color:#F4FCFF"/>
					<stop  offset="0.5704" style="stop-color:#E5F9FF"/>
					<stop  offset="0.6977" style="stop-color:#D0F4FF"/>
					<stop  offset="0.8151" style="stop-color:#B5EEFF"/>
					<stop  offset="0.9239" style="stop-color:#94E6FF"/>
					<stop  offset="1" style="stop-color:#78E0FF"/>
				</linearGradient>
				<path style="fill:url(#SVGID_17_);" d="M267.254,151.744c0,0,10.941-69.043,27.946-54.881
					C312.206,111.026,267.254,151.744,267.254,151.744z"/>
				<defs>
					
						<filter id="Adobe_OpacityMaskFilter_10_" filterUnits="userSpaceOnUse" x="280.802" y="100.624" width="48.647" height="43.267">
						<feFlood  style="flood-color:white;flood-opacity:1" result="back"/>
						<feBlend  in="SourceGraphic" in2="back" mode="normal"/>
					</filter>
				</defs>
				<mask maskUnits="userSpaceOnUse" x="280.802" y="100.624" width="48.647" height="43.267" id="SVGID_18_">
					<g style="filter:url(#Adobe_OpacityMaskFilter_10_);">
						<defs>
							
								<filter id="Adobe_OpacityMaskFilter_11_" filterUnits="userSpaceOnUse" x="280.802" y="100.624" width="48.647" height="43.267">
								<feFlood  style="flood-color:white;flood-opacity:1" result="back"/>
								<feBlend  in="SourceGraphic" in2="back" mode="normal"/>
							</filter>
						</defs>
						<mask maskUnits="userSpaceOnUse" x="280.802" y="100.624" width="48.647" height="43.267" id="SVGID_18_">
							<g style="filter:url(#Adobe_OpacityMaskFilter_11_);">
							</g>
						</mask>
						<linearGradient id="SVGID_19_" gradientUnits="userSpaceOnUse" x1="280.8018" y1="122.2568" x2="329.4492" y2="122.2568">
							<stop  offset="0" style="stop-color:#000000"/>
							<stop  offset="0.2097" style="stop-color:#030303"/>
							<stop  offset="0.3448" style="stop-color:#0B0B0B"/>
							<stop  offset="0.4589" style="stop-color:#1A1A1A"/>
							<stop  offset="0.5613" style="stop-color:#2F2F2F"/>
							<stop  offset="0.6559" style="stop-color:#4A4A4A"/>
							<stop  offset="0.7448" style="stop-color:#6C6C6C"/>
							<stop  offset="0.8291" style="stop-color:#949494"/>
							<stop  offset="0.91" style="stop-color:#C2C2C2"/>
							<stop  offset="0.9853" style="stop-color:#F4F4F4"/>
							<stop  offset="1" style="stop-color:#FFFFFF"/>
						</linearGradient>
						<path style="mask:url(#SVGID_18_);fill:url(#SVGID_19_);" d="M280.802,143.891c0,0,37.526-58.979,47.487-39.217
							C338.248,124.436,280.802,143.891,280.802,143.891z"/>
					</g>
				</mask>
				<linearGradient id="SVGID_20_" gradientUnits="userSpaceOnUse" x1="280.8018" y1="122.2568" x2="329.4492" y2="122.2568">
					<stop  offset="0" style="stop-color:#FFFFFF"/>
					<stop  offset="0.2607" style="stop-color:#FCFEFF"/>
					<stop  offset="0.4286" style="stop-color:#F4FCFF"/>
					<stop  offset="0.5704" style="stop-color:#E5F9FF"/>
					<stop  offset="0.6977" style="stop-color:#D0F4FF"/>
					<stop  offset="0.8151" style="stop-color:#B5EEFF"/>
					<stop  offset="0.9239" style="stop-color:#94E6FF"/>
					<stop  offset="1" style="stop-color:#78E0FF"/>
				</linearGradient>
				<path style="fill:url(#SVGID_20_);" d="M280.802,143.891c0,0,37.526-58.979,47.487-39.217
					C338.248,124.436,280.802,143.891,280.802,143.891z"/>
				<defs>
					<filter id="Adobe_OpacityMaskFilter_12_" filterUnits="userSpaceOnUse" x="216.37" y="97.149" width="26.729" height="82.894">
						<feFlood  style="flood-color:white;flood-opacity:1" result="back"/>
						<feBlend  in="SourceGraphic" in2="back" mode="normal"/>
					</filter>
				</defs>
				<mask maskUnits="userSpaceOnUse" x="216.37" y="97.149" width="26.729" height="82.894" id="SVGID_21_">
					<g style="filter:url(#Adobe_OpacityMaskFilter_12_);">
						<defs>
							
								<filter id="Adobe_OpacityMaskFilter_13_" filterUnits="userSpaceOnUse" x="216.37" y="97.149" width="26.729" height="82.894">
								<feFlood  style="flood-color:white;flood-opacity:1" result="back"/>
								<feBlend  in="SourceGraphic" in2="back" mode="normal"/>
							</filter>
						</defs>
						<mask maskUnits="userSpaceOnUse" x="216.37" y="97.149" width="26.729" height="82.894" id="SVGID_21_">
							<g style="filter:url(#Adobe_OpacityMaskFilter_13_);">
							</g>
						</mask>
						<linearGradient id="SVGID_22_" gradientUnits="userSpaceOnUse" x1="216.3701" y1="138.5957" x2="243.0986" y2="138.5957">
							<stop  offset="0" style="stop-color:#000000"/>
							<stop  offset="0.2097" style="stop-color:#030303"/>
							<stop  offset="0.3448" style="stop-color:#0B0B0B"/>
							<stop  offset="0.4589" style="stop-color:#1A1A1A"/>
							<stop  offset="0.5613" style="stop-color:#2F2F2F"/>
							<stop  offset="0.6559" style="stop-color:#4A4A4A"/>
							<stop  offset="0.7448" style="stop-color:#6C6C6C"/>
							<stop  offset="0.8291" style="stop-color:#949494"/>
							<stop  offset="0.91" style="stop-color:#C2C2C2"/>
							<stop  offset="0.9853" style="stop-color:#F4F4F4"/>
							<stop  offset="1" style="stop-color:#FFFFFF"/>
						</linearGradient>
						<path style="mask:url(#SVGID_21_);fill:url(#SVGID_22_);" d="M234.75,180.043c0,0-36.349-86.948-6.812-82.746
							C257.475,101.499,234.75,180.043,234.75,180.043z"/>
					</g>
				</mask>
				<linearGradient id="SVGID_23_" gradientUnits="userSpaceOnUse" x1="216.3701" y1="138.5957" x2="243.0986" y2="138.5957">
					<stop  offset="0" style="stop-color:#FFFFFF"/>
					<stop  offset="0.2607" style="stop-color:#FCFEFF"/>
					<stop  offset="0.4286" style="stop-color:#F4FCFF"/>
					<stop  offset="0.5704" style="stop-color:#E5F9FF"/>
					<stop  offset="0.6977" style="stop-color:#D0F4FF"/>
					<stop  offset="0.8151" style="stop-color:#B5EEFF"/>
					<stop  offset="0.9239" style="stop-color:#94E6FF"/>
					<stop  offset="1" style="stop-color:#78E0FF"/>
				</linearGradient>
				<path style="fill:url(#SVGID_23_);" d="M234.75,180.043c0,0-36.349-86.948-6.812-82.746
					C257.475,101.499,234.75,180.043,234.75,180.043z"/>
			</g>
			<g style="opacity:0.33;">
				<path style="fill:none;stroke:#FFFFFF;stroke-width:3.9427;stroke-linecap:round;stroke-miterlimit:10;" d="M233.832,174.909
					c0,0,2.525-14.003,0.084-32.638c-2.442-18.635-6.575-32.667-6.575-32.667"/>
				<path style="fill:none;stroke:#FFFFFF;stroke-width:3.9427;stroke-linecap:round;stroke-miterlimit:10;" d="M250.024,160.774
					c0,0,11.733-35.227,12.339-54.047"/>
				<path style="fill:#FFFFFF;" d="M269.377,148.976c-0.035,0-0.072-0.01-0.104-0.029c-0.104-0.057-0.141-0.188-0.083-0.292
					c0.202-0.36,20.29-36.128,21.889-42.221c0.029-0.115,0.147-0.184,0.263-0.154c0.116,0.031,0.185,0.148,0.153,0.263
					c-1.613,6.146-21.101,40.849-21.929,42.323C269.525,148.936,269.452,148.976,269.377,148.976z"/>
				<path style="fill:#FFFFFF;" d="M289.356,138.204c-0.06,0-0.119-0.024-0.162-0.074c-0.077-0.089-0.068-0.224,0.021-0.303
					c0.283-0.246,28.361-24.616,33.843-28.227c0.1-0.065,0.233-0.038,0.299,0.061c0.065,0.1,0.037,0.233-0.063,0.298
					c-5.457,3.595-33.515,27.947-33.797,28.193C289.457,138.188,289.406,138.204,289.356,138.204z"/>
				<path style="fill:#FFFFFF;" d="M281.225,151.428c-0.114,0-0.209-0.091-0.214-0.205c-0.006-0.119,0.087-0.22,0.206-0.226
					c0.087-0.002,8.902-0.376,19.108-1.522c13.491-1.517,23.277-3.691,28.298-6.291c0.106-0.056,0.235-0.014,0.29,0.092
					c0.055,0.104,0.013,0.235-0.092,0.289c-6.402,3.315-19.005,5.277-28.45,6.338c-10.222,1.148-19.05,1.521-19.137,1.525
					C281.231,151.428,281.228,151.428,281.225,151.428z"/>
				<path style="fill:#FFFFFF;" d="M298.785,173.033c-6.641,0-13.623-0.423-19.342-0.895c-10.766-0.889-19.487-2.134-19.574-2.146
					c-0.117-0.017-0.199-0.126-0.183-0.244c0.018-0.117,0.126-0.199,0.243-0.183c0.347,0.051,34.883,4.949,52.298,2.197
					c0.119-0.02,0.229,0.063,0.247,0.179c0.019,0.118-0.063,0.228-0.179,0.246C308.412,172.803,303.692,173.033,298.785,173.033z"/>
				<path style="fill:#FFFFFF;" d="M307.776,202.704c-3.287,0-7.717-0.611-13.235-1.829c-6.195-1.367-13.777-3.499-22.532-6.335
					c-14.904-4.827-28.225-10.095-28.358-10.146c-0.11-0.044-0.165-0.169-0.121-0.28c0.044-0.109,0.169-0.164,0.28-0.121
					c0.132,0.054,13.443,5.316,28.334,10.139c19.68,6.374,33.161,9.087,38.986,7.848c0.116-0.025,0.229,0.05,0.255,0.166
					c0.024,0.116-0.05,0.23-0.165,0.255C310.264,202.603,309.115,202.704,307.776,202.704z"/>
			</g>
		</g>
		<g>
			
				<linearGradient id="SVGID_24_" gradientUnits="userSpaceOnUse" x1="509.7178" y1="720.0918" x2="565.126" y2="720.0918" gradientTransform="matrix(0.4694 0.883 -0.883 0.4694 630.6677 -718.9316)">
				<stop  offset="0" style="stop-color:#FFE887"/>
				<stop  offset="0.3849" style="stop-color:#F7C359"/>
				<stop  offset="0.7923" style="stop-color:#F0A02E"/>
				<stop  offset="1" style="stop-color:#ED931D"/>
			</linearGradient>
			<path style="fill:url(#SVGID_24_);" d="M214.536,136.398c0.866-5.377,2.719-83.956,65.854-83.058
				C319.605,110.158,231.318,128.347,214.536,136.398z"/>
			<g style="opacity:0.31;">
				<path style="fill:#916827;" d="M224.044,129.894l-0.72-0.704c0.131-0.135,13.361-13.733,26.818-30.664
					c13.44-16.908,22.202-34.265,22.289-34.438l0.899,0.451c-0.087,0.174-8.893,17.62-22.399,34.613
					C237.44,116.125,224.177,129.758,224.044,129.894z"/>
				<path style="fill:none;stroke:#916827;stroke-width:9.228;stroke-miterlimit:10;" d="M252.6,96.195"/>
			</g>
		</g>
	</g>
	<g>
		<g>
			<path style="fill:#424242;" d="M263.44,215.526H80.935c-4.238,0-7.673-3.436-7.673-7.674V84.73c0-4.238,3.435-7.673,7.673-7.673
				H263.44c4.238,0,7.674,3.436,7.674,7.673v123.123C271.114,212.091,267.679,215.526,263.44,215.526z"/>
			<rect x="81.941" y="85.66" style="fill:#424242;" width="180.492" height="113.682"/>
			<circle style="fill:#6B6B6B;" cx="172.188" cy="81.485" r="1.821"/>
		</g>
		<path style="fill:#6E6E6E;" d="M296.425,216.513H47.951c-0.784,0-1.42-0.635-1.42-1.42v-6.682c0-0.784,0.636-1.419,1.42-1.419
			h248.474c0.784,0,1.42,0.635,1.42,1.419v6.682C297.845,215.878,297.209,216.513,296.425,216.513z"/>
		<path style="fill:#999999;" d="M190.28,210.966h-35.686c-2.017,0-3.651-1.635-3.651-3.651v-0.322h42.989v0.322
			C193.932,209.331,192.297,210.966,190.28,210.966z"/>
	</g>
	<g>
		<g>
			<g>
				<g>
					<g>
						<rect x="73.469" y="77.384" style="opacity:0.19;fill:#0B6770;" width="183.283" height="118.257"/>
						<rect x="66.375" y="61.641" style="fill:#F7F7F7;" width="182.298" height="126.917"/>
						<rect x="66.328" y="57.419" style="fill:#7181BF;" width="182.298" height="15.198"/>
					</g>
				</g>
				<g style="opacity:0.33;">
					<circle style="fill:#FFFFFF;" cx="72.201" cy="64.919" r="2.01"/>
					<circle style="fill:#FFFFFF;" cx="78.404" cy="64.914" r="2.01"/>
					<circle style="fill:#FFFFFF;" cx="84.606" cy="64.909" r="2.01"/>
				</g>
				
					<line style="opacity:0.33;fill:#FFFFFF;stroke:#FFFFFF;stroke-width:18.1397;stroke-linecap:square;stroke-miterlimit:10;" x1="126.903" y1="64.673" x2="191.45" y2="64.623"/>
				<g>
					<g>
						<g style="opacity:0.33;">
							<line style="fill:#FFFFFF;" x1="176.107" y1="85.319" x2="235" y2="85.273"/>
							<rect x="174.594" y="83.782" style="fill:#C1A8DB;" width="61.92" height="3.027"/>
						</g>
						<g style="opacity:0.33;">
							<line style="fill:#FFFFFF;" x1="207.129" y1="92.665" x2="235.001" y2="92.644"/>
							<rect x="205.615" y="91.141" style="fill:#C1A8DB;" width="30.9" height="3.027"/>
						</g>
					</g>
					<g style="opacity:0.33;">
						<line style="fill:#FFFFFF;" x1="77.854" y1="85.395" x2="102.853" y2="85.375"/>
						<rect x="76.34" y="83.872" style="fill:#C1A8DB;" width="28.026" height="3.026"/>
					</g>
				</g>
				<g>
					<path style="fill:#E7E1ED;" d="M120.211,176.332l-40.33,0.031c-1.879,0.002-3.403-1.521-3.404-3.398l-0.051-65.858
						c-0.002-1.878,1.52-3.402,3.398-3.404l40.33-0.031c1.878-0.002,3.402,1.52,3.404,3.398l0.051,65.858
						C123.612,174.807,122.09,176.331,120.211,176.332z"/>
					<path style="fill:#E7E1ED;" d="M176.529,176.288l-40.33,0.032c-1.878,0.001-3.403-1.521-3.404-3.399l-0.05-65.857
						c-0.001-1.878,1.52-3.402,3.398-3.404l40.331-0.031c1.878-0.001,3.402,1.52,3.403,3.398l0.052,65.857
						C179.93,174.763,178.408,176.287,176.529,176.288z"/>
					<path style="fill:#E7E1ED;" d="M232.848,176.245l-40.329,0.03c-1.88,0.003-3.403-1.52-3.405-3.397l-0.051-65.858
						c-0.002-1.878,1.521-3.402,3.398-3.404l40.331-0.031c1.879-0.001,3.402,1.52,3.403,3.399l0.051,65.857
						C236.247,174.719,234.726,176.244,232.848,176.245z"/>
				</g>
			</g>
			<g>
				
					<rect x="52.069" y="52.517" transform="matrix(0.1053 0.9944 -0.9944 0.1053 104.4888 -1.8078)" style="fill:#7C8BEC;" width="2.361" height="9.294"/>
				
					<rect x="47.222" y="45.52" transform="matrix(0.7777 0.6286 -0.6286 0.7777 41.3882 -23.6462)" style="fill:#7C8BEC;" width="13.816" height="2.36"/>
				
					<rect x="60.08" y="42.093" transform="matrix(0.0947 0.9955 -0.9955 0.0947 101.6778 -25.2596)" style="fill:#7C8BEC;" width="9.294" height="2.361"/>
			</g>
		</g>
	</g>
	<linearGradient id="SVGID_25_" gradientUnits="userSpaceOnUse" x1="158.7202" y1="28.2939" x2="157.9256" y2="120.566">
		<stop  offset="0" style="stop-color:#35C1E8"/>
		<stop  offset="0.2441" style="stop-color:#2DB7DC"/>
		<stop  offset="0.6791" style="stop-color:#199DBE"/>
		<stop  offset="1" style="stop-color:#0786A3"/>
	</linearGradient>
	<polygon style="fill:url(#SVGID_25_);" points="89.377,74.937 227.26,74.937 158.051,131.337 	"/>
	<linearGradient id="SVGID_26_" gradientUnits="userSpaceOnUse" x1="158.3179" y1="27.0225" x2="158.3179" y2="118.1533">
		<stop  offset="0" style="stop-color:#35C1E8"/>
		<stop  offset="0.2441" style="stop-color:#2DB7DC"/>
		<stop  offset="0.6791" style="stop-color:#199DBE"/>
		<stop  offset="1" style="stop-color:#0786A3"/>
	</linearGradient>
	<polygon style="fill:url(#SVGID_26_);" points="227.26,74.99 89.377,74.99 158.585,18.589 	"/>
	
		<rect x="104.737" y="30.276" transform="matrix(1 0.0016 -0.0016 1 0.1574 -0.2561)" style="fill:#F7F7F7;" width="106.614" height="133.35"/>
	<g>
		<g>
			<rect x="138.597" y="47.81" style="fill:#CFCFCF;" width="38.895" height="1.907"/>
		</g>
		<g>
			
				<rect x="119.236" y="60.202" transform="matrix(1 0.0016 -0.0016 1 0.1007 -0.2222)" style="fill:#CFCFCF;" width="32.098" height="1.907"/>
			
				<rect x="155.492" y="60.259" transform="matrix(1 0.0016 -0.0016 1 0.0997 -0.277)" style="fill:#CFCFCF;" width="30.048" height="1.907"/>
			
				<rect x="188.557" y="60.296" transform="matrix(1 0.0017 -0.0017 1 0.1035 -0.3255)" style="fill:#CFCFCF;" width="9.272" height="1.907"/>
		</g>
		<g>
			
				<rect x="119.221" y="69.512" transform="matrix(1 0.0016 -0.0016 1 0.1141 -0.2176)" style="fill:#CFCFCF;" width="30.8" height="1.908"/>
			
				<rect x="154.444" y="69.551" transform="matrix(1 0.0016 -0.0016 1 0.1118 -0.2513)" style="fill:#CFCFCF;" width="8.634" height="1.908"/>
			
				<rect x="159.076" y="69.583" transform="matrix(1 0.0016 -0.0016 1 0.114 -0.2878)" style="fill:#CFCFCF;" width="38.738" height="1.908"/>
		</g>
		<g>
			
				<rect x="119.206" y="78.818" transform="matrix(1 0.0016 -0.0016 1 0.1307 -0.2139)" style="fill:#CFCFCF;" width="23.282" height="1.908"/>
			
				<rect x="131.941" y="78.844" transform="matrix(1 0.0016 -0.0016 1 0.1292 -0.2383)" style="fill:#CFCFCF;" width="31.122" height="1.908"/>
			
				<rect x="166.981" y="78.901" transform="matrix(1 0.0016 -0.0016 1 0.1293 -0.2946)" style="fill:#CFCFCF;" width="30.819" height="1.908"/>
		</g>
		<g>
			
				<rect x="119.19" y="88.121" transform="matrix(1 0.0016 -0.0016 1 0.1452 -0.2042)" style="fill:#CFCFCF;" width="12.595" height="1.907"/>
			
				<rect x="136.783" y="88.155" transform="matrix(1 0.0016 -0.0016 1 0.1472 -0.2416)" style="fill:#CFCFCF;" width="19.538" height="1.907"/>
			
				<rect x="160.151" y="88.208" transform="matrix(1 0.0016 -0.0016 1 0.1448 -0.2901)" style="fill:#CFCFCF;" width="37.633" height="1.908"/>
		</g>
		<g>
			
				<rect x="119.175" y="97.442" transform="matrix(1 0.0016 -0.0016 1 0.1591 -0.2111)" style="fill:#CFCFCF;" width="23.283" height="1.907"/>
			
				<rect x="146.57" y="97.488" transform="matrix(1 0.0016 -0.0016 1 0.1589 -0.2571)" style="fill:#CFCFCF;" width="26.054" height="1.908"/>
			
				<rect x="166.95" y="97.525" transform="matrix(1 0.0016 -0.0016 1 0.1609 -0.2975)" style="fill:#CFCFCF;" width="30.818" height="1.907"/>
		</g>
		<g>
			
				<rect x="119.16" y="106.753" transform="matrix(1 0.0016 -0.0016 1 0.1741 -0.2111)" style="fill:#CFCFCF;" width="23.282" height="1.908"/>
			
				<rect x="131.153" y="106.771" transform="matrix(1 0.0016 -0.0016 1 0.1752 -0.2298)" style="fill:#CFCFCF;" width="20.737" height="1.907"/>
			
				<rect x="154.963" y="106.827" transform="matrix(1 0.0016 -0.0016 1 0.1749 -0.2856)" style="fill:#CFCFCF;" width="42.792" height="1.908"/>
		</g>
		<g>
			
				<rect x="119.145" y="116.065" transform="matrix(1 0.0016 -0.0016 1 0.1891 -0.211)" style="fill:#CFCFCF;" width="23.283" height="1.908"/>
			
				<rect x="146.539" y="116.111" transform="matrix(1 0.0017 -0.0017 1 0.1935 -0.2623)" style="fill:#CFCFCF;" width="24.839" height="1.907"/>
			
				<rect x="166.92" y="116.149" transform="matrix(1 0.0016 -0.0016 1 0.1895 -0.2945)" style="fill:#CFCFCF;" width="30.818" height="1.907"/>
		</g>
		<g>
			
				<rect x="119.13" y="125.377" transform="matrix(1 0.0016 -0.0016 1 0.2015 -0.2083)" style="fill:#CFCFCF;" width="23.282" height="1.908"/>
			
				<rect x="133.019" y="125.405" transform="matrix(1 0.0017 -0.0017 1 0.2102 -0.2458)" style="fill:#CFCFCF;" width="29.968" height="1.907"/>
			
				<rect x="166.905" y="125.46" transform="matrix(1 0.0016 -0.0016 1 0.2045 -0.2945)" style="fill:#CFCFCF;" width="30.818" height="1.908"/>
		</g>
		<g>
			
				<rect x="119.115" y="134.688" transform="matrix(1 0.0011 -0.0011 1 0.1496 -0.1493)" style="fill:#CFCFCF;" width="32.775" height="1.908"/>
			
				<rect x="172.835" y="146.607" transform="matrix(1 0.0017 -0.0017 1 0.2439 -0.3057)" style="fill:#CFCFCF;" width="24.84" height="1.908"/>
		</g>
	</g>
	<g>
		<polygon style="fill:#05BA69;" points="152.773,98.665 133.899,79.791 142.772,70.917 152.542,80.687 197.327,33.538 
			206.425,42.18 		"/>
	</g>
	<linearGradient id="SVGID_27_" gradientUnits="userSpaceOnUse" x1="148.2295" y1="65.168" x2="175.9021" y2="214.5241">
		<stop  offset="0" style="stop-color:#35C1E8"/>
		<stop  offset="0.2762" style="stop-color:#2CB6DC"/>
		<stop  offset="0.7686" style="stop-color:#1599BE"/>
		<stop  offset="1" style="stop-color:#0889AD"/>
	</linearGradient>
	<polygon style="fill:url(#SVGID_27_);" points="158.051,131.337 89.377,74.937 89.377,164.301 227.26,164.301 227.26,74.937 	"/>
	<linearGradient id="SVGID_28_" gradientUnits="userSpaceOnUse" x1="158.3179" y1="116.3862" x2="158.3179" y2="207.5179">
		<stop  offset="0" style="stop-color:#35C1E8"/>
		<stop  offset="0.2441" style="stop-color:#2DB7DC"/>
		<stop  offset="0.6791" style="stop-color:#199DBE"/>
		<stop  offset="1" style="stop-color:#0786A3"/>
	</linearGradient>
	<polygon style="fill:url(#SVGID_28_);" points="227.26,164.354 89.377,164.354 158.585,107.953 	"/>
</g>
</svg>
