<?xml version="1.0" encoding="utf-8"?>
<!-- Generator: Adobe Illustrator 16.0.0, SVG Export Plug-In . SVG Version: 6.00 Build 0)  -->
<!DOCTYPE svg PUBLIC "-//W3C//DTD SVG 1.1//EN" "http://www.w3.org/Graphics/SVG/1.1/DTD/svg11.dtd">
<svg version="1.1" id="Layer_1" xmlns="http://www.w3.org/2000/svg" xmlns:xlink="http://www.w3.org/1999/xlink" x="0px" y="0px"
	 width="217px" height="220px" viewBox="0 0 217 220" enable-background="new 0 0 217 220" xml:space="preserve">
<g>
	<path fill="#6B6B6B" d="M64.453,92.346c0,0,21.776,4.033,35.308-15.775c0,0,6.602,18.889,38.092,35.574
		C137.854,112.145,96.306,134.524,64.453,92.346z"/>
	<path fill="#6B6B6B" d="M166.836,60.198c0,0-14.715,7.765-28.353-4.48c0,0-1.384,18.378-20.936,32.739
		c0,0,7.186,8.866,23.475,5.269C163.311,88.804,166.836,60.198,166.836,60.198z"/>
	<path fill="#FF847C" d="M80.243,209.625c0,2.734,2.219,4.375,4.957,4.375h65.273c2.737,0,4.956-1.641,4.956-4.375L165.921,105
		H69.752L80.243,209.625z"/>
	<g>
		<path fill="#FFFFFF" d="M102.947,196.35c0.261,2.517-1.567,4.769-4.083,5.029l-0.532,0.055c-2.518,0.26-4.769-1.566-5.029-4.084
			l-7.444-71.795c-0.261-2.517,1.567-4.768,4.084-5.028l0.531-0.056c2.516-0.261,4.769,1.566,5.029,4.085L102.947,196.35z"/>
		<path fill="#FFFFFF" d="M132.724,196.35c-0.259,2.517,1.57,4.769,4.086,5.029l0.531,0.055c2.517,0.26,4.769-1.566,5.03-4.084
			l7.442-71.795c0.262-2.517-1.567-4.768-4.084-5.028l-0.532-0.056c-2.518-0.261-4.768,1.566-5.028,4.085L132.724,196.35z"/>
		<path fill="#FFFFFF" d="M124,196.729c0,2.359-2.015,4.271-4.499,4.271h-1.002c-2.484,0-4.499-1.912-4.499-4.271v-71.457
			c0-2.359,2.015-4.271,4.499-4.271h1.002c2.484,0,4.499,1.912,4.499,4.271V196.729z"/>
	</g>
	<g>
		<path fill="#6B6B6B" d="M116.759,28c0,0,0.089,2.02,0.224,4.916c0.141,2.896,0.252,6.803,0.389,10.662
			c0.039,0.967,0.079,1.953,0.119,2.902c0.049,0.951,0.084,1.897,0.092,2.801c-0.002,0.908-0.018,1.787-0.065,2.616
			c-0.036,0.829-0.086,2.583-0.146,3.308C117.15,58.1,116.759,61,116.759,61h-0.175c0,0-0.394-2.898-0.612-5.793
			c-0.061-0.725-0.11-1.991-0.146-2.82c-0.048-0.83-0.063-1.946-0.064-2.852c0.008-0.905,0.043-1.962,0.091-2.911
			c0.04-0.95,0.079-1.974,0.12-2.941c0.136-3.86,0.246-7.841,0.389-10.735c0.134-2.898,0.224-4.947,0.224-4.947H116.759z"/>
		<path fill="#6B6B6B" d="M122.003,21c0,0,0.091,2.86,0.225,5.702c0.141,2.84,0.253,7.111,0.388,10.901
			c0.042,0.946,0.081,2.138,0.122,3.068c0.046,0.933,0.082,1.969,0.089,2.856c-0.002,0.888-0.016,1.808-0.064,2.621
			c-0.036,0.815-0.086,0.995-0.146,1.705c-0.218,2.841-0.612,4.146-0.612,4.146h-0.174c0,0-0.393-1.275-0.612-4.115
			c-0.061-0.711-0.11-1.171-0.146-1.983c-0.048-0.813-0.063-1.519-0.066-2.404c0.009-0.89,0.044-1.73,0.093-2.663
			c0.04-0.933,0.08-1.84,0.119-2.785c0.136-3.791,0.246-8.527,0.389-11.366c0.134-2.844,0.224-5.683,0.224-5.683H122.003z"/>
		<path fill="#6B6B6B" d="M148.815,19c0,0,0.088,1.565,0.223,4.461c0.142,2.896,0.253,6.575,0.388,10.435
			c0.041,0.968,0.082,1.842,0.121,2.791c0.048,0.951,0.084,1.841,0.092,2.747c-0.003,0.902-0.018,1.755-0.065,2.586
			c-0.036,0.828-0.087,1.521-0.147,2.243c-0.219,2.897-0.61,4.737-0.61,4.737h-0.176c0,0-0.394-1.851-0.612-4.747
			c-0.059-0.724-0.11-1.47-0.146-2.298c-0.048-0.829-0.063-1.684-0.063-2.588c0.007-0.906,0.043-1.83,0.091-2.781
			c0.04-0.949,0.079-1.911,0.119-2.877c0.136-3.861,0.246-7.354,0.387-10.249c0.135-2.896,0.226-4.46,0.226-4.46H148.815z"/>
		<path fill="#6B6B6B" d="M154.06,13c0,0,0.09,1.907,0.225,4.747c0.141,2.843,0.252,6.635,0.387,10.424
			c0.041,0.947,0.082,1.898,0.122,2.83c0.047,0.933,0.083,1.853,0.092,2.74c-0.004,0.888-0.019,1.747-0.066,2.56
			c-0.036,0.815-0.087,1.42-0.147,2.129c-0.219,2.842-0.611,4.57-0.611,4.57h-0.175c0,0-0.392-1.727-0.612-4.568
			c-0.06-0.711-0.108-1.397-0.146-2.211c-0.046-0.814-0.063-1.631-0.063-2.519c0.007-0.89,0.042-1.789,0.093-2.719
			c0.039-0.933,0.079-1.868,0.117-2.814c0.137-3.791,0.246-7.585,0.39-10.426c0.133-2.841,0.223-4.743,0.223-4.743H154.06z"/>
	</g>
	<path fill="#FF847C" d="M102.53,7.245L86.439,35.58l-8.823-5.01c-2.19-1.245-4.645-0.779-5.888,1.411L56.666,58.504
		c-1.244,2.189-0.812,5.285,1.379,6.528l8.825,5.012L51.492,97.123c-0.45,0.793-0.51,2.104,0.283,2.554l8.783,4.988
		c0.793,0.451,2.141-0.13,2.591-0.925l51.038-89.876c0.45-0.793-0.166-1.497-0.959-1.948l-8.785-4.987
		C103.65,6.479,102.981,6.452,102.53,7.245z M62.144,60.658l13.815-24.326l7.603,4.315L69.747,64.977L62.144,60.658z"/>
</g>
</svg>
